G75*
G70*
%OFA0B0*%
%FSLAX24Y24*%
%IPPOS*%
%LPD*%
%AMOC8*
5,1,8,0,0,1.08239X$1,22.5*
%
%ADD10C,0.0000*%
%ADD11C,0.0040*%
%ADD12C,0.0080*%
%ADD13C,0.0030*%
%ADD14C,0.0200*%
%ADD15R,0.0098X0.0098*%
%ADD16R,0.0197X0.0197*%
%ADD17C,0.0060*%
%ADD18R,0.0157X0.0157*%
D10*
X000204Y000467D02*
X000204Y020152D01*
X004141Y020152D01*
X004141Y010310D01*
X004771Y010310D01*
X004771Y020152D01*
X047448Y020152D01*
X047448Y000467D01*
X000204Y000467D01*
X001543Y007160D02*
X001545Y007210D01*
X001551Y007260D01*
X001561Y007309D01*
X001575Y007357D01*
X001592Y007404D01*
X001613Y007449D01*
X001638Y007493D01*
X001666Y007534D01*
X001698Y007573D01*
X001732Y007610D01*
X001769Y007644D01*
X001809Y007674D01*
X001851Y007701D01*
X001895Y007725D01*
X001941Y007746D01*
X001988Y007762D01*
X002036Y007775D01*
X002086Y007784D01*
X002135Y007789D01*
X002186Y007790D01*
X002236Y007787D01*
X002285Y007780D01*
X002334Y007769D01*
X002382Y007754D01*
X002428Y007736D01*
X002473Y007714D01*
X002516Y007688D01*
X002557Y007659D01*
X002596Y007627D01*
X002632Y007592D01*
X002664Y007554D01*
X002694Y007514D01*
X002721Y007471D01*
X002744Y007427D01*
X002763Y007381D01*
X002779Y007333D01*
X002791Y007284D01*
X002799Y007235D01*
X002803Y007185D01*
X002803Y007135D01*
X002799Y007085D01*
X002791Y007036D01*
X002779Y006987D01*
X002763Y006939D01*
X002744Y006893D01*
X002721Y006849D01*
X002694Y006806D01*
X002664Y006766D01*
X002632Y006728D01*
X002596Y006693D01*
X002557Y006661D01*
X002516Y006632D01*
X002473Y006606D01*
X002428Y006584D01*
X002382Y006566D01*
X002334Y006551D01*
X002285Y006540D01*
X002236Y006533D01*
X002186Y006530D01*
X002135Y006531D01*
X002086Y006536D01*
X002036Y006545D01*
X001988Y006558D01*
X001941Y006574D01*
X001895Y006595D01*
X001851Y006619D01*
X001809Y006646D01*
X001769Y006676D01*
X001732Y006710D01*
X001698Y006747D01*
X001666Y006786D01*
X001638Y006827D01*
X001613Y006871D01*
X001592Y006916D01*
X001575Y006963D01*
X001561Y007011D01*
X001551Y007060D01*
X001545Y007110D01*
X001543Y007160D01*
X035795Y003617D02*
X035797Y003667D01*
X035803Y003717D01*
X035813Y003766D01*
X035827Y003814D01*
X035844Y003861D01*
X035865Y003906D01*
X035890Y003950D01*
X035918Y003991D01*
X035950Y004030D01*
X035984Y004067D01*
X036021Y004101D01*
X036061Y004131D01*
X036103Y004158D01*
X036147Y004182D01*
X036193Y004203D01*
X036240Y004219D01*
X036288Y004232D01*
X036338Y004241D01*
X036387Y004246D01*
X036438Y004247D01*
X036488Y004244D01*
X036537Y004237D01*
X036586Y004226D01*
X036634Y004211D01*
X036680Y004193D01*
X036725Y004171D01*
X036768Y004145D01*
X036809Y004116D01*
X036848Y004084D01*
X036884Y004049D01*
X036916Y004011D01*
X036946Y003971D01*
X036973Y003928D01*
X036996Y003884D01*
X037015Y003838D01*
X037031Y003790D01*
X037043Y003741D01*
X037051Y003692D01*
X037055Y003642D01*
X037055Y003592D01*
X037051Y003542D01*
X037043Y003493D01*
X037031Y003444D01*
X037015Y003396D01*
X036996Y003350D01*
X036973Y003306D01*
X036946Y003263D01*
X036916Y003223D01*
X036884Y003185D01*
X036848Y003150D01*
X036809Y003118D01*
X036768Y003089D01*
X036725Y003063D01*
X036680Y003041D01*
X036634Y003023D01*
X036586Y003008D01*
X036537Y002997D01*
X036488Y002990D01*
X036438Y002987D01*
X036387Y002988D01*
X036338Y002993D01*
X036288Y003002D01*
X036240Y003015D01*
X036193Y003031D01*
X036147Y003052D01*
X036103Y003076D01*
X036061Y003103D01*
X036021Y003133D01*
X035984Y003167D01*
X035950Y003204D01*
X035918Y003243D01*
X035890Y003284D01*
X035865Y003328D01*
X035844Y003373D01*
X035827Y003420D01*
X035813Y003468D01*
X035803Y003517D01*
X035797Y003567D01*
X035795Y003617D01*
X043669Y017003D02*
X043671Y017053D01*
X043677Y017103D01*
X043687Y017152D01*
X043701Y017200D01*
X043718Y017247D01*
X043739Y017292D01*
X043764Y017336D01*
X043792Y017377D01*
X043824Y017416D01*
X043858Y017453D01*
X043895Y017487D01*
X043935Y017517D01*
X043977Y017544D01*
X044021Y017568D01*
X044067Y017589D01*
X044114Y017605D01*
X044162Y017618D01*
X044212Y017627D01*
X044261Y017632D01*
X044312Y017633D01*
X044362Y017630D01*
X044411Y017623D01*
X044460Y017612D01*
X044508Y017597D01*
X044554Y017579D01*
X044599Y017557D01*
X044642Y017531D01*
X044683Y017502D01*
X044722Y017470D01*
X044758Y017435D01*
X044790Y017397D01*
X044820Y017357D01*
X044847Y017314D01*
X044870Y017270D01*
X044889Y017224D01*
X044905Y017176D01*
X044917Y017127D01*
X044925Y017078D01*
X044929Y017028D01*
X044929Y016978D01*
X044925Y016928D01*
X044917Y016879D01*
X044905Y016830D01*
X044889Y016782D01*
X044870Y016736D01*
X044847Y016692D01*
X044820Y016649D01*
X044790Y016609D01*
X044758Y016571D01*
X044722Y016536D01*
X044683Y016504D01*
X044642Y016475D01*
X044599Y016449D01*
X044554Y016427D01*
X044508Y016409D01*
X044460Y016394D01*
X044411Y016383D01*
X044362Y016376D01*
X044312Y016373D01*
X044261Y016374D01*
X044212Y016379D01*
X044162Y016388D01*
X044114Y016401D01*
X044067Y016417D01*
X044021Y016438D01*
X043977Y016462D01*
X043935Y016489D01*
X043895Y016519D01*
X043858Y016553D01*
X043824Y016590D01*
X043792Y016629D01*
X043764Y016670D01*
X043739Y016714D01*
X043718Y016759D01*
X043701Y016806D01*
X043687Y016854D01*
X043677Y016903D01*
X043671Y016953D01*
X043669Y017003D01*
D11*
X030801Y019327D02*
X030494Y019327D01*
X030801Y019634D01*
X030801Y019711D01*
X030724Y019788D01*
X030571Y019788D01*
X030494Y019711D01*
X030187Y019788D02*
X030187Y019327D01*
X030034Y019327D02*
X030340Y019327D01*
X030034Y019634D02*
X030187Y019788D01*
X029880Y019711D02*
X029573Y019404D01*
X029650Y019327D01*
X029803Y019327D01*
X029880Y019404D01*
X029880Y019711D01*
X029803Y019788D01*
X029650Y019788D01*
X029573Y019711D01*
X029573Y019404D01*
X029420Y019327D02*
X029113Y019327D01*
X029420Y019634D01*
X029420Y019711D01*
X029343Y019788D01*
X029189Y019788D01*
X029113Y019711D01*
X028959Y019788D02*
X028652Y019327D01*
X028499Y019327D02*
X028192Y019327D01*
X028499Y019634D01*
X028499Y019711D01*
X028422Y019788D01*
X028269Y019788D01*
X028192Y019711D01*
X027885Y019788D02*
X027885Y019327D01*
X027732Y019327D02*
X028039Y019327D01*
X027732Y019634D02*
X027885Y019788D01*
X027578Y019788D02*
X027271Y019327D01*
X027118Y019404D02*
X027118Y019481D01*
X027041Y019558D01*
X026811Y019558D01*
X026811Y019404D01*
X026888Y019327D01*
X027041Y019327D01*
X027118Y019404D01*
X026964Y019711D02*
X026811Y019558D01*
X026964Y019711D02*
X027118Y019788D01*
X026504Y019788D02*
X026350Y019634D01*
X026504Y019788D02*
X026504Y019327D01*
X026657Y019327D02*
X026350Y019327D01*
X025276Y019327D02*
X025276Y019634D01*
X025123Y019788D01*
X024969Y019634D01*
X024969Y019327D01*
X024969Y019558D02*
X025276Y019558D01*
X024355Y019634D02*
X024202Y019327D01*
X024048Y019634D01*
X023895Y019558D02*
X023895Y019481D01*
X023588Y019481D01*
X023588Y019404D02*
X023588Y019558D01*
X023665Y019634D01*
X023818Y019634D01*
X023895Y019558D01*
X023818Y019327D02*
X023665Y019327D01*
X023588Y019404D01*
X023435Y019634D02*
X023358Y019634D01*
X023204Y019481D01*
X023204Y019634D02*
X023204Y019327D01*
X022591Y019558D02*
X022284Y019558D01*
X022514Y019788D01*
X022514Y019327D01*
X021670Y019634D02*
X021593Y019634D01*
X021440Y019481D01*
X021440Y019634D02*
X021440Y019327D01*
X021286Y019481D02*
X021286Y019558D01*
X021209Y019634D01*
X021056Y019634D01*
X020979Y019558D01*
X020979Y019404D01*
X021056Y019327D01*
X021209Y019327D01*
X021286Y019481D02*
X020979Y019481D01*
X020826Y019634D02*
X020672Y019327D01*
X020519Y019634D01*
X008157Y016826D02*
X008157Y015605D01*
X007793Y016009D02*
X007793Y016422D01*
X007183Y016422D02*
X007183Y016009D01*
X006917Y015684D02*
X006819Y015782D01*
X006819Y016826D01*
X006819Y015782D02*
X006819Y015605D01*
X006907Y015605D01*
X026870Y002359D02*
X027024Y002513D01*
X027331Y002513D01*
X027101Y002513D02*
X027101Y002206D01*
X027024Y002206D02*
X026870Y002359D01*
X027024Y002206D02*
X027331Y002206D01*
X029770Y002283D02*
X029847Y002206D01*
X030154Y002206D01*
X030231Y002283D01*
X030231Y002436D01*
X030154Y002513D01*
X029847Y002513D02*
X029770Y002436D01*
X029770Y002283D01*
X042818Y001859D02*
X042972Y002013D01*
X043279Y002013D01*
X043049Y002013D02*
X043049Y001706D01*
X042972Y001706D02*
X042818Y001859D01*
X042972Y001706D02*
X043279Y001706D01*
X045318Y001783D02*
X045395Y001706D01*
X045702Y001706D01*
X045779Y001783D01*
X045779Y001936D01*
X045702Y002013D01*
X045395Y002013D02*
X045318Y001936D01*
X045318Y001783D01*
X045395Y002956D02*
X045702Y002956D01*
X045779Y003033D01*
X045779Y003186D01*
X045702Y003263D01*
X045395Y003263D02*
X045318Y003186D01*
X045318Y003033D01*
X045395Y002956D01*
X043279Y003033D02*
X043279Y003186D01*
X043202Y003263D01*
X042895Y003263D02*
X042818Y003186D01*
X042818Y003033D01*
X042895Y002956D01*
X043202Y002956D01*
X043279Y003033D01*
D12*
X035756Y003617D02*
X035758Y003668D01*
X035764Y003719D01*
X035774Y003769D01*
X035787Y003819D01*
X035805Y003867D01*
X035825Y003914D01*
X035850Y003959D01*
X035878Y004002D01*
X035909Y004043D01*
X035943Y004081D01*
X035980Y004116D01*
X036019Y004149D01*
X036061Y004179D01*
X036105Y004205D01*
X036151Y004227D01*
X036199Y004247D01*
X036248Y004262D01*
X036298Y004274D01*
X036348Y004282D01*
X036399Y004286D01*
X036451Y004286D01*
X036502Y004282D01*
X036552Y004274D01*
X036602Y004262D01*
X036651Y004247D01*
X036699Y004227D01*
X036745Y004205D01*
X036789Y004179D01*
X036831Y004149D01*
X036870Y004116D01*
X036907Y004081D01*
X036941Y004043D01*
X036972Y004002D01*
X037000Y003959D01*
X037025Y003914D01*
X037045Y003867D01*
X037063Y003819D01*
X037076Y003769D01*
X037086Y003719D01*
X037092Y003668D01*
X037094Y003617D01*
X037092Y003566D01*
X037086Y003515D01*
X037076Y003465D01*
X037063Y003415D01*
X037045Y003367D01*
X037025Y003320D01*
X037000Y003275D01*
X036972Y003232D01*
X036941Y003191D01*
X036907Y003153D01*
X036870Y003118D01*
X036831Y003085D01*
X036789Y003055D01*
X036745Y003029D01*
X036699Y003007D01*
X036651Y002987D01*
X036602Y002972D01*
X036552Y002960D01*
X036502Y002952D01*
X036451Y002948D01*
X036399Y002948D01*
X036348Y002952D01*
X036298Y002960D01*
X036248Y002972D01*
X036199Y002987D01*
X036151Y003007D01*
X036105Y003029D01*
X036061Y003055D01*
X036019Y003085D01*
X035980Y003118D01*
X035943Y003153D01*
X035909Y003191D01*
X035878Y003232D01*
X035850Y003275D01*
X035825Y003320D01*
X035805Y003367D01*
X035787Y003415D01*
X035774Y003465D01*
X035764Y003515D01*
X035758Y003566D01*
X035756Y003617D01*
X043630Y017003D02*
X043632Y017054D01*
X043638Y017105D01*
X043648Y017155D01*
X043661Y017205D01*
X043679Y017253D01*
X043699Y017300D01*
X043724Y017345D01*
X043752Y017388D01*
X043783Y017429D01*
X043817Y017467D01*
X043854Y017502D01*
X043893Y017535D01*
X043935Y017565D01*
X043979Y017591D01*
X044025Y017613D01*
X044073Y017633D01*
X044122Y017648D01*
X044172Y017660D01*
X044222Y017668D01*
X044273Y017672D01*
X044325Y017672D01*
X044376Y017668D01*
X044426Y017660D01*
X044476Y017648D01*
X044525Y017633D01*
X044573Y017613D01*
X044619Y017591D01*
X044663Y017565D01*
X044705Y017535D01*
X044744Y017502D01*
X044781Y017467D01*
X044815Y017429D01*
X044846Y017388D01*
X044874Y017345D01*
X044899Y017300D01*
X044919Y017253D01*
X044937Y017205D01*
X044950Y017155D01*
X044960Y017105D01*
X044966Y017054D01*
X044968Y017003D01*
X044966Y016952D01*
X044960Y016901D01*
X044950Y016851D01*
X044937Y016801D01*
X044919Y016753D01*
X044899Y016706D01*
X044874Y016661D01*
X044846Y016618D01*
X044815Y016577D01*
X044781Y016539D01*
X044744Y016504D01*
X044705Y016471D01*
X044663Y016441D01*
X044619Y016415D01*
X044573Y016393D01*
X044525Y016373D01*
X044476Y016358D01*
X044426Y016346D01*
X044376Y016338D01*
X044325Y016334D01*
X044273Y016334D01*
X044222Y016338D01*
X044172Y016346D01*
X044122Y016358D01*
X044073Y016373D01*
X044025Y016393D01*
X043979Y016415D01*
X043935Y016441D01*
X043893Y016471D01*
X043854Y016504D01*
X043817Y016539D01*
X043783Y016577D01*
X043752Y016618D01*
X043724Y016661D01*
X043699Y016706D01*
X043679Y016753D01*
X043661Y016801D01*
X043648Y016851D01*
X043638Y016901D01*
X043632Y016952D01*
X043630Y017003D01*
X004148Y019468D02*
X004148Y019928D01*
X004148Y011388D02*
X004148Y010928D01*
X001504Y007160D02*
X001506Y007211D01*
X001512Y007262D01*
X001522Y007312D01*
X001535Y007362D01*
X001553Y007410D01*
X001573Y007457D01*
X001598Y007502D01*
X001626Y007545D01*
X001657Y007586D01*
X001691Y007624D01*
X001728Y007659D01*
X001767Y007692D01*
X001809Y007722D01*
X001853Y007748D01*
X001899Y007770D01*
X001947Y007790D01*
X001996Y007805D01*
X002046Y007817D01*
X002096Y007825D01*
X002147Y007829D01*
X002199Y007829D01*
X002250Y007825D01*
X002300Y007817D01*
X002350Y007805D01*
X002399Y007790D01*
X002447Y007770D01*
X002493Y007748D01*
X002537Y007722D01*
X002579Y007692D01*
X002618Y007659D01*
X002655Y007624D01*
X002689Y007586D01*
X002720Y007545D01*
X002748Y007502D01*
X002773Y007457D01*
X002793Y007410D01*
X002811Y007362D01*
X002824Y007312D01*
X002834Y007262D01*
X002840Y007211D01*
X002842Y007160D01*
X002840Y007109D01*
X002834Y007058D01*
X002824Y007008D01*
X002811Y006958D01*
X002793Y006910D01*
X002773Y006863D01*
X002748Y006818D01*
X002720Y006775D01*
X002689Y006734D01*
X002655Y006696D01*
X002618Y006661D01*
X002579Y006628D01*
X002537Y006598D01*
X002493Y006572D01*
X002447Y006550D01*
X002399Y006530D01*
X002350Y006515D01*
X002300Y006503D01*
X002250Y006495D01*
X002199Y006491D01*
X002147Y006491D01*
X002096Y006495D01*
X002046Y006503D01*
X001996Y006515D01*
X001947Y006530D01*
X001899Y006550D01*
X001853Y006572D01*
X001809Y006598D01*
X001767Y006628D01*
X001728Y006661D01*
X001691Y006696D01*
X001657Y006734D01*
X001626Y006775D01*
X001598Y006818D01*
X001573Y006863D01*
X001553Y006910D01*
X001535Y006958D01*
X001522Y007008D01*
X001512Y007058D01*
X001506Y007109D01*
X001504Y007160D01*
D13*
X002227Y011723D02*
X002324Y011723D01*
X002372Y011771D01*
X002372Y011868D01*
X002275Y011868D01*
X002179Y011965D02*
X002179Y011771D01*
X002227Y011723D01*
X002473Y011723D02*
X002473Y012013D01*
X002667Y011723D01*
X002667Y012013D01*
X002768Y012013D02*
X002913Y012013D01*
X002962Y011965D01*
X002962Y011771D01*
X002913Y011723D01*
X002768Y011723D01*
X002768Y012013D01*
X002372Y011965D02*
X002324Y012013D01*
X002227Y012013D01*
X002179Y011965D01*
X002179Y012723D02*
X002372Y012723D01*
X002473Y012723D02*
X002473Y013013D01*
X002667Y012723D01*
X002667Y013013D01*
X002768Y012965D02*
X002816Y013013D01*
X002913Y013013D01*
X002962Y012965D01*
X002913Y012868D02*
X002962Y012820D01*
X002962Y012771D01*
X002913Y012723D01*
X002816Y012723D01*
X002768Y012771D01*
X002816Y012868D02*
X002913Y012868D01*
X002816Y012868D02*
X002768Y012917D01*
X002768Y012965D01*
X002372Y013013D02*
X002179Y013013D01*
X002179Y012723D01*
X002078Y012771D02*
X002029Y012723D01*
X001932Y012723D01*
X001884Y012771D01*
X001932Y012868D02*
X001884Y012917D01*
X001884Y012965D01*
X001932Y013013D01*
X002029Y013013D01*
X002078Y012965D01*
X002029Y012868D02*
X002078Y012820D01*
X002078Y012771D01*
X002029Y012868D02*
X001932Y012868D01*
X001783Y012675D02*
X001589Y012675D01*
X001440Y012820D02*
X001295Y012820D01*
X001295Y012723D02*
X001295Y013013D01*
X001440Y013013D01*
X001488Y012965D01*
X001488Y012868D01*
X001440Y012820D01*
X002179Y012868D02*
X002275Y012868D01*
X002277Y013723D02*
X002277Y014013D01*
X002374Y013917D01*
X002470Y014013D01*
X002470Y013723D01*
X002572Y013723D02*
X002668Y013723D01*
X002620Y013723D02*
X002620Y014013D01*
X002572Y014013D02*
X002668Y014013D01*
X002768Y014013D02*
X002962Y014013D01*
X002865Y014013D02*
X002865Y013723D01*
X002176Y013723D02*
X001982Y013723D01*
X001982Y014013D01*
X002176Y014013D01*
X002079Y013868D02*
X001982Y013868D01*
X001881Y013675D02*
X001688Y013675D01*
X001538Y013820D02*
X001393Y013820D01*
X001393Y013723D02*
X001393Y014013D01*
X001538Y014013D01*
X001586Y013965D01*
X001586Y013868D01*
X001538Y013820D01*
X001589Y014675D02*
X001783Y014675D01*
X001884Y014771D02*
X001932Y014723D01*
X002029Y014723D01*
X002078Y014771D01*
X002078Y014820D01*
X002029Y014868D01*
X001932Y014868D01*
X001884Y014917D01*
X001884Y014965D01*
X001932Y015013D01*
X002029Y015013D01*
X002078Y014965D01*
X002179Y015013D02*
X002179Y014723D01*
X002372Y014723D01*
X002473Y014723D02*
X002473Y015013D01*
X002667Y014723D01*
X002667Y015013D01*
X002768Y014965D02*
X002768Y014917D01*
X002816Y014868D01*
X002913Y014868D01*
X002962Y014820D01*
X002962Y014771D01*
X002913Y014723D01*
X002816Y014723D01*
X002768Y014771D01*
X002768Y014965D02*
X002816Y015013D01*
X002913Y015013D01*
X002962Y014965D01*
X002372Y015013D02*
X002179Y015013D01*
X002179Y014868D02*
X002275Y014868D01*
X001488Y014868D02*
X001440Y014820D01*
X001295Y014820D01*
X001392Y014820D02*
X001488Y014723D01*
X001488Y014868D02*
X001488Y014965D01*
X001440Y015013D01*
X001295Y015013D01*
X001295Y014723D01*
X001195Y014723D02*
X001098Y014723D01*
X001147Y014723D02*
X001147Y015013D01*
X001195Y015013D02*
X001098Y015013D01*
X001072Y015508D02*
X000975Y015508D01*
X000927Y015556D01*
X000927Y015604D01*
X000975Y015653D01*
X001072Y015653D01*
X001120Y015604D01*
X001120Y015556D01*
X001072Y015508D01*
X001072Y015653D02*
X001120Y015701D01*
X001120Y015749D01*
X001072Y015798D01*
X000975Y015798D01*
X000927Y015749D01*
X000927Y015701D01*
X000975Y015653D01*
X000826Y015508D02*
X000632Y015508D01*
X000729Y015508D02*
X000729Y015798D01*
X000632Y015701D01*
X000726Y015908D02*
X000629Y016004D01*
X000677Y016004D02*
X000532Y016004D01*
X000532Y015908D02*
X000532Y016198D01*
X000677Y016198D01*
X000726Y016149D01*
X000726Y016053D01*
X000677Y016004D01*
X000827Y015908D02*
X001020Y016101D01*
X001020Y016149D01*
X000972Y016198D01*
X000875Y016198D01*
X000827Y016149D01*
X000827Y015908D02*
X001020Y015908D01*
X001122Y015956D02*
X001170Y015908D01*
X001267Y015908D01*
X001315Y015956D01*
X001315Y016004D01*
X001267Y016053D01*
X001218Y016053D01*
X001197Y016013D02*
X001293Y016013D01*
X001267Y016053D02*
X001315Y016101D01*
X001315Y016149D01*
X001267Y016198D01*
X001170Y016198D01*
X001122Y016149D01*
X001245Y016013D02*
X001245Y015723D01*
X001197Y015723D02*
X001293Y015723D01*
X001393Y015723D02*
X001393Y016013D01*
X001538Y016013D01*
X001586Y015965D01*
X001586Y015868D01*
X001538Y015820D01*
X001393Y015820D01*
X001490Y015820D02*
X001586Y015723D01*
X001688Y015675D02*
X001881Y015675D01*
X001982Y015723D02*
X001982Y016013D01*
X002176Y016013D01*
X002277Y016013D02*
X002374Y015917D01*
X002470Y016013D01*
X002470Y015723D01*
X002572Y015723D02*
X002668Y015723D01*
X002620Y015723D02*
X002620Y016013D01*
X002572Y016013D02*
X002668Y016013D01*
X002768Y016013D02*
X002962Y016013D01*
X002865Y016013D02*
X002865Y015723D01*
X002277Y015723D02*
X002277Y016013D01*
X002079Y015868D02*
X001982Y015868D01*
X001982Y015723D02*
X002176Y015723D01*
X001315Y016494D02*
X001122Y016494D01*
X001315Y016688D01*
X001315Y016736D01*
X001267Y016784D01*
X001170Y016784D01*
X001122Y016736D01*
X001169Y016894D02*
X001363Y017088D01*
X001363Y017136D01*
X001314Y017184D01*
X001218Y017184D01*
X001169Y017136D01*
X001068Y017136D02*
X001020Y017184D01*
X000923Y017184D01*
X000875Y017136D01*
X000773Y017136D02*
X000773Y017039D01*
X000725Y016991D01*
X000580Y016991D01*
X000677Y016991D02*
X000773Y016894D01*
X000875Y016894D02*
X001068Y017088D01*
X001068Y017136D01*
X001068Y016894D02*
X000875Y016894D01*
X000825Y016784D02*
X000728Y016784D01*
X000680Y016736D01*
X000825Y016784D02*
X000873Y016736D01*
X000873Y016688D01*
X000680Y016494D01*
X000873Y016494D01*
X000975Y016494D02*
X001023Y016494D01*
X001023Y016543D01*
X000975Y016543D01*
X000975Y016494D01*
X001884Y016723D02*
X002029Y016723D01*
X002078Y016771D01*
X002078Y016820D01*
X002029Y016868D01*
X001884Y016868D01*
X001884Y016723D02*
X001884Y017013D01*
X002029Y017013D01*
X002078Y016965D01*
X002078Y016917D01*
X002029Y016868D01*
X002179Y016723D02*
X002372Y016723D01*
X002473Y016771D02*
X002473Y017013D01*
X002667Y017013D02*
X002667Y016771D01*
X002618Y016723D01*
X002522Y016723D01*
X002473Y016771D01*
X002179Y016723D02*
X002179Y017013D01*
X002768Y017013D02*
X002768Y016723D01*
X002962Y016723D01*
X002865Y016868D02*
X002768Y016868D01*
X002768Y017013D02*
X002962Y017013D01*
X002962Y017723D02*
X002962Y018013D01*
X002768Y018013D02*
X002768Y017723D01*
X002667Y017723D02*
X002473Y017723D01*
X002473Y018013D01*
X002667Y018013D01*
X002768Y018013D02*
X002962Y017723D01*
X002570Y017868D02*
X002473Y017868D01*
X002372Y017723D02*
X002179Y017723D01*
X002179Y018013D01*
X002372Y018013D01*
X002275Y017868D02*
X002179Y017868D01*
X002078Y017868D02*
X002029Y017820D01*
X001884Y017820D01*
X001981Y017820D02*
X002078Y017723D01*
X002078Y017868D02*
X002078Y017965D01*
X002029Y018013D01*
X001884Y018013D01*
X001884Y017723D01*
X001783Y017771D02*
X001783Y017868D01*
X001686Y017868D01*
X001589Y017771D02*
X001638Y017723D01*
X001735Y017723D01*
X001783Y017771D01*
X001589Y017771D02*
X001589Y017965D01*
X001638Y018013D01*
X001735Y018013D01*
X001783Y017965D01*
X001364Y017895D02*
X001171Y017895D01*
X001268Y017895D02*
X001268Y018186D01*
X001171Y018089D01*
X001070Y018089D02*
X001070Y018137D01*
X001021Y018186D01*
X000925Y018186D01*
X000876Y018137D01*
X000775Y018137D02*
X000775Y018040D01*
X000727Y017992D01*
X000581Y017992D01*
X000581Y017895D02*
X000581Y018186D01*
X000727Y018186D01*
X000775Y018137D01*
X000678Y017992D02*
X000775Y017895D01*
X000876Y017895D02*
X001070Y018089D01*
X001070Y017895D02*
X000876Y017895D01*
X000827Y017786D02*
X000730Y017786D01*
X000681Y017737D01*
X000827Y017786D02*
X000875Y017737D01*
X000875Y017689D01*
X000681Y017495D01*
X000875Y017495D01*
X000976Y017495D02*
X001025Y017495D01*
X001025Y017544D01*
X000976Y017544D01*
X000976Y017495D01*
X001123Y017495D02*
X001317Y017689D01*
X001317Y017737D01*
X001269Y017786D01*
X001172Y017786D01*
X001123Y017737D01*
X001123Y017495D02*
X001317Y017495D01*
X000773Y017136D02*
X000725Y017184D01*
X000580Y017184D01*
X000580Y016894D01*
X001169Y016894D02*
X001363Y016894D01*
X001322Y018496D02*
X001225Y018496D01*
X001177Y018545D01*
X001177Y018593D01*
X001225Y018642D01*
X001322Y018642D01*
X001370Y018593D01*
X001370Y018545D01*
X001322Y018496D01*
X001322Y018642D02*
X001370Y018690D01*
X001370Y018738D01*
X001322Y018787D01*
X001225Y018787D01*
X001177Y018738D01*
X001177Y018690D01*
X001225Y018642D01*
X001076Y018496D02*
X000882Y018496D01*
X000979Y018496D02*
X000979Y018787D01*
X000882Y018690D01*
X000883Y018996D02*
X001077Y019190D01*
X001077Y019238D01*
X001028Y019287D01*
X000932Y019287D01*
X000883Y019238D01*
X000782Y019238D02*
X000782Y019142D01*
X000734Y019093D01*
X000588Y019093D01*
X000588Y018996D02*
X000588Y019287D01*
X000734Y019287D01*
X000782Y019238D01*
X000685Y019093D02*
X000782Y018996D01*
X000883Y018996D02*
X001077Y018996D01*
X001178Y019045D02*
X001371Y019238D01*
X001371Y019045D01*
X001323Y018996D01*
X001226Y018996D01*
X001178Y019045D01*
X001178Y019238D01*
X001226Y019287D01*
X001323Y019287D01*
X001371Y019238D01*
X002179Y019013D02*
X002179Y018723D01*
X002179Y018820D02*
X002324Y018820D01*
X002372Y018868D01*
X002372Y018965D01*
X002324Y019013D01*
X002179Y019013D01*
X002275Y018820D02*
X002372Y018723D01*
X002473Y018723D02*
X002473Y019013D01*
X002667Y019013D01*
X002768Y019013D02*
X002913Y019013D01*
X002962Y018965D01*
X002962Y018771D01*
X002913Y018723D01*
X002768Y018723D01*
X002768Y019013D01*
X002570Y018868D02*
X002473Y018868D01*
X002473Y018723D02*
X002667Y018723D01*
X006298Y018523D02*
X006298Y018233D01*
X006298Y018330D02*
X006444Y018330D01*
X006492Y018378D01*
X006492Y018475D01*
X006444Y018523D01*
X006298Y018523D01*
X006395Y018330D02*
X006492Y018233D01*
X006593Y018281D02*
X006642Y018233D01*
X006738Y018233D01*
X006787Y018281D01*
X006787Y018378D01*
X006690Y018378D01*
X006787Y018475D02*
X006738Y018523D01*
X006642Y018523D01*
X006593Y018475D01*
X006593Y018281D01*
X006888Y018233D02*
X007033Y018233D01*
X007081Y018281D01*
X007081Y018330D01*
X007033Y018378D01*
X006888Y018378D01*
X007033Y018378D02*
X007081Y018426D01*
X007081Y018475D01*
X007033Y018523D01*
X006888Y018523D01*
X006888Y018233D01*
X007182Y018184D02*
X007376Y018184D01*
X007477Y018233D02*
X007671Y018233D01*
X007772Y018233D02*
X007965Y018233D01*
X008066Y018233D02*
X008212Y018233D01*
X008260Y018281D01*
X008260Y018475D01*
X008212Y018523D01*
X008066Y018523D01*
X008066Y018233D01*
X007868Y018378D02*
X007772Y018378D01*
X007772Y018523D02*
X007772Y018233D01*
X007477Y018233D02*
X007477Y018523D01*
X007772Y018523D02*
X007965Y018523D01*
X008361Y018184D02*
X008555Y018184D01*
X008656Y018233D02*
X008656Y018523D01*
X008801Y018523D01*
X008849Y018475D01*
X008849Y018378D01*
X008801Y018330D01*
X008656Y018330D01*
X008752Y018330D02*
X008849Y018233D01*
X027258Y003731D02*
X027354Y003731D01*
X027306Y003731D02*
X027306Y003441D01*
X027258Y003441D02*
X027354Y003441D01*
X027454Y003441D02*
X027454Y003731D01*
X027599Y003731D01*
X027647Y003683D01*
X027647Y003586D01*
X027599Y003538D01*
X027454Y003538D01*
X027551Y003538D02*
X027647Y003441D01*
X027749Y003393D02*
X027942Y003393D01*
X028140Y003441D02*
X028140Y003731D01*
X028043Y003731D02*
X028237Y003731D01*
X028338Y003731D02*
X028483Y003731D01*
X028531Y003683D01*
X028531Y003586D01*
X028483Y003538D01*
X028338Y003538D01*
X028435Y003538D02*
X028531Y003441D01*
X028633Y003441D02*
X028633Y003634D01*
X028729Y003731D01*
X028826Y003634D01*
X028826Y003441D01*
X028927Y003441D02*
X028927Y003731D01*
X029121Y003441D01*
X029121Y003731D01*
X029222Y003683D02*
X029222Y003634D01*
X029270Y003586D01*
X029367Y003586D01*
X029415Y003538D01*
X029415Y003489D01*
X029367Y003441D01*
X029270Y003441D01*
X029222Y003489D01*
X029222Y003683D02*
X029270Y003731D01*
X029367Y003731D01*
X029415Y003683D01*
X029811Y003731D02*
X029956Y003731D01*
X030005Y003683D01*
X030005Y003586D01*
X029956Y003538D01*
X029811Y003538D01*
X029908Y003538D02*
X030005Y003441D01*
X029811Y003441D02*
X029811Y003731D01*
X029710Y003393D02*
X029517Y003393D01*
X028826Y003586D02*
X028633Y003586D01*
X028338Y003441D02*
X028338Y003731D01*
X042955Y004031D02*
X043052Y004031D01*
X043003Y004031D02*
X043003Y004321D01*
X042955Y004321D02*
X043052Y004321D01*
X043151Y004321D02*
X043296Y004321D01*
X043345Y004273D01*
X043345Y004176D01*
X043296Y004128D01*
X043151Y004128D01*
X043248Y004128D02*
X043345Y004031D01*
X043446Y003983D02*
X043639Y003983D01*
X043741Y004031D02*
X043934Y004031D01*
X044035Y004031D02*
X044229Y004031D01*
X044330Y004031D02*
X044475Y004031D01*
X044523Y004079D01*
X044523Y004273D01*
X044475Y004321D01*
X044330Y004321D01*
X044330Y004031D01*
X044132Y004176D02*
X044035Y004176D01*
X044035Y004321D02*
X044035Y004031D01*
X043741Y004031D02*
X043741Y004321D01*
X044035Y004321D02*
X044229Y004321D01*
X044625Y003983D02*
X044818Y003983D01*
X044919Y004031D02*
X044919Y004321D01*
X045064Y004321D01*
X045113Y004273D01*
X045113Y004176D01*
X045064Y004128D01*
X044919Y004128D01*
X045016Y004128D02*
X045113Y004031D01*
X043151Y004031D02*
X043151Y004321D01*
D14*
X001334Y004230D02*
X001201Y004097D01*
X000934Y004097D01*
X000800Y004230D01*
X000800Y004630D01*
X000800Y004363D02*
X000533Y004097D01*
X001334Y004230D02*
X001334Y004630D01*
X000533Y004630D01*
X000533Y003710D02*
X000533Y003443D01*
X000533Y003576D02*
X001334Y003576D01*
X001334Y003443D02*
X001334Y003710D01*
X001201Y003096D02*
X000667Y003096D01*
X000533Y002962D01*
X000533Y002695D01*
X000667Y002562D01*
X000934Y002562D01*
X000934Y002829D01*
X001201Y003096D02*
X001334Y002962D01*
X001334Y002695D01*
X001201Y002562D01*
X001334Y002175D02*
X000533Y002175D01*
X000934Y002175D02*
X000934Y001641D01*
X001334Y001641D02*
X000533Y001641D01*
X001334Y001254D02*
X001334Y000720D01*
X001334Y000987D02*
X000533Y000987D01*
D15*
X007586Y016097D03*
X007389Y016215D03*
X007586Y016334D03*
D16*
X028551Y002436D03*
D17*
X035075Y003617D02*
X035077Y003690D01*
X035083Y003763D01*
X035093Y003835D01*
X035107Y003907D01*
X035124Y003978D01*
X035146Y004048D01*
X035171Y004117D01*
X035200Y004184D01*
X035232Y004249D01*
X035268Y004313D01*
X035308Y004375D01*
X035350Y004434D01*
X035396Y004491D01*
X035445Y004545D01*
X035497Y004597D01*
X035551Y004646D01*
X035608Y004692D01*
X035667Y004734D01*
X035729Y004774D01*
X035793Y004810D01*
X035858Y004842D01*
X035925Y004871D01*
X035994Y004896D01*
X036064Y004918D01*
X036135Y004935D01*
X036207Y004949D01*
X036279Y004959D01*
X036352Y004965D01*
X036425Y004967D01*
X036498Y004965D01*
X036571Y004959D01*
X036643Y004949D01*
X036715Y004935D01*
X036786Y004918D01*
X036856Y004896D01*
X036925Y004871D01*
X036992Y004842D01*
X037057Y004810D01*
X037121Y004774D01*
X037183Y004734D01*
X037242Y004692D01*
X037299Y004646D01*
X037353Y004597D01*
X037405Y004545D01*
X037454Y004491D01*
X037500Y004434D01*
X037542Y004375D01*
X037582Y004313D01*
X037618Y004249D01*
X037650Y004184D01*
X037679Y004117D01*
X037704Y004048D01*
X037726Y003978D01*
X037743Y003907D01*
X037757Y003835D01*
X037767Y003763D01*
X037773Y003690D01*
X037775Y003617D01*
X037773Y003544D01*
X037767Y003471D01*
X037757Y003399D01*
X037743Y003327D01*
X037726Y003256D01*
X037704Y003186D01*
X037679Y003117D01*
X037650Y003050D01*
X037618Y002985D01*
X037582Y002921D01*
X037542Y002859D01*
X037500Y002800D01*
X037454Y002743D01*
X037405Y002689D01*
X037353Y002637D01*
X037299Y002588D01*
X037242Y002542D01*
X037183Y002500D01*
X037121Y002460D01*
X037057Y002424D01*
X036992Y002392D01*
X036925Y002363D01*
X036856Y002338D01*
X036786Y002316D01*
X036715Y002299D01*
X036643Y002285D01*
X036571Y002275D01*
X036498Y002269D01*
X036425Y002267D01*
X036352Y002269D01*
X036279Y002275D01*
X036207Y002285D01*
X036135Y002299D01*
X036064Y002316D01*
X035994Y002338D01*
X035925Y002363D01*
X035858Y002392D01*
X035793Y002424D01*
X035729Y002460D01*
X035667Y002500D01*
X035608Y002542D01*
X035551Y002588D01*
X035497Y002637D01*
X035445Y002689D01*
X035396Y002743D01*
X035350Y002800D01*
X035308Y002859D01*
X035268Y002921D01*
X035232Y002985D01*
X035200Y003050D01*
X035171Y003117D01*
X035146Y003186D01*
X035124Y003256D01*
X035107Y003327D01*
X035093Y003399D01*
X035083Y003471D01*
X035077Y003544D01*
X035075Y003617D01*
X042949Y017003D02*
X042951Y017076D01*
X042957Y017149D01*
X042967Y017221D01*
X042981Y017293D01*
X042998Y017364D01*
X043020Y017434D01*
X043045Y017503D01*
X043074Y017570D01*
X043106Y017635D01*
X043142Y017699D01*
X043182Y017761D01*
X043224Y017820D01*
X043270Y017877D01*
X043319Y017931D01*
X043371Y017983D01*
X043425Y018032D01*
X043482Y018078D01*
X043541Y018120D01*
X043603Y018160D01*
X043667Y018196D01*
X043732Y018228D01*
X043799Y018257D01*
X043868Y018282D01*
X043938Y018304D01*
X044009Y018321D01*
X044081Y018335D01*
X044153Y018345D01*
X044226Y018351D01*
X044299Y018353D01*
X044372Y018351D01*
X044445Y018345D01*
X044517Y018335D01*
X044589Y018321D01*
X044660Y018304D01*
X044730Y018282D01*
X044799Y018257D01*
X044866Y018228D01*
X044931Y018196D01*
X044995Y018160D01*
X045057Y018120D01*
X045116Y018078D01*
X045173Y018032D01*
X045227Y017983D01*
X045279Y017931D01*
X045328Y017877D01*
X045374Y017820D01*
X045416Y017761D01*
X045456Y017699D01*
X045492Y017635D01*
X045524Y017570D01*
X045553Y017503D01*
X045578Y017434D01*
X045600Y017364D01*
X045617Y017293D01*
X045631Y017221D01*
X045641Y017149D01*
X045647Y017076D01*
X045649Y017003D01*
X045647Y016930D01*
X045641Y016857D01*
X045631Y016785D01*
X045617Y016713D01*
X045600Y016642D01*
X045578Y016572D01*
X045553Y016503D01*
X045524Y016436D01*
X045492Y016371D01*
X045456Y016307D01*
X045416Y016245D01*
X045374Y016186D01*
X045328Y016129D01*
X045279Y016075D01*
X045227Y016023D01*
X045173Y015974D01*
X045116Y015928D01*
X045057Y015886D01*
X044995Y015846D01*
X044931Y015810D01*
X044866Y015778D01*
X044799Y015749D01*
X044730Y015724D01*
X044660Y015702D01*
X044589Y015685D01*
X044517Y015671D01*
X044445Y015661D01*
X044372Y015655D01*
X044299Y015653D01*
X044226Y015655D01*
X044153Y015661D01*
X044081Y015671D01*
X044009Y015685D01*
X043938Y015702D01*
X043868Y015724D01*
X043799Y015749D01*
X043732Y015778D01*
X043667Y015810D01*
X043603Y015846D01*
X043541Y015886D01*
X043482Y015928D01*
X043425Y015974D01*
X043371Y016023D01*
X043319Y016075D01*
X043270Y016129D01*
X043224Y016186D01*
X043182Y016245D01*
X043142Y016307D01*
X043106Y016371D01*
X043074Y016436D01*
X043045Y016503D01*
X043020Y016572D01*
X042998Y016642D01*
X042981Y016713D01*
X042967Y016785D01*
X042957Y016857D01*
X042951Y016930D01*
X042949Y017003D01*
X000823Y007160D02*
X000825Y007233D01*
X000831Y007306D01*
X000841Y007378D01*
X000855Y007450D01*
X000872Y007521D01*
X000894Y007591D01*
X000919Y007660D01*
X000948Y007727D01*
X000980Y007792D01*
X001016Y007856D01*
X001056Y007918D01*
X001098Y007977D01*
X001144Y008034D01*
X001193Y008088D01*
X001245Y008140D01*
X001299Y008189D01*
X001356Y008235D01*
X001415Y008277D01*
X001477Y008317D01*
X001541Y008353D01*
X001606Y008385D01*
X001673Y008414D01*
X001742Y008439D01*
X001812Y008461D01*
X001883Y008478D01*
X001955Y008492D01*
X002027Y008502D01*
X002100Y008508D01*
X002173Y008510D01*
X002246Y008508D01*
X002319Y008502D01*
X002391Y008492D01*
X002463Y008478D01*
X002534Y008461D01*
X002604Y008439D01*
X002673Y008414D01*
X002740Y008385D01*
X002805Y008353D01*
X002869Y008317D01*
X002931Y008277D01*
X002990Y008235D01*
X003047Y008189D01*
X003101Y008140D01*
X003153Y008088D01*
X003202Y008034D01*
X003248Y007977D01*
X003290Y007918D01*
X003330Y007856D01*
X003366Y007792D01*
X003398Y007727D01*
X003427Y007660D01*
X003452Y007591D01*
X003474Y007521D01*
X003491Y007450D01*
X003505Y007378D01*
X003515Y007306D01*
X003521Y007233D01*
X003523Y007160D01*
X003521Y007087D01*
X003515Y007014D01*
X003505Y006942D01*
X003491Y006870D01*
X003474Y006799D01*
X003452Y006729D01*
X003427Y006660D01*
X003398Y006593D01*
X003366Y006528D01*
X003330Y006464D01*
X003290Y006402D01*
X003248Y006343D01*
X003202Y006286D01*
X003153Y006232D01*
X003101Y006180D01*
X003047Y006131D01*
X002990Y006085D01*
X002931Y006043D01*
X002869Y006003D01*
X002805Y005967D01*
X002740Y005935D01*
X002673Y005906D01*
X002604Y005881D01*
X002534Y005859D01*
X002463Y005842D01*
X002391Y005828D01*
X002319Y005818D01*
X002246Y005812D01*
X002173Y005810D01*
X002100Y005812D01*
X002027Y005818D01*
X001955Y005828D01*
X001883Y005842D01*
X001812Y005859D01*
X001742Y005881D01*
X001673Y005906D01*
X001606Y005935D01*
X001541Y005967D01*
X001477Y006003D01*
X001415Y006043D01*
X001356Y006085D01*
X001299Y006131D01*
X001245Y006180D01*
X001193Y006232D01*
X001144Y006286D01*
X001098Y006343D01*
X001056Y006402D01*
X001016Y006464D01*
X000980Y006528D01*
X000948Y006593D01*
X000919Y006660D01*
X000894Y006729D01*
X000872Y006799D01*
X000855Y006870D01*
X000841Y006942D01*
X000831Y007014D01*
X000825Y007087D01*
X000823Y007160D01*
D18*
X044299Y002436D03*
M02*
