G75*
G70*
%OFA0B0*%
%FSLAX24Y24*%
%IPPOS*%
%LPD*%
%AMOC8*
5,1,8,0,0,1.08239X$1,22.5*
%
%ADD10C,0.0000*%
%ADD11C,0.0356*%
%ADD12C,0.0160*%
D10*
X000204Y000467D02*
X000204Y020152D01*
X004141Y020152D01*
X004141Y010310D01*
X004771Y010310D01*
X004771Y020152D01*
X047448Y020152D01*
X047448Y000467D01*
X000204Y000467D01*
X001543Y007160D02*
X001545Y007210D01*
X001551Y007260D01*
X001561Y007309D01*
X001575Y007357D01*
X001592Y007404D01*
X001613Y007449D01*
X001638Y007493D01*
X001666Y007534D01*
X001698Y007573D01*
X001732Y007610D01*
X001769Y007644D01*
X001809Y007674D01*
X001851Y007701D01*
X001895Y007725D01*
X001941Y007746D01*
X001988Y007762D01*
X002036Y007775D01*
X002086Y007784D01*
X002135Y007789D01*
X002186Y007790D01*
X002236Y007787D01*
X002285Y007780D01*
X002334Y007769D01*
X002382Y007754D01*
X002428Y007736D01*
X002473Y007714D01*
X002516Y007688D01*
X002557Y007659D01*
X002596Y007627D01*
X002632Y007592D01*
X002664Y007554D01*
X002694Y007514D01*
X002721Y007471D01*
X002744Y007427D01*
X002763Y007381D01*
X002779Y007333D01*
X002791Y007284D01*
X002799Y007235D01*
X002803Y007185D01*
X002803Y007135D01*
X002799Y007085D01*
X002791Y007036D01*
X002779Y006987D01*
X002763Y006939D01*
X002744Y006893D01*
X002721Y006849D01*
X002694Y006806D01*
X002664Y006766D01*
X002632Y006728D01*
X002596Y006693D01*
X002557Y006661D01*
X002516Y006632D01*
X002473Y006606D01*
X002428Y006584D01*
X002382Y006566D01*
X002334Y006551D01*
X002285Y006540D01*
X002236Y006533D01*
X002186Y006530D01*
X002135Y006531D01*
X002086Y006536D01*
X002036Y006545D01*
X001988Y006558D01*
X001941Y006574D01*
X001895Y006595D01*
X001851Y006619D01*
X001809Y006646D01*
X001769Y006676D01*
X001732Y006710D01*
X001698Y006747D01*
X001666Y006786D01*
X001638Y006827D01*
X001613Y006871D01*
X001592Y006916D01*
X001575Y006963D01*
X001561Y007011D01*
X001551Y007060D01*
X001545Y007110D01*
X001543Y007160D01*
X035795Y003617D02*
X035797Y003667D01*
X035803Y003717D01*
X035813Y003766D01*
X035827Y003814D01*
X035844Y003861D01*
X035865Y003906D01*
X035890Y003950D01*
X035918Y003991D01*
X035950Y004030D01*
X035984Y004067D01*
X036021Y004101D01*
X036061Y004131D01*
X036103Y004158D01*
X036147Y004182D01*
X036193Y004203D01*
X036240Y004219D01*
X036288Y004232D01*
X036338Y004241D01*
X036387Y004246D01*
X036438Y004247D01*
X036488Y004244D01*
X036537Y004237D01*
X036586Y004226D01*
X036634Y004211D01*
X036680Y004193D01*
X036725Y004171D01*
X036768Y004145D01*
X036809Y004116D01*
X036848Y004084D01*
X036884Y004049D01*
X036916Y004011D01*
X036946Y003971D01*
X036973Y003928D01*
X036996Y003884D01*
X037015Y003838D01*
X037031Y003790D01*
X037043Y003741D01*
X037051Y003692D01*
X037055Y003642D01*
X037055Y003592D01*
X037051Y003542D01*
X037043Y003493D01*
X037031Y003444D01*
X037015Y003396D01*
X036996Y003350D01*
X036973Y003306D01*
X036946Y003263D01*
X036916Y003223D01*
X036884Y003185D01*
X036848Y003150D01*
X036809Y003118D01*
X036768Y003089D01*
X036725Y003063D01*
X036680Y003041D01*
X036634Y003023D01*
X036586Y003008D01*
X036537Y002997D01*
X036488Y002990D01*
X036438Y002987D01*
X036387Y002988D01*
X036338Y002993D01*
X036288Y003002D01*
X036240Y003015D01*
X036193Y003031D01*
X036147Y003052D01*
X036103Y003076D01*
X036061Y003103D01*
X036021Y003133D01*
X035984Y003167D01*
X035950Y003204D01*
X035918Y003243D01*
X035890Y003284D01*
X035865Y003328D01*
X035844Y003373D01*
X035827Y003420D01*
X035813Y003468D01*
X035803Y003517D01*
X035797Y003567D01*
X035795Y003617D01*
X043669Y017003D02*
X043671Y017053D01*
X043677Y017103D01*
X043687Y017152D01*
X043701Y017200D01*
X043718Y017247D01*
X043739Y017292D01*
X043764Y017336D01*
X043792Y017377D01*
X043824Y017416D01*
X043858Y017453D01*
X043895Y017487D01*
X043935Y017517D01*
X043977Y017544D01*
X044021Y017568D01*
X044067Y017589D01*
X044114Y017605D01*
X044162Y017618D01*
X044212Y017627D01*
X044261Y017632D01*
X044312Y017633D01*
X044362Y017630D01*
X044411Y017623D01*
X044460Y017612D01*
X044508Y017597D01*
X044554Y017579D01*
X044599Y017557D01*
X044642Y017531D01*
X044683Y017502D01*
X044722Y017470D01*
X044758Y017435D01*
X044790Y017397D01*
X044820Y017357D01*
X044847Y017314D01*
X044870Y017270D01*
X044889Y017224D01*
X044905Y017176D01*
X044917Y017127D01*
X044925Y017078D01*
X044929Y017028D01*
X044929Y016978D01*
X044925Y016928D01*
X044917Y016879D01*
X044905Y016830D01*
X044889Y016782D01*
X044870Y016736D01*
X044847Y016692D01*
X044820Y016649D01*
X044790Y016609D01*
X044758Y016571D01*
X044722Y016536D01*
X044683Y016504D01*
X044642Y016475D01*
X044599Y016449D01*
X044554Y016427D01*
X044508Y016409D01*
X044460Y016394D01*
X044411Y016383D01*
X044362Y016376D01*
X044312Y016373D01*
X044261Y016374D01*
X044212Y016379D01*
X044162Y016388D01*
X044114Y016401D01*
X044067Y016417D01*
X044021Y016438D01*
X043977Y016462D01*
X043935Y016489D01*
X043895Y016519D01*
X043858Y016553D01*
X043824Y016590D01*
X043792Y016629D01*
X043764Y016670D01*
X043739Y016714D01*
X043718Y016759D01*
X043701Y016806D01*
X043687Y016854D01*
X043677Y016903D01*
X043671Y016953D01*
X043669Y017003D01*
D11*
X045504Y004467D03*
X041304Y001667D03*
X030775Y002457D03*
X026004Y002467D03*
X009784Y011067D03*
X005604Y009757D03*
X003604Y011067D03*
X000884Y011837D03*
X000864Y013847D03*
X002104Y014167D03*
X001604Y014967D03*
X007504Y013867D03*
D12*
X004951Y013940D02*
X047268Y013940D01*
X047268Y014098D02*
X004951Y014098D01*
X004951Y014257D02*
X047268Y014257D01*
X047268Y014415D02*
X004951Y014415D01*
X004951Y014574D02*
X047268Y014574D01*
X047268Y014732D02*
X004951Y014732D01*
X004951Y014891D02*
X047268Y014891D01*
X047268Y015049D02*
X004951Y015049D01*
X004951Y015208D02*
X047268Y015208D01*
X047268Y015366D02*
X044595Y015366D01*
X044424Y015328D02*
X044913Y015439D01*
X045346Y015689D01*
X045346Y015689D01*
X045687Y016056D01*
X045687Y016056D01*
X045904Y016508D01*
X045979Y017003D01*
X045904Y017498D01*
X045687Y017949D01*
X045687Y017949D01*
X045346Y018316D01*
X044913Y018567D01*
X044913Y018567D01*
X044424Y018678D01*
X043925Y018641D01*
X043459Y018458D01*
X043459Y018458D01*
X043067Y018146D01*
X043067Y018146D01*
X042785Y017732D01*
X042785Y017732D01*
X042638Y017253D01*
X042638Y016752D01*
X042785Y016274D01*
X043067Y015860D01*
X043067Y015860D01*
X043459Y015548D01*
X043459Y015548D01*
X043925Y015365D01*
X044424Y015328D01*
X044424Y015328D01*
X043925Y015365D02*
X043925Y015365D01*
X043921Y015366D02*
X004951Y015366D01*
X004951Y015525D02*
X043517Y015525D01*
X043289Y015683D02*
X004951Y015683D01*
X004951Y015842D02*
X043090Y015842D01*
X042972Y016000D02*
X004951Y016000D01*
X004951Y016159D02*
X042864Y016159D01*
X042772Y016317D02*
X004951Y016317D01*
X004951Y016476D02*
X042723Y016476D01*
X042674Y016634D02*
X004951Y016634D01*
X004951Y016793D02*
X042638Y016793D01*
X042638Y016951D02*
X004951Y016951D01*
X004951Y017110D02*
X042638Y017110D01*
X042642Y017268D02*
X004951Y017268D01*
X004951Y017427D02*
X042691Y017427D01*
X042740Y017585D02*
X004951Y017585D01*
X004951Y017744D02*
X042794Y017744D01*
X042902Y017902D02*
X004951Y017902D01*
X004951Y018061D02*
X043010Y018061D01*
X043160Y018219D02*
X004951Y018219D01*
X004951Y018378D02*
X043359Y018378D01*
X043659Y018536D02*
X004951Y018536D01*
X004951Y018695D02*
X047268Y018695D01*
X047268Y018853D02*
X004951Y018853D01*
X004951Y019012D02*
X047268Y019012D01*
X047268Y019170D02*
X004951Y019170D01*
X004951Y019329D02*
X047268Y019329D01*
X047268Y019487D02*
X004951Y019487D01*
X004951Y019646D02*
X047268Y019646D01*
X047268Y019804D02*
X004951Y019804D01*
X004951Y019963D02*
X047268Y019963D01*
X047268Y019972D02*
X047268Y000647D01*
X000384Y000647D01*
X000384Y019972D01*
X003961Y019972D01*
X003961Y010235D01*
X004067Y010130D01*
X004846Y010130D01*
X004951Y010235D01*
X004951Y019972D01*
X047268Y019972D01*
X047268Y018536D02*
X044965Y018536D01*
X045240Y018378D02*
X047268Y018378D01*
X047268Y018219D02*
X045436Y018219D01*
X045346Y018316D02*
X045346Y018316D01*
X045583Y018061D02*
X047268Y018061D01*
X047268Y017902D02*
X045709Y017902D01*
X045786Y017744D02*
X047268Y017744D01*
X047268Y017585D02*
X045862Y017585D01*
X045904Y017498D02*
X045904Y017498D01*
X045915Y017427D02*
X047268Y017427D01*
X047268Y017268D02*
X045939Y017268D01*
X045963Y017110D02*
X047268Y017110D01*
X047268Y016951D02*
X045971Y016951D01*
X045947Y016793D02*
X047268Y016793D01*
X047268Y016634D02*
X045923Y016634D01*
X045904Y016508D02*
X045904Y016508D01*
X045889Y016476D02*
X047268Y016476D01*
X047268Y016317D02*
X045813Y016317D01*
X045736Y016159D02*
X047268Y016159D01*
X047268Y016000D02*
X045635Y016000D01*
X045488Y015842D02*
X047268Y015842D01*
X047268Y015683D02*
X045336Y015683D01*
X045061Y015525D02*
X047268Y015525D01*
X044913Y015439D02*
X044913Y015439D01*
X047268Y013781D02*
X004951Y013781D01*
X004951Y013623D02*
X047268Y013623D01*
X047268Y013464D02*
X004951Y013464D01*
X004951Y013306D02*
X047268Y013306D01*
X047268Y013147D02*
X004951Y013147D01*
X004951Y012989D02*
X047268Y012989D01*
X047268Y012830D02*
X004951Y012830D01*
X004951Y012672D02*
X047268Y012672D01*
X047268Y012513D02*
X004951Y012513D01*
X004951Y012355D02*
X047268Y012355D01*
X047268Y012196D02*
X004951Y012196D01*
X004951Y012038D02*
X047268Y012038D01*
X047268Y011879D02*
X004951Y011879D01*
X004951Y011721D02*
X047268Y011721D01*
X047268Y011562D02*
X004951Y011562D01*
X004951Y011404D02*
X047268Y011404D01*
X047268Y011245D02*
X010055Y011245D01*
X010054Y011248D02*
X009965Y011337D01*
X009848Y011386D01*
X009721Y011386D01*
X009604Y011337D01*
X009515Y011248D01*
X009466Y011131D01*
X009466Y011004D01*
X009474Y010984D01*
X008852Y009977D01*
X005834Y009977D01*
X005785Y010027D01*
X005668Y010076D01*
X005541Y010076D01*
X005424Y010027D01*
X005335Y009938D01*
X005286Y009821D01*
X005286Y009694D01*
X005335Y009577D01*
X005424Y009488D01*
X005541Y009439D01*
X005668Y009439D01*
X005785Y009488D01*
X005834Y009537D01*
X008912Y009537D01*
X008936Y009522D01*
X009000Y009537D01*
X009065Y009537D01*
X009086Y009558D01*
X009114Y009564D01*
X009148Y009620D01*
X009194Y009666D01*
X009194Y009695D01*
X009846Y010749D01*
X009848Y010749D01*
X009965Y010798D01*
X010054Y010887D01*
X010102Y011004D01*
X010102Y011131D01*
X010054Y011248D01*
X010102Y011087D02*
X047268Y011087D01*
X047268Y010928D02*
X010071Y010928D01*
X009897Y010770D02*
X047268Y010770D01*
X047268Y010611D02*
X009761Y010611D01*
X009663Y010453D02*
X047268Y010453D01*
X047268Y010294D02*
X009565Y010294D01*
X009467Y010136D02*
X047268Y010136D01*
X047268Y009977D02*
X009369Y009977D01*
X009271Y009819D02*
X047268Y009819D01*
X047268Y009660D02*
X009188Y009660D01*
X008974Y009757D02*
X009784Y011067D01*
X009466Y011087D02*
X004951Y011087D01*
X004951Y011245D02*
X009514Y011245D01*
X009440Y010928D02*
X004951Y010928D01*
X004951Y010770D02*
X009342Y010770D01*
X009244Y010611D02*
X004951Y010611D01*
X004951Y010453D02*
X009146Y010453D01*
X009048Y010294D02*
X004951Y010294D01*
X004852Y010136D02*
X008950Y010136D01*
X008852Y009977D02*
X005834Y009977D01*
X005374Y009977D02*
X003910Y009977D01*
X004059Y009819D02*
X005286Y009819D01*
X005300Y009660D02*
X004209Y009660D01*
X004359Y009502D02*
X005410Y009502D01*
X005604Y009757D02*
X008974Y009757D01*
X005799Y009502D02*
X047268Y009502D01*
X047268Y009343D02*
X004509Y009343D01*
X004659Y009185D02*
X047268Y009185D01*
X047268Y009026D02*
X004808Y009026D01*
X004958Y008868D02*
X047268Y008868D01*
X047268Y008709D02*
X005108Y008709D01*
X005258Y008551D02*
X047268Y008551D01*
X047268Y008392D02*
X005408Y008392D01*
X005557Y008234D02*
X047268Y008234D01*
X047268Y008075D02*
X005707Y008075D01*
X005857Y007917D02*
X047268Y007917D01*
X047268Y007758D02*
X006007Y007758D01*
X006157Y007600D02*
X047268Y007600D01*
X047268Y007441D02*
X006306Y007441D01*
X006456Y007283D02*
X047268Y007283D01*
X047268Y007124D02*
X006606Y007124D01*
X006756Y006966D02*
X047268Y006966D01*
X047268Y006807D02*
X006906Y006807D01*
X007055Y006649D02*
X047268Y006649D01*
X047268Y006490D02*
X007205Y006490D01*
X007355Y006332D02*
X047268Y006332D01*
X047268Y006173D02*
X007505Y006173D01*
X007654Y006015D02*
X047268Y006015D01*
X047268Y005856D02*
X007804Y005856D01*
X007954Y005698D02*
X047268Y005698D01*
X047268Y005539D02*
X008104Y005539D01*
X008254Y005381D02*
X047268Y005381D01*
X047268Y005222D02*
X036857Y005222D01*
X037039Y005181D02*
X036550Y005292D01*
X036051Y005255D01*
X035585Y005072D01*
X035585Y005072D01*
X035193Y004760D01*
X035193Y004760D01*
X035193Y004760D01*
X034911Y004346D01*
X034911Y004346D01*
X034764Y003867D01*
X034764Y003367D01*
X034911Y002888D01*
X035193Y002474D01*
X035193Y002474D01*
X035193Y002474D01*
X035585Y002162D01*
X036051Y001979D01*
X036550Y001942D01*
X036550Y001942D01*
X037039Y002053D01*
X037472Y002304D01*
X037472Y002304D01*
X037813Y002671D01*
X038030Y003122D01*
X038105Y003617D01*
X038030Y004112D01*
X038030Y004112D01*
X037813Y004563D01*
X037813Y004563D01*
X037472Y004931D01*
X037039Y005181D01*
X037039Y005181D01*
X037241Y005064D02*
X047268Y005064D01*
X047268Y004905D02*
X037496Y004905D01*
X037472Y004931D02*
X037472Y004931D01*
X037643Y004747D02*
X047268Y004747D01*
X047268Y004588D02*
X037790Y004588D01*
X037877Y004430D02*
X047268Y004430D01*
X047268Y004271D02*
X037954Y004271D01*
X038030Y004113D02*
X047268Y004113D01*
X047268Y003954D02*
X038054Y003954D01*
X038078Y003796D02*
X047268Y003796D01*
X047268Y003637D02*
X038102Y003637D01*
X038084Y003479D02*
X047268Y003479D01*
X047268Y003320D02*
X038060Y003320D01*
X038036Y003162D02*
X047268Y003162D01*
X047268Y003003D02*
X037973Y003003D01*
X038030Y003122D02*
X038030Y003122D01*
X037897Y002845D02*
X047268Y002845D01*
X047268Y002686D02*
X037821Y002686D01*
X037813Y002671D02*
X037813Y002671D01*
X037680Y002528D02*
X047268Y002528D01*
X047268Y002369D02*
X037533Y002369D01*
X037312Y002211D02*
X047268Y002211D01*
X047268Y002052D02*
X037035Y002052D01*
X037039Y002053D02*
X037039Y002053D01*
X036051Y001979D02*
X036051Y001979D01*
X035864Y002052D02*
X010662Y002052D01*
X010701Y002247D02*
X010789Y002245D01*
X010792Y002247D01*
X025774Y002247D01*
X025824Y002198D01*
X025941Y002149D01*
X026068Y002149D01*
X026185Y002198D01*
X026274Y002287D01*
X026322Y002404D01*
X026322Y002531D01*
X026274Y002648D01*
X026185Y002737D01*
X026068Y002786D01*
X025941Y002786D01*
X025824Y002737D01*
X025774Y002687D01*
X010799Y002687D01*
X002324Y011655D01*
X002324Y013938D01*
X002374Y013987D01*
X002422Y014104D01*
X002422Y014231D01*
X002374Y014348D01*
X002285Y014437D01*
X002168Y014486D01*
X002041Y014486D01*
X001924Y014437D01*
X001835Y014348D01*
X001824Y014323D01*
X001824Y014738D01*
X001874Y014787D01*
X001922Y014904D01*
X001922Y015031D01*
X001874Y015148D01*
X001785Y015237D01*
X001668Y015286D01*
X001541Y015286D01*
X001424Y015237D01*
X001335Y015148D01*
X001286Y015031D01*
X001286Y014904D01*
X001335Y014787D01*
X001384Y014738D01*
X001384Y011270D01*
X001382Y011182D01*
X001384Y011180D01*
X001384Y011176D01*
X001447Y011114D01*
X010884Y001180D01*
X010884Y001176D01*
X010947Y001114D01*
X011008Y001050D01*
X011011Y001050D01*
X011013Y001047D01*
X011102Y001047D01*
X011190Y001045D01*
X011192Y001047D01*
X040995Y001047D01*
X041297Y001349D01*
X041368Y001349D01*
X041485Y001398D01*
X041574Y001487D01*
X041622Y001604D01*
X041622Y001731D01*
X041574Y001848D01*
X041485Y001937D01*
X041368Y001986D01*
X041241Y001986D01*
X041124Y001937D01*
X041035Y001848D01*
X040986Y001731D01*
X040986Y001660D01*
X040813Y001487D01*
X011199Y001487D01*
X001824Y011355D01*
X001824Y014012D01*
X001835Y013987D01*
X001884Y013938D01*
X001884Y011571D01*
X001882Y011483D01*
X001884Y011480D01*
X001884Y011476D01*
X001947Y011414D01*
X010484Y002380D01*
X010484Y002376D01*
X010547Y002314D01*
X010607Y002250D01*
X010611Y002250D01*
X010613Y002247D01*
X010701Y002247D01*
X010511Y002211D02*
X025811Y002211D01*
X026198Y002211D02*
X035524Y002211D01*
X035585Y002162D02*
X035585Y002162D01*
X035325Y002369D02*
X026308Y002369D01*
X026322Y002528D02*
X035157Y002528D01*
X035049Y002686D02*
X026235Y002686D01*
X026004Y002467D02*
X010704Y002467D01*
X002104Y011567D01*
X002104Y014167D01*
X001882Y013940D02*
X001824Y013940D01*
X001824Y013781D02*
X001884Y013781D01*
X001884Y013623D02*
X001824Y013623D01*
X001824Y013464D02*
X001884Y013464D01*
X001884Y013306D02*
X001824Y013306D01*
X001824Y013147D02*
X001884Y013147D01*
X001884Y012989D02*
X001824Y012989D01*
X001824Y012830D02*
X001884Y012830D01*
X001884Y012672D02*
X001824Y012672D01*
X001824Y012513D02*
X001884Y012513D01*
X001884Y012355D02*
X001824Y012355D01*
X001824Y012196D02*
X001884Y012196D01*
X001884Y012038D02*
X001824Y012038D01*
X001824Y011879D02*
X001884Y011879D01*
X001884Y011721D02*
X001824Y011721D01*
X001824Y011562D02*
X001884Y011562D01*
X001824Y011404D02*
X001956Y011404D01*
X001929Y011245D02*
X002106Y011245D01*
X002079Y011087D02*
X002256Y011087D01*
X002230Y010928D02*
X002406Y010928D01*
X002380Y010770D02*
X002555Y010770D01*
X002531Y010611D02*
X002705Y010611D01*
X002682Y010453D02*
X002855Y010453D01*
X002832Y010294D02*
X003005Y010294D01*
X002983Y010136D02*
X003154Y010136D01*
X003133Y009977D02*
X003304Y009977D01*
X003284Y009819D02*
X003454Y009819D01*
X003434Y009660D02*
X003604Y009660D01*
X003585Y009502D02*
X003754Y009502D01*
X003736Y009343D02*
X003903Y009343D01*
X003886Y009185D02*
X004053Y009185D01*
X004037Y009026D02*
X004203Y009026D01*
X004187Y008868D02*
X004353Y008868D01*
X004338Y008709D02*
X004503Y008709D01*
X004488Y008551D02*
X004652Y008551D01*
X004639Y008392D02*
X004802Y008392D01*
X004790Y008234D02*
X004952Y008234D01*
X004940Y008075D02*
X005102Y008075D01*
X005091Y007917D02*
X005252Y007917D01*
X005241Y007758D02*
X005401Y007758D01*
X005392Y007600D02*
X005551Y007600D01*
X005542Y007441D02*
X005701Y007441D01*
X005693Y007283D02*
X005851Y007283D01*
X005844Y007124D02*
X006001Y007124D01*
X005994Y006966D02*
X006150Y006966D01*
X006145Y006807D02*
X006300Y006807D01*
X006295Y006649D02*
X006450Y006649D01*
X006446Y006490D02*
X006600Y006490D01*
X006597Y006332D02*
X006749Y006332D01*
X006747Y006173D02*
X006899Y006173D01*
X006898Y006015D02*
X007049Y006015D01*
X007048Y005856D02*
X007199Y005856D01*
X007199Y005698D02*
X007349Y005698D01*
X007349Y005539D02*
X007498Y005539D01*
X007500Y005381D02*
X007648Y005381D01*
X007651Y005222D02*
X007798Y005222D01*
X007801Y005064D02*
X007948Y005064D01*
X007952Y004905D02*
X008098Y004905D01*
X008102Y004747D02*
X008247Y004747D01*
X008253Y004588D02*
X008397Y004588D01*
X008403Y004430D02*
X008547Y004430D01*
X008554Y004271D02*
X008697Y004271D01*
X008705Y004113D02*
X008847Y004113D01*
X008855Y003954D02*
X008996Y003954D01*
X009006Y003796D02*
X009146Y003796D01*
X009156Y003637D02*
X009296Y003637D01*
X009307Y003479D02*
X009446Y003479D01*
X009457Y003320D02*
X009596Y003320D01*
X009608Y003162D02*
X009745Y003162D01*
X009759Y003003D02*
X009895Y003003D01*
X009909Y002845D02*
X010045Y002845D01*
X010060Y002686D02*
X010195Y002686D01*
X010210Y002528D02*
X010344Y002528D01*
X010361Y002369D02*
X010491Y002369D01*
X010055Y002052D02*
X000384Y002052D01*
X000384Y001894D02*
X010206Y001894D01*
X010356Y001735D02*
X000384Y001735D01*
X000384Y001577D02*
X010507Y001577D01*
X010657Y001418D02*
X000384Y001418D01*
X000384Y001260D02*
X010808Y001260D01*
X010959Y001101D02*
X000384Y001101D01*
X000384Y000943D02*
X047268Y000943D01*
X047268Y001101D02*
X041049Y001101D01*
X040904Y001267D02*
X041304Y001667D01*
X041081Y001894D02*
X010813Y001894D01*
X010963Y001735D02*
X040988Y001735D01*
X040903Y001577D02*
X011114Y001577D01*
X011104Y001267D02*
X040904Y001267D01*
X041208Y001260D02*
X047268Y001260D01*
X047268Y001418D02*
X041505Y001418D01*
X041611Y001577D02*
X047268Y001577D01*
X047268Y001735D02*
X041621Y001735D01*
X041528Y001894D02*
X047268Y001894D01*
X047268Y000784D02*
X000384Y000784D01*
X000384Y002211D02*
X009905Y002211D01*
X009754Y002369D02*
X000384Y002369D01*
X000384Y002528D02*
X009603Y002528D01*
X009453Y002686D02*
X000384Y002686D01*
X000384Y002845D02*
X009302Y002845D01*
X009152Y003003D02*
X000384Y003003D01*
X000384Y003162D02*
X009001Y003162D01*
X008851Y003320D02*
X000384Y003320D01*
X000384Y003479D02*
X008700Y003479D01*
X008549Y003637D02*
X000384Y003637D01*
X000384Y003796D02*
X008399Y003796D01*
X008248Y003954D02*
X000384Y003954D01*
X000384Y004113D02*
X008098Y004113D01*
X007947Y004271D02*
X000384Y004271D01*
X000384Y004430D02*
X007797Y004430D01*
X007646Y004588D02*
X000384Y004588D01*
X000384Y004747D02*
X007495Y004747D01*
X007345Y004905D02*
X000384Y004905D01*
X000384Y005064D02*
X007194Y005064D01*
X007044Y005222D02*
X000384Y005222D01*
X000384Y005381D02*
X006893Y005381D01*
X006742Y005539D02*
X002537Y005539D01*
X002298Y005485D02*
X002787Y005596D01*
X003220Y005847D01*
X003561Y006214D01*
X003778Y006665D01*
X003778Y006665D01*
X003853Y007160D01*
X003778Y007656D01*
X003561Y008107D01*
X003220Y008474D01*
X002787Y008724D01*
X002787Y008724D01*
X002298Y008836D01*
X001799Y008798D01*
X001333Y008615D01*
X000941Y008303D01*
X000659Y007889D01*
X000512Y007411D01*
X000512Y006910D01*
X000659Y006431D01*
X000941Y006018D01*
X000941Y006018D01*
X000941Y006018D01*
X001333Y005705D01*
X001799Y005522D01*
X002298Y005485D01*
X002298Y005485D01*
X001799Y005522D02*
X001799Y005522D01*
X001756Y005539D02*
X000384Y005539D01*
X000384Y005698D02*
X001352Y005698D01*
X001333Y005705D02*
X001333Y005705D01*
X001143Y005856D02*
X000384Y005856D01*
X000384Y006015D02*
X000945Y006015D01*
X000835Y006173D02*
X000384Y006173D01*
X000384Y006332D02*
X000727Y006332D01*
X000659Y006431D02*
X000659Y006431D01*
X000641Y006490D02*
X000384Y006490D01*
X000384Y006649D02*
X000592Y006649D01*
X000543Y006807D02*
X000384Y006807D01*
X000384Y006966D02*
X000512Y006966D01*
X000512Y007124D02*
X000384Y007124D01*
X000384Y007283D02*
X000512Y007283D01*
X000521Y007441D02*
X000384Y007441D01*
X000384Y007600D02*
X000570Y007600D01*
X000619Y007758D02*
X000384Y007758D01*
X000384Y007917D02*
X000678Y007917D01*
X000659Y007889D02*
X000659Y007889D01*
X000786Y008075D02*
X000384Y008075D01*
X000384Y008234D02*
X000894Y008234D01*
X000941Y008303D02*
X000941Y008303D01*
X000941Y008303D01*
X001053Y008392D02*
X000384Y008392D01*
X000384Y008551D02*
X001252Y008551D01*
X001333Y008615D02*
X001333Y008615D01*
X001573Y008709D02*
X000384Y008709D01*
X000384Y008868D02*
X003580Y008868D01*
X003430Y009026D02*
X000384Y009026D01*
X000384Y009185D02*
X003279Y009185D01*
X003129Y009343D02*
X000384Y009343D01*
X000384Y009502D02*
X002978Y009502D01*
X002828Y009660D02*
X000384Y009660D01*
X000384Y009819D02*
X002677Y009819D01*
X002526Y009977D02*
X000384Y009977D01*
X000384Y010136D02*
X002376Y010136D01*
X002225Y010294D02*
X000384Y010294D01*
X000384Y010453D02*
X002075Y010453D01*
X001924Y010611D02*
X000384Y010611D01*
X000384Y010770D02*
X001774Y010770D01*
X001623Y010928D02*
X000384Y010928D01*
X000384Y011087D02*
X001472Y011087D01*
X001384Y011245D02*
X000384Y011245D01*
X000384Y011404D02*
X001384Y011404D01*
X001384Y011562D02*
X001052Y011562D01*
X001065Y011568D02*
X001154Y011657D01*
X001202Y011774D01*
X001202Y011901D01*
X001154Y012018D01*
X001093Y012079D01*
X001084Y012263D01*
X001084Y013618D01*
X001134Y013667D01*
X001182Y013784D01*
X001182Y013911D01*
X001134Y014028D01*
X001045Y014117D01*
X000928Y014166D01*
X000801Y014166D01*
X000684Y014117D01*
X000595Y014028D01*
X000546Y013911D01*
X000546Y013784D01*
X000595Y013667D01*
X000644Y013618D01*
X000644Y012342D01*
X000640Y012338D01*
X000644Y012252D01*
X000644Y012166D01*
X000649Y012162D01*
X000654Y012057D01*
X000615Y012018D01*
X000566Y011901D01*
X000566Y011774D01*
X000615Y011657D01*
X000704Y011568D01*
X000821Y011519D01*
X000948Y011519D01*
X001065Y011568D01*
X001180Y011721D02*
X001384Y011721D01*
X001384Y011879D02*
X001202Y011879D01*
X001134Y012038D02*
X001384Y012038D01*
X001384Y012196D02*
X001088Y012196D01*
X001084Y012355D02*
X001384Y012355D01*
X001384Y012513D02*
X001084Y012513D01*
X001084Y012672D02*
X001384Y012672D01*
X001384Y012830D02*
X001084Y012830D01*
X001084Y012989D02*
X001384Y012989D01*
X001384Y013147D02*
X001084Y013147D01*
X001084Y013306D02*
X001384Y013306D01*
X001384Y013464D02*
X001084Y013464D01*
X001090Y013623D02*
X001384Y013623D01*
X001384Y013781D02*
X001181Y013781D01*
X001170Y013940D02*
X001384Y013940D01*
X001384Y014098D02*
X001063Y014098D01*
X000864Y013847D02*
X000864Y012257D01*
X000884Y011837D01*
X000588Y011721D02*
X000384Y011721D01*
X000384Y011879D02*
X000566Y011879D01*
X000635Y012038D02*
X000384Y012038D01*
X000384Y012196D02*
X000644Y012196D01*
X000644Y012355D02*
X000384Y012355D01*
X000384Y012513D02*
X000644Y012513D01*
X000644Y012672D02*
X000384Y012672D01*
X000384Y012830D02*
X000644Y012830D01*
X000644Y012989D02*
X000384Y012989D01*
X000384Y013147D02*
X000644Y013147D01*
X000644Y013306D02*
X000384Y013306D01*
X000384Y013464D02*
X000644Y013464D01*
X000639Y013623D02*
X000384Y013623D01*
X000384Y013781D02*
X000547Y013781D01*
X000558Y013940D02*
X000384Y013940D01*
X000384Y014098D02*
X000666Y014098D01*
X000384Y014257D02*
X001384Y014257D01*
X001384Y014415D02*
X000384Y014415D01*
X000384Y014574D02*
X001384Y014574D01*
X001384Y014732D02*
X000384Y014732D01*
X000384Y014891D02*
X001292Y014891D01*
X001294Y015049D02*
X000384Y015049D01*
X000384Y015208D02*
X001395Y015208D01*
X001604Y014967D02*
X001604Y011267D01*
X011104Y001267D01*
X010650Y002845D02*
X034941Y002845D01*
X034911Y002888D02*
X034911Y002888D01*
X034876Y003003D02*
X010501Y003003D01*
X010351Y003162D02*
X034827Y003162D01*
X034778Y003320D02*
X010201Y003320D01*
X010051Y003479D02*
X034764Y003479D01*
X034764Y003637D02*
X009901Y003637D01*
X009752Y003796D02*
X034764Y003796D01*
X034790Y003954D02*
X009602Y003954D01*
X009452Y004113D02*
X034839Y004113D01*
X034888Y004271D02*
X009302Y004271D01*
X009152Y004430D02*
X034968Y004430D01*
X035077Y004588D02*
X009003Y004588D01*
X008853Y004747D02*
X035185Y004747D01*
X035376Y004905D02*
X008703Y004905D01*
X008553Y005064D02*
X035575Y005064D01*
X035968Y005222D02*
X008403Y005222D01*
X006592Y005698D02*
X002962Y005698D01*
X002787Y005596D02*
X002787Y005596D01*
X003220Y005847D02*
X003220Y005847D01*
X003220Y005847D01*
X003229Y005856D02*
X006441Y005856D01*
X006291Y006015D02*
X003376Y006015D01*
X003523Y006173D02*
X006140Y006173D01*
X005990Y006332D02*
X003618Y006332D01*
X003561Y006214D02*
X003561Y006214D01*
X003694Y006490D02*
X005839Y006490D01*
X005688Y006649D02*
X003770Y006649D01*
X003800Y006807D02*
X005538Y006807D01*
X005387Y006966D02*
X003824Y006966D01*
X003847Y007124D02*
X005237Y007124D01*
X005086Y007283D02*
X003834Y007283D01*
X003810Y007441D02*
X004936Y007441D01*
X004785Y007600D02*
X003787Y007600D01*
X003778Y007656D02*
X003778Y007656D01*
X003729Y007758D02*
X004634Y007758D01*
X004484Y007917D02*
X003652Y007917D01*
X003576Y008075D02*
X004333Y008075D01*
X004183Y008234D02*
X003443Y008234D01*
X003561Y008107D02*
X003561Y008107D01*
X003296Y008392D02*
X004032Y008392D01*
X003882Y008551D02*
X003087Y008551D01*
X003220Y008474D02*
X003220Y008474D01*
X002812Y008709D02*
X003731Y008709D01*
X002298Y008836D02*
X002298Y008836D01*
X001799Y008798D02*
X001799Y008798D01*
X003760Y010136D02*
X004061Y010136D01*
X003961Y010294D02*
X003610Y010294D01*
X003460Y010453D02*
X003961Y010453D01*
X003961Y010611D02*
X003311Y010611D01*
X003161Y010770D02*
X003961Y010770D01*
X003961Y010928D02*
X003011Y010928D01*
X002861Y011087D02*
X003961Y011087D01*
X003961Y011245D02*
X002711Y011245D01*
X002562Y011404D02*
X003961Y011404D01*
X003961Y011562D02*
X002412Y011562D01*
X002324Y011721D02*
X003961Y011721D01*
X003961Y011879D02*
X002324Y011879D01*
X002324Y012038D02*
X003961Y012038D01*
X003961Y012196D02*
X002324Y012196D01*
X002324Y012355D02*
X003961Y012355D01*
X003961Y012513D02*
X002324Y012513D01*
X002324Y012672D02*
X003961Y012672D01*
X003961Y012830D02*
X002324Y012830D01*
X002324Y012989D02*
X003961Y012989D01*
X003961Y013147D02*
X002324Y013147D01*
X002324Y013306D02*
X003961Y013306D01*
X003961Y013464D02*
X002324Y013464D01*
X002324Y013623D02*
X003961Y013623D01*
X003961Y013781D02*
X002324Y013781D01*
X002327Y013940D02*
X003961Y013940D01*
X003961Y014098D02*
X002420Y014098D01*
X002412Y014257D02*
X003961Y014257D01*
X003961Y014415D02*
X002306Y014415D01*
X001903Y014415D02*
X001824Y014415D01*
X001824Y014574D02*
X003961Y014574D01*
X003961Y014732D02*
X001824Y014732D01*
X001917Y014891D02*
X003961Y014891D01*
X003961Y015049D02*
X001915Y015049D01*
X001814Y015208D02*
X003961Y015208D01*
X003961Y015366D02*
X000384Y015366D01*
X000384Y015525D02*
X003961Y015525D01*
X003961Y015683D02*
X000384Y015683D01*
X000384Y015842D02*
X003961Y015842D01*
X003961Y016000D02*
X000384Y016000D01*
X000384Y016159D02*
X003961Y016159D01*
X003961Y016317D02*
X000384Y016317D01*
X000384Y016476D02*
X003961Y016476D01*
X003961Y016634D02*
X000384Y016634D01*
X000384Y016793D02*
X003961Y016793D01*
X003961Y016951D02*
X000384Y016951D01*
X000384Y017110D02*
X003961Y017110D01*
X003961Y017268D02*
X000384Y017268D01*
X000384Y017427D02*
X003961Y017427D01*
X003961Y017585D02*
X000384Y017585D01*
X000384Y017744D02*
X003961Y017744D01*
X003961Y017902D02*
X000384Y017902D01*
X000384Y018061D02*
X003961Y018061D01*
X003961Y018219D02*
X000384Y018219D01*
X000384Y018378D02*
X003961Y018378D01*
X003961Y018536D02*
X000384Y018536D01*
X000384Y018695D02*
X003961Y018695D01*
X003961Y018853D02*
X000384Y018853D01*
X000384Y019012D02*
X003961Y019012D01*
X003961Y019170D02*
X000384Y019170D01*
X000384Y019329D02*
X003961Y019329D01*
X003961Y019487D02*
X000384Y019487D01*
X000384Y019646D02*
X003961Y019646D01*
X003961Y019804D02*
X000384Y019804D01*
X000384Y019963D02*
X003961Y019963D01*
X000717Y011562D02*
X000384Y011562D01*
X036051Y005255D02*
X036051Y005255D01*
X036550Y005292D02*
X036550Y005292D01*
X043925Y018641D02*
X043925Y018641D01*
X044424Y018678D02*
X044424Y018678D01*
M02*
