G75*
G70*
%OFA0B0*%
%FSLAX24Y24*%
%IPPOS*%
%LPD*%
%AMOC8*
5,1,8,0,0,1.08239X$1,22.5*
%
%ADD10C,0.0000*%
%ADD11C,0.1300*%
D10*
X000260Y000467D02*
X000260Y020152D01*
X004197Y020152D01*
X004197Y010310D01*
X004827Y010310D01*
X004827Y020152D01*
X047504Y020152D01*
X047504Y000467D01*
X000260Y000467D01*
X001599Y007160D02*
X001601Y007210D01*
X001607Y007260D01*
X001617Y007309D01*
X001631Y007357D01*
X001648Y007404D01*
X001669Y007449D01*
X001694Y007493D01*
X001722Y007534D01*
X001754Y007573D01*
X001788Y007610D01*
X001825Y007644D01*
X001865Y007674D01*
X001907Y007701D01*
X001951Y007725D01*
X001997Y007746D01*
X002044Y007762D01*
X002092Y007775D01*
X002142Y007784D01*
X002191Y007789D01*
X002242Y007790D01*
X002292Y007787D01*
X002341Y007780D01*
X002390Y007769D01*
X002438Y007754D01*
X002484Y007736D01*
X002529Y007714D01*
X002572Y007688D01*
X002613Y007659D01*
X002652Y007627D01*
X002688Y007592D01*
X002720Y007554D01*
X002750Y007514D01*
X002777Y007471D01*
X002800Y007427D01*
X002819Y007381D01*
X002835Y007333D01*
X002847Y007284D01*
X002855Y007235D01*
X002859Y007185D01*
X002859Y007135D01*
X002855Y007085D01*
X002847Y007036D01*
X002835Y006987D01*
X002819Y006939D01*
X002800Y006893D01*
X002777Y006849D01*
X002750Y006806D01*
X002720Y006766D01*
X002688Y006728D01*
X002652Y006693D01*
X002613Y006661D01*
X002572Y006632D01*
X002529Y006606D01*
X002484Y006584D01*
X002438Y006566D01*
X002390Y006551D01*
X002341Y006540D01*
X002292Y006533D01*
X002242Y006530D01*
X002191Y006531D01*
X002142Y006536D01*
X002092Y006545D01*
X002044Y006558D01*
X001997Y006574D01*
X001951Y006595D01*
X001907Y006619D01*
X001865Y006646D01*
X001825Y006676D01*
X001788Y006710D01*
X001754Y006747D01*
X001722Y006786D01*
X001694Y006827D01*
X001669Y006871D01*
X001648Y006916D01*
X001631Y006963D01*
X001617Y007011D01*
X001607Y007060D01*
X001601Y007110D01*
X001599Y007160D01*
X022071Y003617D02*
X022073Y003667D01*
X022079Y003717D01*
X022089Y003766D01*
X022103Y003814D01*
X022120Y003861D01*
X022141Y003906D01*
X022166Y003950D01*
X022194Y003991D01*
X022226Y004030D01*
X022260Y004067D01*
X022297Y004101D01*
X022337Y004131D01*
X022379Y004158D01*
X022423Y004182D01*
X022469Y004203D01*
X022516Y004219D01*
X022564Y004232D01*
X022614Y004241D01*
X022663Y004246D01*
X022714Y004247D01*
X022764Y004244D01*
X022813Y004237D01*
X022862Y004226D01*
X022910Y004211D01*
X022956Y004193D01*
X023001Y004171D01*
X023044Y004145D01*
X023085Y004116D01*
X023124Y004084D01*
X023160Y004049D01*
X023192Y004011D01*
X023222Y003971D01*
X023249Y003928D01*
X023272Y003884D01*
X023291Y003838D01*
X023307Y003790D01*
X023319Y003741D01*
X023327Y003692D01*
X023331Y003642D01*
X023331Y003592D01*
X023327Y003542D01*
X023319Y003493D01*
X023307Y003444D01*
X023291Y003396D01*
X023272Y003350D01*
X023249Y003306D01*
X023222Y003263D01*
X023192Y003223D01*
X023160Y003185D01*
X023124Y003150D01*
X023085Y003118D01*
X023044Y003089D01*
X023001Y003063D01*
X022956Y003041D01*
X022910Y003023D01*
X022862Y003008D01*
X022813Y002997D01*
X022764Y002990D01*
X022714Y002987D01*
X022663Y002988D01*
X022614Y002993D01*
X022564Y003002D01*
X022516Y003015D01*
X022469Y003031D01*
X022423Y003052D01*
X022379Y003076D01*
X022337Y003103D01*
X022297Y003133D01*
X022260Y003167D01*
X022226Y003204D01*
X022194Y003243D01*
X022166Y003284D01*
X022141Y003328D01*
X022120Y003373D01*
X022103Y003420D01*
X022089Y003468D01*
X022079Y003517D01*
X022073Y003567D01*
X022071Y003617D01*
X043724Y017003D02*
X043726Y017053D01*
X043732Y017103D01*
X043742Y017152D01*
X043756Y017200D01*
X043773Y017247D01*
X043794Y017292D01*
X043819Y017336D01*
X043847Y017377D01*
X043879Y017416D01*
X043913Y017453D01*
X043950Y017487D01*
X043990Y017517D01*
X044032Y017544D01*
X044076Y017568D01*
X044122Y017589D01*
X044169Y017605D01*
X044217Y017618D01*
X044267Y017627D01*
X044316Y017632D01*
X044367Y017633D01*
X044417Y017630D01*
X044466Y017623D01*
X044515Y017612D01*
X044563Y017597D01*
X044609Y017579D01*
X044654Y017557D01*
X044697Y017531D01*
X044738Y017502D01*
X044777Y017470D01*
X044813Y017435D01*
X044845Y017397D01*
X044875Y017357D01*
X044902Y017314D01*
X044925Y017270D01*
X044944Y017224D01*
X044960Y017176D01*
X044972Y017127D01*
X044980Y017078D01*
X044984Y017028D01*
X044984Y016978D01*
X044980Y016928D01*
X044972Y016879D01*
X044960Y016830D01*
X044944Y016782D01*
X044925Y016736D01*
X044902Y016692D01*
X044875Y016649D01*
X044845Y016609D01*
X044813Y016571D01*
X044777Y016536D01*
X044738Y016504D01*
X044697Y016475D01*
X044654Y016449D01*
X044609Y016427D01*
X044563Y016409D01*
X044515Y016394D01*
X044466Y016383D01*
X044417Y016376D01*
X044367Y016373D01*
X044316Y016374D01*
X044267Y016379D01*
X044217Y016388D01*
X044169Y016401D01*
X044122Y016417D01*
X044076Y016438D01*
X044032Y016462D01*
X043990Y016489D01*
X043950Y016519D01*
X043913Y016553D01*
X043879Y016590D01*
X043847Y016629D01*
X043819Y016670D01*
X043794Y016714D01*
X043773Y016759D01*
X043756Y016806D01*
X043742Y016854D01*
X043732Y016903D01*
X043726Y016953D01*
X043724Y017003D01*
D11*
X044354Y017003D03*
X022701Y003617D03*
X002229Y007160D03*
M02*
