G75*
G70*
%OFA0B0*%
%FSLAX24Y24*%
%IPPOS*%
%LPD*%
%AMOC8*
5,1,8,0,0,1.08239X$1,22.5*
%
%ADD10C,0.0000*%
%ADD11C,0.0040*%
%ADD12C,0.0160*%
%ADD13C,0.0080*%
%ADD14C,0.0030*%
%ADD15C,0.0200*%
%ADD16R,0.0157X0.0157*%
%ADD17C,0.0100*%
%ADD18C,0.0079*%
%ADD19R,0.0098X0.0098*%
%ADD20C,0.0010*%
%ADD21C,0.0060*%
%ADD22R,0.0197X0.0197*%
D10*
X000260Y000260D02*
X000260Y019945D01*
X042937Y019945D01*
X042937Y010103D01*
X043567Y010103D01*
X043567Y019945D01*
X047504Y019945D01*
X047504Y000260D01*
X000260Y000260D01*
X024433Y003410D02*
X024435Y003460D01*
X024441Y003510D01*
X024451Y003559D01*
X024465Y003607D01*
X024482Y003654D01*
X024503Y003699D01*
X024528Y003743D01*
X024556Y003784D01*
X024588Y003823D01*
X024622Y003860D01*
X024659Y003894D01*
X024699Y003924D01*
X024741Y003951D01*
X024785Y003975D01*
X024831Y003996D01*
X024878Y004012D01*
X024926Y004025D01*
X024976Y004034D01*
X025025Y004039D01*
X025076Y004040D01*
X025126Y004037D01*
X025175Y004030D01*
X025224Y004019D01*
X025272Y004004D01*
X025318Y003986D01*
X025363Y003964D01*
X025406Y003938D01*
X025447Y003909D01*
X025486Y003877D01*
X025522Y003842D01*
X025554Y003804D01*
X025584Y003764D01*
X025611Y003721D01*
X025634Y003677D01*
X025653Y003631D01*
X025669Y003583D01*
X025681Y003534D01*
X025689Y003485D01*
X025693Y003435D01*
X025693Y003385D01*
X025689Y003335D01*
X025681Y003286D01*
X025669Y003237D01*
X025653Y003189D01*
X025634Y003143D01*
X025611Y003099D01*
X025584Y003056D01*
X025554Y003016D01*
X025522Y002978D01*
X025486Y002943D01*
X025447Y002911D01*
X025406Y002882D01*
X025363Y002856D01*
X025318Y002834D01*
X025272Y002816D01*
X025224Y002801D01*
X025175Y002790D01*
X025126Y002783D01*
X025076Y002780D01*
X025025Y002781D01*
X024976Y002786D01*
X024926Y002795D01*
X024878Y002808D01*
X024831Y002824D01*
X024785Y002845D01*
X024741Y002869D01*
X024699Y002896D01*
X024659Y002926D01*
X024622Y002960D01*
X024588Y002997D01*
X024556Y003036D01*
X024528Y003077D01*
X024503Y003121D01*
X024482Y003166D01*
X024465Y003213D01*
X024451Y003261D01*
X024441Y003310D01*
X024435Y003360D01*
X024433Y003410D01*
X044906Y006953D02*
X044908Y007003D01*
X044914Y007053D01*
X044924Y007102D01*
X044938Y007150D01*
X044955Y007197D01*
X044976Y007242D01*
X045001Y007286D01*
X045029Y007327D01*
X045061Y007366D01*
X045095Y007403D01*
X045132Y007437D01*
X045172Y007467D01*
X045214Y007494D01*
X045258Y007518D01*
X045304Y007539D01*
X045351Y007555D01*
X045399Y007568D01*
X045449Y007577D01*
X045498Y007582D01*
X045549Y007583D01*
X045599Y007580D01*
X045648Y007573D01*
X045697Y007562D01*
X045745Y007547D01*
X045791Y007529D01*
X045836Y007507D01*
X045879Y007481D01*
X045920Y007452D01*
X045959Y007420D01*
X045995Y007385D01*
X046027Y007347D01*
X046057Y007307D01*
X046084Y007264D01*
X046107Y007220D01*
X046126Y007174D01*
X046142Y007126D01*
X046154Y007077D01*
X046162Y007028D01*
X046166Y006978D01*
X046166Y006928D01*
X046162Y006878D01*
X046154Y006829D01*
X046142Y006780D01*
X046126Y006732D01*
X046107Y006686D01*
X046084Y006642D01*
X046057Y006599D01*
X046027Y006559D01*
X045995Y006521D01*
X045959Y006486D01*
X045920Y006454D01*
X045879Y006425D01*
X045836Y006399D01*
X045791Y006377D01*
X045745Y006359D01*
X045697Y006344D01*
X045648Y006333D01*
X045599Y006326D01*
X045549Y006323D01*
X045498Y006324D01*
X045449Y006329D01*
X045399Y006338D01*
X045351Y006351D01*
X045304Y006367D01*
X045258Y006388D01*
X045214Y006412D01*
X045172Y006439D01*
X045132Y006469D01*
X045095Y006503D01*
X045061Y006540D01*
X045029Y006579D01*
X045001Y006620D01*
X044976Y006664D01*
X044955Y006709D01*
X044938Y006756D01*
X044924Y006804D01*
X044914Y006853D01*
X044908Y006903D01*
X044906Y006953D01*
X002780Y016795D02*
X002782Y016845D01*
X002788Y016895D01*
X002798Y016944D01*
X002812Y016992D01*
X002829Y017039D01*
X002850Y017084D01*
X002875Y017128D01*
X002903Y017169D01*
X002935Y017208D01*
X002969Y017245D01*
X003006Y017279D01*
X003046Y017309D01*
X003088Y017336D01*
X003132Y017360D01*
X003178Y017381D01*
X003225Y017397D01*
X003273Y017410D01*
X003323Y017419D01*
X003372Y017424D01*
X003423Y017425D01*
X003473Y017422D01*
X003522Y017415D01*
X003571Y017404D01*
X003619Y017389D01*
X003665Y017371D01*
X003710Y017349D01*
X003753Y017323D01*
X003794Y017294D01*
X003833Y017262D01*
X003869Y017227D01*
X003901Y017189D01*
X003931Y017149D01*
X003958Y017106D01*
X003981Y017062D01*
X004000Y017016D01*
X004016Y016968D01*
X004028Y016919D01*
X004036Y016870D01*
X004040Y016820D01*
X004040Y016770D01*
X004036Y016720D01*
X004028Y016671D01*
X004016Y016622D01*
X004000Y016574D01*
X003981Y016528D01*
X003958Y016484D01*
X003931Y016441D01*
X003901Y016401D01*
X003869Y016363D01*
X003833Y016328D01*
X003794Y016296D01*
X003753Y016267D01*
X003710Y016241D01*
X003665Y016219D01*
X003619Y016201D01*
X003571Y016186D01*
X003522Y016175D01*
X003473Y016168D01*
X003423Y016165D01*
X003372Y016166D01*
X003323Y016171D01*
X003273Y016180D01*
X003225Y016193D01*
X003178Y016209D01*
X003132Y016230D01*
X003088Y016254D01*
X003046Y016281D01*
X003006Y016311D01*
X002969Y016345D01*
X002935Y016382D01*
X002903Y016421D01*
X002875Y016462D01*
X002850Y016506D01*
X002829Y016551D01*
X002812Y016598D01*
X002798Y016646D01*
X002788Y016695D01*
X002782Y016745D01*
X002780Y016795D01*
D11*
X019825Y019208D02*
X019978Y018901D01*
X020131Y019208D01*
X020285Y019132D02*
X020362Y019208D01*
X020515Y019208D01*
X020592Y019132D01*
X020592Y019055D01*
X020285Y019055D01*
X020285Y018978D02*
X020285Y019132D01*
X020285Y018978D02*
X020362Y018901D01*
X020515Y018901D01*
X020745Y018901D02*
X020745Y019208D01*
X020745Y019055D02*
X020899Y019208D01*
X020976Y019208D01*
X021589Y019132D02*
X021896Y019132D01*
X021820Y019362D02*
X021589Y019132D01*
X021820Y019362D02*
X021820Y018901D01*
X022510Y018901D02*
X022510Y019208D01*
X022510Y019055D02*
X022664Y019208D01*
X022740Y019208D01*
X022894Y019132D02*
X022971Y019208D01*
X023124Y019208D01*
X023201Y019132D01*
X023201Y019055D01*
X022894Y019055D01*
X022894Y018978D02*
X022894Y019132D01*
X022894Y018978D02*
X022971Y018901D01*
X023124Y018901D01*
X023508Y018901D02*
X023661Y019208D01*
X023354Y019208D02*
X023508Y018901D01*
X024275Y018901D02*
X024505Y018901D01*
X024582Y018978D01*
X024582Y019055D01*
X024505Y019132D01*
X024275Y019132D01*
X024275Y019362D02*
X024275Y018901D01*
X024505Y019132D02*
X024582Y019208D01*
X024582Y019285D01*
X024505Y019362D01*
X024275Y019362D01*
X025656Y019285D02*
X025733Y019362D01*
X025886Y019362D01*
X025963Y019285D01*
X025963Y019208D01*
X025656Y018901D01*
X025963Y018901D01*
X026117Y018901D02*
X026424Y018901D01*
X026577Y018901D02*
X026884Y019362D01*
X027037Y019208D02*
X027191Y019362D01*
X027191Y018901D01*
X027344Y018901D02*
X027037Y018901D01*
X027498Y018901D02*
X027805Y019208D01*
X027805Y019285D01*
X027728Y019362D01*
X027575Y019362D01*
X027498Y019285D01*
X027498Y018901D02*
X027805Y018901D01*
X027958Y018901D02*
X028265Y019362D01*
X028419Y019285D02*
X028495Y019362D01*
X028649Y019362D01*
X028725Y019285D01*
X028725Y019208D01*
X028419Y018901D01*
X028725Y018901D01*
X028879Y018978D02*
X029186Y019285D01*
X029186Y018978D01*
X029109Y018901D01*
X028956Y018901D01*
X028879Y018978D01*
X028879Y019285D01*
X028956Y019362D01*
X029109Y019362D01*
X029186Y019285D01*
X029339Y019208D02*
X029493Y019362D01*
X029493Y018901D01*
X029646Y018901D02*
X029339Y018901D01*
X029800Y018901D02*
X030107Y019208D01*
X030107Y019285D01*
X030030Y019362D01*
X029876Y019362D01*
X029800Y019285D01*
X029800Y018901D02*
X030107Y018901D01*
X026270Y018901D02*
X026270Y019362D01*
X026117Y019208D01*
X039551Y016618D02*
X039551Y015398D01*
X039916Y015801D02*
X039916Y016215D01*
X040526Y016215D02*
X040526Y015801D01*
X040890Y015398D02*
X040890Y016441D01*
X040791Y016540D01*
X040801Y016618D02*
X040890Y016618D01*
X040890Y016441D01*
X020638Y003079D02*
X020561Y003155D01*
X020638Y003079D02*
X020638Y002925D01*
X020561Y002849D01*
X020254Y002849D01*
X020177Y002925D01*
X020177Y003079D01*
X020254Y003155D01*
X018038Y003155D02*
X017731Y003155D01*
X017577Y003002D01*
X017731Y002849D01*
X018038Y002849D01*
X017807Y002849D02*
X017807Y003155D01*
X017807Y001555D02*
X017807Y001249D01*
X017731Y001249D02*
X017577Y001402D01*
X017731Y001555D01*
X018038Y001555D01*
X018038Y001249D02*
X017731Y001249D01*
X020177Y001402D02*
X020331Y001555D01*
X020638Y001555D01*
X020407Y001555D02*
X020407Y001249D01*
X020331Y001249D02*
X020177Y001402D01*
X020331Y001249D02*
X020638Y001249D01*
X005090Y002038D02*
X005090Y002345D01*
X004859Y002192D02*
X004859Y002038D01*
X004629Y002038D02*
X005090Y002038D01*
X004629Y002038D02*
X004629Y002345D01*
X002390Y002338D02*
X002390Y002645D01*
X002390Y002338D02*
X001929Y002338D01*
X002006Y002185D02*
X001929Y002108D01*
X001929Y001954D01*
X002006Y001878D01*
X002313Y001878D01*
X002390Y001954D01*
X002390Y002108D01*
X002313Y002185D01*
X002006Y002185D01*
X002006Y001724D02*
X001929Y001648D01*
X001929Y001494D01*
X002006Y001417D01*
X002313Y001417D01*
X002390Y001494D01*
X002390Y001648D01*
X002313Y001724D01*
D12*
X034334Y013360D02*
X037034Y013360D01*
X037034Y014560D01*
X034334Y014560D01*
X034334Y013360D01*
X034718Y013960D02*
X034720Y013995D01*
X034726Y014030D01*
X034736Y014064D01*
X034749Y014097D01*
X034766Y014128D01*
X034787Y014157D01*
X034811Y014183D01*
X034837Y014207D01*
X034866Y014228D01*
X034897Y014245D01*
X034930Y014258D01*
X034964Y014268D01*
X034999Y014274D01*
X035034Y014276D01*
X035069Y014274D01*
X035104Y014268D01*
X035138Y014258D01*
X035171Y014245D01*
X035202Y014228D01*
X035231Y014207D01*
X035257Y014183D01*
X035281Y014157D01*
X035302Y014128D01*
X035319Y014097D01*
X035332Y014064D01*
X035342Y014030D01*
X035348Y013995D01*
X035350Y013960D01*
X035348Y013925D01*
X035342Y013890D01*
X035332Y013856D01*
X035319Y013823D01*
X035302Y013792D01*
X035281Y013763D01*
X035257Y013737D01*
X035231Y013713D01*
X035202Y013692D01*
X035171Y013675D01*
X035138Y013662D01*
X035104Y013652D01*
X035069Y013646D01*
X035034Y013644D01*
X034999Y013646D01*
X034964Y013652D01*
X034930Y013662D01*
X034897Y013675D01*
X034866Y013692D01*
X034837Y013713D01*
X034811Y013737D01*
X034787Y013763D01*
X034766Y013792D01*
X034749Y013823D01*
X034736Y013856D01*
X034726Y013890D01*
X034720Y013925D01*
X034718Y013960D01*
X036018Y013960D02*
X036020Y013995D01*
X036026Y014030D01*
X036036Y014064D01*
X036049Y014097D01*
X036066Y014128D01*
X036087Y014157D01*
X036111Y014183D01*
X036137Y014207D01*
X036166Y014228D01*
X036197Y014245D01*
X036230Y014258D01*
X036264Y014268D01*
X036299Y014274D01*
X036334Y014276D01*
X036369Y014274D01*
X036404Y014268D01*
X036438Y014258D01*
X036471Y014245D01*
X036502Y014228D01*
X036531Y014207D01*
X036557Y014183D01*
X036581Y014157D01*
X036602Y014128D01*
X036619Y014097D01*
X036632Y014064D01*
X036642Y014030D01*
X036648Y013995D01*
X036650Y013960D01*
X036648Y013925D01*
X036642Y013890D01*
X036632Y013856D01*
X036619Y013823D01*
X036602Y013792D01*
X036581Y013763D01*
X036557Y013737D01*
X036531Y013713D01*
X036502Y013692D01*
X036471Y013675D01*
X036438Y013662D01*
X036404Y013652D01*
X036369Y013646D01*
X036334Y013644D01*
X036299Y013646D01*
X036264Y013652D01*
X036230Y013662D01*
X036197Y013675D01*
X036166Y013692D01*
X036137Y013713D01*
X036111Y013737D01*
X036087Y013763D01*
X036066Y013792D01*
X036049Y013823D01*
X036036Y013856D01*
X036026Y013890D01*
X036020Y013925D01*
X036018Y013960D01*
X041334Y017760D02*
X041934Y017160D01*
X041934Y017760D01*
X041334Y017760D01*
D13*
X043561Y019261D02*
X043561Y019721D01*
X043561Y011181D02*
X043561Y010721D01*
X044867Y006953D02*
X044869Y007004D01*
X044875Y007055D01*
X044885Y007105D01*
X044898Y007155D01*
X044916Y007203D01*
X044936Y007250D01*
X044961Y007295D01*
X044989Y007338D01*
X045020Y007379D01*
X045054Y007417D01*
X045091Y007452D01*
X045130Y007485D01*
X045172Y007515D01*
X045216Y007541D01*
X045262Y007563D01*
X045310Y007583D01*
X045359Y007598D01*
X045409Y007610D01*
X045459Y007618D01*
X045510Y007622D01*
X045562Y007622D01*
X045613Y007618D01*
X045663Y007610D01*
X045713Y007598D01*
X045762Y007583D01*
X045810Y007563D01*
X045856Y007541D01*
X045900Y007515D01*
X045942Y007485D01*
X045981Y007452D01*
X046018Y007417D01*
X046052Y007379D01*
X046083Y007338D01*
X046111Y007295D01*
X046136Y007250D01*
X046156Y007203D01*
X046174Y007155D01*
X046187Y007105D01*
X046197Y007055D01*
X046203Y007004D01*
X046205Y006953D01*
X046203Y006902D01*
X046197Y006851D01*
X046187Y006801D01*
X046174Y006751D01*
X046156Y006703D01*
X046136Y006656D01*
X046111Y006611D01*
X046083Y006568D01*
X046052Y006527D01*
X046018Y006489D01*
X045981Y006454D01*
X045942Y006421D01*
X045900Y006391D01*
X045856Y006365D01*
X045810Y006343D01*
X045762Y006323D01*
X045713Y006308D01*
X045663Y006296D01*
X045613Y006288D01*
X045562Y006284D01*
X045510Y006284D01*
X045459Y006288D01*
X045409Y006296D01*
X045359Y006308D01*
X045310Y006323D01*
X045262Y006343D01*
X045216Y006365D01*
X045172Y006391D01*
X045130Y006421D01*
X045091Y006454D01*
X045054Y006489D01*
X045020Y006527D01*
X044989Y006568D01*
X044961Y006611D01*
X044936Y006656D01*
X044916Y006703D01*
X044898Y006751D01*
X044885Y006801D01*
X044875Y006851D01*
X044869Y006902D01*
X044867Y006953D01*
X024394Y003410D02*
X024396Y003461D01*
X024402Y003512D01*
X024412Y003562D01*
X024425Y003612D01*
X024443Y003660D01*
X024463Y003707D01*
X024488Y003752D01*
X024516Y003795D01*
X024547Y003836D01*
X024581Y003874D01*
X024618Y003909D01*
X024657Y003942D01*
X024699Y003972D01*
X024743Y003998D01*
X024789Y004020D01*
X024837Y004040D01*
X024886Y004055D01*
X024936Y004067D01*
X024986Y004075D01*
X025037Y004079D01*
X025089Y004079D01*
X025140Y004075D01*
X025190Y004067D01*
X025240Y004055D01*
X025289Y004040D01*
X025337Y004020D01*
X025383Y003998D01*
X025427Y003972D01*
X025469Y003942D01*
X025508Y003909D01*
X025545Y003874D01*
X025579Y003836D01*
X025610Y003795D01*
X025638Y003752D01*
X025663Y003707D01*
X025683Y003660D01*
X025701Y003612D01*
X025714Y003562D01*
X025724Y003512D01*
X025730Y003461D01*
X025732Y003410D01*
X025730Y003359D01*
X025724Y003308D01*
X025714Y003258D01*
X025701Y003208D01*
X025683Y003160D01*
X025663Y003113D01*
X025638Y003068D01*
X025610Y003025D01*
X025579Y002984D01*
X025545Y002946D01*
X025508Y002911D01*
X025469Y002878D01*
X025427Y002848D01*
X025383Y002822D01*
X025337Y002800D01*
X025289Y002780D01*
X025240Y002765D01*
X025190Y002753D01*
X025140Y002745D01*
X025089Y002741D01*
X025037Y002741D01*
X024986Y002745D01*
X024936Y002753D01*
X024886Y002765D01*
X024837Y002780D01*
X024789Y002800D01*
X024743Y002822D01*
X024699Y002848D01*
X024657Y002878D01*
X024618Y002911D01*
X024581Y002946D01*
X024547Y002984D01*
X024516Y003025D01*
X024488Y003068D01*
X024463Y003113D01*
X024443Y003160D01*
X024425Y003208D01*
X024412Y003258D01*
X024402Y003308D01*
X024396Y003359D01*
X024394Y003410D01*
X002741Y016795D02*
X002743Y016846D01*
X002749Y016897D01*
X002759Y016947D01*
X002772Y016997D01*
X002790Y017045D01*
X002810Y017092D01*
X002835Y017137D01*
X002863Y017180D01*
X002894Y017221D01*
X002928Y017259D01*
X002965Y017294D01*
X003004Y017327D01*
X003046Y017357D01*
X003090Y017383D01*
X003136Y017405D01*
X003184Y017425D01*
X003233Y017440D01*
X003283Y017452D01*
X003333Y017460D01*
X003384Y017464D01*
X003436Y017464D01*
X003487Y017460D01*
X003537Y017452D01*
X003587Y017440D01*
X003636Y017425D01*
X003684Y017405D01*
X003730Y017383D01*
X003774Y017357D01*
X003816Y017327D01*
X003855Y017294D01*
X003892Y017259D01*
X003926Y017221D01*
X003957Y017180D01*
X003985Y017137D01*
X004010Y017092D01*
X004030Y017045D01*
X004048Y016997D01*
X004061Y016947D01*
X004071Y016897D01*
X004077Y016846D01*
X004079Y016795D01*
X004077Y016744D01*
X004071Y016693D01*
X004061Y016643D01*
X004048Y016593D01*
X004030Y016545D01*
X004010Y016498D01*
X003985Y016453D01*
X003957Y016410D01*
X003926Y016369D01*
X003892Y016331D01*
X003855Y016296D01*
X003816Y016263D01*
X003774Y016233D01*
X003730Y016207D01*
X003684Y016185D01*
X003636Y016165D01*
X003587Y016150D01*
X003537Y016138D01*
X003487Y016130D01*
X003436Y016126D01*
X003384Y016126D01*
X003333Y016130D01*
X003283Y016138D01*
X003233Y016150D01*
X003184Y016165D01*
X003136Y016185D01*
X003090Y016207D01*
X003046Y016233D01*
X003004Y016263D01*
X002965Y016296D01*
X002928Y016331D01*
X002894Y016369D01*
X002863Y016410D01*
X002835Y016453D01*
X002810Y016498D01*
X002790Y016545D01*
X002772Y016593D01*
X002759Y016643D01*
X002749Y016693D01*
X002743Y016744D01*
X002741Y016795D01*
D14*
X017743Y004214D02*
X017866Y004214D01*
X017804Y004214D02*
X017804Y003844D01*
X017743Y003844D02*
X017866Y003844D01*
X017988Y003844D02*
X017988Y004214D01*
X018173Y004214D01*
X018235Y004152D01*
X018235Y004029D01*
X018173Y003967D01*
X017988Y003967D01*
X018112Y003967D02*
X018235Y003844D01*
X018356Y003782D02*
X018603Y003782D01*
X018725Y003844D02*
X018972Y003844D01*
X019093Y003844D02*
X019340Y003844D01*
X019461Y003844D02*
X019647Y003844D01*
X019708Y003905D01*
X019708Y004152D01*
X019647Y004214D01*
X019461Y004214D01*
X019461Y003844D01*
X019217Y004029D02*
X019093Y004029D01*
X019093Y004214D02*
X019093Y003844D01*
X018725Y003844D02*
X018725Y004214D01*
X019093Y004214D02*
X019340Y004214D01*
X019830Y003782D02*
X020077Y003782D01*
X020198Y003844D02*
X020445Y003844D01*
X020198Y003844D02*
X020198Y004214D01*
X005226Y003144D02*
X004979Y003144D01*
X004979Y003514D01*
X004490Y003452D02*
X004428Y003514D01*
X004304Y003514D01*
X004243Y003452D01*
X004243Y003390D01*
X004304Y003329D01*
X004428Y003329D01*
X004490Y003267D01*
X004490Y003205D01*
X004428Y003144D01*
X004304Y003144D01*
X004243Y003205D01*
X004121Y003144D02*
X004121Y003514D01*
X003874Y003514D02*
X004121Y003144D01*
X003874Y003144D02*
X003874Y003514D01*
X003753Y003390D02*
X003753Y003144D01*
X003753Y003329D02*
X003506Y003329D01*
X003506Y003390D02*
X003629Y003514D01*
X003753Y003390D01*
X003506Y003390D02*
X003506Y003144D01*
X003385Y003144D02*
X003261Y003267D01*
X003323Y003267D02*
X003138Y003267D01*
X003138Y003144D02*
X003138Y003514D01*
X003323Y003514D01*
X003385Y003452D01*
X003385Y003329D01*
X003323Y003267D01*
X003016Y003514D02*
X002769Y003514D01*
X002893Y003514D02*
X002893Y003144D01*
X002648Y003082D02*
X002401Y003082D01*
X002280Y003144D02*
X002156Y003267D01*
X002218Y003267D02*
X002033Y003267D01*
X002033Y003144D02*
X002033Y003514D01*
X002218Y003514D01*
X002280Y003452D01*
X002280Y003329D01*
X002218Y003267D01*
X001911Y003144D02*
X001787Y003144D01*
X001849Y003144D02*
X001849Y003514D01*
X001787Y003514D02*
X001911Y003514D01*
X004611Y003082D02*
X004858Y003082D01*
X039377Y017925D02*
X039624Y017925D01*
X039746Y017987D02*
X039993Y017987D01*
X040114Y017987D02*
X040361Y017987D01*
X040482Y017987D02*
X040668Y017987D01*
X040729Y018049D01*
X040729Y018296D01*
X040668Y018357D01*
X040482Y018357D01*
X040482Y017987D01*
X040238Y018172D02*
X040114Y018172D01*
X040114Y018357D02*
X040114Y017987D01*
X039746Y017987D02*
X039746Y018357D01*
X040114Y018357D02*
X040361Y018357D01*
X040851Y017925D02*
X041098Y017925D01*
X041219Y017987D02*
X041466Y017987D01*
X041219Y017987D02*
X041219Y018357D01*
X039256Y018296D02*
X039256Y018234D01*
X039194Y018172D01*
X039009Y018172D01*
X038888Y018172D02*
X038764Y018172D01*
X038888Y018172D02*
X038888Y018049D01*
X038826Y017987D01*
X038703Y017987D01*
X038641Y018049D01*
X038641Y018296D01*
X038703Y018357D01*
X038826Y018357D01*
X038888Y018296D01*
X039009Y018357D02*
X039194Y018357D01*
X039256Y018296D01*
X039194Y018172D02*
X039256Y018110D01*
X039256Y018049D01*
X039194Y017987D01*
X039009Y017987D01*
X039009Y018357D01*
X038519Y018296D02*
X038519Y018172D01*
X038458Y018110D01*
X038273Y018110D01*
X038396Y018110D02*
X038519Y017987D01*
X038273Y017987D02*
X038273Y018357D01*
X038458Y018357D01*
X038519Y018296D01*
X044676Y017926D02*
X044676Y017636D01*
X044676Y017732D02*
X044821Y017732D01*
X044869Y017781D01*
X044869Y017878D01*
X044821Y017926D01*
X044676Y017926D01*
X044970Y017587D02*
X045164Y017587D01*
X045265Y017684D02*
X045313Y017636D01*
X045410Y017636D01*
X045459Y017684D01*
X045459Y017732D01*
X045410Y017781D01*
X045313Y017781D01*
X045265Y017829D01*
X045265Y017878D01*
X045313Y017926D01*
X045410Y017926D01*
X045459Y017878D01*
X045560Y017926D02*
X045560Y017636D01*
X045753Y017636D01*
X045854Y017636D02*
X045854Y017926D01*
X046048Y017636D01*
X046048Y017926D01*
X046149Y017878D02*
X046149Y017829D01*
X046197Y017781D01*
X046294Y017781D01*
X046343Y017732D01*
X046343Y017684D01*
X046294Y017636D01*
X046197Y017636D01*
X046149Y017684D01*
X046149Y017878D02*
X046197Y017926D01*
X046294Y017926D01*
X046343Y017878D01*
X045753Y017926D02*
X045560Y017926D01*
X045560Y017781D02*
X045656Y017781D01*
X045410Y018636D02*
X045313Y018636D01*
X045265Y018684D01*
X045265Y018878D01*
X045313Y018926D01*
X045410Y018926D01*
X045459Y018878D01*
X045459Y018684D02*
X045410Y018636D01*
X045164Y018684D02*
X045116Y018636D01*
X045019Y018636D01*
X044970Y018684D01*
X044970Y018878D01*
X045019Y018926D01*
X045116Y018926D01*
X045164Y018878D01*
X044869Y018926D02*
X044869Y018732D01*
X044773Y018636D01*
X044676Y018732D01*
X044676Y018926D01*
X044676Y016926D02*
X044821Y016926D01*
X044869Y016878D01*
X044869Y016781D01*
X044821Y016732D01*
X044676Y016732D01*
X044676Y016636D02*
X044676Y016926D01*
X044970Y016587D02*
X045164Y016587D01*
X045265Y016636D02*
X045459Y016636D01*
X045560Y016636D02*
X045560Y016926D01*
X045656Y016829D01*
X045753Y016926D01*
X045753Y016636D01*
X045854Y016636D02*
X045951Y016636D01*
X045903Y016636D02*
X045903Y016926D01*
X045951Y016926D02*
X045854Y016926D01*
X046051Y016926D02*
X046244Y016926D01*
X046148Y016926D02*
X046148Y016636D01*
X045459Y016926D02*
X045265Y016926D01*
X045265Y016636D01*
X045265Y016781D02*
X045362Y016781D01*
X045510Y015926D02*
X045462Y015878D01*
X045462Y015829D01*
X045510Y015781D01*
X045607Y015781D01*
X045655Y015732D01*
X045655Y015684D01*
X045607Y015636D01*
X045510Y015636D01*
X045462Y015684D01*
X045360Y015587D02*
X045167Y015587D01*
X045066Y015636D02*
X044969Y015732D01*
X045017Y015732D02*
X044872Y015732D01*
X044872Y015636D02*
X044872Y015926D01*
X045017Y015926D01*
X045066Y015878D01*
X045066Y015781D01*
X045017Y015732D01*
X044773Y015636D02*
X044676Y015636D01*
X044724Y015636D02*
X044724Y015926D01*
X044676Y015926D02*
X044773Y015926D01*
X045510Y015926D02*
X045607Y015926D01*
X045655Y015878D01*
X045756Y015926D02*
X045756Y015636D01*
X045950Y015636D01*
X046051Y015636D02*
X046051Y015926D01*
X046244Y015636D01*
X046244Y015926D01*
X046345Y015878D02*
X046345Y015829D01*
X046394Y015781D01*
X046491Y015781D01*
X046539Y015732D01*
X046539Y015684D01*
X046491Y015636D01*
X046394Y015636D01*
X046345Y015684D01*
X046345Y015878D02*
X046394Y015926D01*
X046491Y015926D01*
X046539Y015878D01*
X045950Y015926D02*
X045756Y015926D01*
X045756Y015781D02*
X045853Y015781D01*
X045950Y014926D02*
X045853Y014829D01*
X045756Y014926D01*
X045756Y014636D01*
X045655Y014636D02*
X045462Y014636D01*
X045462Y014926D01*
X045655Y014926D01*
X045558Y014781D02*
X045462Y014781D01*
X045360Y014587D02*
X045167Y014587D01*
X045066Y014636D02*
X044969Y014732D01*
X045017Y014732D02*
X044872Y014732D01*
X044872Y014636D02*
X044872Y014926D01*
X045017Y014926D01*
X045066Y014878D01*
X045066Y014781D01*
X045017Y014732D01*
X044773Y014636D02*
X044676Y014636D01*
X044724Y014636D02*
X044724Y014926D01*
X044676Y014926D02*
X044773Y014926D01*
X045950Y014926D02*
X045950Y014636D01*
X046051Y014636D02*
X046148Y014636D01*
X046099Y014636D02*
X046099Y014926D01*
X046051Y014926D02*
X046148Y014926D01*
X046247Y014926D02*
X046441Y014926D01*
X046344Y014926D02*
X046344Y014636D01*
X045753Y013926D02*
X045560Y013926D01*
X045560Y013636D01*
X045753Y013636D01*
X045656Y013781D02*
X045560Y013781D01*
X045459Y013684D02*
X045459Y013926D01*
X045265Y013926D02*
X045265Y013684D01*
X045313Y013636D01*
X045410Y013636D01*
X045459Y013684D01*
X045164Y013636D02*
X044970Y013636D01*
X044970Y013926D01*
X044869Y013878D02*
X044869Y013829D01*
X044821Y013781D01*
X044676Y013781D01*
X044676Y013926D02*
X044821Y013926D01*
X044869Y013878D01*
X044821Y013781D02*
X044869Y013732D01*
X044869Y013684D01*
X044821Y013636D01*
X044676Y013636D01*
X044676Y013926D01*
X044724Y012926D02*
X044676Y012878D01*
X044676Y012684D01*
X044724Y012636D01*
X044821Y012636D01*
X044869Y012684D01*
X044869Y012781D01*
X044773Y012781D01*
X044869Y012878D02*
X044821Y012926D01*
X044724Y012926D01*
X044970Y012926D02*
X044970Y012636D01*
X044970Y012732D02*
X045116Y012732D01*
X045164Y012781D01*
X045164Y012878D01*
X045116Y012926D01*
X044970Y012926D01*
X045067Y012732D02*
X045164Y012636D01*
X045265Y012636D02*
X045459Y012636D01*
X045560Y012636D02*
X045753Y012636D01*
X045854Y012636D02*
X045854Y012926D01*
X046048Y012636D01*
X046048Y012926D01*
X045753Y012926D02*
X045560Y012926D01*
X045560Y012636D01*
X045560Y012781D02*
X045656Y012781D01*
X045459Y012926D02*
X045265Y012926D01*
X045265Y012636D01*
X045265Y012781D02*
X045362Y012781D01*
X045410Y011926D02*
X045265Y011926D01*
X045265Y011636D01*
X045410Y011636D01*
X045459Y011684D01*
X045459Y011878D01*
X045410Y011926D01*
X045164Y011926D02*
X044970Y011926D01*
X044970Y011636D01*
X045164Y011636D01*
X045067Y011781D02*
X044970Y011781D01*
X044869Y011781D02*
X044821Y011732D01*
X044676Y011732D01*
X044676Y011636D02*
X044676Y011926D01*
X044821Y011926D01*
X044869Y011878D01*
X044869Y011781D01*
X044773Y011732D02*
X044869Y011636D01*
D15*
X046398Y003872D02*
X046398Y003338D01*
X046398Y003605D02*
X047198Y003605D01*
X046398Y002951D02*
X046398Y002417D01*
X047198Y002417D01*
X047198Y002030D02*
X047198Y001497D01*
X046398Y001497D01*
X046398Y002030D01*
X046798Y002417D02*
X046798Y002684D01*
X046798Y001763D02*
X046798Y001497D01*
X047198Y001110D02*
X047198Y000576D01*
X046398Y000576D01*
D16*
X019158Y002229D03*
D17*
X020758Y003529D02*
X021258Y003029D01*
X021258Y003529D01*
X020758Y003529D01*
X001910Y002929D02*
X001610Y002629D01*
X001610Y002929D01*
X001910Y002929D01*
D18*
X019512Y002780D02*
X019788Y002504D01*
D19*
X040122Y015890D03*
X040319Y016008D03*
X040122Y016126D03*
D20*
X036782Y011766D02*
X036782Y011676D01*
X036842Y011676D01*
X036750Y011691D02*
X036750Y011751D01*
X036735Y011766D01*
X036705Y011766D01*
X036690Y011751D01*
X036690Y011691D01*
X036705Y011676D01*
X036735Y011676D01*
X036750Y011691D01*
X036658Y011691D02*
X036643Y011676D01*
X036613Y011676D01*
X036598Y011691D01*
X036598Y011751D01*
X036613Y011766D01*
X036643Y011766D01*
X036658Y011751D01*
X036158Y011766D02*
X036098Y011766D01*
X036098Y011676D01*
X036158Y011676D01*
X036128Y011721D02*
X036098Y011721D01*
X035342Y011766D02*
X035282Y011766D01*
X035312Y011766D02*
X035312Y011676D01*
X035250Y011676D02*
X035250Y011736D01*
X035220Y011766D01*
X035190Y011736D01*
X035190Y011676D01*
X035158Y011691D02*
X035143Y011676D01*
X035113Y011676D01*
X035098Y011691D01*
X035098Y011751D01*
X035113Y011766D01*
X035143Y011766D01*
X035158Y011751D01*
X035190Y011721D02*
X035250Y011721D01*
X034658Y011721D02*
X034598Y011721D01*
X034598Y011736D02*
X034628Y011766D01*
X034658Y011736D01*
X034658Y011676D01*
X034598Y011676D02*
X034598Y011736D01*
D21*
X044186Y006953D02*
X044188Y007026D01*
X044194Y007099D01*
X044204Y007171D01*
X044218Y007243D01*
X044235Y007314D01*
X044257Y007384D01*
X044282Y007453D01*
X044311Y007520D01*
X044343Y007585D01*
X044379Y007649D01*
X044419Y007711D01*
X044461Y007770D01*
X044507Y007827D01*
X044556Y007881D01*
X044608Y007933D01*
X044662Y007982D01*
X044719Y008028D01*
X044778Y008070D01*
X044840Y008110D01*
X044904Y008146D01*
X044969Y008178D01*
X045036Y008207D01*
X045105Y008232D01*
X045175Y008254D01*
X045246Y008271D01*
X045318Y008285D01*
X045390Y008295D01*
X045463Y008301D01*
X045536Y008303D01*
X045609Y008301D01*
X045682Y008295D01*
X045754Y008285D01*
X045826Y008271D01*
X045897Y008254D01*
X045967Y008232D01*
X046036Y008207D01*
X046103Y008178D01*
X046168Y008146D01*
X046232Y008110D01*
X046294Y008070D01*
X046353Y008028D01*
X046410Y007982D01*
X046464Y007933D01*
X046516Y007881D01*
X046565Y007827D01*
X046611Y007770D01*
X046653Y007711D01*
X046693Y007649D01*
X046729Y007585D01*
X046761Y007520D01*
X046790Y007453D01*
X046815Y007384D01*
X046837Y007314D01*
X046854Y007243D01*
X046868Y007171D01*
X046878Y007099D01*
X046884Y007026D01*
X046886Y006953D01*
X046884Y006880D01*
X046878Y006807D01*
X046868Y006735D01*
X046854Y006663D01*
X046837Y006592D01*
X046815Y006522D01*
X046790Y006453D01*
X046761Y006386D01*
X046729Y006321D01*
X046693Y006257D01*
X046653Y006195D01*
X046611Y006136D01*
X046565Y006079D01*
X046516Y006025D01*
X046464Y005973D01*
X046410Y005924D01*
X046353Y005878D01*
X046294Y005836D01*
X046232Y005796D01*
X046168Y005760D01*
X046103Y005728D01*
X046036Y005699D01*
X045967Y005674D01*
X045897Y005652D01*
X045826Y005635D01*
X045754Y005621D01*
X045682Y005611D01*
X045609Y005605D01*
X045536Y005603D01*
X045463Y005605D01*
X045390Y005611D01*
X045318Y005621D01*
X045246Y005635D01*
X045175Y005652D01*
X045105Y005674D01*
X045036Y005699D01*
X044969Y005728D01*
X044904Y005760D01*
X044840Y005796D01*
X044778Y005836D01*
X044719Y005878D01*
X044662Y005924D01*
X044608Y005973D01*
X044556Y006025D01*
X044507Y006079D01*
X044461Y006136D01*
X044419Y006195D01*
X044379Y006257D01*
X044343Y006321D01*
X044311Y006386D01*
X044282Y006453D01*
X044257Y006522D01*
X044235Y006592D01*
X044218Y006663D01*
X044204Y006735D01*
X044194Y006807D01*
X044188Y006880D01*
X044186Y006953D01*
X023713Y003410D02*
X023715Y003483D01*
X023721Y003556D01*
X023731Y003628D01*
X023745Y003700D01*
X023762Y003771D01*
X023784Y003841D01*
X023809Y003910D01*
X023838Y003977D01*
X023870Y004042D01*
X023906Y004106D01*
X023946Y004168D01*
X023988Y004227D01*
X024034Y004284D01*
X024083Y004338D01*
X024135Y004390D01*
X024189Y004439D01*
X024246Y004485D01*
X024305Y004527D01*
X024367Y004567D01*
X024431Y004603D01*
X024496Y004635D01*
X024563Y004664D01*
X024632Y004689D01*
X024702Y004711D01*
X024773Y004728D01*
X024845Y004742D01*
X024917Y004752D01*
X024990Y004758D01*
X025063Y004760D01*
X025136Y004758D01*
X025209Y004752D01*
X025281Y004742D01*
X025353Y004728D01*
X025424Y004711D01*
X025494Y004689D01*
X025563Y004664D01*
X025630Y004635D01*
X025695Y004603D01*
X025759Y004567D01*
X025821Y004527D01*
X025880Y004485D01*
X025937Y004439D01*
X025991Y004390D01*
X026043Y004338D01*
X026092Y004284D01*
X026138Y004227D01*
X026180Y004168D01*
X026220Y004106D01*
X026256Y004042D01*
X026288Y003977D01*
X026317Y003910D01*
X026342Y003841D01*
X026364Y003771D01*
X026381Y003700D01*
X026395Y003628D01*
X026405Y003556D01*
X026411Y003483D01*
X026413Y003410D01*
X026411Y003337D01*
X026405Y003264D01*
X026395Y003192D01*
X026381Y003120D01*
X026364Y003049D01*
X026342Y002979D01*
X026317Y002910D01*
X026288Y002843D01*
X026256Y002778D01*
X026220Y002714D01*
X026180Y002652D01*
X026138Y002593D01*
X026092Y002536D01*
X026043Y002482D01*
X025991Y002430D01*
X025937Y002381D01*
X025880Y002335D01*
X025821Y002293D01*
X025759Y002253D01*
X025695Y002217D01*
X025630Y002185D01*
X025563Y002156D01*
X025494Y002131D01*
X025424Y002109D01*
X025353Y002092D01*
X025281Y002078D01*
X025209Y002068D01*
X025136Y002062D01*
X025063Y002060D01*
X024990Y002062D01*
X024917Y002068D01*
X024845Y002078D01*
X024773Y002092D01*
X024702Y002109D01*
X024632Y002131D01*
X024563Y002156D01*
X024496Y002185D01*
X024431Y002217D01*
X024367Y002253D01*
X024305Y002293D01*
X024246Y002335D01*
X024189Y002381D01*
X024135Y002430D01*
X024083Y002482D01*
X024034Y002536D01*
X023988Y002593D01*
X023946Y002652D01*
X023906Y002714D01*
X023870Y002778D01*
X023838Y002843D01*
X023809Y002910D01*
X023784Y002979D01*
X023762Y003049D01*
X023745Y003120D01*
X023731Y003192D01*
X023721Y003264D01*
X023715Y003337D01*
X023713Y003410D01*
X002060Y016795D02*
X002062Y016868D01*
X002068Y016941D01*
X002078Y017013D01*
X002092Y017085D01*
X002109Y017156D01*
X002131Y017226D01*
X002156Y017295D01*
X002185Y017362D01*
X002217Y017427D01*
X002253Y017491D01*
X002293Y017553D01*
X002335Y017612D01*
X002381Y017669D01*
X002430Y017723D01*
X002482Y017775D01*
X002536Y017824D01*
X002593Y017870D01*
X002652Y017912D01*
X002714Y017952D01*
X002778Y017988D01*
X002843Y018020D01*
X002910Y018049D01*
X002979Y018074D01*
X003049Y018096D01*
X003120Y018113D01*
X003192Y018127D01*
X003264Y018137D01*
X003337Y018143D01*
X003410Y018145D01*
X003483Y018143D01*
X003556Y018137D01*
X003628Y018127D01*
X003700Y018113D01*
X003771Y018096D01*
X003841Y018074D01*
X003910Y018049D01*
X003977Y018020D01*
X004042Y017988D01*
X004106Y017952D01*
X004168Y017912D01*
X004227Y017870D01*
X004284Y017824D01*
X004338Y017775D01*
X004390Y017723D01*
X004439Y017669D01*
X004485Y017612D01*
X004527Y017553D01*
X004567Y017491D01*
X004603Y017427D01*
X004635Y017362D01*
X004664Y017295D01*
X004689Y017226D01*
X004711Y017156D01*
X004728Y017085D01*
X004742Y017013D01*
X004752Y016941D01*
X004758Y016868D01*
X004760Y016795D01*
X004758Y016722D01*
X004752Y016649D01*
X004742Y016577D01*
X004728Y016505D01*
X004711Y016434D01*
X004689Y016364D01*
X004664Y016295D01*
X004635Y016228D01*
X004603Y016163D01*
X004567Y016099D01*
X004527Y016037D01*
X004485Y015978D01*
X004439Y015921D01*
X004390Y015867D01*
X004338Y015815D01*
X004284Y015766D01*
X004227Y015720D01*
X004168Y015678D01*
X004106Y015638D01*
X004042Y015602D01*
X003977Y015570D01*
X003910Y015541D01*
X003841Y015516D01*
X003771Y015494D01*
X003700Y015477D01*
X003628Y015463D01*
X003556Y015453D01*
X003483Y015447D01*
X003410Y015445D01*
X003337Y015447D01*
X003264Y015453D01*
X003192Y015463D01*
X003120Y015477D01*
X003049Y015494D01*
X002979Y015516D01*
X002910Y015541D01*
X002843Y015570D01*
X002778Y015602D01*
X002714Y015638D01*
X002652Y015678D01*
X002593Y015720D01*
X002536Y015766D01*
X002482Y015815D01*
X002430Y015867D01*
X002381Y015921D01*
X002335Y015978D01*
X002293Y016037D01*
X002253Y016099D01*
X002217Y016163D01*
X002185Y016228D01*
X002156Y016295D01*
X002131Y016364D01*
X002109Y016434D01*
X002092Y016505D01*
X002078Y016577D01*
X002068Y016649D01*
X002062Y016722D01*
X002060Y016795D01*
D22*
X003410Y002229D03*
M02*
