G75*
G70*
%OFA0B0*%
%FSLAX24Y24*%
%IPPOS*%
%LPD*%
%AMOC8*
5,1,8,0,0,1.08239X$1,22.5*
%
%ADD10C,0.0000*%
%ADD11R,0.0787X0.5512*%
%ADD12R,0.0787X0.9843*%
%ADD13R,0.0787X0.0787*%
%ADD14R,0.1890X0.1299*%
%ADD15R,0.1575X0.1575*%
%ADD16R,0.0236X0.1575*%
%ADD17C,0.0436*%
%ADD18C,0.0160*%
%ADD19C,0.0100*%
%ADD20C,0.0356*%
%ADD21C,0.0240*%
%ADD22C,0.0320*%
D10*
X000260Y000260D02*
X000260Y019945D01*
X042937Y019945D01*
X042937Y010103D01*
X043567Y010103D01*
X043567Y019945D01*
X047504Y019945D01*
X047504Y000260D01*
X000260Y000260D01*
X024433Y003410D02*
X024435Y003460D01*
X024441Y003510D01*
X024451Y003559D01*
X024465Y003607D01*
X024482Y003654D01*
X024503Y003699D01*
X024528Y003743D01*
X024556Y003784D01*
X024588Y003823D01*
X024622Y003860D01*
X024659Y003894D01*
X024699Y003924D01*
X024741Y003951D01*
X024785Y003975D01*
X024831Y003996D01*
X024878Y004012D01*
X024926Y004025D01*
X024976Y004034D01*
X025025Y004039D01*
X025076Y004040D01*
X025126Y004037D01*
X025175Y004030D01*
X025224Y004019D01*
X025272Y004004D01*
X025318Y003986D01*
X025363Y003964D01*
X025406Y003938D01*
X025447Y003909D01*
X025486Y003877D01*
X025522Y003842D01*
X025554Y003804D01*
X025584Y003764D01*
X025611Y003721D01*
X025634Y003677D01*
X025653Y003631D01*
X025669Y003583D01*
X025681Y003534D01*
X025689Y003485D01*
X025693Y003435D01*
X025693Y003385D01*
X025689Y003335D01*
X025681Y003286D01*
X025669Y003237D01*
X025653Y003189D01*
X025634Y003143D01*
X025611Y003099D01*
X025584Y003056D01*
X025554Y003016D01*
X025522Y002978D01*
X025486Y002943D01*
X025447Y002911D01*
X025406Y002882D01*
X025363Y002856D01*
X025318Y002834D01*
X025272Y002816D01*
X025224Y002801D01*
X025175Y002790D01*
X025126Y002783D01*
X025076Y002780D01*
X025025Y002781D01*
X024976Y002786D01*
X024926Y002795D01*
X024878Y002808D01*
X024831Y002824D01*
X024785Y002845D01*
X024741Y002869D01*
X024699Y002896D01*
X024659Y002926D01*
X024622Y002960D01*
X024588Y002997D01*
X024556Y003036D01*
X024528Y003077D01*
X024503Y003121D01*
X024482Y003166D01*
X024465Y003213D01*
X024451Y003261D01*
X024441Y003310D01*
X024435Y003360D01*
X024433Y003410D01*
X044906Y006953D02*
X044908Y007003D01*
X044914Y007053D01*
X044924Y007102D01*
X044938Y007150D01*
X044955Y007197D01*
X044976Y007242D01*
X045001Y007286D01*
X045029Y007327D01*
X045061Y007366D01*
X045095Y007403D01*
X045132Y007437D01*
X045172Y007467D01*
X045214Y007494D01*
X045258Y007518D01*
X045304Y007539D01*
X045351Y007555D01*
X045399Y007568D01*
X045449Y007577D01*
X045498Y007582D01*
X045549Y007583D01*
X045599Y007580D01*
X045648Y007573D01*
X045697Y007562D01*
X045745Y007547D01*
X045791Y007529D01*
X045836Y007507D01*
X045879Y007481D01*
X045920Y007452D01*
X045959Y007420D01*
X045995Y007385D01*
X046027Y007347D01*
X046057Y007307D01*
X046084Y007264D01*
X046107Y007220D01*
X046126Y007174D01*
X046142Y007126D01*
X046154Y007077D01*
X046162Y007028D01*
X046166Y006978D01*
X046166Y006928D01*
X046162Y006878D01*
X046154Y006829D01*
X046142Y006780D01*
X046126Y006732D01*
X046107Y006686D01*
X046084Y006642D01*
X046057Y006599D01*
X046027Y006559D01*
X045995Y006521D01*
X045959Y006486D01*
X045920Y006454D01*
X045879Y006425D01*
X045836Y006399D01*
X045791Y006377D01*
X045745Y006359D01*
X045697Y006344D01*
X045648Y006333D01*
X045599Y006326D01*
X045549Y006323D01*
X045498Y006324D01*
X045449Y006329D01*
X045399Y006338D01*
X045351Y006351D01*
X045304Y006367D01*
X045258Y006388D01*
X045214Y006412D01*
X045172Y006439D01*
X045132Y006469D01*
X045095Y006503D01*
X045061Y006540D01*
X045029Y006579D01*
X045001Y006620D01*
X044976Y006664D01*
X044955Y006709D01*
X044938Y006756D01*
X044924Y006804D01*
X044914Y006853D01*
X044908Y006903D01*
X044906Y006953D01*
X002780Y016795D02*
X002782Y016845D01*
X002788Y016895D01*
X002798Y016944D01*
X002812Y016992D01*
X002829Y017039D01*
X002850Y017084D01*
X002875Y017128D01*
X002903Y017169D01*
X002935Y017208D01*
X002969Y017245D01*
X003006Y017279D01*
X003046Y017309D01*
X003088Y017336D01*
X003132Y017360D01*
X003178Y017381D01*
X003225Y017397D01*
X003273Y017410D01*
X003323Y017419D01*
X003372Y017424D01*
X003423Y017425D01*
X003473Y017422D01*
X003522Y017415D01*
X003571Y017404D01*
X003619Y017389D01*
X003665Y017371D01*
X003710Y017349D01*
X003753Y017323D01*
X003794Y017294D01*
X003833Y017262D01*
X003869Y017227D01*
X003901Y017189D01*
X003931Y017149D01*
X003958Y017106D01*
X003981Y017062D01*
X004000Y017016D01*
X004016Y016968D01*
X004028Y016919D01*
X004036Y016870D01*
X004040Y016820D01*
X004040Y016770D01*
X004036Y016720D01*
X004028Y016671D01*
X004016Y016622D01*
X004000Y016574D01*
X003981Y016528D01*
X003958Y016484D01*
X003931Y016441D01*
X003901Y016401D01*
X003869Y016363D01*
X003833Y016328D01*
X003794Y016296D01*
X003753Y016267D01*
X003710Y016241D01*
X003665Y016219D01*
X003619Y016201D01*
X003571Y016186D01*
X003522Y016175D01*
X003473Y016168D01*
X003423Y016165D01*
X003372Y016166D01*
X003323Y016171D01*
X003273Y016180D01*
X003225Y016193D01*
X003178Y016209D01*
X003132Y016230D01*
X003088Y016254D01*
X003046Y016281D01*
X003006Y016311D01*
X002969Y016345D01*
X002935Y016382D01*
X002903Y016421D01*
X002875Y016462D01*
X002850Y016506D01*
X002829Y016551D01*
X002812Y016598D01*
X002798Y016646D01*
X002788Y016695D01*
X002782Y016745D01*
X002780Y016795D01*
D11*
X042543Y003016D03*
X043961Y003016D03*
D12*
X042543Y015024D03*
D13*
X043961Y014721D03*
X043961Y015721D03*
X043961Y016721D03*
X043961Y017721D03*
X043961Y018721D03*
X043961Y013721D03*
X043961Y012721D03*
X043961Y011721D03*
D14*
X020398Y003016D03*
X017917Y003016D03*
X017917Y001441D03*
X020398Y001441D03*
D15*
X004492Y002229D03*
X002327Y002229D03*
X039177Y014945D03*
X041264Y014945D03*
X041264Y017071D03*
X039177Y017071D03*
D16*
X040221Y017071D03*
X040221Y014945D03*
D17*
X036773Y012071D03*
X036193Y012071D03*
X035193Y012071D03*
X034593Y012071D03*
D18*
X035193Y012071D02*
X035234Y012112D01*
X035234Y012460D01*
X035634Y012860D01*
X037134Y012860D01*
X037834Y012160D01*
X037834Y010360D01*
X038834Y009260D01*
X037934Y008360D02*
X036134Y010160D01*
X036134Y012012D01*
X036193Y012071D01*
X037934Y012860D02*
X037934Y017960D01*
X038534Y018560D01*
X039734Y018560D01*
X040234Y018060D01*
X040234Y017084D01*
X040221Y017071D01*
X043961Y016721D02*
X046073Y016721D01*
X046534Y016160D01*
X046534Y010260D01*
X045534Y009260D01*
X047034Y008860D02*
X047034Y017060D01*
X046373Y017721D01*
X043961Y017721D01*
X043961Y015721D02*
X045373Y015721D01*
X046034Y015060D01*
X046034Y010560D01*
X043034Y007260D01*
X040334Y007260D02*
X009524Y007260D01*
X004492Y002229D01*
X020398Y003016D02*
X020454Y002960D01*
X021134Y002960D01*
X023234Y000860D01*
X036334Y000860D01*
X045434Y010560D01*
X045434Y014160D01*
X044832Y014662D01*
X043966Y014662D01*
X043961Y013721D02*
X044573Y013721D01*
X044834Y013460D01*
X044173Y012721D02*
X044634Y012260D01*
X044634Y010260D01*
X043734Y009360D01*
X041434Y009360D01*
X037934Y012860D01*
X040221Y011273D02*
X040734Y010760D01*
X041264Y010430D02*
X041934Y009760D01*
X043634Y009760D01*
X043934Y010060D01*
X043934Y011694D01*
X043961Y011721D01*
X043967Y011661D01*
X043961Y012721D02*
X044173Y012721D01*
X040221Y011273D02*
X040221Y014945D01*
X041264Y014945D02*
X041264Y010430D01*
D19*
X043969Y012659D02*
X043961Y012721D01*
X044066Y013662D02*
X043961Y013721D01*
X043966Y014662D02*
X043961Y014721D01*
X044004Y016671D02*
X043961Y016721D01*
D20*
X041334Y016060D03*
X039034Y016060D03*
X044634Y018660D03*
X044834Y013460D03*
X040734Y010760D03*
X038834Y009260D03*
X037934Y008360D03*
X040334Y007260D03*
X043034Y007260D03*
X047034Y008860D03*
X045534Y009260D03*
X019134Y001460D03*
X001234Y002260D03*
D21*
X043823Y018671D02*
X044634Y018660D01*
X043961Y018721D02*
X043823Y018671D01*
D22*
X041264Y017071D02*
X041264Y016130D01*
X041334Y016060D01*
X039177Y016203D02*
X039034Y016060D01*
X039177Y016203D02*
X039177Y017071D01*
X039177Y014945D01*
X017917Y003016D02*
X017917Y001477D01*
X017934Y001460D01*
X019134Y001460D01*
X020379Y001460D01*
X020398Y001441D01*
X017934Y001460D02*
X017917Y001443D01*
X017917Y001441D01*
X002327Y002229D02*
X001266Y002229D01*
X001234Y002260D01*
M02*
