G75*
G70*
%OFA0B0*%
%FSLAX24Y24*%
%IPPOS*%
%LPD*%
%AMOC8*
5,1,8,0,0,1.08239X$1,22.5*
%
%ADD10C,0.0000*%
%ADD11C,0.0436*%
%ADD12C,0.0356*%
%ADD13C,0.0160*%
%ADD14C,0.0320*%
D10*
X000260Y000260D02*
X000260Y019945D01*
X042937Y019945D01*
X042937Y010103D01*
X043567Y010103D01*
X043567Y019945D01*
X047504Y019945D01*
X047504Y000260D01*
X000260Y000260D01*
X024433Y003410D02*
X024435Y003460D01*
X024441Y003510D01*
X024451Y003559D01*
X024465Y003607D01*
X024482Y003654D01*
X024503Y003699D01*
X024528Y003743D01*
X024556Y003784D01*
X024588Y003823D01*
X024622Y003860D01*
X024659Y003894D01*
X024699Y003924D01*
X024741Y003951D01*
X024785Y003975D01*
X024831Y003996D01*
X024878Y004012D01*
X024926Y004025D01*
X024976Y004034D01*
X025025Y004039D01*
X025076Y004040D01*
X025126Y004037D01*
X025175Y004030D01*
X025224Y004019D01*
X025272Y004004D01*
X025318Y003986D01*
X025363Y003964D01*
X025406Y003938D01*
X025447Y003909D01*
X025486Y003877D01*
X025522Y003842D01*
X025554Y003804D01*
X025584Y003764D01*
X025611Y003721D01*
X025634Y003677D01*
X025653Y003631D01*
X025669Y003583D01*
X025681Y003534D01*
X025689Y003485D01*
X025693Y003435D01*
X025693Y003385D01*
X025689Y003335D01*
X025681Y003286D01*
X025669Y003237D01*
X025653Y003189D01*
X025634Y003143D01*
X025611Y003099D01*
X025584Y003056D01*
X025554Y003016D01*
X025522Y002978D01*
X025486Y002943D01*
X025447Y002911D01*
X025406Y002882D01*
X025363Y002856D01*
X025318Y002834D01*
X025272Y002816D01*
X025224Y002801D01*
X025175Y002790D01*
X025126Y002783D01*
X025076Y002780D01*
X025025Y002781D01*
X024976Y002786D01*
X024926Y002795D01*
X024878Y002808D01*
X024831Y002824D01*
X024785Y002845D01*
X024741Y002869D01*
X024699Y002896D01*
X024659Y002926D01*
X024622Y002960D01*
X024588Y002997D01*
X024556Y003036D01*
X024528Y003077D01*
X024503Y003121D01*
X024482Y003166D01*
X024465Y003213D01*
X024451Y003261D01*
X024441Y003310D01*
X024435Y003360D01*
X024433Y003410D01*
X044906Y006953D02*
X044908Y007003D01*
X044914Y007053D01*
X044924Y007102D01*
X044938Y007150D01*
X044955Y007197D01*
X044976Y007242D01*
X045001Y007286D01*
X045029Y007327D01*
X045061Y007366D01*
X045095Y007403D01*
X045132Y007437D01*
X045172Y007467D01*
X045214Y007494D01*
X045258Y007518D01*
X045304Y007539D01*
X045351Y007555D01*
X045399Y007568D01*
X045449Y007577D01*
X045498Y007582D01*
X045549Y007583D01*
X045599Y007580D01*
X045648Y007573D01*
X045697Y007562D01*
X045745Y007547D01*
X045791Y007529D01*
X045836Y007507D01*
X045879Y007481D01*
X045920Y007452D01*
X045959Y007420D01*
X045995Y007385D01*
X046027Y007347D01*
X046057Y007307D01*
X046084Y007264D01*
X046107Y007220D01*
X046126Y007174D01*
X046142Y007126D01*
X046154Y007077D01*
X046162Y007028D01*
X046166Y006978D01*
X046166Y006928D01*
X046162Y006878D01*
X046154Y006829D01*
X046142Y006780D01*
X046126Y006732D01*
X046107Y006686D01*
X046084Y006642D01*
X046057Y006599D01*
X046027Y006559D01*
X045995Y006521D01*
X045959Y006486D01*
X045920Y006454D01*
X045879Y006425D01*
X045836Y006399D01*
X045791Y006377D01*
X045745Y006359D01*
X045697Y006344D01*
X045648Y006333D01*
X045599Y006326D01*
X045549Y006323D01*
X045498Y006324D01*
X045449Y006329D01*
X045399Y006338D01*
X045351Y006351D01*
X045304Y006367D01*
X045258Y006388D01*
X045214Y006412D01*
X045172Y006439D01*
X045132Y006469D01*
X045095Y006503D01*
X045061Y006540D01*
X045029Y006579D01*
X045001Y006620D01*
X044976Y006664D01*
X044955Y006709D01*
X044938Y006756D01*
X044924Y006804D01*
X044914Y006853D01*
X044908Y006903D01*
X044906Y006953D01*
X002780Y016795D02*
X002782Y016845D01*
X002788Y016895D01*
X002798Y016944D01*
X002812Y016992D01*
X002829Y017039D01*
X002850Y017084D01*
X002875Y017128D01*
X002903Y017169D01*
X002935Y017208D01*
X002969Y017245D01*
X003006Y017279D01*
X003046Y017309D01*
X003088Y017336D01*
X003132Y017360D01*
X003178Y017381D01*
X003225Y017397D01*
X003273Y017410D01*
X003323Y017419D01*
X003372Y017424D01*
X003423Y017425D01*
X003473Y017422D01*
X003522Y017415D01*
X003571Y017404D01*
X003619Y017389D01*
X003665Y017371D01*
X003710Y017349D01*
X003753Y017323D01*
X003794Y017294D01*
X003833Y017262D01*
X003869Y017227D01*
X003901Y017189D01*
X003931Y017149D01*
X003958Y017106D01*
X003981Y017062D01*
X004000Y017016D01*
X004016Y016968D01*
X004028Y016919D01*
X004036Y016870D01*
X004040Y016820D01*
X004040Y016770D01*
X004036Y016720D01*
X004028Y016671D01*
X004016Y016622D01*
X004000Y016574D01*
X003981Y016528D01*
X003958Y016484D01*
X003931Y016441D01*
X003901Y016401D01*
X003869Y016363D01*
X003833Y016328D01*
X003794Y016296D01*
X003753Y016267D01*
X003710Y016241D01*
X003665Y016219D01*
X003619Y016201D01*
X003571Y016186D01*
X003522Y016175D01*
X003473Y016168D01*
X003423Y016165D01*
X003372Y016166D01*
X003323Y016171D01*
X003273Y016180D01*
X003225Y016193D01*
X003178Y016209D01*
X003132Y016230D01*
X003088Y016254D01*
X003046Y016281D01*
X003006Y016311D01*
X002969Y016345D01*
X002935Y016382D01*
X002903Y016421D01*
X002875Y016462D01*
X002850Y016506D01*
X002829Y016551D01*
X002812Y016598D01*
X002798Y016646D01*
X002788Y016695D01*
X002782Y016745D01*
X002780Y016795D01*
D11*
X034593Y012071D03*
X035193Y012071D03*
X036193Y012071D03*
X036773Y012071D03*
D12*
X040734Y010760D03*
X038834Y009260D03*
X037934Y008360D03*
X040334Y007260D03*
X043034Y007260D03*
X047034Y008860D03*
X045534Y009260D03*
X044834Y013460D03*
X041334Y016060D03*
X039034Y016060D03*
X044634Y018660D03*
X019134Y001460D03*
X001234Y002260D03*
D13*
X037934Y008360D02*
X046534Y008360D01*
X047034Y008860D01*
X045534Y009260D02*
X038834Y009260D01*
X040734Y010760D02*
X041634Y009860D01*
X043634Y009860D01*
X044834Y011060D01*
X044834Y013460D01*
X043034Y007260D02*
X040334Y007260D01*
D14*
X039936Y007267D02*
X000520Y007267D01*
X000520Y006949D02*
X040082Y006949D01*
X040109Y006922D02*
X040255Y006862D01*
X040413Y006862D01*
X040560Y006922D01*
X040597Y006960D01*
X042771Y006960D01*
X042809Y006922D01*
X042955Y006862D01*
X043113Y006862D01*
X043260Y006922D01*
X043372Y007034D01*
X043432Y007181D01*
X043432Y007339D01*
X043372Y007486D01*
X043260Y007598D01*
X043113Y007658D01*
X042955Y007658D01*
X042809Y007598D01*
X042771Y007560D01*
X040597Y007560D01*
X040560Y007598D01*
X040413Y007658D01*
X040255Y007658D01*
X040109Y007598D01*
X039997Y007486D01*
X039936Y007339D01*
X039936Y007181D01*
X039997Y007034D01*
X040109Y006922D01*
X040586Y006949D02*
X042782Y006949D01*
X043286Y006949D02*
X043776Y006949D01*
X043776Y006953D02*
X043847Y006457D01*
X044055Y006001D01*
X044383Y005623D01*
X044804Y005352D01*
X045285Y005211D01*
X045786Y005211D01*
X046267Y005352D01*
X046688Y005623D01*
X047016Y006001D01*
X047224Y006457D01*
X047244Y006595D01*
X047244Y000520D01*
X000520Y000520D01*
X000520Y019685D01*
X042677Y019685D01*
X042677Y010160D01*
X041758Y010160D01*
X041132Y010786D01*
X041132Y010839D01*
X041072Y010986D01*
X040960Y011098D01*
X040813Y011158D01*
X040655Y011158D01*
X040509Y011098D01*
X040397Y010986D01*
X040336Y010839D01*
X040336Y010681D01*
X040397Y010534D01*
X040509Y010422D01*
X040655Y010362D01*
X040708Y010362D01*
X041380Y009690D01*
X041464Y009606D01*
X041574Y009560D01*
X043694Y009560D01*
X043804Y009606D01*
X045004Y010806D01*
X045088Y010890D01*
X045134Y011000D01*
X045134Y013197D01*
X045172Y013234D01*
X045232Y013381D01*
X045232Y013539D01*
X045172Y013686D01*
X045060Y013798D01*
X044913Y013858D01*
X044755Y013858D01*
X044609Y013798D01*
X044497Y013686D01*
X044436Y013539D01*
X044436Y013381D01*
X044497Y013234D01*
X044534Y013197D01*
X044534Y011184D01*
X043827Y010477D01*
X043827Y019685D01*
X047244Y019685D01*
X047244Y009204D01*
X047113Y009258D01*
X046955Y009258D01*
X046809Y009198D01*
X046697Y009086D01*
X046636Y008939D01*
X046636Y008886D01*
X046410Y008660D01*
X045905Y008660D01*
X045786Y008695D01*
X045285Y008695D01*
X045166Y008660D01*
X038197Y008660D01*
X038160Y008698D01*
X038013Y008758D01*
X037855Y008758D01*
X037709Y008698D01*
X037597Y008586D01*
X037536Y008439D01*
X037536Y008281D01*
X037597Y008134D01*
X037709Y008022D01*
X037855Y007962D01*
X038013Y007962D01*
X038160Y008022D01*
X038197Y008060D01*
X044190Y008060D01*
X044055Y007904D01*
X000520Y007904D01*
X000520Y008223D02*
X037560Y008223D01*
X037578Y008541D02*
X000520Y008541D01*
X000520Y008860D02*
X046609Y008860D01*
X045932Y009181D02*
X045872Y009034D01*
X045760Y008922D01*
X045613Y008862D01*
X045455Y008862D01*
X045309Y008922D01*
X045271Y008960D01*
X039097Y008960D01*
X039060Y008922D01*
X038913Y008862D01*
X038755Y008862D01*
X038609Y008922D01*
X038497Y009034D01*
X038436Y009181D01*
X038436Y009339D01*
X038497Y009486D01*
X038609Y009598D01*
X038755Y009658D01*
X038913Y009658D01*
X039060Y009598D01*
X039097Y009560D01*
X045271Y009560D01*
X045309Y009598D01*
X045455Y009658D01*
X045613Y009658D01*
X045760Y009598D01*
X045872Y009486D01*
X045932Y009339D01*
X045932Y009181D01*
X045931Y009178D02*
X046789Y009178D01*
X047244Y009497D02*
X045861Y009497D01*
X047244Y009815D02*
X044013Y009815D01*
X044332Y010134D02*
X047244Y010134D01*
X047244Y010452D02*
X044650Y010452D01*
X044969Y010771D02*
X047244Y010771D01*
X047244Y011089D02*
X045134Y011089D01*
X044439Y011089D02*
X043827Y011089D01*
X043827Y010771D02*
X044120Y010771D01*
X043827Y011408D02*
X044534Y011408D01*
X045134Y011408D02*
X047244Y011408D01*
X047244Y011726D02*
X045134Y011726D01*
X045134Y012045D02*
X047244Y012045D01*
X047244Y012363D02*
X045134Y012363D01*
X045134Y012682D02*
X047244Y012682D01*
X047244Y013000D02*
X045134Y013000D01*
X045206Y013319D02*
X047244Y013319D01*
X047244Y013637D02*
X045192Y013637D01*
X044476Y013637D02*
X043827Y013637D01*
X043827Y013319D02*
X044462Y013319D01*
X044534Y013000D02*
X043827Y013000D01*
X043827Y012682D02*
X044534Y012682D01*
X044534Y012363D02*
X043827Y012363D01*
X043827Y012045D02*
X044534Y012045D01*
X044534Y011726D02*
X043827Y011726D01*
X042677Y011726D02*
X037104Y011726D01*
X037085Y011706D02*
X037138Y011760D01*
X037182Y011820D01*
X037216Y011887D01*
X037239Y011959D01*
X037251Y012033D01*
X037251Y012071D01*
X036773Y012071D01*
X036773Y012071D01*
X036773Y011593D01*
X036735Y011593D01*
X036661Y011605D01*
X036590Y011628D01*
X036522Y011662D01*
X036462Y011706D01*
X036455Y011713D01*
X036441Y011700D01*
X036280Y011633D01*
X036106Y011633D01*
X035945Y011700D01*
X035822Y011823D01*
X035755Y011984D01*
X035755Y012158D01*
X035822Y012319D01*
X035945Y012442D01*
X036106Y012509D01*
X036280Y012509D01*
X036441Y012442D01*
X036455Y012429D01*
X036462Y012436D01*
X036522Y012480D01*
X036590Y012514D01*
X036661Y012537D01*
X036735Y012549D01*
X036773Y012549D01*
X036773Y012071D01*
X036773Y012071D01*
X036773Y011593D01*
X036811Y011593D01*
X036885Y011605D01*
X036957Y011628D01*
X037024Y011662D01*
X037085Y011706D01*
X036773Y011726D02*
X036773Y011726D01*
X036773Y012045D02*
X036773Y012045D01*
X036773Y012071D02*
X036773Y012071D01*
X036773Y012549D01*
X036811Y012549D01*
X036885Y012537D01*
X036957Y012514D01*
X037024Y012480D01*
X037085Y012436D01*
X037138Y012382D01*
X037182Y012322D01*
X037216Y012255D01*
X037239Y012183D01*
X037251Y012109D01*
X037251Y012071D01*
X036773Y012071D01*
X037251Y012045D02*
X042677Y012045D01*
X042677Y012363D02*
X037152Y012363D01*
X036773Y012363D02*
X036773Y012363D01*
X035865Y012363D02*
X035521Y012363D01*
X035564Y012319D02*
X035441Y012442D01*
X035280Y012509D01*
X035106Y012509D01*
X034945Y012442D01*
X034921Y012419D01*
X034905Y012436D01*
X034844Y012480D01*
X034777Y012514D01*
X034705Y012537D01*
X034631Y012549D01*
X034593Y012549D01*
X034555Y012549D01*
X034481Y012537D01*
X034410Y012514D01*
X034342Y012480D01*
X034282Y012436D01*
X034228Y012382D01*
X034184Y012322D01*
X034150Y012255D01*
X034127Y012183D01*
X034115Y012109D01*
X034115Y012071D01*
X034115Y012033D01*
X034127Y011959D01*
X034150Y011887D01*
X034184Y011820D01*
X034228Y011760D01*
X034282Y011706D01*
X034342Y011662D01*
X034410Y011628D01*
X034481Y011605D01*
X034555Y011593D01*
X034593Y011593D01*
X034593Y012071D01*
X034115Y012071D01*
X034593Y012071D01*
X034593Y012071D01*
X034593Y012071D01*
X034593Y012549D01*
X034593Y012071D01*
X034593Y012071D01*
X034593Y011593D01*
X034631Y011593D01*
X034705Y011605D01*
X034777Y011628D01*
X034844Y011662D01*
X034905Y011706D01*
X034921Y011723D01*
X034945Y011700D01*
X035106Y011633D01*
X035280Y011633D01*
X035441Y011700D01*
X035564Y011823D01*
X035631Y011984D01*
X035631Y012158D01*
X035564Y012319D01*
X035631Y012045D02*
X035755Y012045D01*
X035919Y011726D02*
X035468Y011726D01*
X034593Y011726D02*
X034593Y011726D01*
X034593Y012045D02*
X034593Y012045D01*
X034262Y011726D02*
X000520Y011726D01*
X000520Y012045D02*
X034115Y012045D01*
X034214Y012363D02*
X000520Y012363D01*
X000520Y012682D02*
X042677Y012682D01*
X042677Y013000D02*
X000520Y013000D01*
X000520Y013319D02*
X042677Y013319D01*
X042677Y013637D02*
X000520Y013637D01*
X000520Y013956D02*
X042677Y013956D01*
X042677Y014274D02*
X000520Y014274D01*
X000520Y014593D02*
X042677Y014593D01*
X042677Y014911D02*
X000520Y014911D01*
X000520Y015230D02*
X002624Y015230D01*
X002678Y015194D02*
X002678Y015194D01*
X003159Y015053D01*
X003660Y015053D01*
X004141Y015194D01*
X004562Y015465D01*
X004562Y015465D01*
X004562Y015465D01*
X004890Y015844D01*
X005098Y016300D01*
X005170Y016795D01*
X005098Y017291D01*
X004890Y017747D01*
X004562Y018126D01*
X004141Y018396D01*
X003660Y018538D01*
X003159Y018538D01*
X002678Y018396D01*
X002257Y018126D01*
X002257Y018126D01*
X002257Y018126D01*
X001929Y017747D01*
X001929Y017747D01*
X001721Y017291D01*
X001650Y016795D01*
X001721Y016300D01*
X001721Y016300D01*
X001929Y015844D01*
X001929Y015844D01*
X002257Y015465D01*
X002678Y015194D01*
X002257Y015465D02*
X002257Y015465D01*
X002185Y015548D02*
X000520Y015548D01*
X000520Y015867D02*
X001919Y015867D01*
X001773Y016185D02*
X000520Y016185D01*
X000520Y016504D02*
X001692Y016504D01*
X001650Y016795D02*
X001650Y016795D01*
X001653Y016822D02*
X000520Y016822D01*
X000520Y017141D02*
X001699Y017141D01*
X001721Y017291D02*
X001721Y017291D01*
X001798Y017459D02*
X000520Y017459D01*
X000520Y017778D02*
X001955Y017778D01*
X002231Y018096D02*
X000520Y018096D01*
X000520Y018415D02*
X002740Y018415D01*
X002678Y018396D02*
X002678Y018396D01*
X003660Y018538D02*
X003660Y018538D01*
X004079Y018415D02*
X042677Y018415D01*
X042677Y018733D02*
X000520Y018733D01*
X000520Y019052D02*
X042677Y019052D01*
X042677Y019370D02*
X000520Y019370D01*
X004562Y018126D02*
X004562Y018126D01*
X004588Y018096D02*
X042677Y018096D01*
X042677Y017778D02*
X004864Y017778D01*
X004890Y017747D02*
X004890Y017747D01*
X005022Y017459D02*
X042677Y017459D01*
X042677Y017141D02*
X005120Y017141D01*
X005098Y017291D02*
X005098Y017291D01*
X005166Y016822D02*
X042677Y016822D01*
X042677Y016504D02*
X005128Y016504D01*
X005098Y016300D02*
X005098Y016300D01*
X005046Y016185D02*
X042677Y016185D01*
X042677Y015867D02*
X004901Y015867D01*
X004890Y015844D02*
X004890Y015844D01*
X004634Y015548D02*
X042677Y015548D01*
X042677Y015230D02*
X004195Y015230D01*
X004141Y015194D02*
X004141Y015194D01*
X000520Y011408D02*
X042677Y011408D01*
X042677Y011089D02*
X040968Y011089D01*
X041148Y010771D02*
X042677Y010771D01*
X042677Y010452D02*
X041466Y010452D01*
X040936Y010134D02*
X000520Y010134D01*
X000520Y010452D02*
X040479Y010452D01*
X040336Y010771D02*
X000520Y010771D01*
X000520Y011089D02*
X040500Y011089D01*
X041255Y009815D02*
X000520Y009815D01*
X000520Y009497D02*
X038508Y009497D01*
X038437Y009178D02*
X000520Y009178D01*
X000520Y007586D02*
X040097Y007586D01*
X040572Y007586D02*
X042797Y007586D01*
X043272Y007586D02*
X043909Y007586D01*
X043847Y007449D02*
X043847Y007449D01*
X044055Y007904D01*
X044055Y007904D01*
X043847Y007449D02*
X043776Y006953D01*
X043776Y006953D01*
X043821Y007267D02*
X043432Y007267D01*
X043822Y006630D02*
X000520Y006630D01*
X000520Y006312D02*
X043913Y006312D01*
X044055Y006001D02*
X044055Y006001D01*
X044062Y005993D02*
X000520Y005993D01*
X000520Y005675D02*
X044338Y005675D01*
X044383Y005623D02*
X044383Y005623D01*
X044798Y005356D02*
X000520Y005356D01*
X000520Y005038D02*
X024424Y005038D01*
X024332Y005011D02*
X024813Y005152D01*
X025314Y005152D01*
X025794Y005011D01*
X025794Y005011D01*
X026216Y004740D01*
X026216Y004740D01*
X026544Y004361D01*
X026544Y004361D01*
X026752Y003905D01*
X026752Y003905D01*
X026823Y003410D01*
X026752Y002914D01*
X026544Y002458D01*
X026544Y002458D01*
X026216Y002079D01*
X026216Y002079D01*
X026216Y002079D01*
X025794Y001809D01*
X025794Y001809D01*
X025314Y001668D01*
X024813Y001668D01*
X024332Y001809D01*
X024332Y001809D01*
X023911Y002079D01*
X023911Y002079D01*
X023583Y002458D01*
X023583Y002458D01*
X023374Y002914D01*
X023374Y002914D01*
X023303Y003410D01*
X023303Y003410D01*
X023374Y003905D01*
X023374Y003905D01*
X023583Y004361D01*
X023583Y004361D01*
X023911Y004740D01*
X023911Y004740D01*
X023911Y004740D01*
X024332Y005011D01*
X024332Y005011D01*
X023893Y004719D02*
X000520Y004719D01*
X000520Y004401D02*
X023617Y004401D01*
X023455Y004082D02*
X000520Y004082D01*
X000520Y003764D02*
X023354Y003764D01*
X023308Y003445D02*
X000520Y003445D01*
X000520Y003127D02*
X023344Y003127D01*
X023423Y002808D02*
X000520Y002808D01*
X000520Y002490D02*
X023568Y002490D01*
X023831Y002171D02*
X000520Y002171D01*
X000520Y001853D02*
X024264Y001853D01*
X025863Y001853D02*
X047244Y001853D01*
X047244Y002171D02*
X026295Y002171D01*
X026558Y002490D02*
X047244Y002490D01*
X047244Y002808D02*
X026704Y002808D01*
X026752Y002914D02*
X026752Y002914D01*
X026782Y003127D02*
X047244Y003127D01*
X047244Y003445D02*
X026818Y003445D01*
X026772Y003764D02*
X047244Y003764D01*
X047244Y004082D02*
X026671Y004082D01*
X026510Y004401D02*
X047244Y004401D01*
X047244Y004719D02*
X026234Y004719D01*
X025703Y005038D02*
X047244Y005038D01*
X047244Y005356D02*
X046273Y005356D01*
X046267Y005352D02*
X046267Y005352D01*
X046688Y005623D02*
X046688Y005623D01*
X046688Y005623D01*
X046733Y005675D02*
X047244Y005675D01*
X047244Y005993D02*
X047009Y005993D01*
X047016Y006001D02*
X047016Y006001D01*
X047158Y006312D02*
X047244Y006312D01*
X047224Y006457D02*
X047224Y006457D01*
X044804Y005352D02*
X044804Y005352D01*
X047244Y001534D02*
X000520Y001534D01*
X000520Y001216D02*
X047244Y001216D01*
X047244Y000897D02*
X000520Y000897D01*
X000520Y000579D02*
X047244Y000579D01*
X019134Y001460D02*
X019134Y001560D01*
X034593Y012363D02*
X034593Y012363D01*
X043827Y013956D02*
X047244Y013956D01*
X047244Y014274D02*
X043827Y014274D01*
X043827Y014593D02*
X047244Y014593D01*
X047244Y014911D02*
X043827Y014911D01*
X043827Y015230D02*
X047244Y015230D01*
X047244Y015548D02*
X043827Y015548D01*
X043827Y015867D02*
X047244Y015867D01*
X047244Y016185D02*
X043827Y016185D01*
X043827Y016504D02*
X047244Y016504D01*
X047244Y016822D02*
X043827Y016822D01*
X043827Y017141D02*
X047244Y017141D01*
X047244Y017459D02*
X043827Y017459D01*
X043827Y017778D02*
X047244Y017778D01*
X047244Y018096D02*
X043827Y018096D01*
X043827Y018415D02*
X047244Y018415D01*
X047244Y018733D02*
X043827Y018733D01*
X043827Y019052D02*
X047244Y019052D01*
X047244Y019370D02*
X043827Y019370D01*
M02*
