G75*
G70*
%OFA0B0*%
%FSLAX24Y24*%
%IPPOS*%
%LPD*%
%AMOC8*
5,1,8,0,0,1.08239X$1,22.5*
%
%ADD10C,0.0000*%
%ADD11C,0.0476*%
%ADD12C,0.1300*%
D10*
X000180Y000218D02*
X000180Y019903D01*
X042857Y019903D01*
X042857Y010060D01*
X043487Y010060D01*
X043487Y019903D01*
X047424Y019903D01*
X047424Y000218D01*
X000180Y000218D01*
X010574Y003367D02*
X010576Y003417D01*
X010582Y003467D01*
X010592Y003516D01*
X010606Y003564D01*
X010623Y003611D01*
X010644Y003656D01*
X010669Y003700D01*
X010697Y003741D01*
X010729Y003780D01*
X010763Y003817D01*
X010800Y003851D01*
X010840Y003881D01*
X010882Y003908D01*
X010926Y003932D01*
X010972Y003953D01*
X011019Y003969D01*
X011067Y003982D01*
X011117Y003991D01*
X011166Y003996D01*
X011217Y003997D01*
X011267Y003994D01*
X011316Y003987D01*
X011365Y003976D01*
X011413Y003961D01*
X011459Y003943D01*
X011504Y003921D01*
X011547Y003895D01*
X011588Y003866D01*
X011627Y003834D01*
X011663Y003799D01*
X011695Y003761D01*
X011725Y003721D01*
X011752Y003678D01*
X011775Y003634D01*
X011794Y003588D01*
X011810Y003540D01*
X011822Y003491D01*
X011830Y003442D01*
X011834Y003392D01*
X011834Y003342D01*
X011830Y003292D01*
X011822Y003243D01*
X011810Y003194D01*
X011794Y003146D01*
X011775Y003100D01*
X011752Y003056D01*
X011725Y003013D01*
X011695Y002973D01*
X011663Y002935D01*
X011627Y002900D01*
X011588Y002868D01*
X011547Y002839D01*
X011504Y002813D01*
X011459Y002791D01*
X011413Y002773D01*
X011365Y002758D01*
X011316Y002747D01*
X011267Y002740D01*
X011217Y002737D01*
X011166Y002738D01*
X011117Y002743D01*
X011067Y002752D01*
X011019Y002765D01*
X010972Y002781D01*
X010926Y002802D01*
X010882Y002826D01*
X010840Y002853D01*
X010800Y002883D01*
X010763Y002917D01*
X010729Y002954D01*
X010697Y002993D01*
X010669Y003034D01*
X010644Y003078D01*
X010623Y003123D01*
X010606Y003170D01*
X010592Y003218D01*
X010582Y003267D01*
X010576Y003317D01*
X010574Y003367D01*
X002700Y016753D02*
X002702Y016803D01*
X002708Y016853D01*
X002718Y016902D01*
X002732Y016950D01*
X002749Y016997D01*
X002770Y017042D01*
X002795Y017086D01*
X002823Y017127D01*
X002855Y017166D01*
X002889Y017203D01*
X002926Y017237D01*
X002966Y017267D01*
X003008Y017294D01*
X003052Y017318D01*
X003098Y017339D01*
X003145Y017355D01*
X003193Y017368D01*
X003243Y017377D01*
X003292Y017382D01*
X003343Y017383D01*
X003393Y017380D01*
X003442Y017373D01*
X003491Y017362D01*
X003539Y017347D01*
X003585Y017329D01*
X003630Y017307D01*
X003673Y017281D01*
X003714Y017252D01*
X003753Y017220D01*
X003789Y017185D01*
X003821Y017147D01*
X003851Y017107D01*
X003878Y017064D01*
X003901Y017020D01*
X003920Y016974D01*
X003936Y016926D01*
X003948Y016877D01*
X003956Y016828D01*
X003960Y016778D01*
X003960Y016728D01*
X003956Y016678D01*
X003948Y016629D01*
X003936Y016580D01*
X003920Y016532D01*
X003901Y016486D01*
X003878Y016442D01*
X003851Y016399D01*
X003821Y016359D01*
X003789Y016321D01*
X003753Y016286D01*
X003714Y016254D01*
X003673Y016225D01*
X003630Y016199D01*
X003585Y016177D01*
X003539Y016159D01*
X003491Y016144D01*
X003442Y016133D01*
X003393Y016126D01*
X003343Y016123D01*
X003292Y016124D01*
X003243Y016129D01*
X003193Y016138D01*
X003145Y016151D01*
X003098Y016167D01*
X003052Y016188D01*
X003008Y016212D01*
X002966Y016239D01*
X002926Y016269D01*
X002889Y016303D01*
X002855Y016340D01*
X002823Y016379D01*
X002795Y016420D01*
X002770Y016464D01*
X002749Y016509D01*
X002732Y016556D01*
X002718Y016604D01*
X002708Y016653D01*
X002702Y016703D01*
X002700Y016753D01*
X044826Y006910D02*
X044828Y006960D01*
X044834Y007010D01*
X044844Y007059D01*
X044858Y007107D01*
X044875Y007154D01*
X044896Y007199D01*
X044921Y007243D01*
X044949Y007284D01*
X044981Y007323D01*
X045015Y007360D01*
X045052Y007394D01*
X045092Y007424D01*
X045134Y007451D01*
X045178Y007475D01*
X045224Y007496D01*
X045271Y007512D01*
X045319Y007525D01*
X045369Y007534D01*
X045418Y007539D01*
X045469Y007540D01*
X045519Y007537D01*
X045568Y007530D01*
X045617Y007519D01*
X045665Y007504D01*
X045711Y007486D01*
X045756Y007464D01*
X045799Y007438D01*
X045840Y007409D01*
X045879Y007377D01*
X045915Y007342D01*
X045947Y007304D01*
X045977Y007264D01*
X046004Y007221D01*
X046027Y007177D01*
X046046Y007131D01*
X046062Y007083D01*
X046074Y007034D01*
X046082Y006985D01*
X046086Y006935D01*
X046086Y006885D01*
X046082Y006835D01*
X046074Y006786D01*
X046062Y006737D01*
X046046Y006689D01*
X046027Y006643D01*
X046004Y006599D01*
X045977Y006556D01*
X045947Y006516D01*
X045915Y006478D01*
X045879Y006443D01*
X045840Y006411D01*
X045799Y006382D01*
X045756Y006356D01*
X045711Y006334D01*
X045665Y006316D01*
X045617Y006301D01*
X045568Y006290D01*
X045519Y006283D01*
X045469Y006280D01*
X045418Y006281D01*
X045369Y006286D01*
X045319Y006295D01*
X045271Y006308D01*
X045224Y006324D01*
X045178Y006345D01*
X045134Y006369D01*
X045092Y006396D01*
X045052Y006426D01*
X045015Y006460D01*
X044981Y006497D01*
X044949Y006536D01*
X044921Y006577D01*
X044896Y006621D01*
X044875Y006666D01*
X044858Y006713D01*
X044844Y006761D01*
X044834Y006810D01*
X044828Y006860D01*
X044826Y006910D01*
D11*
X036693Y012029D03*
X036113Y012029D03*
X035113Y012029D03*
X034513Y012029D03*
D12*
X045456Y006910D03*
X011204Y003367D03*
X003330Y016753D03*
M02*
