%
M48
M72
T01C0.0236
T02C0.1260
%
T01
X1154Y2918
X16563Y1745
X34534Y7618
X36634Y7878
X37314Y8268
X40044Y7888
X40624Y5728
X41254Y10418
X36693Y12029
X36113Y12029
X35113Y12029
X34513Y12029
X36154Y11268
X40159Y13328
X46464Y14618
X46384Y16628
X44964Y17628
X45054Y18618
X41654Y18118
T02
X45456Y6910
X11204Y3367
X3330Y16753
M30
