%
M48
M72
T01C0.0236
T02C0.0315
T03C0.0350
T04C0.0400
T05C0.1102
%
T01
X15630Y5830
X17080Y3780
X19430Y4480
X18780Y6180
X22180Y9180
X23880Y9430
X21880Y11180
X23980Y11680
X24980Y13280
X24380Y15080
X23980Y15880
X23880Y17630
X23880Y19080
X22380Y20280
X21530Y19230
X19780Y19230
X20480Y17480
X21880Y16680
X20480Y14180
X26380Y17080
X27080Y17880
X29780Y16080
X29180Y15280
X28380Y14380
X27280Y14380
X28330Y13380
X30230Y10880
X30880Y10880
X26330Y8280
X32330Y15530
X31430Y16030
X30480Y19480
X36180Y22080
X38180Y20080
X24780Y24780
X23880Y24780
X23880Y25980
X24780Y25980
X23180Y22080
X20480Y20980
X16980Y22180
X17830Y24330
X20480Y24480
X16280Y19680
X14180Y19680
X13580Y22180
X13580Y24380
X14980Y34580
X11580Y37630
X32580Y36480
T02
X32767Y38061
X33554Y38061
X31979Y38061
X31192Y38061
X30404Y38061
X29617Y38061
X28830Y38061
X28042Y38061
X27255Y38061
X26467Y38061
X26467Y29399
X27255Y29399
X28042Y29399
X28830Y29399
X29617Y29399
X30404Y29399
X31192Y29399
X31979Y29399
X32767Y29399
X33554Y29399
X43487Y22246
X43487Y21446
X43487Y20646
X43487Y19846
T03
X36330Y25580
X34330Y25580
X34330Y26580
X34330Y27580
X36330Y27580
T04
X32630Y14730
X32630Y13730
X32630Y12730
X32630Y11730
X32630Y10730
X32630Y9730
X21180Y9580
X21180Y8580
X20180Y8580
X20180Y9580
X20180Y10580
X21180Y10580
T05
X5771Y8887
X7739Y10068
X9708Y8887
X11676Y31934
X9708Y33115
X13645Y33115
X5771Y33115
X3802Y31934
X1834Y33115
M30
