G75*
G70*
%OFA0B0*%
%FSLAX24Y24*%
%IPPOS*%
%LPD*%
%AMOC8*
5,1,8,0,0,1.08239X$1,22.5*
%
%ADD10C,0.0000*%
%ADD11R,0.5512X0.0787*%
%ADD12R,0.0591X0.0512*%
%ADD13R,0.0315X0.0472*%
%ADD14R,0.0472X0.0315*%
%ADD15C,0.0600*%
%ADD16OC8,0.0600*%
%ADD17R,0.0220X0.0500*%
%ADD18R,0.0500X0.0220*%
%ADD19R,0.0480X0.0880*%
%ADD20R,0.1417X0.0866*%
%ADD21C,0.0600*%
%ADD22R,0.0472X0.0551*%
%ADD23R,0.0512X0.0591*%
%ADD24R,0.0787X0.0787*%
%ADD25C,0.1969*%
%ADD26C,0.0860*%
%ADD27R,0.0551X0.0394*%
%ADD28R,0.0472X0.0472*%
%ADD29C,0.0660*%
%ADD30OC8,0.0660*%
%ADD31R,0.0315X0.0827*%
%ADD32C,0.0320*%
%ADD33C,0.0356*%
%ADD34C,0.0160*%
%ADD35C,0.0100*%
D10*
X000180Y000180D02*
X000180Y001519D01*
X010416Y001519D01*
X010416Y002149D01*
X000180Y002149D01*
X000180Y039944D01*
X010416Y039944D01*
X010416Y040574D01*
X000180Y040574D01*
X000180Y041912D01*
X045849Y041912D01*
X045849Y000180D01*
X000180Y000180D01*
D11*
X002936Y002542D03*
X002936Y039550D03*
D12*
X030180Y014515D03*
X030180Y013845D03*
X029530Y009865D03*
X029530Y009195D03*
D13*
X027434Y008280D03*
X026726Y008280D03*
X030226Y011780D03*
X030934Y011780D03*
X028184Y012480D03*
X027476Y012480D03*
X026334Y012480D03*
X025626Y012480D03*
X026326Y013880D03*
X027034Y013880D03*
X030726Y015480D03*
X031434Y015480D03*
D14*
X025530Y009034D03*
X025530Y008326D03*
X024730Y008326D03*
X024730Y009034D03*
D15*
X020180Y010580D03*
X026467Y029399D03*
X027255Y029399D03*
X028042Y029399D03*
X028830Y029399D03*
X029617Y029399D03*
X030404Y029399D03*
X031192Y029399D03*
X031979Y029399D03*
X032767Y029399D03*
X033554Y029399D03*
X033554Y038061D03*
X032767Y038061D03*
X031979Y038061D03*
X031192Y038061D03*
X030404Y038061D03*
X029617Y038061D03*
X028830Y038061D03*
X028042Y038061D03*
X027255Y038061D03*
X026467Y038061D03*
D16*
X021180Y010580D03*
X021180Y009580D03*
X021180Y008580D03*
X020180Y008580D03*
X020180Y009580D03*
D17*
X026078Y015490D03*
X026393Y015490D03*
X026708Y015490D03*
X027023Y015490D03*
X027337Y015490D03*
X027652Y015490D03*
X027967Y015490D03*
X028282Y015490D03*
X028282Y018870D03*
X027967Y018870D03*
X027652Y018870D03*
X027337Y018870D03*
X027023Y018870D03*
X026708Y018870D03*
X026393Y018870D03*
X026078Y018870D03*
D18*
X025490Y018282D03*
X025490Y017967D03*
X025490Y017652D03*
X025490Y017337D03*
X025490Y017023D03*
X025490Y016708D03*
X025490Y016393D03*
X025490Y016078D03*
X028870Y016078D03*
X028870Y016393D03*
X028870Y016708D03*
X028870Y017023D03*
X028870Y017337D03*
X028870Y017652D03*
X028870Y017967D03*
X028870Y018282D03*
D19*
X027240Y007150D03*
X026330Y007150D03*
X025420Y007150D03*
D20*
X026330Y004710D03*
D21*
X032330Y009730D02*
X032930Y009730D01*
X032930Y010730D02*
X032330Y010730D01*
X032330Y011730D02*
X032930Y011730D01*
X032930Y012730D02*
X032330Y012730D01*
X032330Y013730D02*
X032930Y013730D01*
X032930Y014730D02*
X032330Y014730D01*
D22*
X041789Y034980D03*
X042971Y034980D03*
D23*
X040715Y034980D03*
X040045Y034980D03*
X040045Y037330D03*
X040715Y037330D03*
X040715Y038980D03*
X040045Y038980D03*
X022015Y025180D03*
X021345Y025180D03*
X021345Y021680D03*
X022015Y021680D03*
X022015Y018180D03*
X021345Y018180D03*
X021345Y014680D03*
X022015Y014680D03*
X025545Y010980D03*
X026215Y010980D03*
X027645Y010980D03*
X028315Y010980D03*
D24*
X018641Y002542D03*
X017641Y002542D03*
X016641Y002542D03*
X015641Y002542D03*
X014641Y002542D03*
X013641Y002542D03*
X012641Y002542D03*
X011641Y002542D03*
X011641Y039550D03*
X012641Y039550D03*
X013641Y039550D03*
X014641Y039550D03*
X015641Y039550D03*
X016641Y039550D03*
X017641Y039550D03*
X018641Y039550D03*
D25*
X013645Y033115D03*
X011676Y031934D03*
X009708Y033115D03*
X005771Y033115D03*
X003802Y031934D03*
X001834Y033115D03*
X007739Y010068D03*
X005771Y008887D03*
X009708Y008887D03*
D26*
X034330Y025580D03*
X034330Y026580D03*
X034330Y027580D03*
X036330Y027580D03*
X036330Y025580D03*
D27*
X019613Y024180D03*
X018747Y023806D03*
X018747Y024554D03*
X018747Y021054D03*
X018747Y020306D03*
X019613Y020680D03*
X018747Y017554D03*
X018747Y016806D03*
X019613Y017180D03*
X018747Y014054D03*
X018747Y013306D03*
X019613Y013680D03*
D28*
X041967Y037330D03*
X042793Y037330D03*
X042793Y038980D03*
X041967Y038980D03*
D29*
X043487Y022246D03*
X043487Y021446D03*
X043487Y019846D03*
D30*
X043487Y020646D03*
D31*
X026702Y020230D03*
X026230Y020230D03*
X025758Y020230D03*
D32*
X034330Y026580D02*
X040380Y026580D01*
X043580Y029780D01*
X043580Y040380D01*
X042780Y041180D01*
X011280Y041180D01*
X010880Y040680D01*
X010880Y038980D01*
X010380Y038580D01*
X009580Y038580D01*
X009580Y032780D01*
X009780Y032580D01*
X009780Y032794D01*
X009708Y033115D01*
X010495Y032722D01*
X011676Y031934D01*
X012857Y032722D01*
X013645Y033115D01*
X009780Y032980D02*
X009780Y032794D01*
X009708Y033115D02*
X005771Y033115D01*
X005022Y032722D01*
X004080Y031780D01*
X004041Y031780D01*
X003802Y031934D01*
X002621Y032722D01*
X001834Y033115D01*
X011580Y037630D02*
X011591Y039291D01*
X011641Y039550D01*
X032630Y011730D02*
X033430Y011730D01*
X033780Y011380D01*
X033780Y008730D01*
X033326Y008276D01*
X030526Y008276D01*
X027434Y008280D01*
X027240Y007786D01*
X027240Y007150D01*
X027260Y007080D01*
X027330Y007080D01*
X028180Y006580D01*
X028180Y001980D01*
X027280Y001080D01*
X011280Y001080D01*
X010980Y001380D01*
X010980Y002380D01*
X009708Y003652D01*
X009708Y008887D01*
X009607Y009180D01*
X009180Y009180D01*
X007898Y010462D01*
X007739Y010068D01*
X006558Y009281D01*
X005771Y008887D01*
X018630Y003680D02*
X018630Y002630D01*
X018641Y002542D01*
X018630Y003680D02*
X019430Y004480D01*
D33*
X019430Y004480D03*
X018780Y006180D03*
X017080Y003780D03*
X015630Y005830D03*
X021880Y011180D03*
X023880Y009430D03*
X022180Y009180D03*
X023980Y011680D03*
X024980Y013280D03*
X024380Y015080D03*
X023980Y015880D03*
X023880Y017630D03*
X023880Y019080D03*
X022380Y020280D03*
X021530Y019230D03*
X019780Y019230D03*
X020480Y017480D03*
X021880Y016680D03*
X020480Y014180D03*
X026380Y017080D03*
X027080Y017880D03*
X029780Y016080D03*
X029180Y015280D03*
X028380Y014380D03*
X027280Y014380D03*
X028330Y013380D03*
X030230Y010880D03*
X030880Y010880D03*
X026330Y008280D03*
X032330Y015530D03*
X031430Y016030D03*
X030480Y019480D03*
X036180Y022080D03*
X038180Y020080D03*
X024780Y024780D03*
X023880Y024780D03*
X023880Y025980D03*
X024780Y025980D03*
X023180Y022080D03*
X020480Y020980D03*
X016980Y022180D03*
X017830Y024330D03*
X020480Y024480D03*
X016280Y019680D03*
X014180Y019680D03*
X013580Y022180D03*
X013580Y024380D03*
X014980Y034580D03*
X011580Y037630D03*
X032580Y036480D03*
D34*
X033580Y037437D01*
X033554Y038061D01*
X038399Y038061D01*
X039730Y036130D01*
X042693Y036130D01*
X042793Y036230D01*
X042793Y035157D01*
X041789Y034980D02*
X040715Y034980D01*
X040045Y034980D02*
X040045Y034445D01*
X033930Y028330D01*
X032080Y028330D01*
X031955Y028205D01*
X030480Y026730D01*
X030480Y019480D01*
X030480Y017980D02*
X028883Y017980D01*
X028870Y017652D02*
X030308Y017652D01*
X031830Y016130D01*
X031830Y013130D01*
X032230Y012730D01*
X032630Y012730D01*
X032630Y013730D02*
X032980Y013730D01*
X033480Y014230D01*
X033480Y014980D01*
X030480Y017980D01*
X029773Y017337D02*
X030730Y016380D01*
X030730Y015480D01*
X030726Y015480D01*
X030726Y015184D01*
X031030Y014880D01*
X031030Y012580D01*
X031380Y012230D01*
X031380Y010630D01*
X030630Y009880D01*
X029880Y009880D01*
X029865Y009865D01*
X029530Y009865D01*
X029880Y009880D02*
X023580Y009880D01*
X021280Y007780D01*
X020480Y007780D01*
X020180Y008080D01*
X020180Y008580D01*
X020180Y009580D02*
X020680Y010080D01*
X021680Y010080D01*
X022880Y011280D01*
X022880Y012080D01*
X025980Y015180D01*
X026080Y015392D01*
X026078Y015490D01*
X026380Y015503D02*
X026380Y015780D01*
X026880Y016280D01*
X026880Y017280D01*
X026680Y017480D01*
X026680Y018280D01*
X027180Y018280D01*
X027337Y018437D01*
X027337Y018870D01*
X027023Y018870D02*
X027023Y019423D01*
X027130Y019530D01*
X027330Y019530D01*
X027280Y019580D01*
X027280Y020680D01*
X027030Y020930D01*
X026430Y020930D01*
X026230Y020730D01*
X026230Y020230D01*
X025780Y020208D02*
X025758Y020230D01*
X025780Y020208D02*
X025780Y019730D01*
X026078Y019432D01*
X026078Y018870D01*
X026393Y018870D02*
X026393Y019443D01*
X026680Y019730D01*
X026680Y020208D01*
X026702Y020230D01*
X027330Y019530D02*
X027580Y019530D01*
X027652Y019458D01*
X027652Y018870D01*
X027652Y016152D01*
X027330Y015830D01*
X027330Y015497D01*
X027337Y015490D01*
X027330Y015497D02*
X027330Y014430D01*
X027280Y014380D01*
X027280Y014330D01*
X027030Y014080D01*
X027030Y013730D01*
X027034Y013880D01*
X027030Y013730D02*
X026980Y013680D01*
X026980Y013430D01*
X026334Y012784D01*
X026334Y012480D01*
X026880Y012830D02*
X026880Y011980D01*
X026230Y011580D01*
X026230Y010995D01*
X026215Y010980D01*
X025545Y010980D02*
X025530Y010995D01*
X025530Y010930D01*
X025534Y012434D01*
X025626Y012480D01*
X025630Y012584D01*
X025630Y013830D01*
X026708Y014908D01*
X026708Y015490D01*
X026708Y015758D01*
X027230Y016280D01*
X027230Y017730D01*
X027080Y017880D01*
X026680Y018280D02*
X026680Y018842D01*
X026180Y018180D02*
X025680Y018680D01*
X025680Y019180D01*
X024780Y020180D01*
X024780Y024780D01*
X025280Y025180D02*
X028380Y021880D01*
X028380Y018968D01*
X028282Y018870D01*
X027680Y018898D02*
X027680Y018880D01*
X027680Y018898D02*
X027652Y018870D01*
X028870Y017337D02*
X029773Y017337D01*
X029487Y017023D02*
X030180Y016330D01*
X030180Y014515D01*
X030226Y013800D02*
X030226Y011780D01*
X030226Y010926D01*
X030230Y010880D01*
X030880Y010880D02*
X030880Y011726D01*
X030934Y011780D01*
X028780Y011445D02*
X028315Y010980D01*
X028780Y011445D02*
X028780Y015630D01*
X028380Y015980D01*
X028380Y016580D01*
X028530Y016680D01*
X028842Y016680D01*
X028870Y017023D02*
X029487Y017023D01*
X029480Y016380D02*
X029057Y016380D01*
X028870Y016078D02*
X028870Y015890D01*
X029180Y015580D01*
X029180Y015280D01*
X028380Y014980D02*
X028380Y014380D01*
X028380Y014980D02*
X028280Y015180D01*
X028280Y015192D02*
X028282Y015490D01*
X027967Y015490D02*
X027967Y013243D01*
X027480Y012830D01*
X027480Y012534D01*
X027476Y012480D01*
X027484Y012434D01*
X027480Y011380D01*
X027630Y010995D01*
X027545Y010995D01*
X026830Y010280D01*
X023280Y010280D01*
X022180Y009180D01*
X021880Y009580D02*
X023980Y011680D01*
X024980Y013280D02*
X024980Y013680D01*
X026393Y015093D01*
X026393Y015490D01*
X027023Y015490D02*
X027030Y015490D01*
X027030Y014730D01*
X026930Y014630D01*
X026330Y014034D01*
X026326Y013880D01*
X027280Y014380D02*
X027326Y014426D01*
X027652Y013502D02*
X026880Y012830D01*
X027652Y013502D02*
X027652Y015490D01*
X026323Y017023D02*
X026380Y017080D01*
X026323Y017023D02*
X025490Y017023D01*
X025737Y017337D02*
X026180Y017780D01*
X026180Y018180D01*
X025490Y017967D02*
X025477Y017980D01*
X024980Y017980D01*
X024780Y018180D01*
X022015Y018180D01*
X021345Y018180D02*
X019373Y018180D01*
X018747Y017554D01*
X018747Y016806D02*
X018354Y016806D01*
X016280Y019080D01*
X016280Y019680D01*
X016280Y037180D01*
X016630Y038480D01*
X016641Y039550D01*
X017580Y039468D02*
X017580Y038480D01*
X016980Y037180D01*
X016980Y022180D01*
X016980Y021580D01*
X018254Y020306D01*
X018747Y020306D01*
X018773Y020280D02*
X022380Y020280D01*
X023130Y020180D02*
X022080Y021230D01*
X022080Y021480D01*
X021345Y021680D02*
X019373Y021680D01*
X018747Y021054D01*
X019613Y020680D02*
X019913Y020980D01*
X020480Y020980D01*
X019780Y019230D02*
X021530Y019230D01*
X023130Y018730D02*
X023130Y020180D01*
X023880Y019080D02*
X023880Y024780D01*
X023880Y025980D02*
X023880Y029180D01*
X031979Y037279D01*
X031979Y038061D01*
X031979Y038079D01*
X032730Y038980D01*
X039980Y038980D01*
X040080Y038880D01*
X040715Y038980D02*
X041967Y038980D01*
X042793Y038980D02*
X042793Y037330D01*
X042793Y036230D01*
X041967Y037330D02*
X040715Y037330D01*
X040045Y037330D02*
X038995Y038630D01*
X033280Y038630D01*
X032767Y038067D01*
X032767Y038061D01*
X032767Y037367D01*
X024780Y029180D01*
X024780Y025980D01*
X025280Y025180D02*
X022015Y025180D01*
X021345Y025180D02*
X019373Y025180D01*
X018747Y024554D01*
X018747Y023806D02*
X018354Y023806D01*
X017830Y024330D01*
X017780Y024380D02*
X017780Y037168D01*
X018580Y038480D01*
X018641Y038541D02*
X018641Y039550D01*
X015641Y039469D02*
X015630Y038380D01*
X015680Y013480D01*
X015880Y013280D01*
X018721Y013280D01*
X018747Y014054D02*
X019373Y014680D01*
X021345Y014680D01*
X022015Y014680D02*
X022680Y014680D01*
X023080Y015080D01*
X024380Y015080D01*
X024880Y015468D02*
X024880Y014680D01*
X021980Y011780D01*
X020980Y011780D01*
X020180Y010980D01*
X020180Y010580D01*
X021180Y010580D02*
X021280Y010580D01*
X021880Y011180D01*
X021880Y009580D02*
X021180Y009580D01*
X023880Y009430D02*
X023880Y009030D01*
X023884Y009034D01*
X024730Y009034D01*
X025530Y009034D01*
X029434Y009034D01*
X029580Y009180D01*
X029545Y009180D01*
X029530Y009195D01*
X027645Y010980D02*
X027630Y010995D01*
X028184Y012480D02*
X028334Y012776D01*
X028330Y013380D01*
X030730Y015430D02*
X030730Y015480D01*
X031434Y015480D02*
X031434Y016026D01*
X031430Y016030D01*
X032330Y015530D02*
X032330Y015030D01*
X032630Y014730D01*
X029780Y016080D02*
X029480Y016380D01*
X025490Y016078D02*
X024880Y015468D01*
X023980Y015880D02*
X023980Y015980D01*
X024380Y016380D01*
X025477Y016380D01*
X025418Y017630D02*
X025490Y017652D01*
X025418Y017630D02*
X023880Y017630D01*
X023180Y018680D02*
X023130Y018730D01*
X023180Y018680D02*
X024930Y018680D01*
X025180Y018430D01*
X025278Y018282D01*
X021880Y016680D02*
X018873Y016680D01*
X019613Y017180D02*
X020180Y017180D01*
X020480Y017480D01*
X020480Y014180D02*
X019780Y013680D01*
X015880Y013280D02*
X014591Y012491D01*
X014580Y002680D01*
X013680Y002780D02*
X013691Y019391D01*
X014180Y019680D01*
X012691Y021491D02*
X013580Y022180D01*
X012691Y021491D02*
X012680Y002780D01*
X011580Y002580D02*
X011591Y022791D01*
X013580Y024380D01*
X018747Y023713D02*
X019580Y022880D01*
X021980Y022880D01*
X023180Y022080D01*
X020480Y024480D02*
X020180Y024180D01*
X019613Y024180D01*
X014980Y034580D02*
X014641Y034919D01*
X014641Y039550D01*
X036180Y022080D02*
X038180Y020080D01*
X026726Y008280D02*
X026430Y008334D01*
X026330Y008280D01*
X026330Y007150D01*
X025420Y007150D02*
X025380Y007140D01*
X024220Y007130D01*
X023880Y007530D01*
X023880Y009030D01*
X024730Y008326D02*
X025530Y008326D01*
X026430Y008334D01*
X018780Y006180D02*
X018780Y004580D01*
X017680Y003780D01*
X017680Y002553D01*
X016580Y002580D02*
X016591Y003491D01*
X017080Y003780D01*
X015630Y002780D02*
X015530Y002680D01*
X015641Y002569D01*
X015641Y002542D01*
X015630Y002780D02*
X015630Y005830D01*
D35*
X014580Y002680D02*
X014641Y002619D01*
X014641Y002542D01*
X013680Y002780D02*
X013641Y002741D01*
X013641Y002542D01*
X012680Y002780D02*
X012641Y002741D01*
X012641Y002542D01*
X011641Y002542D02*
X011618Y002542D01*
X011580Y002580D01*
X016580Y002580D02*
X016618Y002542D01*
X016641Y002542D01*
X017641Y002542D02*
X017680Y002553D01*
X018721Y013280D02*
X018747Y013306D01*
X019613Y013680D02*
X019780Y013680D01*
X021345Y014680D02*
X021445Y014580D01*
X021480Y014580D01*
X021380Y014680D01*
X021345Y014680D01*
X018873Y016680D02*
X018747Y016806D01*
X018773Y020280D02*
X018747Y020306D01*
X022080Y021480D02*
X022080Y021615D01*
X022015Y021680D01*
X018747Y023713D02*
X018747Y023806D01*
X017830Y024330D02*
X017780Y024380D01*
X025278Y018282D02*
X025490Y018282D01*
X025490Y017337D02*
X025737Y017337D01*
X025490Y016393D02*
X025477Y016380D01*
X026380Y015503D02*
X026393Y015490D01*
X028280Y015192D02*
X028280Y015180D01*
X028870Y016393D02*
X029057Y016380D01*
X028842Y016680D02*
X028870Y016708D01*
X028870Y017967D02*
X028883Y017980D01*
X026708Y018870D02*
X026680Y018842D01*
X030180Y013845D02*
X030226Y013800D01*
X039945Y034880D02*
X040045Y034980D01*
X042793Y035157D02*
X042971Y034980D01*
X018641Y038541D02*
X018580Y038480D01*
X017580Y039468D02*
X017641Y039550D01*
X015641Y039550D02*
X015641Y039469D01*
M02*
