G75*
G70*
%OFA0B0*%
%FSLAX24Y24*%
%IPPOS*%
%LPD*%
%AMOC8*
5,1,8,0,0,1.08239X$1,22.5*
%
%ADD10C,0.0000*%
%ADD11R,0.9843X0.0787*%
%ADD12R,0.5512X0.0787*%
%ADD13C,0.0600*%
%ADD14OC8,0.0600*%
%ADD15C,0.0600*%
%ADD16C,0.1969*%
%ADD17C,0.0860*%
%ADD18C,0.0660*%
%ADD19OC8,0.0660*%
%ADD20R,0.0512X0.0591*%
%ADD21C,0.0160*%
%ADD22C,0.0356*%
%ADD23C,0.0100*%
D10*
X000180Y000180D02*
X000180Y001519D01*
X010416Y001519D01*
X010416Y002149D01*
X000180Y002149D01*
X000180Y039944D01*
X010416Y039944D01*
X010416Y040574D01*
X000180Y040574D01*
X000180Y041912D01*
X045849Y041912D01*
X045849Y000180D01*
X000180Y000180D01*
D11*
X014944Y002542D03*
X014944Y039550D03*
D12*
X002936Y039550D03*
X002936Y002542D03*
D13*
X020180Y010580D03*
X026467Y029399D03*
X027255Y029399D03*
X028042Y029399D03*
X028830Y029399D03*
X029617Y029399D03*
X030404Y029399D03*
X031192Y029399D03*
X031979Y029399D03*
X032767Y029399D03*
X033554Y029399D03*
X033554Y038061D03*
X032767Y038061D03*
X031979Y038061D03*
X031192Y038061D03*
X030404Y038061D03*
X029617Y038061D03*
X028830Y038061D03*
X028042Y038061D03*
X027255Y038061D03*
X026467Y038061D03*
D14*
X021180Y010580D03*
X021180Y009580D03*
X021180Y008580D03*
X020180Y008580D03*
X020180Y009580D03*
D15*
X032330Y009730D02*
X032930Y009730D01*
X032930Y010730D02*
X032330Y010730D01*
X032330Y011730D02*
X032930Y011730D01*
X032930Y012730D02*
X032330Y012730D01*
X032330Y013730D02*
X032930Y013730D01*
X032930Y014730D02*
X032330Y014730D01*
D16*
X013645Y033115D03*
X011676Y031934D03*
X009708Y033115D03*
X005771Y033115D03*
X003802Y031934D03*
X001834Y033115D03*
X007739Y010068D03*
X005771Y008887D03*
X009708Y008887D03*
D17*
X034330Y025580D03*
X034330Y026580D03*
X034330Y027580D03*
X036330Y027580D03*
X036330Y025580D03*
D18*
X043487Y022246D03*
X043487Y021446D03*
X043487Y019846D03*
D19*
X043487Y020646D03*
D20*
X040515Y021180D03*
X039845Y021180D03*
X039845Y023180D03*
X040515Y023180D03*
X040515Y018680D03*
X039845Y018680D03*
D21*
X039580Y018680D02*
X038180Y020080D01*
X038558Y020098D02*
X038558Y020155D01*
X038501Y020294D01*
X038394Y020401D01*
X038255Y020458D01*
X038105Y020458D01*
X037966Y020401D01*
X037859Y020294D01*
X037802Y020155D01*
X037802Y020005D01*
X037859Y019866D01*
X037966Y019759D01*
X038105Y019702D01*
X038162Y019702D01*
X039389Y018475D01*
X039389Y018302D01*
X039507Y018185D01*
X040853Y018185D01*
X040971Y018302D01*
X040971Y018400D01*
X042536Y018400D01*
X042639Y018443D01*
X042717Y018521D01*
X043512Y019316D01*
X043593Y019316D01*
X043787Y019397D01*
X043936Y019546D01*
X044017Y019741D01*
X044017Y019952D01*
X043936Y020146D01*
X043822Y020260D01*
X043997Y020435D01*
X043997Y020646D01*
X043487Y020646D01*
X042977Y020646D01*
X042977Y020435D01*
X043152Y020260D01*
X043038Y020146D01*
X042957Y019952D01*
X042957Y019741D01*
X043012Y019608D01*
X042364Y018960D01*
X040971Y018960D01*
X040971Y019058D01*
X040853Y019175D01*
X039507Y019175D01*
X039494Y019162D01*
X038558Y020098D01*
X038558Y020151D02*
X043042Y020151D01*
X043102Y020310D02*
X038485Y020310D01*
X038663Y019993D02*
X042974Y019993D01*
X042957Y019834D02*
X038822Y019834D01*
X038980Y019676D02*
X042984Y019676D01*
X042921Y019517D02*
X039139Y019517D01*
X039297Y019359D02*
X042763Y019359D01*
X042604Y019200D02*
X039456Y019200D01*
X038981Y018883D02*
X030279Y018883D01*
X030121Y018725D02*
X039139Y018725D01*
X039298Y018566D02*
X029962Y018566D01*
X029804Y018408D02*
X039389Y018408D01*
X039442Y018249D02*
X029645Y018249D01*
X029487Y018091D02*
X042645Y018091D01*
X042803Y018249D02*
X040918Y018249D01*
X040515Y018680D02*
X042480Y018680D01*
X043487Y019687D01*
X043487Y019846D01*
X044017Y019834D02*
X044050Y019834D01*
X044050Y019676D02*
X043990Y019676D01*
X044050Y019517D02*
X043908Y019517D01*
X044050Y019496D02*
X041514Y016960D01*
X028356Y016960D01*
X030498Y019102D01*
X030555Y019102D01*
X030694Y019159D01*
X030801Y019266D01*
X030858Y019405D01*
X030858Y019555D01*
X030801Y019694D01*
X030694Y019801D01*
X030555Y019858D01*
X030405Y019858D01*
X030266Y019801D01*
X030159Y019694D01*
X030102Y019555D01*
X030102Y019498D01*
X027964Y017360D01*
X026635Y017360D01*
X026594Y017401D01*
X026455Y017458D01*
X026305Y017458D01*
X026166Y017401D01*
X026059Y017294D01*
X026002Y017155D01*
X026002Y017005D01*
X026020Y016960D01*
X024506Y016960D01*
X025146Y017600D01*
X026825Y017600D01*
X026866Y017559D01*
X027005Y017502D01*
X027155Y017502D01*
X027294Y017559D01*
X027401Y017666D01*
X027458Y017805D01*
X027458Y017955D01*
X027401Y018094D01*
X027294Y018201D01*
X027155Y018258D01*
X027005Y018258D01*
X026866Y018201D01*
X026825Y018160D01*
X024974Y018160D01*
X024871Y018117D01*
X024222Y017468D01*
X024258Y017555D01*
X024258Y017705D01*
X024201Y017844D01*
X024160Y017885D01*
X024160Y018825D01*
X024201Y018866D01*
X024258Y019005D01*
X024258Y019155D01*
X024201Y019294D01*
X024094Y019401D01*
X023955Y019458D01*
X023805Y019458D01*
X023666Y019401D01*
X023559Y019294D01*
X023502Y019155D01*
X023502Y019005D01*
X023559Y018866D01*
X023600Y018825D01*
X023600Y017885D01*
X023559Y017844D01*
X023502Y017705D01*
X023502Y017555D01*
X023559Y017416D01*
X023615Y017360D01*
X022860Y017360D01*
X022860Y018236D01*
X022817Y018339D01*
X021908Y019248D01*
X021908Y019305D01*
X021851Y019444D01*
X021744Y019551D01*
X021605Y019608D01*
X021455Y019608D01*
X021316Y019551D01*
X021209Y019444D01*
X021152Y019305D01*
X021152Y019155D01*
X021209Y019016D01*
X021316Y018909D01*
X021455Y018852D01*
X021512Y018852D01*
X022300Y018064D01*
X022300Y017124D01*
X022343Y017021D01*
X022404Y016960D01*
X022135Y016960D01*
X022094Y017001D01*
X021955Y017058D01*
X021805Y017058D01*
X021666Y017001D01*
X021559Y016894D01*
X021502Y016755D01*
X021502Y016605D01*
X021559Y016466D01*
X021666Y016359D01*
X021805Y016302D01*
X021955Y016302D01*
X022094Y016359D01*
X022135Y016400D01*
X029565Y016400D01*
X029459Y016294D01*
X029402Y016155D01*
X029402Y016005D01*
X029459Y015866D01*
X029566Y015759D01*
X029705Y015702D01*
X029762Y015702D01*
X031400Y014064D01*
X031400Y005777D01*
X030044Y004060D01*
X017335Y004060D01*
X017294Y004101D01*
X017155Y004158D01*
X017005Y004158D01*
X016866Y004101D01*
X016759Y003994D01*
X016702Y003855D01*
X016702Y003705D01*
X016759Y003566D01*
X016866Y003459D01*
X017005Y003402D01*
X017155Y003402D01*
X017294Y003459D01*
X017335Y003500D01*
X030141Y003500D01*
X030157Y003495D01*
X030196Y003500D01*
X030236Y003500D01*
X030251Y003506D01*
X030268Y003508D01*
X030302Y003528D01*
X030339Y003543D01*
X030351Y003555D01*
X030365Y003563D01*
X030390Y003594D01*
X030417Y003621D01*
X030424Y003637D01*
X031890Y005494D01*
X031917Y005521D01*
X031924Y005537D01*
X031934Y005550D01*
X031945Y005588D01*
X031960Y005624D01*
X031960Y005641D01*
X031965Y005657D01*
X031960Y005696D01*
X031960Y009423D01*
X031964Y009417D01*
X032017Y009364D01*
X032078Y009319D01*
X032146Y009285D01*
X032218Y009262D01*
X032292Y009250D01*
X032610Y009250D01*
X032610Y009710D01*
X032650Y009710D01*
X032650Y009750D01*
X032610Y009750D01*
X032610Y010210D01*
X032292Y010210D01*
X032218Y010198D01*
X032146Y010175D01*
X032078Y010141D01*
X032017Y010096D01*
X031964Y010043D01*
X031960Y010037D01*
X031960Y010393D01*
X032047Y010306D01*
X032231Y010230D01*
X033029Y010230D01*
X033213Y010306D01*
X033354Y010447D01*
X033430Y010631D01*
X033430Y010829D01*
X033354Y011013D01*
X033213Y011154D01*
X033029Y011230D01*
X033213Y011306D01*
X033354Y011447D01*
X033430Y011631D01*
X033430Y011829D01*
X033354Y012013D01*
X033213Y012154D01*
X033029Y012230D01*
X033213Y012306D01*
X033354Y012447D01*
X033430Y012631D01*
X033430Y012829D01*
X033354Y013013D01*
X033213Y013154D01*
X033029Y013230D01*
X033213Y013306D01*
X033354Y013447D01*
X033430Y013631D01*
X033430Y013829D01*
X033354Y014013D01*
X033213Y014154D01*
X033029Y014230D01*
X033213Y014306D01*
X033354Y014447D01*
X033430Y014631D01*
X033430Y014829D01*
X033354Y015013D01*
X033213Y015154D01*
X033029Y015230D01*
X032565Y015230D01*
X032651Y015316D01*
X032708Y015455D01*
X032708Y015605D01*
X032651Y015744D01*
X032544Y015851D01*
X032405Y015908D01*
X032348Y015908D01*
X031989Y016267D01*
X031886Y016310D01*
X031685Y016310D01*
X031644Y016351D01*
X031525Y016400D01*
X041686Y016400D01*
X041789Y016443D01*
X044489Y019143D01*
X044567Y019221D01*
X044610Y019324D01*
X044610Y023036D01*
X044567Y023139D01*
X043567Y024139D01*
X043489Y024217D01*
X043386Y024260D01*
X039924Y024260D01*
X039821Y024217D01*
X039743Y024139D01*
X039743Y024139D01*
X039621Y024017D01*
X039543Y023939D01*
X039500Y023836D01*
X039500Y023669D01*
X039389Y023558D01*
X039389Y022802D01*
X039507Y022685D01*
X040853Y022685D01*
X040971Y022802D01*
X040971Y022900D01*
X042437Y022900D01*
X042965Y022372D01*
X042957Y022352D01*
X042957Y022141D01*
X043038Y021946D01*
X043138Y021846D01*
X043051Y021760D01*
X042324Y021760D01*
X042221Y021717D01*
X042143Y021639D01*
X041964Y021460D01*
X040971Y021460D01*
X040971Y021558D01*
X040853Y021675D01*
X039507Y021675D01*
X039389Y021558D01*
X039389Y021460D01*
X023224Y021460D01*
X023121Y021417D01*
X023043Y021339D01*
X022362Y020658D01*
X022305Y020658D01*
X022166Y020601D01*
X022059Y020494D01*
X022002Y020355D01*
X022002Y020205D01*
X022059Y020066D01*
X022166Y019959D01*
X022305Y019902D01*
X022455Y019902D01*
X022594Y019959D01*
X022701Y020066D01*
X022758Y020205D01*
X022758Y020262D01*
X023396Y020900D01*
X039389Y020900D01*
X039389Y020802D01*
X039507Y020685D01*
X040184Y020685D01*
X040853Y020685D01*
X040971Y020802D01*
X040971Y020900D01*
X042136Y020900D01*
X042239Y020943D01*
X042496Y021200D01*
X043015Y021200D01*
X043038Y021146D01*
X043152Y021032D01*
X042977Y020857D01*
X042977Y020646D01*
X043487Y020646D01*
X043487Y020646D01*
X043487Y020646D01*
X043997Y020646D01*
X043997Y020857D01*
X043822Y021032D01*
X043936Y021146D01*
X044017Y021341D01*
X044017Y021552D01*
X043936Y021746D01*
X043837Y021846D01*
X043936Y021946D01*
X044017Y022141D01*
X044017Y022352D01*
X043936Y022546D01*
X043787Y022695D01*
X043593Y022776D01*
X043382Y022776D01*
X043361Y022768D01*
X042712Y023417D01*
X042609Y023460D01*
X040971Y023460D01*
X040971Y023558D01*
X040853Y023675D01*
X040071Y023675D01*
X040096Y023700D01*
X043214Y023700D01*
X044050Y022864D01*
X044050Y019496D01*
X043913Y019359D02*
X043695Y019359D01*
X043754Y019200D02*
X043396Y019200D01*
X043238Y019042D02*
X043596Y019042D01*
X043437Y018883D02*
X043079Y018883D01*
X042921Y018725D02*
X043279Y018725D01*
X043120Y018566D02*
X042762Y018566D01*
X042962Y018408D02*
X042554Y018408D01*
X042486Y017932D02*
X029328Y017932D01*
X029170Y017774D02*
X042328Y017774D01*
X042169Y017615D02*
X029011Y017615D01*
X028853Y017457D02*
X042011Y017457D01*
X041852Y017298D02*
X028694Y017298D01*
X028536Y017140D02*
X041694Y017140D01*
X041535Y016981D02*
X028377Y016981D01*
X028080Y017080D02*
X030480Y019480D01*
X030347Y019834D02*
X020760Y019834D01*
X020760Y019676D02*
X030152Y019676D01*
X030102Y019517D02*
X021778Y019517D01*
X021886Y019359D02*
X023624Y019359D01*
X023520Y019200D02*
X021956Y019200D01*
X022114Y019042D02*
X023502Y019042D01*
X023552Y018883D02*
X022273Y018883D01*
X022431Y018725D02*
X023600Y018725D01*
X023600Y018566D02*
X022590Y018566D01*
X022748Y018408D02*
X023600Y018408D01*
X023600Y018249D02*
X022854Y018249D01*
X022860Y018091D02*
X023600Y018091D01*
X023600Y017932D02*
X022860Y017932D01*
X022860Y017774D02*
X023530Y017774D01*
X023502Y017615D02*
X022860Y017615D01*
X022860Y017457D02*
X023543Y017457D01*
X023880Y017630D02*
X023880Y019080D01*
X024136Y019359D02*
X029963Y019359D01*
X029804Y019200D02*
X024240Y019200D01*
X024258Y019042D02*
X029646Y019042D01*
X029487Y018883D02*
X024208Y018883D01*
X024160Y018725D02*
X029329Y018725D01*
X029170Y018566D02*
X024160Y018566D01*
X024160Y018408D02*
X029012Y018408D01*
X028853Y018249D02*
X027177Y018249D01*
X026983Y018249D02*
X024160Y018249D01*
X024160Y018091D02*
X024845Y018091D01*
X024686Y017932D02*
X024160Y017932D01*
X024230Y017774D02*
X024528Y017774D01*
X024369Y017615D02*
X024258Y017615D01*
X024230Y017080D02*
X022680Y017080D01*
X022580Y017180D01*
X022580Y018180D01*
X021530Y019230D01*
X021380Y018883D02*
X020760Y018883D01*
X020760Y018725D02*
X021639Y018725D01*
X021798Y018566D02*
X020760Y018566D01*
X020760Y018408D02*
X021956Y018408D01*
X022115Y018249D02*
X020760Y018249D01*
X020760Y018091D02*
X022273Y018091D01*
X022300Y017932D02*
X020760Y017932D01*
X020760Y017774D02*
X022300Y017774D01*
X022300Y017615D02*
X020833Y017615D01*
X020858Y017555D02*
X020801Y017694D01*
X020760Y017735D01*
X020760Y020725D01*
X020801Y020766D01*
X020858Y020905D01*
X020858Y021055D01*
X020801Y021194D01*
X020760Y021235D01*
X020760Y024225D01*
X020801Y024266D01*
X020828Y024332D01*
X025967Y029471D01*
X025967Y029300D01*
X026044Y029116D01*
X026184Y028975D01*
X026368Y028899D01*
X026567Y028899D01*
X026751Y028975D01*
X026861Y029086D01*
X026972Y028975D01*
X027155Y028899D01*
X027354Y028899D01*
X027538Y028975D01*
X027649Y029086D01*
X027759Y028975D01*
X027943Y028899D01*
X028142Y028899D01*
X028325Y028975D01*
X028436Y029086D01*
X028546Y028975D01*
X028730Y028899D01*
X028929Y028899D01*
X029113Y028975D01*
X029223Y029086D01*
X029334Y028975D01*
X029518Y028899D01*
X029716Y028899D01*
X029900Y028975D01*
X030011Y029086D01*
X030121Y028975D01*
X030305Y028899D01*
X030504Y028899D01*
X030688Y028975D01*
X030798Y029086D01*
X030909Y028975D01*
X031092Y028899D01*
X031291Y028899D01*
X031475Y028975D01*
X031586Y029086D01*
X031696Y028975D01*
X031880Y028899D01*
X032079Y028899D01*
X032262Y028975D01*
X032373Y029086D01*
X032483Y028975D01*
X032667Y028899D01*
X032866Y028899D01*
X033050Y028975D01*
X033160Y029086D01*
X033271Y028975D01*
X033455Y028899D01*
X033653Y028899D01*
X033837Y028975D01*
X033978Y029116D01*
X034054Y029300D01*
X034054Y029499D01*
X033978Y029683D01*
X033837Y029823D01*
X033653Y029899D01*
X033455Y029899D01*
X033271Y029823D01*
X033160Y029713D01*
X033050Y029823D01*
X032866Y029899D01*
X032667Y029899D01*
X032483Y029823D01*
X032373Y029713D01*
X032262Y029823D01*
X032079Y029899D01*
X031880Y029899D01*
X031696Y029823D01*
X031586Y029713D01*
X031475Y029823D01*
X031291Y029899D01*
X031092Y029899D01*
X030909Y029823D01*
X030798Y029713D01*
X030688Y029823D01*
X030504Y029899D01*
X030305Y029899D01*
X030121Y029823D01*
X030011Y029713D01*
X029900Y029823D01*
X029716Y029899D01*
X029518Y029899D01*
X029334Y029823D01*
X029223Y029713D01*
X029113Y029823D01*
X028929Y029899D01*
X028730Y029899D01*
X028546Y029823D01*
X028436Y029713D01*
X028325Y029823D01*
X028142Y029899D01*
X027943Y029899D01*
X027759Y029823D01*
X027649Y029713D01*
X027538Y029823D01*
X027354Y029899D01*
X027155Y029899D01*
X026972Y029823D01*
X026861Y029713D01*
X026751Y029823D01*
X026567Y029899D01*
X026395Y029899D01*
X032598Y036102D01*
X032655Y036102D01*
X032794Y036159D01*
X032901Y036266D01*
X032958Y036405D01*
X032958Y036555D01*
X032901Y036694D01*
X032794Y036801D01*
X032655Y036858D01*
X032505Y036858D01*
X032366Y036801D01*
X032259Y036694D01*
X032202Y036555D01*
X032202Y036498D01*
X020560Y024856D01*
X020555Y024858D01*
X020405Y024858D01*
X020266Y024801D01*
X020159Y024694D01*
X020102Y024555D01*
X020102Y024405D01*
X020159Y024266D01*
X020200Y024225D01*
X020200Y021235D01*
X020159Y021194D01*
X020102Y021055D01*
X020102Y020905D01*
X020159Y020766D01*
X020200Y020725D01*
X020200Y017735D01*
X020159Y017694D01*
X020102Y017555D01*
X020102Y017405D01*
X020159Y017266D01*
X020200Y017225D01*
X020200Y014435D01*
X020159Y014394D01*
X020102Y014255D01*
X020102Y014105D01*
X020159Y013966D01*
X020200Y013925D01*
X020200Y012524D01*
X020243Y012421D01*
X021502Y011162D01*
X021502Y011105D01*
X021559Y010966D01*
X021666Y010859D01*
X021805Y010802D01*
X021887Y010802D01*
X023502Y009389D01*
X023502Y009355D01*
X023559Y009216D01*
X023666Y009109D01*
X023805Y009052D01*
X023955Y009052D01*
X024094Y009109D01*
X024201Y009216D01*
X024258Y009355D01*
X024258Y009505D01*
X024201Y009644D01*
X024094Y009751D01*
X023955Y009808D01*
X023873Y009808D01*
X022739Y010800D01*
X024436Y010800D01*
X024539Y010843D01*
X024617Y010921D01*
X025217Y011521D01*
X025260Y011624D01*
X025260Y013025D01*
X025301Y013066D01*
X025358Y013205D01*
X025358Y013355D01*
X025301Y013494D01*
X028938Y013494D01*
X028764Y013653D02*
X025069Y013653D01*
X025055Y013658D02*
X024905Y013658D01*
X024766Y013601D01*
X024659Y013494D01*
X024260Y013494D01*
X024260Y013336D02*
X024602Y013336D01*
X024602Y013355D02*
X024602Y013205D01*
X024659Y013066D01*
X024700Y013025D01*
X024700Y011796D01*
X024264Y011360D01*
X024195Y011360D01*
X024301Y011466D01*
X024358Y011605D01*
X024358Y011755D01*
X024301Y011894D01*
X024260Y011935D01*
X024260Y014720D01*
X024305Y014702D01*
X024455Y014702D01*
X024594Y014759D01*
X024701Y014866D01*
X024756Y015000D01*
X028925Y015000D01*
X028966Y014959D01*
X029105Y014902D01*
X029255Y014902D01*
X029394Y014959D01*
X029501Y015066D01*
X029558Y015205D01*
X029558Y015355D01*
X029501Y015494D01*
X029394Y015601D01*
X029255Y015658D01*
X029105Y015658D01*
X028966Y015601D01*
X028925Y015560D01*
X024524Y015560D01*
X024421Y015517D01*
X024362Y015458D01*
X024305Y015458D01*
X024260Y015440D01*
X024260Y015625D01*
X024301Y015666D01*
X024358Y015805D01*
X024358Y015955D01*
X024301Y016094D01*
X024194Y016201D01*
X024055Y016258D01*
X023905Y016258D01*
X023766Y016201D01*
X023659Y016094D01*
X023602Y015955D01*
X023602Y015805D01*
X023659Y015666D01*
X023700Y015625D01*
X023700Y011935D01*
X023659Y011894D01*
X023602Y011755D01*
X023602Y011605D01*
X023659Y011466D01*
X023765Y011360D01*
X022215Y011360D01*
X022201Y011394D01*
X022094Y011501D01*
X021955Y011558D01*
X021898Y011558D01*
X020760Y012696D01*
X020760Y013925D01*
X020801Y013966D01*
X020858Y014105D01*
X020858Y014255D01*
X020801Y014394D01*
X020760Y014435D01*
X020760Y017225D01*
X020801Y017266D01*
X020858Y017405D01*
X020858Y017555D01*
X020858Y017457D02*
X022300Y017457D01*
X022300Y017298D02*
X020814Y017298D01*
X020760Y017140D02*
X022300Y017140D01*
X022383Y016981D02*
X022114Y016981D01*
X021880Y016680D02*
X041630Y016680D01*
X044330Y019380D01*
X044330Y022980D01*
X043330Y023980D01*
X039980Y023980D01*
X039780Y023780D01*
X039780Y023330D01*
X039930Y023180D01*
X039845Y023180D01*
X039389Y023163D02*
X020760Y023163D01*
X020760Y023321D02*
X039389Y023321D01*
X039389Y023480D02*
X020760Y023480D01*
X020760Y023638D02*
X039469Y023638D01*
X039500Y023797D02*
X020760Y023797D01*
X020760Y023955D02*
X039559Y023955D01*
X039621Y024017D02*
X039621Y024017D01*
X039718Y024114D02*
X020760Y024114D01*
X020803Y024272D02*
X045649Y024272D01*
X045649Y024114D02*
X043592Y024114D01*
X043751Y023955D02*
X045649Y023955D01*
X045649Y023797D02*
X043909Y023797D01*
X044068Y023638D02*
X045649Y023638D01*
X045649Y023480D02*
X044226Y023480D01*
X044385Y023321D02*
X045649Y023321D01*
X045649Y023163D02*
X044543Y023163D01*
X044610Y023004D02*
X045649Y023004D01*
X045649Y022846D02*
X044610Y022846D01*
X044610Y022687D02*
X045649Y022687D01*
X045649Y022529D02*
X044610Y022529D01*
X044610Y022370D02*
X045649Y022370D01*
X045649Y022212D02*
X044610Y022212D01*
X044610Y022053D02*
X045649Y022053D01*
X045649Y021895D02*
X044610Y021895D01*
X044610Y021736D02*
X045649Y021736D01*
X045649Y021578D02*
X044610Y021578D01*
X044610Y021419D02*
X045649Y021419D01*
X045649Y021261D02*
X044610Y021261D01*
X044610Y021102D02*
X045649Y021102D01*
X045649Y020944D02*
X044610Y020944D01*
X044610Y020785D02*
X045649Y020785D01*
X045649Y020627D02*
X044610Y020627D01*
X044610Y020468D02*
X045649Y020468D01*
X045649Y020310D02*
X044610Y020310D01*
X044610Y020151D02*
X045649Y020151D01*
X045649Y019993D02*
X044610Y019993D01*
X044610Y019834D02*
X045649Y019834D01*
X045649Y019676D02*
X044610Y019676D01*
X044610Y019517D02*
X045649Y019517D01*
X045649Y019359D02*
X044610Y019359D01*
X044546Y019200D02*
X045649Y019200D01*
X045649Y019042D02*
X044388Y019042D01*
X044229Y018883D02*
X045649Y018883D01*
X045649Y018725D02*
X044071Y018725D01*
X043912Y018566D02*
X045649Y018566D01*
X045649Y018408D02*
X043754Y018408D01*
X043595Y018249D02*
X045649Y018249D01*
X045649Y018091D02*
X043437Y018091D01*
X043278Y017932D02*
X045649Y017932D01*
X045649Y017774D02*
X043120Y017774D01*
X042961Y017615D02*
X045649Y017615D01*
X045649Y017457D02*
X042803Y017457D01*
X042644Y017298D02*
X045649Y017298D01*
X045649Y017140D02*
X042486Y017140D01*
X042327Y016981D02*
X045649Y016981D01*
X045649Y016823D02*
X042169Y016823D01*
X042010Y016664D02*
X045649Y016664D01*
X045649Y016506D02*
X041852Y016506D01*
X042446Y019042D02*
X040971Y019042D01*
X040954Y020785D02*
X042977Y020785D01*
X042977Y020627D02*
X023123Y020627D01*
X023281Y020785D02*
X039406Y020785D01*
X039845Y021180D02*
X023280Y021180D01*
X022380Y020280D01*
X022229Y020627D02*
X020760Y020627D01*
X020760Y020468D02*
X022049Y020468D01*
X022002Y020310D02*
X020760Y020310D01*
X020760Y020151D02*
X022024Y020151D01*
X022133Y019993D02*
X020760Y019993D01*
X020760Y019517D02*
X021282Y019517D01*
X021174Y019359D02*
X020760Y019359D01*
X020760Y019200D02*
X021152Y019200D01*
X021199Y019042D02*
X020760Y019042D01*
X020200Y019042D02*
X020111Y019042D01*
X020101Y019016D02*
X020158Y019155D01*
X020158Y019305D01*
X020101Y019444D01*
X019994Y019551D01*
X019855Y019608D01*
X019798Y019608D01*
X019610Y019796D01*
X019610Y026086D01*
X019567Y026189D01*
X019489Y026267D01*
X015260Y030496D01*
X015260Y034325D01*
X015301Y034366D01*
X015358Y034505D01*
X015358Y034655D01*
X015301Y034794D01*
X015194Y034901D01*
X015055Y034958D01*
X014905Y034958D01*
X014766Y034901D01*
X014659Y034794D01*
X014602Y034655D01*
X014602Y034505D01*
X014659Y034366D01*
X014700Y034325D01*
X014700Y033656D01*
X014592Y033843D01*
X014372Y034063D01*
X014102Y034219D01*
X013800Y034300D01*
X013489Y034300D01*
X013187Y034219D01*
X012917Y034063D01*
X012697Y033843D01*
X012541Y033573D01*
X012460Y033271D01*
X012460Y032960D01*
X012510Y032776D01*
X012403Y032882D01*
X012133Y033038D01*
X011832Y033119D01*
X011520Y033119D01*
X011219Y033038D01*
X010949Y032882D01*
X010843Y032776D01*
X010892Y032960D01*
X010892Y033271D01*
X010811Y033573D01*
X010655Y033843D01*
X010435Y034063D01*
X010165Y034219D01*
X009863Y034300D01*
X009552Y034300D01*
X009250Y034219D01*
X008980Y034063D01*
X008760Y033843D01*
X008604Y033573D01*
X008523Y033271D01*
X008523Y032960D01*
X008604Y032658D01*
X008760Y032388D01*
X008980Y032168D01*
X009250Y032012D01*
X009552Y031931D01*
X009863Y031931D01*
X010165Y032012D01*
X010435Y032168D01*
X010541Y032274D01*
X010492Y032090D01*
X010492Y031778D01*
X010573Y031477D01*
X010728Y031207D01*
X010949Y030987D01*
X011219Y030831D01*
X011520Y030750D01*
X011832Y030750D01*
X012133Y030831D01*
X012403Y030987D01*
X012624Y031207D01*
X012780Y031477D01*
X012860Y031778D01*
X012860Y032090D01*
X012811Y032274D01*
X012917Y032168D01*
X013187Y032012D01*
X013489Y031931D01*
X013800Y031931D01*
X014102Y032012D01*
X014372Y032168D01*
X014592Y032388D01*
X014700Y032575D01*
X014700Y030324D01*
X014743Y030221D01*
X019050Y025914D01*
X019050Y019624D01*
X019093Y019521D01*
X019402Y019212D01*
X019402Y019155D01*
X019459Y019016D01*
X019566Y018909D01*
X019705Y018852D01*
X019855Y018852D01*
X019994Y018909D01*
X020101Y019016D01*
X020200Y018883D02*
X019930Y018883D01*
X019630Y018883D02*
X000380Y018883D01*
X000380Y018725D02*
X020200Y018725D01*
X020200Y018566D02*
X000380Y018566D01*
X000380Y018408D02*
X020200Y018408D01*
X020200Y018249D02*
X000380Y018249D01*
X000380Y018091D02*
X020200Y018091D01*
X020200Y017932D02*
X000380Y017932D01*
X000380Y017774D02*
X020200Y017774D01*
X020127Y017615D02*
X000380Y017615D01*
X000380Y017457D02*
X020102Y017457D01*
X020146Y017298D02*
X000380Y017298D01*
X000380Y017140D02*
X020200Y017140D01*
X020200Y016981D02*
X000380Y016981D01*
X000380Y016823D02*
X020200Y016823D01*
X020200Y016664D02*
X000380Y016664D01*
X000380Y016506D02*
X020200Y016506D01*
X020200Y016347D02*
X000380Y016347D01*
X000380Y016189D02*
X020200Y016189D01*
X020200Y016030D02*
X000380Y016030D01*
X000380Y015872D02*
X020200Y015872D01*
X020200Y015713D02*
X000380Y015713D01*
X000380Y015555D02*
X020200Y015555D01*
X020200Y015396D02*
X000380Y015396D01*
X000380Y015238D02*
X020200Y015238D01*
X020200Y015079D02*
X000380Y015079D01*
X000380Y014921D02*
X020200Y014921D01*
X020200Y014762D02*
X000380Y014762D01*
X000380Y014604D02*
X020200Y014604D01*
X020200Y014445D02*
X000380Y014445D01*
X000380Y014287D02*
X020115Y014287D01*
X020102Y014128D02*
X000380Y014128D01*
X000380Y013970D02*
X020158Y013970D01*
X020200Y013811D02*
X000380Y013811D01*
X000380Y013653D02*
X020200Y013653D01*
X020200Y013494D02*
X000380Y013494D01*
X000380Y013336D02*
X020200Y013336D01*
X020200Y013177D02*
X000380Y013177D01*
X000380Y013019D02*
X020200Y013019D01*
X020200Y012860D02*
X000380Y012860D01*
X000380Y012702D02*
X020200Y012702D01*
X020200Y012543D02*
X000380Y012543D01*
X000380Y012385D02*
X020280Y012385D01*
X020438Y012226D02*
X000380Y012226D01*
X000380Y012068D02*
X020597Y012068D01*
X020755Y011909D02*
X000380Y011909D01*
X000380Y011751D02*
X020914Y011751D01*
X021072Y011592D02*
X000380Y011592D01*
X000380Y011434D02*
X021231Y011434D01*
X021389Y011275D02*
X000380Y011275D01*
X000380Y011117D02*
X007186Y011117D01*
X007282Y011172D02*
X007012Y011016D01*
X006791Y010795D01*
X006636Y010525D01*
X006555Y010224D01*
X006555Y009912D01*
X006604Y009728D01*
X006498Y009835D01*
X006228Y009991D01*
X005926Y010071D01*
X005615Y010071D01*
X005313Y009991D01*
X005043Y009835D01*
X004823Y009614D01*
X004667Y009344D01*
X004586Y009043D01*
X004586Y008731D01*
X004667Y008430D01*
X004823Y008160D01*
X005043Y007939D01*
X005313Y007784D01*
X005615Y007703D01*
X005926Y007703D01*
X006228Y007784D01*
X006498Y007939D01*
X006718Y008160D01*
X006874Y008430D01*
X006955Y008731D01*
X006955Y009043D01*
X006906Y009227D01*
X007012Y009121D01*
X007282Y008965D01*
X007583Y008884D01*
X007895Y008884D01*
X008196Y008965D01*
X008466Y009121D01*
X008573Y009227D01*
X008523Y009043D01*
X008523Y008731D01*
X008604Y008430D01*
X008760Y008160D01*
X008980Y007939D01*
X009250Y007784D01*
X009552Y007703D01*
X009863Y007703D01*
X010165Y007784D01*
X010435Y007939D01*
X010655Y008160D01*
X010811Y008430D01*
X010892Y008731D01*
X010892Y009043D01*
X010811Y009344D01*
X010655Y009614D01*
X010435Y009835D01*
X010165Y009991D01*
X009863Y010071D01*
X009552Y010071D01*
X009250Y009991D01*
X008980Y009835D01*
X008874Y009728D01*
X008923Y009912D01*
X008923Y010224D01*
X008843Y010525D01*
X008687Y010795D01*
X008466Y011016D01*
X008196Y011172D01*
X007895Y011252D01*
X007583Y011252D01*
X007282Y011172D01*
X006954Y010958D02*
X000380Y010958D01*
X000380Y010800D02*
X006796Y010800D01*
X006702Y010641D02*
X000380Y010641D01*
X000380Y010483D02*
X006624Y010483D01*
X006582Y010324D02*
X000380Y010324D01*
X000380Y010166D02*
X006555Y010166D01*
X006555Y010007D02*
X006167Y010007D01*
X006474Y009849D02*
X006572Y009849D01*
X006909Y009215D02*
X006918Y009215D01*
X006951Y009056D02*
X007124Y009056D01*
X006955Y008898D02*
X007532Y008898D01*
X007946Y008898D02*
X008523Y008898D01*
X008527Y009056D02*
X008354Y009056D01*
X008560Y009215D02*
X008569Y009215D01*
X008523Y008739D02*
X006955Y008739D01*
X006914Y008581D02*
X008564Y008581D01*
X008609Y008422D02*
X006869Y008422D01*
X006778Y008264D02*
X008700Y008264D01*
X008815Y008105D02*
X006663Y008105D01*
X006505Y007947D02*
X008973Y007947D01*
X009243Y007788D02*
X006235Y007788D01*
X005306Y007788D02*
X000380Y007788D01*
X000380Y007630D02*
X017034Y007630D01*
X017171Y007767D02*
X015612Y006208D01*
X015555Y006208D01*
X015416Y006151D01*
X015309Y006044D01*
X015252Y005905D01*
X015252Y005755D01*
X015309Y005616D01*
X015416Y005509D01*
X015555Y005452D01*
X015705Y005452D01*
X015844Y005509D01*
X015951Y005616D01*
X016008Y005755D01*
X016008Y005812D01*
X017446Y007250D01*
X021436Y007250D01*
X021539Y007293D01*
X021617Y007371D01*
X022417Y008171D01*
X022460Y008274D01*
X022460Y008925D01*
X022501Y008966D01*
X022558Y009105D01*
X022558Y009255D01*
X022501Y009394D01*
X022394Y009501D01*
X022255Y009558D01*
X022105Y009558D01*
X021966Y009501D01*
X021859Y009394D01*
X021802Y009255D01*
X021802Y009105D01*
X021859Y008966D01*
X021900Y008925D01*
X021900Y008446D01*
X021264Y007810D01*
X017274Y007810D01*
X017171Y007767D01*
X017221Y007788D02*
X010172Y007788D01*
X010442Y007947D02*
X021401Y007947D01*
X021379Y008100D02*
X021660Y008381D01*
X021660Y008560D01*
X021200Y008560D01*
X021200Y008600D01*
X021160Y008600D01*
X021160Y009060D01*
X020981Y009060D01*
X020700Y008779D01*
X020700Y008600D01*
X021160Y008600D01*
X021160Y008560D01*
X020700Y008560D01*
X020700Y008381D01*
X020981Y008100D01*
X021160Y008100D01*
X021160Y008560D01*
X021200Y008560D01*
X021200Y008100D01*
X021379Y008100D01*
X021384Y008105D02*
X021559Y008105D01*
X021542Y008264D02*
X021718Y008264D01*
X021660Y008422D02*
X021876Y008422D01*
X021900Y008581D02*
X021200Y008581D01*
X021200Y008600D02*
X021660Y008600D01*
X021660Y008779D01*
X021379Y009060D01*
X021200Y009060D01*
X021200Y008600D01*
X021160Y008581D02*
X020680Y008581D01*
X020680Y008739D02*
X020700Y008739D01*
X020680Y008787D02*
X020387Y009080D01*
X019973Y009080D01*
X019680Y008787D01*
X019680Y008373D01*
X019973Y008080D01*
X020387Y008080D01*
X020680Y008373D01*
X020680Y008787D01*
X020570Y008898D02*
X020819Y008898D01*
X020977Y009056D02*
X020411Y009056D01*
X020387Y009080D02*
X020680Y009373D01*
X020680Y009373D01*
X020973Y009080D01*
X021387Y009080D01*
X021680Y009373D01*
X021851Y009373D01*
X021802Y009215D02*
X021522Y009215D01*
X021383Y009056D02*
X021822Y009056D01*
X021900Y008898D02*
X021541Y008898D01*
X021660Y008739D02*
X021900Y008739D01*
X022180Y008330D02*
X021380Y007530D01*
X017330Y007530D01*
X015630Y005830D01*
X015904Y005569D02*
X031236Y005569D01*
X031361Y005728D02*
X015997Y005728D01*
X016082Y005886D02*
X018539Y005886D01*
X018566Y005859D02*
X018705Y005802D01*
X018855Y005802D01*
X018994Y005859D01*
X019035Y005900D01*
X021934Y005900D01*
X021943Y005897D01*
X021989Y005900D01*
X022036Y005900D01*
X022045Y005904D01*
X022054Y005904D01*
X022096Y005925D01*
X022139Y005943D01*
X022145Y005949D01*
X022154Y005954D01*
X022185Y005989D01*
X022217Y006021D01*
X022221Y006030D01*
X023507Y007500D01*
X026636Y007500D01*
X026739Y007543D01*
X026817Y007621D01*
X029717Y010521D01*
X029760Y010624D01*
X029760Y010972D01*
X029852Y010874D01*
X029852Y010805D01*
X029909Y010666D01*
X030016Y010559D01*
X030155Y010502D01*
X030305Y010502D01*
X030444Y010559D01*
X030551Y010666D01*
X030608Y010805D01*
X030608Y010955D01*
X030551Y011094D01*
X030444Y011201D01*
X030305Y011258D01*
X030259Y011258D01*
X029760Y011791D01*
X029760Y013331D01*
X029762Y013338D01*
X029760Y013387D01*
X029760Y013436D01*
X029757Y013442D01*
X029757Y013449D01*
X029736Y013493D01*
X029717Y013539D01*
X029712Y013543D01*
X029710Y013550D01*
X029673Y013583D01*
X029639Y013617D01*
X029632Y013620D01*
X028758Y014415D01*
X028758Y014455D01*
X028701Y014594D01*
X028594Y014701D01*
X028455Y014758D01*
X028305Y014758D01*
X028166Y014701D01*
X028059Y014594D01*
X028002Y014455D01*
X028002Y014305D01*
X028059Y014166D01*
X028166Y014059D01*
X028305Y014002D01*
X028380Y014002D01*
X029200Y013256D01*
X029200Y011685D01*
X029198Y011633D01*
X029200Y011629D01*
X029200Y010796D01*
X026464Y008060D01*
X023426Y008060D01*
X023417Y008063D01*
X023371Y008060D01*
X023324Y008060D01*
X023315Y008056D01*
X023306Y008056D01*
X023264Y008035D01*
X023221Y008017D01*
X023215Y008011D01*
X023206Y008006D01*
X023175Y007971D01*
X023143Y007939D01*
X023139Y007930D01*
X021853Y006460D01*
X019035Y006460D01*
X018994Y006501D01*
X018855Y006558D01*
X018705Y006558D01*
X018566Y006501D01*
X018459Y006394D01*
X018402Y006255D01*
X018402Y006105D01*
X018459Y005966D01*
X018566Y005859D01*
X018427Y006045D02*
X016240Y006045D01*
X016399Y006203D02*
X018402Y006203D01*
X018446Y006362D02*
X016557Y006362D01*
X016716Y006520D02*
X018613Y006520D01*
X018947Y006520D02*
X021905Y006520D01*
X022044Y006679D02*
X016874Y006679D01*
X017033Y006837D02*
X022183Y006837D01*
X022322Y006996D02*
X017191Y006996D01*
X017350Y007154D02*
X022460Y007154D01*
X022599Y007313D02*
X021558Y007313D01*
X021717Y007471D02*
X022738Y007471D01*
X022876Y007630D02*
X021875Y007630D01*
X022034Y007788D02*
X023015Y007788D01*
X023151Y007947D02*
X022192Y007947D01*
X022351Y008105D02*
X026509Y008105D01*
X026668Y008264D02*
X022456Y008264D01*
X022460Y008422D02*
X026826Y008422D01*
X026985Y008581D02*
X022460Y008581D01*
X022460Y008739D02*
X027143Y008739D01*
X027302Y008898D02*
X022460Y008898D01*
X022538Y009056D02*
X023795Y009056D01*
X023965Y009056D02*
X027460Y009056D01*
X027619Y009215D02*
X024199Y009215D01*
X024258Y009373D02*
X027777Y009373D01*
X027936Y009532D02*
X024247Y009532D01*
X024155Y009690D02*
X028094Y009690D01*
X028253Y009849D02*
X023827Y009849D01*
X023646Y010007D02*
X028411Y010007D01*
X028570Y010166D02*
X023465Y010166D01*
X023283Y010324D02*
X028728Y010324D01*
X028887Y010483D02*
X023102Y010483D01*
X022921Y010641D02*
X029045Y010641D01*
X029200Y010800D02*
X022740Y010800D01*
X022433Y010324D02*
X021631Y010324D01*
X021680Y010373D02*
X021387Y010080D01*
X020973Y010080D01*
X020680Y009787D01*
X020680Y009373D01*
X020680Y009787D01*
X020387Y010080D01*
X019973Y010080D01*
X019680Y009787D01*
X019680Y009373D01*
X010794Y009373D01*
X010846Y009215D02*
X019838Y009215D01*
X019973Y009080D02*
X020387Y009080D01*
X020522Y009215D02*
X020838Y009215D01*
X020680Y009532D02*
X020680Y009532D01*
X020680Y009690D02*
X020680Y009690D01*
X020619Y009849D02*
X020741Y009849D01*
X020900Y010007D02*
X020460Y010007D01*
X020463Y010156D02*
X020279Y010080D01*
X020081Y010080D01*
X019897Y010156D01*
X019756Y010297D01*
X019680Y010481D01*
X019680Y010679D01*
X019756Y010863D01*
X019897Y011004D01*
X020081Y011080D01*
X020279Y011080D01*
X020463Y011004D01*
X020604Y010863D01*
X020680Y010679D01*
X020680Y010481D01*
X020604Y010297D01*
X020463Y010156D01*
X020473Y010166D02*
X020887Y010166D01*
X020973Y010080D02*
X021387Y010080D01*
X021680Y009787D01*
X021680Y009373D01*
X021680Y009532D02*
X022041Y009532D01*
X022319Y009532D02*
X023339Y009532D01*
X023502Y009373D02*
X022509Y009373D01*
X022558Y009215D02*
X023561Y009215D01*
X023880Y009430D02*
X021880Y011180D01*
X020480Y012580D01*
X020480Y014180D01*
X020480Y017480D01*
X020480Y020980D01*
X020480Y024480D01*
X020580Y024480D02*
X032580Y036480D01*
X032958Y036477D02*
X045649Y036477D01*
X045649Y036635D02*
X032925Y036635D01*
X032801Y036794D02*
X045649Y036794D01*
X045649Y036952D02*
X000380Y036952D01*
X000380Y036794D02*
X032359Y036794D01*
X032235Y036635D02*
X000380Y036635D01*
X000380Y036477D02*
X032181Y036477D01*
X032022Y036318D02*
X000380Y036318D01*
X000380Y036160D02*
X031864Y036160D01*
X031705Y036001D02*
X000380Y036001D01*
X000380Y035843D02*
X031547Y035843D01*
X031388Y035684D02*
X000380Y035684D01*
X000380Y035526D02*
X031230Y035526D01*
X031071Y035367D02*
X000380Y035367D01*
X000380Y035209D02*
X030913Y035209D01*
X030754Y035050D02*
X000380Y035050D01*
X000380Y034892D02*
X014757Y034892D01*
X014634Y034733D02*
X000380Y034733D01*
X000380Y034575D02*
X014602Y034575D01*
X014639Y034416D02*
X000380Y034416D01*
X000380Y034258D02*
X001520Y034258D01*
X001376Y034219D02*
X001678Y034300D01*
X001989Y034300D01*
X002291Y034219D01*
X002561Y034063D01*
X002781Y033843D01*
X002937Y033573D01*
X003018Y033271D01*
X003018Y032960D01*
X002969Y032776D01*
X003075Y032882D01*
X003345Y033038D01*
X003646Y033119D01*
X003958Y033119D01*
X004259Y033038D01*
X004529Y032882D01*
X004636Y032776D01*
X004586Y032960D01*
X004586Y033271D01*
X004667Y033573D01*
X004823Y033843D01*
X005043Y034063D01*
X005313Y034219D01*
X005615Y034300D01*
X005926Y034300D01*
X006228Y034219D01*
X006498Y034063D01*
X006718Y033843D01*
X006874Y033573D01*
X006955Y033271D01*
X006955Y032960D01*
X006874Y032658D01*
X006718Y032388D01*
X006498Y032168D01*
X006228Y032012D01*
X005926Y031931D01*
X005615Y031931D01*
X005313Y032012D01*
X005043Y032168D01*
X004937Y032274D01*
X004986Y032090D01*
X004986Y031778D01*
X004906Y031477D01*
X004750Y031207D01*
X004529Y030987D01*
X004259Y030831D01*
X003958Y030750D01*
X003646Y030750D01*
X003345Y030831D01*
X003075Y030987D01*
X002854Y031207D01*
X002699Y031477D01*
X002618Y031778D01*
X002618Y032090D01*
X002667Y032274D01*
X002561Y032168D01*
X002291Y032012D01*
X001989Y031931D01*
X001678Y031931D01*
X001376Y032012D01*
X001106Y032168D01*
X000886Y032388D01*
X000730Y032658D01*
X000649Y032960D01*
X000649Y033271D01*
X000730Y033573D01*
X000886Y033843D01*
X001106Y034063D01*
X001376Y034219D01*
X001169Y034099D02*
X000380Y034099D01*
X000380Y033941D02*
X000984Y033941D01*
X000851Y033782D02*
X000380Y033782D01*
X000380Y033624D02*
X000759Y033624D01*
X000701Y033465D02*
X000380Y033465D01*
X000380Y033307D02*
X000659Y033307D01*
X000649Y033148D02*
X000380Y033148D01*
X000380Y032990D02*
X000649Y032990D01*
X000684Y032831D02*
X000380Y032831D01*
X000380Y032673D02*
X000726Y032673D01*
X000813Y032514D02*
X000380Y032514D01*
X000380Y032356D02*
X000919Y032356D01*
X001077Y032197D02*
X000380Y032197D01*
X000380Y032039D02*
X001330Y032039D01*
X000380Y031880D02*
X002618Y031880D01*
X002618Y032039D02*
X002337Y032039D01*
X002590Y032197D02*
X002646Y032197D01*
X002633Y031722D02*
X000380Y031722D01*
X000380Y031563D02*
X002676Y031563D01*
X002740Y031405D02*
X000380Y031405D01*
X000380Y031246D02*
X002832Y031246D01*
X002974Y031088D02*
X000380Y031088D01*
X000380Y030929D02*
X003175Y030929D01*
X003570Y030771D02*
X000380Y030771D01*
X000380Y030612D02*
X014700Y030612D01*
X014700Y030454D02*
X000380Y030454D01*
X000380Y030295D02*
X014712Y030295D01*
X014827Y030137D02*
X000380Y030137D01*
X000380Y029978D02*
X014986Y029978D01*
X015144Y029820D02*
X000380Y029820D01*
X000380Y029661D02*
X015303Y029661D01*
X015461Y029503D02*
X000380Y029503D01*
X000380Y029344D02*
X015620Y029344D01*
X015778Y029186D02*
X000380Y029186D01*
X000380Y029027D02*
X015937Y029027D01*
X016095Y028869D02*
X000380Y028869D01*
X000380Y028710D02*
X016254Y028710D01*
X016412Y028552D02*
X000380Y028552D01*
X000380Y028393D02*
X016571Y028393D01*
X016729Y028235D02*
X000380Y028235D01*
X000380Y028076D02*
X016888Y028076D01*
X017046Y027918D02*
X000380Y027918D01*
X000380Y027759D02*
X017205Y027759D01*
X017363Y027601D02*
X000380Y027601D01*
X000380Y027442D02*
X017522Y027442D01*
X017680Y027284D02*
X000380Y027284D01*
X000380Y027125D02*
X017839Y027125D01*
X017997Y026967D02*
X000380Y026967D01*
X000380Y026808D02*
X018156Y026808D01*
X018314Y026650D02*
X000380Y026650D01*
X000380Y026491D02*
X018473Y026491D01*
X018631Y026333D02*
X000380Y026333D01*
X000380Y026174D02*
X018790Y026174D01*
X018948Y026016D02*
X000380Y026016D01*
X000380Y025857D02*
X019050Y025857D01*
X019050Y025699D02*
X000380Y025699D01*
X000380Y025540D02*
X019050Y025540D01*
X019050Y025382D02*
X000380Y025382D01*
X000380Y025223D02*
X019050Y025223D01*
X019050Y025065D02*
X000380Y025065D01*
X000380Y024906D02*
X019050Y024906D01*
X019050Y024748D02*
X013681Y024748D01*
X013655Y024758D02*
X013505Y024758D01*
X013366Y024701D01*
X013259Y024594D01*
X013202Y024455D01*
X013202Y024305D01*
X013259Y024166D01*
X013366Y024059D01*
X013505Y024002D01*
X013655Y024002D01*
X013794Y024059D01*
X013835Y024100D01*
X017525Y024100D01*
X017616Y024009D01*
X017755Y023952D01*
X017905Y023952D01*
X018044Y024009D01*
X018151Y024116D01*
X018208Y024255D01*
X018208Y024405D01*
X018151Y024544D01*
X018044Y024651D01*
X017905Y024708D01*
X017755Y024708D01*
X017639Y024660D01*
X013835Y024660D01*
X013794Y024701D01*
X013655Y024758D01*
X013479Y024748D02*
X000380Y024748D01*
X000380Y024589D02*
X013257Y024589D01*
X013202Y024431D02*
X000380Y024431D01*
X000380Y024272D02*
X013215Y024272D01*
X013312Y024114D02*
X000380Y024114D01*
X000380Y023955D02*
X017747Y023955D01*
X017913Y023955D02*
X019050Y023955D01*
X019050Y023797D02*
X000380Y023797D01*
X000380Y023638D02*
X019050Y023638D01*
X019050Y023480D02*
X000380Y023480D01*
X000380Y023321D02*
X019050Y023321D01*
X019050Y023163D02*
X000380Y023163D01*
X000380Y023004D02*
X019050Y023004D01*
X019050Y022846D02*
X000380Y022846D01*
X000380Y022687D02*
X019050Y022687D01*
X019050Y022529D02*
X017127Y022529D01*
X017194Y022501D02*
X017055Y022558D01*
X016905Y022558D01*
X016766Y022501D01*
X016725Y022460D01*
X013835Y022460D01*
X013794Y022501D01*
X013655Y022558D01*
X013505Y022558D01*
X013366Y022501D01*
X013259Y022394D01*
X013202Y022255D01*
X013202Y022105D01*
X013259Y021966D01*
X013366Y021859D01*
X013505Y021802D01*
X013655Y021802D01*
X013794Y021859D01*
X013835Y021900D01*
X016725Y021900D01*
X016766Y021859D01*
X016905Y021802D01*
X017055Y021802D01*
X017194Y021859D01*
X017301Y021966D01*
X017358Y022105D01*
X017358Y022255D01*
X017301Y022394D01*
X017194Y022501D01*
X017311Y022370D02*
X019050Y022370D01*
X019050Y022212D02*
X017358Y022212D01*
X017337Y022053D02*
X019050Y022053D01*
X019050Y021895D02*
X017229Y021895D01*
X016980Y022180D02*
X013580Y022180D01*
X013727Y022529D02*
X016833Y022529D01*
X016731Y021895D02*
X013829Y021895D01*
X013433Y022529D02*
X000380Y022529D01*
X000380Y022370D02*
X013249Y022370D01*
X013202Y022212D02*
X000380Y022212D01*
X000380Y022053D02*
X013223Y022053D01*
X013331Y021895D02*
X000380Y021895D01*
X000380Y021736D02*
X019050Y021736D01*
X019050Y021578D02*
X000380Y021578D01*
X000380Y021419D02*
X019050Y021419D01*
X019050Y021261D02*
X000380Y021261D01*
X000380Y021102D02*
X019050Y021102D01*
X019050Y020944D02*
X000380Y020944D01*
X000380Y020785D02*
X019050Y020785D01*
X019050Y020627D02*
X000380Y020627D01*
X000380Y020468D02*
X019050Y020468D01*
X019050Y020310D02*
X000380Y020310D01*
X000380Y020151D02*
X019050Y020151D01*
X019050Y019993D02*
X016502Y019993D01*
X016494Y020001D02*
X016355Y020058D01*
X016205Y020058D01*
X016066Y020001D01*
X016025Y019960D01*
X014435Y019960D01*
X014394Y020001D01*
X014255Y020058D01*
X014105Y020058D01*
X013966Y020001D01*
X013859Y019894D01*
X013802Y019755D01*
X013802Y019605D01*
X013859Y019466D01*
X013966Y019359D01*
X014105Y019302D01*
X014255Y019302D01*
X014394Y019359D01*
X014435Y019400D01*
X016025Y019400D01*
X016066Y019359D01*
X016205Y019302D01*
X016355Y019302D01*
X016494Y019359D01*
X016601Y019466D01*
X016658Y019605D01*
X016658Y019755D01*
X016601Y019894D01*
X016494Y020001D01*
X016625Y019834D02*
X019050Y019834D01*
X019050Y019676D02*
X016658Y019676D01*
X016622Y019517D02*
X019097Y019517D01*
X019255Y019359D02*
X016492Y019359D01*
X016280Y019680D02*
X014180Y019680D01*
X013802Y019676D02*
X000380Y019676D01*
X000380Y019834D02*
X013835Y019834D01*
X013958Y019993D02*
X000380Y019993D01*
X000380Y019517D02*
X013838Y019517D01*
X013968Y019359D02*
X000380Y019359D01*
X000380Y019200D02*
X019402Y019200D01*
X019449Y019042D02*
X000380Y019042D01*
X008292Y011117D02*
X021502Y011117D01*
X021387Y011080D02*
X020973Y011080D01*
X020680Y010787D01*
X020680Y010373D01*
X020973Y010080D01*
X020729Y010324D02*
X020615Y010324D01*
X020680Y010483D02*
X020680Y010483D01*
X020680Y010641D02*
X020680Y010641D01*
X020692Y010800D02*
X020630Y010800D01*
X020509Y010958D02*
X020851Y010958D01*
X021387Y011080D02*
X021680Y010787D01*
X021680Y010373D01*
X021680Y010483D02*
X022252Y010483D01*
X022071Y010641D02*
X021680Y010641D01*
X021668Y010800D02*
X021890Y010800D01*
X021980Y011080D02*
X024380Y011080D01*
X024980Y011680D01*
X024980Y013280D01*
X025347Y013177D02*
X029200Y013177D01*
X029200Y013019D02*
X025260Y013019D01*
X025260Y012860D02*
X029200Y012860D01*
X029200Y012702D02*
X025260Y012702D01*
X025260Y012543D02*
X029200Y012543D01*
X029200Y012385D02*
X025260Y012385D01*
X025260Y012226D02*
X029200Y012226D01*
X029200Y012068D02*
X025260Y012068D01*
X025260Y011909D02*
X029200Y011909D01*
X029200Y011751D02*
X025260Y011751D01*
X025247Y011592D02*
X029200Y011592D01*
X029200Y011434D02*
X025129Y011434D01*
X024971Y011275D02*
X029200Y011275D01*
X029200Y011117D02*
X024812Y011117D01*
X024654Y010958D02*
X029200Y010958D01*
X029480Y010680D02*
X026580Y007780D01*
X023380Y007780D01*
X021980Y006180D01*
X018780Y006180D01*
X019021Y005886D02*
X031400Y005886D01*
X031400Y006045D02*
X022233Y006045D01*
X022372Y006203D02*
X031400Y006203D01*
X031400Y006362D02*
X022511Y006362D01*
X022650Y006520D02*
X031400Y006520D01*
X031400Y006679D02*
X022788Y006679D01*
X022927Y006837D02*
X031400Y006837D01*
X031400Y006996D02*
X023066Y006996D01*
X023204Y007154D02*
X031400Y007154D01*
X031400Y007313D02*
X023343Y007313D01*
X023482Y007471D02*
X031400Y007471D01*
X031400Y007630D02*
X026825Y007630D01*
X026984Y007788D02*
X031400Y007788D01*
X031400Y007947D02*
X027142Y007947D01*
X027301Y008105D02*
X031400Y008105D01*
X031400Y008264D02*
X027459Y008264D01*
X027618Y008422D02*
X031400Y008422D01*
X031400Y008581D02*
X027776Y008581D01*
X027935Y008739D02*
X031400Y008739D01*
X031400Y008898D02*
X028093Y008898D01*
X028252Y009056D02*
X031400Y009056D01*
X031400Y009215D02*
X028410Y009215D01*
X028569Y009373D02*
X031400Y009373D01*
X031400Y009532D02*
X028727Y009532D01*
X028886Y009690D02*
X031400Y009690D01*
X031400Y009849D02*
X029044Y009849D01*
X029203Y010007D02*
X031400Y010007D01*
X031400Y010166D02*
X029361Y010166D01*
X029520Y010324D02*
X031400Y010324D01*
X031400Y010483D02*
X029678Y010483D01*
X029760Y010641D02*
X029934Y010641D01*
X029854Y010800D02*
X029760Y010800D01*
X029760Y010958D02*
X029773Y010958D01*
X029480Y010680D02*
X029480Y011680D01*
X029480Y013380D01*
X028380Y014380D01*
X028097Y014128D02*
X024260Y014128D01*
X024260Y013970D02*
X028415Y013970D01*
X028590Y013811D02*
X024260Y013811D01*
X024260Y013653D02*
X024891Y013653D01*
X025055Y013658D02*
X025194Y013601D01*
X025301Y013494D01*
X025358Y013336D02*
X029113Y013336D01*
X029422Y013811D02*
X031400Y013811D01*
X031400Y013653D02*
X029596Y013653D01*
X029736Y013494D02*
X031400Y013494D01*
X031400Y013336D02*
X029762Y013336D01*
X029760Y013177D02*
X031400Y013177D01*
X031400Y013019D02*
X029760Y013019D01*
X029760Y012860D02*
X031400Y012860D01*
X031400Y012702D02*
X029760Y012702D01*
X029760Y012543D02*
X031400Y012543D01*
X031400Y012385D02*
X029760Y012385D01*
X029760Y012226D02*
X031400Y012226D01*
X031400Y012068D02*
X029760Y012068D01*
X029760Y011909D02*
X031400Y011909D01*
X031400Y011751D02*
X029798Y011751D01*
X029946Y011592D02*
X031400Y011592D01*
X031400Y011434D02*
X030095Y011434D01*
X030243Y011275D02*
X031400Y011275D01*
X031400Y011117D02*
X030528Y011117D01*
X030607Y010958D02*
X031400Y010958D01*
X031400Y010800D02*
X030606Y010800D01*
X030526Y010641D02*
X031400Y010641D01*
X031960Y010324D02*
X032029Y010324D01*
X031960Y010166D02*
X032127Y010166D01*
X032610Y010166D02*
X032650Y010166D01*
X032650Y010210D02*
X032650Y009750D01*
X033410Y009750D01*
X033410Y009768D01*
X033398Y009842D01*
X033375Y009914D01*
X033341Y009982D01*
X033296Y010043D01*
X033243Y010096D01*
X033182Y010141D01*
X033114Y010175D01*
X033042Y010198D01*
X032968Y010210D01*
X032650Y010210D01*
X032650Y010007D02*
X032610Y010007D01*
X032610Y009849D02*
X032650Y009849D01*
X032650Y009710D02*
X033410Y009710D01*
X033410Y009692D01*
X033398Y009618D01*
X033375Y009546D01*
X033341Y009478D01*
X033296Y009417D01*
X033243Y009364D01*
X033182Y009319D01*
X033114Y009285D01*
X033042Y009262D01*
X032968Y009250D01*
X032650Y009250D01*
X032650Y009710D01*
X032650Y009690D02*
X032610Y009690D01*
X032610Y009532D02*
X032650Y009532D01*
X032650Y009373D02*
X032610Y009373D01*
X032008Y009373D02*
X031960Y009373D01*
X031960Y009215D02*
X045649Y009215D01*
X045649Y009373D02*
X033252Y009373D01*
X033368Y009532D02*
X045649Y009532D01*
X045649Y009690D02*
X033410Y009690D01*
X033396Y009849D02*
X045649Y009849D01*
X045649Y010007D02*
X033322Y010007D01*
X033133Y010166D02*
X045649Y010166D01*
X045649Y010324D02*
X033231Y010324D01*
X033369Y010483D02*
X045649Y010483D01*
X045649Y010641D02*
X033430Y010641D01*
X033430Y010800D02*
X045649Y010800D01*
X045649Y010958D02*
X033377Y010958D01*
X033251Y011117D02*
X045649Y011117D01*
X045649Y011275D02*
X033138Y011275D01*
X033029Y011230D02*
X032231Y011230D01*
X032047Y011306D01*
X031960Y011393D01*
X031960Y011067D01*
X032047Y011154D01*
X032231Y011230D01*
X033029Y011230D01*
X033341Y011434D02*
X045649Y011434D01*
X045649Y011592D02*
X033414Y011592D01*
X033430Y011751D02*
X045649Y011751D01*
X045649Y011909D02*
X033397Y011909D01*
X033300Y012068D02*
X045649Y012068D01*
X045649Y012226D02*
X033039Y012226D01*
X033029Y012230D02*
X032231Y012230D01*
X032047Y012306D01*
X031960Y012393D01*
X031960Y012067D01*
X032047Y012154D01*
X032231Y012230D01*
X033029Y012230D01*
X033292Y012385D02*
X045649Y012385D01*
X045649Y012543D02*
X033394Y012543D01*
X033430Y012702D02*
X045649Y012702D01*
X045649Y012860D02*
X033417Y012860D01*
X033349Y013019D02*
X045649Y013019D01*
X045649Y013177D02*
X033157Y013177D01*
X033029Y013230D02*
X032231Y013230D01*
X033029Y013230D01*
X033243Y013336D02*
X045649Y013336D01*
X045649Y013494D02*
X033373Y013494D01*
X033430Y013653D02*
X045649Y013653D01*
X045649Y013811D02*
X033430Y013811D01*
X033372Y013970D02*
X045649Y013970D01*
X045649Y014128D02*
X033239Y014128D01*
X033166Y014287D02*
X045649Y014287D01*
X045649Y014445D02*
X033352Y014445D01*
X033419Y014604D02*
X045649Y014604D01*
X045649Y014762D02*
X033430Y014762D01*
X033392Y014921D02*
X045649Y014921D01*
X045649Y015079D02*
X033288Y015079D01*
X032684Y015396D02*
X045649Y015396D01*
X045649Y015238D02*
X032572Y015238D01*
X032708Y015555D02*
X045649Y015555D01*
X045649Y015713D02*
X032663Y015713D01*
X032494Y015872D02*
X045649Y015872D01*
X045649Y016030D02*
X032226Y016030D01*
X032067Y016189D02*
X045649Y016189D01*
X045649Y016347D02*
X031648Y016347D01*
X031335Y016400D02*
X031216Y016351D01*
X031109Y016244D01*
X031052Y016105D01*
X031052Y015955D01*
X031109Y015816D01*
X031216Y015709D01*
X031355Y015652D01*
X031505Y015652D01*
X031644Y015709D01*
X031685Y015750D01*
X031714Y015750D01*
X031952Y015512D01*
X031952Y015455D01*
X032009Y015316D01*
X032116Y015209D01*
X032148Y015196D01*
X032047Y015154D01*
X031906Y015013D01*
X031830Y014829D01*
X031830Y014631D01*
X031906Y014447D01*
X032047Y014306D01*
X032231Y014230D01*
X033029Y014230D01*
X032231Y014230D01*
X032047Y014154D01*
X031960Y014067D01*
X031960Y014236D01*
X031917Y014339D01*
X030158Y016098D01*
X030158Y016155D01*
X030101Y016294D01*
X029995Y016400D01*
X031335Y016400D01*
X031212Y016347D02*
X030048Y016347D01*
X030144Y016189D02*
X031086Y016189D01*
X031052Y016030D02*
X030226Y016030D01*
X030384Y015872D02*
X031086Y015872D01*
X031212Y015713D02*
X030543Y015713D01*
X030701Y015555D02*
X031909Y015555D01*
X031976Y015396D02*
X030860Y015396D01*
X031018Y015238D02*
X032088Y015238D01*
X031972Y015079D02*
X031177Y015079D01*
X031335Y014921D02*
X031868Y014921D01*
X031830Y014762D02*
X031494Y014762D01*
X031652Y014604D02*
X031841Y014604D01*
X031811Y014445D02*
X031908Y014445D01*
X031939Y014287D02*
X032094Y014287D01*
X032021Y014128D02*
X031960Y014128D01*
X031680Y014180D02*
X029780Y016080D01*
X029512Y016347D02*
X022064Y016347D01*
X021696Y016347D02*
X020760Y016347D01*
X020760Y016189D02*
X023754Y016189D01*
X023633Y016030D02*
X020760Y016030D01*
X020760Y015872D02*
X023602Y015872D01*
X023640Y015713D02*
X020760Y015713D01*
X020760Y015555D02*
X023700Y015555D01*
X023700Y015396D02*
X020760Y015396D01*
X020760Y015238D02*
X023700Y015238D01*
X023700Y015079D02*
X020760Y015079D01*
X020760Y014921D02*
X023700Y014921D01*
X023700Y014762D02*
X020760Y014762D01*
X020760Y014604D02*
X023700Y014604D01*
X023700Y014445D02*
X020760Y014445D01*
X020845Y014287D02*
X023700Y014287D01*
X023700Y014128D02*
X020858Y014128D01*
X020802Y013970D02*
X023700Y013970D01*
X023700Y013811D02*
X020760Y013811D01*
X020760Y013653D02*
X023700Y013653D01*
X023700Y013494D02*
X020760Y013494D01*
X020760Y013336D02*
X023700Y013336D01*
X023700Y013177D02*
X020760Y013177D01*
X020760Y013019D02*
X023700Y013019D01*
X023700Y012860D02*
X020760Y012860D01*
X020760Y012702D02*
X023700Y012702D01*
X023700Y012543D02*
X020913Y012543D01*
X021071Y012385D02*
X023700Y012385D01*
X023700Y012226D02*
X021230Y012226D01*
X021388Y012068D02*
X023700Y012068D01*
X023674Y011909D02*
X021547Y011909D01*
X021705Y011751D02*
X023602Y011751D01*
X023607Y011592D02*
X021864Y011592D01*
X022161Y011434D02*
X023692Y011434D01*
X023980Y011680D02*
X023980Y015880D01*
X024327Y016030D02*
X029402Y016030D01*
X029416Y016189D02*
X024206Y016189D01*
X024358Y015872D02*
X029457Y015872D01*
X029678Y015713D02*
X024320Y015713D01*
X024260Y015555D02*
X024511Y015555D01*
X024580Y015280D02*
X024380Y015080D01*
X024580Y015280D02*
X029180Y015280D01*
X029440Y015555D02*
X029909Y015555D01*
X030068Y015396D02*
X029541Y015396D01*
X029558Y015238D02*
X030226Y015238D01*
X030385Y015079D02*
X029506Y015079D01*
X029300Y014921D02*
X030543Y014921D01*
X030702Y014762D02*
X024597Y014762D01*
X024723Y014921D02*
X029060Y014921D01*
X028691Y014604D02*
X030860Y014604D01*
X031019Y014445D02*
X028758Y014445D01*
X028899Y014287D02*
X031177Y014287D01*
X031336Y014128D02*
X029073Y014128D01*
X029248Y013970D02*
X031400Y013970D01*
X031680Y014180D02*
X031680Y005680D01*
X030180Y003780D01*
X017080Y003780D01*
X016817Y003509D02*
X000380Y003509D01*
X000380Y003667D02*
X016718Y003667D01*
X016702Y003826D02*
X000380Y003826D01*
X000380Y003984D02*
X016755Y003984D01*
X016967Y004143D02*
X000380Y004143D01*
X000380Y004301D02*
X030235Y004301D01*
X030360Y004460D02*
X000380Y004460D01*
X000380Y004618D02*
X030485Y004618D01*
X030610Y004777D02*
X000380Y004777D01*
X000380Y004935D02*
X030735Y004935D01*
X030860Y005094D02*
X000380Y005094D01*
X000380Y005252D02*
X030985Y005252D01*
X031111Y005411D02*
X000380Y005411D01*
X000380Y005569D02*
X015356Y005569D01*
X015263Y005728D02*
X000380Y005728D01*
X000380Y005886D02*
X015252Y005886D01*
X015310Y006045D02*
X000380Y006045D01*
X000380Y006203D02*
X015542Y006203D01*
X015766Y006362D02*
X000380Y006362D01*
X000380Y006520D02*
X015924Y006520D01*
X016083Y006679D02*
X000380Y006679D01*
X000380Y006837D02*
X016241Y006837D01*
X016400Y006996D02*
X000380Y006996D01*
X000380Y007154D02*
X016558Y007154D01*
X016717Y007313D02*
X000380Y007313D01*
X000380Y007471D02*
X016875Y007471D01*
X019680Y008422D02*
X010807Y008422D01*
X010851Y008581D02*
X019680Y008581D01*
X019680Y008739D02*
X010892Y008739D01*
X010892Y008898D02*
X019790Y008898D01*
X019949Y009056D02*
X010888Y009056D01*
X010703Y009532D02*
X019680Y009532D01*
X019680Y009690D02*
X010579Y009690D01*
X010411Y009849D02*
X019741Y009849D01*
X019900Y010007D02*
X010104Y010007D01*
X009312Y010007D02*
X008923Y010007D01*
X008923Y010166D02*
X019887Y010166D01*
X019745Y010324D02*
X008897Y010324D01*
X008854Y010483D02*
X019680Y010483D01*
X019680Y010641D02*
X008776Y010641D01*
X008683Y010800D02*
X019730Y010800D01*
X019851Y010958D02*
X008524Y010958D01*
X008906Y009849D02*
X009004Y009849D01*
X010715Y008264D02*
X019789Y008264D01*
X019948Y008105D02*
X010600Y008105D01*
X009940Y003136D02*
X009823Y003019D01*
X009823Y002349D01*
X005892Y002349D01*
X005892Y003019D01*
X005775Y003136D01*
X000380Y003136D01*
X000380Y038956D01*
X005775Y038956D01*
X005892Y039074D01*
X005892Y039744D01*
X009823Y039744D01*
X009823Y039074D01*
X009940Y038956D01*
X019948Y038956D01*
X020065Y039074D01*
X020065Y040027D01*
X019948Y040144D01*
X010616Y040144D01*
X010616Y040657D01*
X010499Y040774D01*
X000380Y040774D01*
X000380Y041712D01*
X045649Y041712D01*
X045649Y000380D01*
X000380Y000380D01*
X000380Y001319D01*
X010499Y001319D01*
X010616Y001436D01*
X010616Y001949D01*
X019948Y001949D01*
X020065Y002066D01*
X020065Y003019D01*
X019948Y003136D01*
X009940Y003136D01*
X009837Y003033D02*
X005878Y003033D01*
X005892Y002875D02*
X009823Y002875D01*
X009823Y002716D02*
X005892Y002716D01*
X005892Y002558D02*
X009823Y002558D01*
X009823Y002399D02*
X005892Y002399D01*
X010616Y001924D02*
X045649Y001924D01*
X045649Y002082D02*
X020065Y002082D01*
X020065Y002241D02*
X045649Y002241D01*
X045649Y002399D02*
X020065Y002399D01*
X020065Y002558D02*
X045649Y002558D01*
X045649Y002716D02*
X020065Y002716D01*
X020065Y002875D02*
X045649Y002875D01*
X045649Y003033D02*
X020051Y003033D01*
X017193Y004143D02*
X030109Y004143D01*
X030573Y003826D02*
X045649Y003826D01*
X045649Y003984D02*
X030698Y003984D01*
X030823Y004143D02*
X045649Y004143D01*
X045649Y004301D02*
X030948Y004301D01*
X031073Y004460D02*
X045649Y004460D01*
X045649Y004618D02*
X031198Y004618D01*
X031323Y004777D02*
X045649Y004777D01*
X045649Y004935D02*
X031449Y004935D01*
X031574Y005094D02*
X045649Y005094D01*
X045649Y005252D02*
X031699Y005252D01*
X031824Y005411D02*
X045649Y005411D01*
X045649Y005569D02*
X031940Y005569D01*
X031960Y005728D02*
X045649Y005728D01*
X045649Y005886D02*
X031960Y005886D01*
X031960Y006045D02*
X045649Y006045D01*
X045649Y006203D02*
X031960Y006203D01*
X031960Y006362D02*
X045649Y006362D01*
X045649Y006520D02*
X031960Y006520D01*
X031960Y006679D02*
X045649Y006679D01*
X045649Y006837D02*
X031960Y006837D01*
X031960Y006996D02*
X045649Y006996D01*
X045649Y007154D02*
X031960Y007154D01*
X031960Y007313D02*
X045649Y007313D01*
X045649Y007471D02*
X031960Y007471D01*
X031960Y007630D02*
X045649Y007630D01*
X045649Y007788D02*
X031960Y007788D01*
X031960Y007947D02*
X045649Y007947D01*
X045649Y008105D02*
X031960Y008105D01*
X031960Y008264D02*
X045649Y008264D01*
X045649Y008422D02*
X031960Y008422D01*
X031960Y008581D02*
X045649Y008581D01*
X045649Y008739D02*
X031960Y008739D01*
X031960Y008898D02*
X045649Y008898D01*
X045649Y009056D02*
X031960Y009056D01*
X030230Y010880D02*
X029480Y011680D01*
X031960Y012068D02*
X031960Y012068D01*
X031960Y012226D02*
X032221Y012226D01*
X031968Y012385D02*
X031960Y012385D01*
X031960Y013067D02*
X031960Y013393D01*
X032047Y013306D01*
X032231Y013230D01*
X032047Y013154D01*
X031960Y013067D01*
X031960Y013177D02*
X032103Y013177D01*
X032017Y013336D02*
X031960Y013336D01*
X031960Y011275D02*
X032122Y011275D01*
X032009Y011117D02*
X031960Y011117D01*
X028009Y014287D02*
X024260Y014287D01*
X024260Y014445D02*
X028002Y014445D01*
X028069Y014604D02*
X024260Y014604D01*
X024659Y013494D02*
X024602Y013355D01*
X024613Y013177D02*
X024260Y013177D01*
X024260Y013019D02*
X024700Y013019D01*
X024700Y012860D02*
X024260Y012860D01*
X024260Y012702D02*
X024700Y012702D01*
X024700Y012543D02*
X024260Y012543D01*
X024260Y012385D02*
X024700Y012385D01*
X024700Y012226D02*
X024260Y012226D01*
X024260Y012068D02*
X024700Y012068D01*
X024700Y011909D02*
X024286Y011909D01*
X024358Y011751D02*
X024655Y011751D01*
X024496Y011592D02*
X024353Y011592D01*
X024338Y011434D02*
X024268Y011434D01*
X022614Y010166D02*
X021473Y010166D01*
X021460Y010007D02*
X022795Y010007D01*
X022976Y009849D02*
X021619Y009849D01*
X021680Y009690D02*
X023158Y009690D01*
X022180Y009180D02*
X022180Y008330D01*
X021200Y008264D02*
X021160Y008264D01*
X021160Y008422D02*
X021200Y008422D01*
X021200Y008105D02*
X021160Y008105D01*
X020976Y008105D02*
X020412Y008105D01*
X020571Y008264D02*
X020818Y008264D01*
X020700Y008422D02*
X020680Y008422D01*
X021160Y008739D02*
X021200Y008739D01*
X021200Y008898D02*
X021160Y008898D01*
X021160Y009056D02*
X021200Y009056D01*
X019973Y009080D02*
X019680Y009373D01*
X021509Y010958D02*
X021567Y010958D01*
X021543Y016506D02*
X020760Y016506D01*
X020760Y016664D02*
X021502Y016664D01*
X021530Y016823D02*
X020760Y016823D01*
X020760Y016981D02*
X021646Y016981D01*
X024230Y017080D02*
X025030Y017880D01*
X027080Y017880D01*
X027350Y017615D02*
X028219Y017615D01*
X028061Y017457D02*
X026459Y017457D01*
X026301Y017457D02*
X025003Y017457D01*
X024844Y017298D02*
X026063Y017298D01*
X026002Y017140D02*
X024686Y017140D01*
X024527Y016981D02*
X026012Y016981D01*
X026380Y017080D02*
X028080Y017080D01*
X028378Y017774D02*
X027445Y017774D01*
X027458Y017932D02*
X028536Y017932D01*
X028695Y018091D02*
X027402Y018091D01*
X030438Y019042D02*
X038822Y019042D01*
X038664Y019200D02*
X030735Y019200D01*
X030839Y019359D02*
X038505Y019359D01*
X038347Y019517D02*
X030858Y019517D01*
X030808Y019676D02*
X038188Y019676D01*
X037891Y019834D02*
X030613Y019834D01*
X031430Y016030D02*
X031830Y016030D01*
X032330Y015530D01*
X031751Y015713D02*
X031648Y015713D01*
X035966Y021759D02*
X036105Y021702D01*
X036255Y021702D01*
X036394Y021759D01*
X036501Y021866D01*
X036558Y022005D01*
X036558Y022155D01*
X036501Y022294D01*
X036394Y022401D01*
X036255Y022458D01*
X036105Y022458D01*
X035966Y022401D01*
X035925Y022360D01*
X023435Y022360D01*
X023394Y022401D01*
X023255Y022458D01*
X023105Y022458D01*
X022966Y022401D01*
X022859Y022294D01*
X022802Y022155D01*
X022802Y022005D01*
X022859Y021866D01*
X022966Y021759D01*
X023105Y021702D01*
X023255Y021702D01*
X023394Y021759D01*
X023435Y021800D01*
X035925Y021800D01*
X035966Y021759D01*
X036022Y021736D02*
X023338Y021736D01*
X023022Y021736D02*
X020760Y021736D01*
X020760Y021578D02*
X039409Y021578D01*
X039504Y022687D02*
X020760Y022687D01*
X020760Y022529D02*
X042809Y022529D01*
X042965Y022370D02*
X036425Y022370D01*
X036535Y022212D02*
X042957Y022212D01*
X042993Y022053D02*
X036558Y022053D01*
X036512Y021895D02*
X043089Y021895D01*
X043487Y022246D02*
X042553Y023180D01*
X040515Y023180D01*
X040971Y023480D02*
X043434Y023480D01*
X043276Y023638D02*
X040891Y023638D01*
X040971Y022846D02*
X042492Y022846D01*
X042650Y022687D02*
X040856Y022687D01*
X040951Y021578D02*
X042082Y021578D01*
X042266Y021736D02*
X036338Y021736D01*
X036180Y022080D02*
X023180Y022080D01*
X022825Y022212D02*
X020760Y022212D01*
X020760Y022370D02*
X022935Y022370D01*
X022802Y022053D02*
X020760Y022053D01*
X020760Y021895D02*
X022848Y021895D01*
X023425Y022370D02*
X035935Y022370D01*
X037875Y020310D02*
X022806Y020310D01*
X022736Y020151D02*
X037802Y020151D01*
X037807Y019993D02*
X022627Y019993D01*
X022964Y020468D02*
X042977Y020468D01*
X043063Y020944D02*
X042240Y020944D01*
X042398Y021102D02*
X043082Y021102D01*
X043453Y021480D02*
X042380Y021480D01*
X042080Y021180D01*
X040515Y021180D01*
X039389Y022846D02*
X020760Y022846D01*
X020760Y023004D02*
X039389Y023004D01*
X036864Y025223D02*
X036960Y025455D01*
X036960Y025705D01*
X036864Y025937D01*
X036687Y026114D01*
X036455Y026210D01*
X036205Y026210D01*
X035973Y026114D01*
X035796Y025937D01*
X035700Y025705D01*
X035700Y025455D01*
X035796Y025223D01*
X034825Y025223D01*
X034852Y025260D02*
X034795Y025183D01*
X034727Y025115D01*
X034650Y025058D01*
X034564Y025015D01*
X034473Y024985D01*
X034378Y024970D01*
X034338Y024970D01*
X034338Y025572D01*
X034338Y025588D01*
X034940Y025588D01*
X034940Y025628D01*
X034925Y025723D01*
X034895Y025814D01*
X034852Y025900D01*
X034795Y025977D01*
X034727Y026045D01*
X034704Y026063D01*
X034864Y026223D01*
X034960Y026455D01*
X034960Y026705D01*
X034864Y026937D01*
X034721Y027080D01*
X034864Y027223D01*
X034960Y027455D01*
X034960Y027705D01*
X034864Y027937D01*
X034687Y028114D01*
X034455Y028210D01*
X034205Y028210D01*
X033973Y028114D01*
X033796Y027937D01*
X033700Y027705D01*
X033700Y027455D01*
X033796Y027223D01*
X033939Y027080D01*
X033796Y026937D01*
X033700Y026705D01*
X033700Y026455D01*
X033796Y026223D01*
X033956Y026063D01*
X033933Y026045D01*
X033865Y025977D01*
X033808Y025900D01*
X033765Y025814D01*
X033735Y025723D01*
X033720Y025628D01*
X033720Y025588D01*
X034322Y025588D01*
X034322Y025572D01*
X033720Y025572D01*
X033720Y025532D01*
X033735Y025437D01*
X033765Y025346D01*
X033808Y025260D01*
X033865Y025183D01*
X033933Y025115D01*
X034010Y025058D01*
X034096Y025015D01*
X034187Y024985D01*
X034282Y024970D01*
X034322Y024970D01*
X034322Y025572D01*
X034338Y025572D01*
X034940Y025572D01*
X034940Y025532D01*
X034925Y025437D01*
X034895Y025346D01*
X034852Y025260D01*
X034907Y025382D02*
X035730Y025382D01*
X035700Y025540D02*
X034940Y025540D01*
X034929Y025699D02*
X035700Y025699D01*
X035763Y025857D02*
X034873Y025857D01*
X034757Y026016D02*
X035875Y026016D01*
X036118Y026174D02*
X034815Y026174D01*
X034909Y026333D02*
X045649Y026333D01*
X045649Y026491D02*
X034960Y026491D01*
X034960Y026650D02*
X045649Y026650D01*
X045649Y026808D02*
X034917Y026808D01*
X034834Y026967D02*
X036165Y026967D01*
X036205Y026950D02*
X036455Y026950D01*
X036687Y027046D01*
X036864Y027223D01*
X036960Y027455D01*
X036960Y027705D01*
X036864Y027937D01*
X036687Y028114D01*
X036455Y028210D01*
X036205Y028210D01*
X035973Y028114D01*
X035796Y027937D01*
X035700Y027705D01*
X035700Y027455D01*
X035796Y027223D01*
X035973Y027046D01*
X036205Y026950D01*
X036495Y026967D02*
X045649Y026967D01*
X045649Y027125D02*
X036766Y027125D01*
X036889Y027284D02*
X045649Y027284D01*
X045649Y027442D02*
X036955Y027442D01*
X036960Y027601D02*
X045649Y027601D01*
X045649Y027759D02*
X036938Y027759D01*
X036872Y027918D02*
X045649Y027918D01*
X045649Y028076D02*
X036725Y028076D01*
X035935Y028076D02*
X034725Y028076D01*
X034872Y027918D02*
X035788Y027918D01*
X035722Y027759D02*
X034938Y027759D01*
X034960Y027601D02*
X035700Y027601D01*
X035705Y027442D02*
X034955Y027442D01*
X034889Y027284D02*
X035771Y027284D01*
X035894Y027125D02*
X034766Y027125D01*
X033894Y027125D02*
X023621Y027125D01*
X023463Y026967D02*
X033826Y026967D01*
X033743Y026808D02*
X023304Y026808D01*
X023146Y026650D02*
X033700Y026650D01*
X033700Y026491D02*
X022987Y026491D01*
X022829Y026333D02*
X023743Y026333D01*
X023805Y026358D02*
X023666Y026301D01*
X023559Y026194D01*
X023502Y026055D01*
X023502Y025905D01*
X023559Y025766D01*
X023600Y025725D01*
X023600Y025035D01*
X023559Y024994D01*
X023502Y024855D01*
X023502Y024705D01*
X023559Y024566D01*
X023666Y024459D01*
X023805Y024402D01*
X023955Y024402D01*
X024094Y024459D01*
X024201Y024566D01*
X024258Y024705D01*
X024258Y024855D01*
X024201Y024994D01*
X024160Y025035D01*
X024160Y025725D01*
X024201Y025766D01*
X024258Y025905D01*
X024258Y026055D01*
X024201Y026194D01*
X024094Y026301D01*
X023955Y026358D01*
X023805Y026358D01*
X024017Y026333D02*
X024643Y026333D01*
X024705Y026358D02*
X024566Y026301D01*
X024459Y026194D01*
X024402Y026055D01*
X024402Y025905D01*
X024459Y025766D01*
X024500Y025725D01*
X024500Y025035D01*
X024459Y024994D01*
X024402Y024855D01*
X024402Y024705D01*
X024459Y024566D01*
X024566Y024459D01*
X024705Y024402D01*
X024855Y024402D01*
X024994Y024459D01*
X025101Y024566D01*
X025158Y024705D01*
X025158Y024855D01*
X025101Y024994D01*
X025060Y025035D01*
X025060Y025725D01*
X025101Y025766D01*
X025158Y025905D01*
X025158Y026055D01*
X025101Y026194D01*
X024994Y026301D01*
X024855Y026358D01*
X024705Y026358D01*
X024917Y026333D02*
X033751Y026333D01*
X033845Y026174D02*
X025109Y026174D01*
X025158Y026016D02*
X033903Y026016D01*
X033787Y025857D02*
X025138Y025857D01*
X025060Y025699D02*
X033731Y025699D01*
X033720Y025540D02*
X025060Y025540D01*
X025060Y025382D02*
X033753Y025382D01*
X033835Y025223D02*
X025060Y025223D01*
X025060Y025065D02*
X034002Y025065D01*
X034322Y025065D02*
X034338Y025065D01*
X034322Y025223D02*
X034338Y025223D01*
X034322Y025382D02*
X034338Y025382D01*
X034322Y025540D02*
X034338Y025540D01*
X034658Y025065D02*
X035955Y025065D01*
X035973Y025046D02*
X036205Y024950D01*
X036455Y024950D01*
X036687Y025046D01*
X036864Y025223D01*
X045649Y025223D01*
X045649Y025065D02*
X036705Y025065D01*
X036930Y025382D02*
X045649Y025382D01*
X045649Y025540D02*
X036960Y025540D01*
X036960Y025699D02*
X045649Y025699D01*
X045649Y025857D02*
X036897Y025857D01*
X036785Y026016D02*
X045649Y026016D01*
X045649Y026174D02*
X036542Y026174D01*
X035796Y025223D02*
X035973Y025046D01*
X033771Y027284D02*
X023780Y027284D01*
X023938Y027442D02*
X033705Y027442D01*
X033700Y027601D02*
X024097Y027601D01*
X024255Y027759D02*
X033722Y027759D01*
X033788Y027918D02*
X024414Y027918D01*
X024572Y028076D02*
X033935Y028076D01*
X033889Y029027D02*
X045649Y029027D01*
X045649Y028869D02*
X025365Y028869D01*
X025523Y029027D02*
X026133Y029027D01*
X026015Y029186D02*
X025682Y029186D01*
X025840Y029344D02*
X025967Y029344D01*
X025524Y029820D02*
X015936Y029820D01*
X015778Y029978D02*
X025682Y029978D01*
X025841Y030137D02*
X015619Y030137D01*
X015461Y030295D02*
X025999Y030295D01*
X026158Y030454D02*
X015302Y030454D01*
X015260Y030612D02*
X026316Y030612D01*
X026475Y030771D02*
X015260Y030771D01*
X015260Y030929D02*
X026633Y030929D01*
X026792Y031088D02*
X015260Y031088D01*
X015260Y031246D02*
X026950Y031246D01*
X027109Y031405D02*
X015260Y031405D01*
X015260Y031563D02*
X027267Y031563D01*
X027426Y031722D02*
X015260Y031722D01*
X015260Y031880D02*
X027584Y031880D01*
X027743Y032039D02*
X015260Y032039D01*
X015260Y032197D02*
X027901Y032197D01*
X028060Y032356D02*
X015260Y032356D01*
X015260Y032514D02*
X028218Y032514D01*
X028377Y032673D02*
X015260Y032673D01*
X015260Y032831D02*
X028535Y032831D01*
X028694Y032990D02*
X015260Y032990D01*
X015260Y033148D02*
X028852Y033148D01*
X029011Y033307D02*
X015260Y033307D01*
X015260Y033465D02*
X029169Y033465D01*
X029328Y033624D02*
X015260Y033624D01*
X015260Y033782D02*
X029486Y033782D01*
X029645Y033941D02*
X015260Y033941D01*
X015260Y034099D02*
X029803Y034099D01*
X029962Y034258D02*
X015260Y034258D01*
X015321Y034416D02*
X030120Y034416D01*
X030279Y034575D02*
X015358Y034575D01*
X015326Y034733D02*
X030437Y034733D01*
X030596Y034892D02*
X015203Y034892D01*
X014980Y034580D02*
X014980Y030380D01*
X019330Y026030D01*
X019330Y019680D01*
X019780Y019230D01*
X020136Y019359D02*
X020200Y019359D01*
X020200Y019517D02*
X020028Y019517D01*
X020200Y019676D02*
X019730Y019676D01*
X019610Y019834D02*
X020200Y019834D01*
X020200Y019993D02*
X019610Y019993D01*
X019610Y020151D02*
X020200Y020151D01*
X020200Y020310D02*
X019610Y020310D01*
X019610Y020468D02*
X020200Y020468D01*
X020200Y020627D02*
X019610Y020627D01*
X019610Y020785D02*
X020151Y020785D01*
X020102Y020944D02*
X019610Y020944D01*
X019610Y021102D02*
X020121Y021102D01*
X020200Y021261D02*
X019610Y021261D01*
X019610Y021419D02*
X020200Y021419D01*
X020200Y021578D02*
X019610Y021578D01*
X019610Y021736D02*
X020200Y021736D01*
X020200Y021895D02*
X019610Y021895D01*
X019610Y022053D02*
X020200Y022053D01*
X020200Y022212D02*
X019610Y022212D01*
X019610Y022370D02*
X020200Y022370D01*
X020200Y022529D02*
X019610Y022529D01*
X019610Y022687D02*
X020200Y022687D01*
X020200Y022846D02*
X019610Y022846D01*
X019610Y023004D02*
X020200Y023004D01*
X020200Y023163D02*
X019610Y023163D01*
X019610Y023321D02*
X020200Y023321D01*
X020200Y023480D02*
X019610Y023480D01*
X019610Y023638D02*
X020200Y023638D01*
X020200Y023797D02*
X019610Y023797D01*
X019610Y023955D02*
X020200Y023955D01*
X020200Y024114D02*
X019610Y024114D01*
X019610Y024272D02*
X020157Y024272D01*
X020102Y024431D02*
X019610Y024431D01*
X019610Y024589D02*
X020116Y024589D01*
X020213Y024748D02*
X019610Y024748D01*
X019610Y024906D02*
X020610Y024906D01*
X020769Y025065D02*
X019610Y025065D01*
X019610Y025223D02*
X020927Y025223D01*
X021086Y025382D02*
X019610Y025382D01*
X019610Y025540D02*
X021244Y025540D01*
X021403Y025699D02*
X019610Y025699D01*
X019610Y025857D02*
X021561Y025857D01*
X021720Y026016D02*
X019610Y026016D01*
X019573Y026174D02*
X021878Y026174D01*
X022037Y026333D02*
X019423Y026333D01*
X019265Y026491D02*
X022195Y026491D01*
X022354Y026650D02*
X019106Y026650D01*
X018948Y026808D02*
X022512Y026808D01*
X022671Y026967D02*
X018789Y026967D01*
X018631Y027125D02*
X022829Y027125D01*
X022988Y027284D02*
X018472Y027284D01*
X018314Y027442D02*
X023146Y027442D01*
X023305Y027601D02*
X018155Y027601D01*
X017997Y027759D02*
X023463Y027759D01*
X023622Y027918D02*
X017838Y027918D01*
X017680Y028076D02*
X023780Y028076D01*
X023939Y028235D02*
X017521Y028235D01*
X017363Y028393D02*
X024097Y028393D01*
X024256Y028552D02*
X017204Y028552D01*
X017046Y028710D02*
X024414Y028710D01*
X024573Y028869D02*
X016887Y028869D01*
X016729Y029027D02*
X024731Y029027D01*
X024890Y029186D02*
X016570Y029186D01*
X016412Y029344D02*
X025048Y029344D01*
X025207Y029503D02*
X016253Y029503D01*
X016095Y029661D02*
X025365Y029661D01*
X025206Y028710D02*
X045649Y028710D01*
X045649Y028552D02*
X025048Y028552D01*
X024889Y028393D02*
X045649Y028393D01*
X045649Y028235D02*
X024731Y028235D01*
X026474Y029978D02*
X045649Y029978D01*
X045649Y029820D02*
X033841Y029820D01*
X033987Y029661D02*
X045649Y029661D01*
X045649Y029503D02*
X034052Y029503D01*
X034054Y029344D02*
X045649Y029344D01*
X045649Y029186D02*
X034007Y029186D01*
X033219Y029027D02*
X033101Y029027D01*
X032432Y029027D02*
X032314Y029027D01*
X031644Y029027D02*
X031527Y029027D01*
X030857Y029027D02*
X030739Y029027D01*
X030070Y029027D02*
X029952Y029027D01*
X029282Y029027D02*
X029164Y029027D01*
X028495Y029027D02*
X028377Y029027D01*
X027707Y029027D02*
X027590Y029027D01*
X026920Y029027D02*
X026802Y029027D01*
X026754Y029820D02*
X026968Y029820D01*
X026633Y030137D02*
X045649Y030137D01*
X045649Y030295D02*
X026791Y030295D01*
X026950Y030454D02*
X045649Y030454D01*
X045649Y030612D02*
X027108Y030612D01*
X027267Y030771D02*
X045649Y030771D01*
X045649Y030929D02*
X027425Y030929D01*
X027584Y031088D02*
X045649Y031088D01*
X045649Y031246D02*
X027742Y031246D01*
X027901Y031405D02*
X045649Y031405D01*
X045649Y031563D02*
X028059Y031563D01*
X028218Y031722D02*
X045649Y031722D01*
X045649Y031880D02*
X028376Y031880D01*
X028535Y032039D02*
X045649Y032039D01*
X045649Y032197D02*
X028693Y032197D01*
X028852Y032356D02*
X045649Y032356D01*
X045649Y032514D02*
X029010Y032514D01*
X029169Y032673D02*
X045649Y032673D01*
X045649Y032831D02*
X029327Y032831D01*
X029486Y032990D02*
X045649Y032990D01*
X045649Y033148D02*
X029644Y033148D01*
X029803Y033307D02*
X045649Y033307D01*
X045649Y033465D02*
X029961Y033465D01*
X030120Y033624D02*
X045649Y033624D01*
X045649Y033782D02*
X030278Y033782D01*
X030437Y033941D02*
X045649Y033941D01*
X045649Y034099D02*
X030595Y034099D01*
X030754Y034258D02*
X045649Y034258D01*
X045649Y034416D02*
X030912Y034416D01*
X031071Y034575D02*
X045649Y034575D01*
X045649Y034733D02*
X031229Y034733D01*
X031388Y034892D02*
X045649Y034892D01*
X045649Y035050D02*
X031546Y035050D01*
X031705Y035209D02*
X045649Y035209D01*
X045649Y035367D02*
X031863Y035367D01*
X032022Y035526D02*
X045649Y035526D01*
X045649Y035684D02*
X032180Y035684D01*
X032339Y035843D02*
X045649Y035843D01*
X045649Y036001D02*
X032497Y036001D01*
X032794Y036160D02*
X045649Y036160D01*
X045649Y036318D02*
X032922Y036318D01*
X032866Y037561D02*
X032667Y037561D01*
X032483Y037637D01*
X032373Y037747D01*
X032262Y037637D01*
X032079Y037561D01*
X031880Y037561D01*
X031696Y037637D01*
X031586Y037747D01*
X031475Y037637D01*
X031291Y037561D01*
X031092Y037561D01*
X030909Y037637D01*
X030798Y037747D01*
X030688Y037637D01*
X030504Y037561D01*
X030305Y037561D01*
X030121Y037637D01*
X030011Y037747D01*
X029900Y037637D01*
X029716Y037561D01*
X029518Y037561D01*
X029334Y037637D01*
X029223Y037747D01*
X029113Y037637D01*
X028929Y037561D01*
X028730Y037561D01*
X028546Y037637D01*
X028436Y037747D01*
X028325Y037637D01*
X028142Y037561D01*
X027943Y037561D01*
X027759Y037637D01*
X027649Y037747D01*
X027538Y037637D01*
X027354Y037561D01*
X027155Y037561D01*
X026972Y037637D01*
X026845Y037764D01*
X026834Y037748D01*
X026780Y037695D01*
X026719Y037650D01*
X026652Y037616D01*
X026580Y037593D01*
X026505Y037581D01*
X026467Y037581D01*
X026467Y038061D01*
X026467Y038061D01*
X025987Y038061D01*
X025987Y038098D01*
X025999Y038173D01*
X026023Y038245D01*
X026057Y038312D01*
X026101Y038373D01*
X026155Y038427D01*
X026216Y038471D01*
X026283Y038506D01*
X026355Y038529D01*
X026430Y038541D01*
X026467Y038541D01*
X026467Y038061D01*
X026467Y038061D01*
X025987Y038061D01*
X025987Y038023D01*
X025999Y037948D01*
X026023Y037876D01*
X026057Y037809D01*
X026101Y037748D01*
X026155Y037695D01*
X026216Y037650D01*
X026283Y037616D01*
X026355Y037593D01*
X026430Y037581D01*
X026467Y037581D01*
X026467Y038061D01*
X026467Y038541D01*
X026505Y038541D01*
X026580Y038529D01*
X026652Y038506D01*
X026719Y038471D01*
X026780Y038427D01*
X026834Y038373D01*
X026845Y038358D01*
X026972Y038485D01*
X027155Y038561D01*
X027354Y038561D01*
X027538Y038485D01*
X027649Y038374D01*
X027759Y038485D01*
X027943Y038561D01*
X028142Y038561D01*
X028325Y038485D01*
X028436Y038374D01*
X028546Y038485D01*
X028730Y038561D01*
X028929Y038561D01*
X029113Y038485D01*
X029223Y038374D01*
X029334Y038485D01*
X029518Y038561D01*
X029716Y038561D01*
X029900Y038485D01*
X030011Y038374D01*
X030121Y038485D01*
X030305Y038561D01*
X030504Y038561D01*
X030688Y038485D01*
X030798Y038374D01*
X030909Y038485D01*
X031092Y038561D01*
X031291Y038561D01*
X031475Y038485D01*
X031586Y038374D01*
X031696Y038485D01*
X031880Y038561D01*
X032079Y038561D01*
X032262Y038485D01*
X032373Y038374D01*
X032483Y038485D01*
X032667Y038561D01*
X032866Y038561D01*
X033050Y038485D01*
X033160Y038374D01*
X033271Y038485D01*
X033455Y038561D01*
X033653Y038561D01*
X033837Y038485D01*
X033978Y038344D01*
X034054Y038160D01*
X034054Y037961D01*
X033978Y037777D01*
X033837Y037637D01*
X033653Y037561D01*
X033455Y037561D01*
X033271Y037637D01*
X033160Y037747D01*
X033050Y037637D01*
X032866Y037561D01*
X032927Y037586D02*
X033393Y037586D01*
X033163Y037745D02*
X033158Y037745D01*
X033715Y037586D02*
X045649Y037586D01*
X045649Y037428D02*
X000380Y037428D01*
X000380Y037586D02*
X026396Y037586D01*
X026467Y037586D02*
X026467Y037586D01*
X026539Y037586D02*
X027094Y037586D01*
X026864Y037745D02*
X026830Y037745D01*
X026755Y038061D02*
X026467Y038061D01*
X026467Y038061D01*
X026755Y038061D01*
X026755Y038061D01*
X026467Y038061D02*
X026467Y038061D01*
X026467Y038062D02*
X026467Y038062D01*
X026467Y038220D02*
X026467Y038220D01*
X026467Y038379D02*
X026467Y038379D01*
X026467Y038537D02*
X026467Y038537D01*
X026407Y038537D02*
X000380Y038537D01*
X000380Y038379D02*
X026106Y038379D01*
X026014Y038220D02*
X000380Y038220D01*
X000380Y038062D02*
X025987Y038062D01*
X026014Y037903D02*
X000380Y037903D01*
X000380Y037745D02*
X026105Y037745D01*
X026467Y037745D02*
X026467Y037745D01*
X026467Y037903D02*
X026467Y037903D01*
X026828Y038379D02*
X026866Y038379D01*
X027098Y038537D02*
X026528Y038537D01*
X027411Y038537D02*
X027886Y038537D01*
X027653Y038379D02*
X027644Y038379D01*
X028199Y038537D02*
X028673Y038537D01*
X028440Y038379D02*
X028431Y038379D01*
X028986Y038537D02*
X029460Y038537D01*
X029228Y038379D02*
X029219Y038379D01*
X029774Y038537D02*
X030248Y038537D01*
X030015Y038379D02*
X030006Y038379D01*
X030561Y038537D02*
X031035Y038537D01*
X030803Y038379D02*
X030794Y038379D01*
X031348Y038537D02*
X031823Y038537D01*
X031590Y038379D02*
X031581Y038379D01*
X032136Y038537D02*
X032610Y038537D01*
X032377Y038379D02*
X032368Y038379D01*
X032923Y038537D02*
X033397Y038537D01*
X033165Y038379D02*
X033156Y038379D01*
X033711Y038537D02*
X045649Y038537D01*
X045649Y038379D02*
X033943Y038379D01*
X034029Y038220D02*
X045649Y038220D01*
X045649Y038062D02*
X034054Y038062D01*
X034030Y037903D02*
X045649Y037903D01*
X045649Y037745D02*
X033945Y037745D01*
X032606Y037586D02*
X032140Y037586D01*
X032370Y037745D02*
X032376Y037745D01*
X031819Y037586D02*
X031352Y037586D01*
X031583Y037745D02*
X031588Y037745D01*
X031031Y037586D02*
X030565Y037586D01*
X030795Y037745D02*
X030801Y037745D01*
X030244Y037586D02*
X029778Y037586D01*
X030008Y037745D02*
X030013Y037745D01*
X029456Y037586D02*
X028990Y037586D01*
X029221Y037745D02*
X029226Y037745D01*
X028669Y037586D02*
X028203Y037586D01*
X028433Y037745D02*
X028439Y037745D01*
X027882Y037586D02*
X027415Y037586D01*
X027646Y037745D02*
X027651Y037745D01*
X020065Y039171D02*
X045649Y039171D01*
X045649Y039013D02*
X020004Y039013D01*
X020065Y039330D02*
X045649Y039330D01*
X045649Y039488D02*
X020065Y039488D01*
X020065Y039647D02*
X045649Y039647D01*
X045649Y039805D02*
X020065Y039805D01*
X020065Y039964D02*
X045649Y039964D01*
X045649Y040122D02*
X019970Y040122D01*
X014700Y034258D02*
X013958Y034258D01*
X014309Y034099D02*
X014700Y034099D01*
X014700Y033941D02*
X014494Y033941D01*
X014627Y033782D02*
X014700Y033782D01*
X014665Y032514D02*
X014700Y032514D01*
X014700Y032356D02*
X014559Y032356D01*
X014700Y032197D02*
X014401Y032197D01*
X014148Y032039D02*
X014700Y032039D01*
X014700Y031880D02*
X012860Y031880D01*
X012860Y032039D02*
X013141Y032039D01*
X012888Y032197D02*
X012832Y032197D01*
X012845Y031722D02*
X014700Y031722D01*
X014700Y031563D02*
X012803Y031563D01*
X012738Y031405D02*
X014700Y031405D01*
X014700Y031246D02*
X012646Y031246D01*
X012504Y031088D02*
X014700Y031088D01*
X014700Y030929D02*
X012303Y030929D01*
X011908Y030771D02*
X014700Y030771D01*
X012495Y032831D02*
X012454Y032831D01*
X012460Y032990D02*
X012217Y032990D01*
X012460Y033148D02*
X010892Y033148D01*
X010892Y032990D02*
X011135Y032990D01*
X010898Y032831D02*
X010857Y032831D01*
X010520Y032197D02*
X010464Y032197D01*
X010492Y032039D02*
X010211Y032039D01*
X010492Y031880D02*
X004986Y031880D01*
X004986Y032039D02*
X005267Y032039D01*
X005014Y032197D02*
X004958Y032197D01*
X004971Y031722D02*
X010507Y031722D01*
X010550Y031563D02*
X004929Y031563D01*
X004864Y031405D02*
X010614Y031405D01*
X010706Y031246D02*
X004772Y031246D01*
X004630Y031088D02*
X010848Y031088D01*
X011049Y030929D02*
X004429Y030929D01*
X004034Y030771D02*
X011444Y030771D01*
X009204Y032039D02*
X006274Y032039D01*
X006527Y032197D02*
X008951Y032197D01*
X008793Y032356D02*
X006685Y032356D01*
X006791Y032514D02*
X008687Y032514D01*
X008600Y032673D02*
X006878Y032673D01*
X006920Y032831D02*
X008558Y032831D01*
X008523Y032990D02*
X006955Y032990D01*
X006955Y033148D02*
X008523Y033148D01*
X008533Y033307D02*
X006945Y033307D01*
X006903Y033465D02*
X008575Y033465D01*
X008633Y033624D02*
X006845Y033624D01*
X006753Y033782D02*
X008725Y033782D01*
X008858Y033941D02*
X006620Y033941D01*
X006435Y034099D02*
X009043Y034099D01*
X009394Y034258D02*
X006084Y034258D01*
X005457Y034258D02*
X002147Y034258D01*
X002498Y034099D02*
X005106Y034099D01*
X004921Y033941D02*
X002683Y033941D01*
X002816Y033782D02*
X004788Y033782D01*
X004696Y033624D02*
X002908Y033624D01*
X002966Y033465D02*
X004638Y033465D01*
X004596Y033307D02*
X003008Y033307D01*
X003018Y033148D02*
X004586Y033148D01*
X004586Y032990D02*
X004343Y032990D01*
X004580Y032831D02*
X004621Y032831D01*
X003261Y032990D02*
X003018Y032990D01*
X003024Y032831D02*
X002983Y032831D01*
X000380Y037111D02*
X045649Y037111D01*
X045649Y037269D02*
X000380Y037269D01*
X000380Y038696D02*
X045649Y038696D01*
X045649Y038854D02*
X000380Y038854D01*
X000380Y040915D02*
X045649Y040915D01*
X045649Y041073D02*
X000380Y041073D01*
X000380Y041232D02*
X045649Y041232D01*
X045649Y041390D02*
X000380Y041390D01*
X000380Y041549D02*
X045649Y041549D01*
X045649Y041707D02*
X000380Y041707D01*
X005892Y039647D02*
X009823Y039647D01*
X009823Y039488D02*
X005892Y039488D01*
X005892Y039330D02*
X009823Y039330D01*
X009823Y039171D02*
X005892Y039171D01*
X005831Y039013D02*
X009883Y039013D01*
X010616Y040281D02*
X045649Y040281D01*
X045649Y040439D02*
X010616Y040439D01*
X010616Y040598D02*
X045649Y040598D01*
X045649Y040756D02*
X010517Y040756D01*
X010021Y034258D02*
X013331Y034258D01*
X012980Y034099D02*
X010372Y034099D01*
X010557Y033941D02*
X012795Y033941D01*
X012662Y033782D02*
X010690Y033782D01*
X010782Y033624D02*
X012570Y033624D01*
X012512Y033465D02*
X010840Y033465D01*
X010882Y033307D02*
X012470Y033307D01*
X021402Y024906D02*
X023523Y024906D01*
X023502Y024748D02*
X021244Y024748D01*
X021085Y024589D02*
X023550Y024589D01*
X023736Y024431D02*
X020927Y024431D01*
X021561Y025065D02*
X023600Y025065D01*
X023600Y025223D02*
X021719Y025223D01*
X021878Y025382D02*
X023600Y025382D01*
X023600Y025540D02*
X022036Y025540D01*
X022195Y025699D02*
X023600Y025699D01*
X023522Y025857D02*
X022353Y025857D01*
X022512Y026016D02*
X023502Y026016D01*
X023551Y026174D02*
X022670Y026174D01*
X023880Y025980D02*
X023880Y024780D01*
X024024Y024431D02*
X024636Y024431D01*
X024450Y024589D02*
X024210Y024589D01*
X024258Y024748D02*
X024402Y024748D01*
X024423Y024906D02*
X024237Y024906D01*
X024160Y025065D02*
X024500Y025065D01*
X024500Y025223D02*
X024160Y025223D01*
X024160Y025382D02*
X024500Y025382D01*
X024500Y025540D02*
X024160Y025540D01*
X024160Y025699D02*
X024500Y025699D01*
X024422Y025857D02*
X024238Y025857D01*
X024258Y026016D02*
X024402Y026016D01*
X024451Y026174D02*
X024209Y026174D01*
X024780Y025980D02*
X024780Y024780D01*
X024924Y024431D02*
X045649Y024431D01*
X045649Y024589D02*
X025110Y024589D01*
X025158Y024748D02*
X045649Y024748D01*
X045649Y024906D02*
X025137Y024906D01*
X023125Y021419D02*
X020760Y021419D01*
X020760Y021261D02*
X022965Y021261D01*
X022806Y021102D02*
X020839Y021102D01*
X020858Y020944D02*
X022648Y020944D01*
X022489Y020785D02*
X020809Y020785D01*
X020200Y019200D02*
X020158Y019200D01*
X016068Y019359D02*
X014392Y019359D01*
X014402Y019993D02*
X016058Y019993D01*
X018148Y024114D02*
X019050Y024114D01*
X019050Y024272D02*
X018208Y024272D01*
X018198Y024431D02*
X019050Y024431D01*
X019050Y024589D02*
X018106Y024589D01*
X017780Y024380D02*
X013580Y024380D01*
X027542Y029820D02*
X027755Y029820D01*
X028329Y029820D02*
X028543Y029820D01*
X029116Y029820D02*
X029330Y029820D01*
X029904Y029820D02*
X030118Y029820D01*
X030691Y029820D02*
X030905Y029820D01*
X031479Y029820D02*
X031692Y029820D01*
X032266Y029820D02*
X032480Y029820D01*
X033053Y029820D02*
X033267Y029820D01*
X042808Y023321D02*
X043593Y023321D01*
X043751Y023163D02*
X042967Y023163D01*
X043125Y023004D02*
X043910Y023004D01*
X044050Y022846D02*
X043284Y022846D01*
X043796Y022687D02*
X044050Y022687D01*
X044050Y022529D02*
X043944Y022529D01*
X044009Y022370D02*
X044050Y022370D01*
X044050Y022212D02*
X044017Y022212D01*
X044050Y022053D02*
X043981Y022053D01*
X044050Y021895D02*
X043885Y021895D01*
X043941Y021736D02*
X044050Y021736D01*
X044050Y021578D02*
X044006Y021578D01*
X044017Y021419D02*
X044050Y021419D01*
X044050Y021261D02*
X043984Y021261D01*
X044050Y021102D02*
X043893Y021102D01*
X043911Y020944D02*
X044050Y020944D01*
X044050Y020785D02*
X043997Y020785D01*
X043997Y020627D02*
X044050Y020627D01*
X044050Y020468D02*
X043997Y020468D01*
X044050Y020310D02*
X043872Y020310D01*
X043932Y020151D02*
X044050Y020151D01*
X044050Y019993D02*
X044000Y019993D01*
X043487Y021446D02*
X043453Y021480D01*
X045649Y003667D02*
X030448Y003667D01*
X030268Y003509D02*
X045649Y003509D01*
X045649Y003350D02*
X000380Y003350D01*
X000380Y003192D02*
X045649Y003192D01*
X045649Y001765D02*
X010616Y001765D01*
X010616Y001607D02*
X045649Y001607D01*
X045649Y001448D02*
X010616Y001448D01*
X005036Y007947D02*
X000380Y007947D01*
X000380Y008105D02*
X004878Y008105D01*
X004763Y008264D02*
X000380Y008264D01*
X000380Y008422D02*
X004672Y008422D01*
X004627Y008581D02*
X000380Y008581D01*
X000380Y008739D02*
X004586Y008739D01*
X004586Y008898D02*
X000380Y008898D01*
X000380Y009056D02*
X004590Y009056D01*
X004632Y009215D02*
X000380Y009215D01*
X000380Y009373D02*
X004684Y009373D01*
X004775Y009532D02*
X000380Y009532D01*
X000380Y009690D02*
X004899Y009690D01*
X005067Y009849D02*
X000380Y009849D01*
X000380Y010007D02*
X005375Y010007D01*
X000380Y001290D02*
X045649Y001290D01*
X045649Y001131D02*
X000380Y001131D01*
X000380Y000973D02*
X045649Y000973D01*
X045649Y000814D02*
X000380Y000814D01*
X000380Y000656D02*
X045649Y000656D01*
X045649Y000497D02*
X000380Y000497D01*
D22*
X015630Y005830D03*
X017080Y003780D03*
X019430Y004480D03*
X018780Y006180D03*
X022180Y009180D03*
X023880Y009430D03*
X021880Y011180D03*
X023980Y011680D03*
X024980Y013280D03*
X024380Y015080D03*
X023980Y015880D03*
X023880Y017630D03*
X023880Y019080D03*
X022380Y020280D03*
X021530Y019230D03*
X019780Y019230D03*
X020480Y017480D03*
X021880Y016680D03*
X020480Y014180D03*
X026380Y017080D03*
X027080Y017880D03*
X029780Y016080D03*
X029180Y015280D03*
X028380Y014380D03*
X027280Y014380D03*
X028330Y013380D03*
X030230Y010880D03*
X030880Y010880D03*
X026330Y008280D03*
X032330Y015530D03*
X031430Y016030D03*
X030480Y019480D03*
X036180Y022080D03*
X038180Y020080D03*
X024780Y024780D03*
X023880Y024780D03*
X023880Y025980D03*
X024780Y025980D03*
X023180Y022080D03*
X020480Y020980D03*
X016980Y022180D03*
X017830Y024330D03*
X020480Y024480D03*
X016280Y019680D03*
X014180Y019680D03*
X013580Y022180D03*
X013580Y024380D03*
X014980Y034580D03*
X011580Y037630D03*
X032580Y036480D03*
D23*
X020580Y024480D02*
X020480Y024480D01*
X017830Y024330D02*
X017780Y024380D01*
X021880Y011180D02*
X021980Y011080D01*
X039580Y018680D02*
X039845Y018680D01*
M02*
