G75*
G70*
%OFA0B0*%
%FSLAX24Y24*%
%IPPOS*%
%LPD*%
%AMOC8*
5,1,8,0,0,1.08239X$1,22.5*
%
%ADD10C,0.0000*%
%ADD11C,0.0050*%
%ADD12C,0.0030*%
D10*
X000180Y000180D02*
X000180Y001519D01*
X010416Y001519D01*
X010416Y002149D01*
X000180Y002149D01*
X000180Y039944D01*
X010416Y039944D01*
X010416Y040574D01*
X000180Y040574D01*
X000180Y041912D01*
X045849Y041912D01*
X045849Y000180D01*
X000180Y000180D01*
D11*
X042737Y020046D02*
X044237Y020046D01*
X043887Y020246D02*
X043087Y020246D01*
X043087Y021046D01*
X043887Y021046D01*
X043887Y020246D01*
X042503Y021046D02*
X042505Y021108D01*
X042511Y021171D01*
X042521Y021232D01*
X042535Y021293D01*
X042552Y021353D01*
X042573Y021412D01*
X042599Y021469D01*
X042627Y021524D01*
X042659Y021578D01*
X042695Y021629D01*
X042733Y021679D01*
X042775Y021725D01*
X042819Y021769D01*
X042867Y021810D01*
X042916Y021848D01*
X042968Y021882D01*
X043022Y021913D01*
X043078Y021941D01*
X043136Y021965D01*
X043195Y021986D01*
X043255Y022002D01*
X043316Y022015D01*
X043378Y022024D01*
X043440Y022029D01*
X043503Y022030D01*
X043565Y022027D01*
X043627Y022020D01*
X043689Y022009D01*
X043749Y021994D01*
X043809Y021976D01*
X043867Y021954D01*
X043924Y021928D01*
X043979Y021898D01*
X044032Y021865D01*
X044083Y021829D01*
X044131Y021790D01*
X044177Y021747D01*
X044220Y021702D01*
X044260Y021654D01*
X044297Y021604D01*
X044331Y021551D01*
X044362Y021497D01*
X044388Y021441D01*
X044412Y021383D01*
X044431Y021323D01*
X044447Y021263D01*
X044459Y021201D01*
X044467Y021140D01*
X044471Y021077D01*
X044471Y021015D01*
X044467Y020952D01*
X044459Y020891D01*
X044447Y020829D01*
X044431Y020769D01*
X044412Y020709D01*
X044388Y020651D01*
X044362Y020595D01*
X044331Y020541D01*
X044297Y020488D01*
X044260Y020438D01*
X044220Y020390D01*
X044177Y020345D01*
X044131Y020302D01*
X044083Y020263D01*
X044032Y020227D01*
X043979Y020194D01*
X043924Y020164D01*
X043867Y020138D01*
X043809Y020116D01*
X043749Y020098D01*
X043689Y020083D01*
X043627Y020072D01*
X043565Y020065D01*
X043503Y020062D01*
X043440Y020063D01*
X043378Y020068D01*
X043316Y020077D01*
X043255Y020090D01*
X043195Y020106D01*
X043136Y020127D01*
X043078Y020151D01*
X043022Y020179D01*
X042968Y020210D01*
X042916Y020244D01*
X042867Y020282D01*
X042819Y020323D01*
X042775Y020367D01*
X042733Y020413D01*
X042695Y020463D01*
X042659Y020514D01*
X042627Y020568D01*
X042599Y020623D01*
X042573Y020680D01*
X042552Y020739D01*
X042535Y020799D01*
X042521Y020860D01*
X042511Y020921D01*
X042505Y020984D01*
X042503Y021046D01*
X042737Y020046D02*
X042683Y020089D01*
X042631Y020135D01*
X042582Y020184D01*
X042535Y020236D01*
X042492Y020290D01*
X042451Y020346D01*
X042414Y020405D01*
X042380Y020465D01*
X042350Y020528D01*
X042323Y020591D01*
X042299Y020657D01*
X042279Y020723D01*
X042263Y020791D01*
X042251Y020859D01*
X042243Y020928D01*
X042238Y020997D01*
X042237Y021067D01*
X042240Y021136D01*
X042247Y021205D01*
X042258Y021273D01*
X042272Y021341D01*
X042291Y021408D01*
X042313Y021474D01*
X042338Y021539D01*
X042367Y021602D01*
X042400Y021663D01*
X042436Y021722D01*
X042475Y021779D01*
X042517Y021835D01*
X042562Y021887D01*
X042610Y021937D01*
X042661Y021984D01*
X042715Y022029D01*
X042770Y022070D01*
X042828Y022108D01*
X042888Y022143D01*
X042950Y022175D01*
X043013Y022203D01*
X043078Y022227D01*
X043144Y022248D01*
X043212Y022265D01*
X043280Y022279D01*
X043349Y022288D01*
X043418Y022294D01*
X043487Y022296D01*
X043556Y022294D01*
X043625Y022288D01*
X043694Y022279D01*
X043762Y022265D01*
X043830Y022248D01*
X043896Y022227D01*
X043961Y022203D01*
X044024Y022175D01*
X044086Y022143D01*
X044146Y022108D01*
X044204Y022070D01*
X044259Y022029D01*
X044313Y021984D01*
X044364Y021937D01*
X044412Y021887D01*
X044457Y021835D01*
X044499Y021779D01*
X044538Y021722D01*
X044574Y021663D01*
X044607Y021602D01*
X044636Y021539D01*
X044661Y021474D01*
X044683Y021408D01*
X044702Y021341D01*
X044716Y021273D01*
X044727Y021205D01*
X044734Y021136D01*
X044737Y021067D01*
X044736Y020997D01*
X044731Y020928D01*
X044723Y020859D01*
X044711Y020791D01*
X044695Y020723D01*
X044675Y020657D01*
X044651Y020591D01*
X044624Y020528D01*
X044594Y020465D01*
X044560Y020405D01*
X044523Y020346D01*
X044482Y020290D01*
X044439Y020236D01*
X044392Y020184D01*
X044343Y020135D01*
X044291Y020089D01*
X044237Y020046D01*
D12*
X044902Y020661D02*
X044902Y020855D01*
X044902Y020956D02*
X044902Y021149D01*
X044902Y021250D02*
X044902Y021396D01*
X044950Y021444D01*
X045144Y021444D01*
X045192Y021396D01*
X045192Y021250D01*
X044902Y021250D01*
X045047Y021053D02*
X045047Y020956D01*
X045192Y020956D02*
X044902Y020956D01*
X045192Y020956D02*
X045192Y021149D01*
X045047Y021545D02*
X045047Y021739D01*
X044902Y021690D02*
X045192Y021690D01*
X045047Y021545D01*
X045192Y020661D02*
X044902Y020661D01*
X040515Y020687D02*
X040467Y020735D01*
X040370Y020735D01*
X040322Y020687D01*
X040322Y020638D01*
X040370Y020590D01*
X040322Y020542D01*
X040322Y020493D01*
X040370Y020445D01*
X040467Y020445D01*
X040515Y020493D01*
X040418Y020590D02*
X040370Y020590D01*
X040220Y020493D02*
X040172Y020493D01*
X040172Y020445D01*
X040220Y020445D01*
X040220Y020493D01*
X040073Y020493D02*
X040025Y020445D01*
X039928Y020445D01*
X039880Y020493D01*
X039880Y020687D01*
X039928Y020735D01*
X040025Y020735D01*
X040073Y020687D01*
X040073Y020638D01*
X040025Y020590D01*
X039880Y020590D01*
X039781Y019385D02*
X039926Y019240D01*
X039732Y019240D01*
X039781Y019095D02*
X039781Y019385D01*
X040124Y019385D02*
X040124Y019095D01*
X040220Y019095D02*
X040027Y019095D01*
X040220Y019288D02*
X040124Y019385D01*
X040322Y019337D02*
X040370Y019385D01*
X040515Y019385D01*
X040515Y019095D01*
X040515Y019192D02*
X040370Y019192D01*
X040322Y019240D01*
X040322Y019337D01*
X040418Y019192D02*
X040322Y019095D01*
X040270Y018235D02*
X040415Y018090D01*
X040222Y018090D01*
X040120Y017993D02*
X040120Y017945D01*
X040120Y017993D02*
X039927Y018187D01*
X039927Y018235D01*
X040120Y018235D01*
X040270Y018235D02*
X040270Y017945D01*
X040220Y021595D02*
X040027Y021595D01*
X040124Y021595D02*
X040124Y021885D01*
X040220Y021788D01*
X040322Y021740D02*
X040370Y021692D01*
X040515Y021692D01*
X040418Y021692D02*
X040322Y021595D01*
X040322Y021740D02*
X040322Y021837D01*
X040370Y021885D01*
X040515Y021885D01*
X040515Y021595D01*
X039926Y021643D02*
X039877Y021595D01*
X039781Y021595D01*
X039732Y021643D01*
X039732Y021692D01*
X039781Y021740D01*
X039829Y021740D01*
X039781Y021740D02*
X039732Y021788D01*
X039732Y021837D01*
X039781Y021885D01*
X039877Y021885D01*
X039926Y021837D01*
X039878Y022445D02*
X039830Y022493D01*
X039830Y022687D01*
X039878Y022735D01*
X039975Y022735D01*
X040023Y022687D01*
X040023Y022638D01*
X039975Y022590D01*
X039830Y022590D01*
X039878Y022445D02*
X039975Y022445D01*
X040023Y022493D01*
X040122Y022493D02*
X040122Y022445D01*
X040170Y022445D01*
X040170Y022493D01*
X040122Y022493D01*
X040272Y022493D02*
X040320Y022445D01*
X040417Y022445D01*
X040465Y022493D01*
X040368Y022590D02*
X040320Y022590D01*
X040272Y022542D01*
X040272Y022493D01*
X040320Y022590D02*
X040272Y022638D01*
X040272Y022687D01*
X040320Y022735D01*
X040417Y022735D01*
X040465Y022687D01*
X040515Y023595D02*
X040515Y023885D01*
X040370Y023885D01*
X040322Y023837D01*
X040322Y023740D01*
X040370Y023692D01*
X040515Y023692D01*
X040418Y023692D02*
X040322Y023595D01*
X040220Y023595D02*
X040027Y023595D01*
X040124Y023595D02*
X040124Y023885D01*
X040220Y023788D01*
X039926Y023837D02*
X039877Y023885D01*
X039781Y023885D01*
X039732Y023837D01*
X039732Y023788D01*
X039926Y023595D01*
X039732Y023595D01*
M02*
