G75*
G70*
%OFA0B0*%
%FSLAX24Y24*%
%IPPOS*%
%LPD*%
%AMOC8*
5,1,8,0,0,1.08239X$1,22.5*
%
%ADD10C,0.0000*%
%ADD11R,0.5512X0.0787*%
%ADD12R,0.0631X0.0552*%
%ADD13R,0.0355X0.0512*%
%ADD14R,0.0512X0.0355*%
%ADD15C,0.0640*%
%ADD16OC8,0.0640*%
%ADD17R,0.0260X0.0540*%
%ADD18R,0.0540X0.0260*%
%ADD19R,0.0520X0.0920*%
%ADD20R,0.1457X0.0906*%
%ADD21C,0.0640*%
%ADD22R,0.0512X0.0591*%
%ADD23R,0.0552X0.0631*%
%ADD24R,0.0827X0.0827*%
%ADD25C,0.2009*%
%ADD26C,0.0900*%
%ADD27R,0.0591X0.0434*%
%ADD28R,0.0512X0.0512*%
%ADD29C,0.0700*%
%ADD30OC8,0.0700*%
%ADD31R,0.0355X0.0867*%
D10*
X000180Y000180D02*
X000180Y001519D01*
X010416Y001519D01*
X010416Y002149D01*
X000180Y002149D01*
X000180Y039944D01*
X010416Y039944D01*
X010416Y040574D01*
X000180Y040574D01*
X000180Y041912D01*
X045849Y041912D01*
X045849Y000180D01*
X000180Y000180D01*
D11*
X002936Y002542D03*
X002936Y039550D03*
D12*
X030180Y014515D03*
X030180Y013845D03*
X029530Y009865D03*
X029530Y009195D03*
D13*
X027434Y008280D03*
X026726Y008280D03*
X030226Y011780D03*
X030934Y011780D03*
X028184Y012480D03*
X027476Y012480D03*
X026334Y012480D03*
X025626Y012480D03*
X026326Y013880D03*
X027034Y013880D03*
X030726Y015480D03*
X031434Y015480D03*
D14*
X025530Y009034D03*
X025530Y008326D03*
X024730Y008326D03*
X024730Y009034D03*
D15*
X020180Y010580D03*
X026467Y029399D03*
X027255Y029399D03*
X028042Y029399D03*
X028830Y029399D03*
X029617Y029399D03*
X030404Y029399D03*
X031192Y029399D03*
X031979Y029399D03*
X032767Y029399D03*
X033554Y029399D03*
X033554Y038061D03*
X032767Y038061D03*
X031979Y038061D03*
X031192Y038061D03*
X030404Y038061D03*
X029617Y038061D03*
X028830Y038061D03*
X028042Y038061D03*
X027255Y038061D03*
X026467Y038061D03*
D16*
X021180Y010580D03*
X021180Y009580D03*
X021180Y008580D03*
X020180Y008580D03*
X020180Y009580D03*
D17*
X026078Y015490D03*
X026393Y015490D03*
X026708Y015490D03*
X027023Y015490D03*
X027337Y015490D03*
X027652Y015490D03*
X027967Y015490D03*
X028282Y015490D03*
X028282Y018870D03*
X027967Y018870D03*
X027652Y018870D03*
X027337Y018870D03*
X027023Y018870D03*
X026708Y018870D03*
X026393Y018870D03*
X026078Y018870D03*
D18*
X025490Y018282D03*
X025490Y017967D03*
X025490Y017652D03*
X025490Y017337D03*
X025490Y017023D03*
X025490Y016708D03*
X025490Y016393D03*
X025490Y016078D03*
X028870Y016078D03*
X028870Y016393D03*
X028870Y016708D03*
X028870Y017023D03*
X028870Y017337D03*
X028870Y017652D03*
X028870Y017967D03*
X028870Y018282D03*
D19*
X027240Y007150D03*
X026330Y007150D03*
X025420Y007150D03*
D20*
X026330Y004710D03*
D21*
X032330Y009730D02*
X032930Y009730D01*
X032930Y010730D02*
X032330Y010730D01*
X032330Y011730D02*
X032930Y011730D01*
X032930Y012730D02*
X032330Y012730D01*
X032330Y013730D02*
X032930Y013730D01*
X032930Y014730D02*
X032330Y014730D01*
D22*
X041789Y034980D03*
X042971Y034980D03*
D23*
X040715Y034980D03*
X040045Y034980D03*
X040045Y037330D03*
X040715Y037330D03*
X040715Y038980D03*
X040045Y038980D03*
X022015Y025180D03*
X021345Y025180D03*
X021345Y021680D03*
X022015Y021680D03*
X022015Y018180D03*
X021345Y018180D03*
X021345Y014680D03*
X022015Y014680D03*
X025545Y010980D03*
X026215Y010980D03*
X027645Y010980D03*
X028315Y010980D03*
D24*
X018641Y002542D03*
X017641Y002542D03*
X016641Y002542D03*
X015641Y002542D03*
X014641Y002542D03*
X013641Y002542D03*
X012641Y002542D03*
X011641Y002542D03*
X011641Y039550D03*
X012641Y039550D03*
X013641Y039550D03*
X014641Y039550D03*
X015641Y039550D03*
X016641Y039550D03*
X017641Y039550D03*
X018641Y039550D03*
D25*
X013645Y033115D03*
X011676Y031934D03*
X009708Y033115D03*
X005771Y033115D03*
X003802Y031934D03*
X001834Y033115D03*
X007739Y010068D03*
X005771Y008887D03*
X009708Y008887D03*
D26*
X034330Y025580D03*
X034330Y026580D03*
X034330Y027580D03*
X036330Y027580D03*
X036330Y025580D03*
D27*
X019613Y024180D03*
X018747Y023806D03*
X018747Y024554D03*
X018747Y021054D03*
X018747Y020306D03*
X019613Y020680D03*
X018747Y017554D03*
X018747Y016806D03*
X019613Y017180D03*
X018747Y014054D03*
X018747Y013306D03*
X019613Y013680D03*
D28*
X041967Y037330D03*
X042793Y037330D03*
X042793Y038980D03*
X041967Y038980D03*
D29*
X043487Y022246D03*
X043487Y021446D03*
X043487Y019846D03*
D30*
X043487Y020646D03*
D31*
X026702Y020230D03*
X026230Y020230D03*
X025758Y020230D03*
M02*
