G75*
G70*
%OFA0B0*%
%FSLAX24Y24*%
%IPPOS*%
%LPD*%
%AMOC8*
5,1,8,0,0,1.08239X$1,22.5*
%
%ADD10C,0.0000*%
%ADD11R,0.9843X0.0787*%
%ADD12R,0.5512X0.0787*%
%ADD13C,0.0600*%
%ADD14OC8,0.0600*%
%ADD15C,0.0600*%
%ADD16C,0.1969*%
%ADD17C,0.0860*%
%ADD18R,0.1575X0.1575*%
%ADD19R,0.1575X0.0236*%
%ADD20C,0.0660*%
%ADD21OC8,0.0660*%
%ADD22C,0.0160*%
%ADD23C,0.0356*%
%ADD24C,0.0320*%
%ADD25C,0.0100*%
D10*
X000180Y000100D02*
X000180Y001439D01*
X010416Y001439D01*
X010416Y002069D01*
X000180Y002069D01*
X000180Y039864D01*
X010416Y039864D01*
X010416Y040494D01*
X000180Y040494D01*
X000180Y041832D01*
X045849Y041832D01*
X045849Y000100D01*
X000180Y000100D01*
D11*
X014944Y002462D03*
X014944Y039470D03*
D12*
X002936Y039470D03*
X002936Y002462D03*
D13*
X021180Y007200D03*
X026467Y029319D03*
X027255Y029319D03*
X028042Y029319D03*
X028830Y029319D03*
X029617Y029319D03*
X030404Y029319D03*
X031192Y029319D03*
X031979Y029319D03*
X032767Y029319D03*
X033554Y029319D03*
X033554Y037981D03*
X032767Y037981D03*
X031979Y037981D03*
X031192Y037981D03*
X030404Y037981D03*
X029617Y037981D03*
X028830Y037981D03*
X028042Y037981D03*
X027255Y037981D03*
X026467Y037981D03*
D14*
X020580Y016000D03*
X019580Y016000D03*
X019580Y015000D03*
X019580Y014000D03*
X019580Y013000D03*
X020580Y013000D03*
X020580Y014000D03*
X020580Y015000D03*
X020580Y012000D03*
X019580Y012000D03*
X022180Y007200D03*
X022180Y006200D03*
X022180Y005200D03*
X021180Y005200D03*
X021180Y006200D03*
D15*
X031430Y009650D02*
X032030Y009650D01*
X032030Y010650D02*
X031430Y010650D01*
X031430Y011650D02*
X032030Y011650D01*
X032030Y012650D02*
X031430Y012650D01*
X031430Y013650D02*
X032030Y013650D01*
X032030Y014650D02*
X031430Y014650D01*
D16*
X013645Y030415D03*
X011676Y029234D03*
X009708Y030415D03*
X005771Y030415D03*
X003802Y029234D03*
X001834Y030415D03*
X007739Y008368D03*
X005771Y007187D03*
X009708Y007187D03*
D17*
X034613Y019966D03*
X034613Y020966D03*
X034613Y021966D03*
X036613Y021966D03*
X036613Y019966D03*
D18*
X016991Y019923D03*
X014865Y019923D03*
X014865Y022009D03*
X016991Y022009D03*
X016991Y032521D03*
X014865Y032521D03*
X014865Y034608D03*
X016991Y034608D03*
X016991Y009411D03*
X014865Y009411D03*
X014865Y007324D03*
X016991Y007324D03*
D19*
X016991Y008368D03*
X014865Y008368D03*
X014865Y020966D03*
X016991Y020966D03*
X016991Y033565D03*
X014865Y033565D03*
D20*
X043487Y022166D03*
X043487Y021366D03*
X043487Y019766D03*
D21*
X043487Y020566D03*
D22*
X042957Y020547D02*
X042709Y020547D01*
X042590Y020705D02*
X042957Y020705D01*
X042957Y020786D02*
X042957Y020347D01*
X043138Y020166D01*
X043056Y020085D01*
X040399Y023625D01*
X040392Y023642D01*
X040369Y023664D01*
X040350Y023690D01*
X040334Y023699D01*
X040322Y023712D01*
X040292Y023724D01*
X040265Y023740D01*
X040247Y023743D01*
X040230Y023750D01*
X040198Y023750D01*
X040166Y023755D01*
X040148Y023750D01*
X029185Y023750D01*
X029141Y023752D01*
X029136Y023750D01*
X029130Y023750D01*
X029089Y023733D01*
X029048Y023718D01*
X029044Y023714D01*
X029038Y023712D01*
X029007Y023681D01*
X027883Y022650D01*
X026265Y022650D01*
X026194Y022721D01*
X026055Y022778D01*
X025905Y022778D01*
X025766Y022721D01*
X025659Y022614D01*
X025602Y022475D01*
X025602Y022325D01*
X025659Y022186D01*
X025766Y022079D01*
X025905Y022022D01*
X026055Y022022D01*
X026194Y022079D01*
X026265Y022150D01*
X027975Y022150D01*
X028019Y022148D01*
X028024Y022150D01*
X028030Y022150D01*
X028071Y022167D01*
X028112Y022182D01*
X028116Y022186D01*
X028122Y022188D01*
X028153Y022219D01*
X029277Y023250D01*
X040055Y023250D01*
X042763Y019641D01*
X042770Y019625D01*
X042793Y019602D01*
X042812Y019576D01*
X042828Y019567D01*
X042841Y019554D01*
X042870Y019542D01*
X042898Y019526D01*
X042916Y019523D01*
X042933Y019516D01*
X042965Y019516D01*
X042996Y019512D01*
X043014Y019516D01*
X043017Y019516D01*
X043038Y019466D01*
X043187Y019317D01*
X043382Y019236D01*
X043593Y019236D01*
X043787Y019317D01*
X043936Y019466D01*
X044017Y019661D01*
X044017Y019872D01*
X043936Y020066D01*
X043837Y020166D01*
X044017Y020347D01*
X044017Y020786D01*
X043837Y020966D01*
X043936Y021066D01*
X044017Y021261D01*
X044017Y021472D01*
X043936Y021666D01*
X043837Y021766D01*
X043936Y021866D01*
X044017Y022061D01*
X044017Y022272D01*
X043936Y022466D01*
X043787Y022615D01*
X043593Y022696D01*
X043382Y022696D01*
X043187Y022615D01*
X043121Y022550D01*
X041001Y025620D01*
X040992Y025642D01*
X040973Y025661D01*
X040957Y025683D01*
X040938Y025696D01*
X040922Y025712D01*
X040897Y025722D01*
X040874Y025737D01*
X040851Y025741D01*
X040830Y025750D01*
X040803Y025750D01*
X040776Y025755D01*
X040753Y025750D01*
X029185Y025750D01*
X029141Y025752D01*
X029136Y025750D01*
X029130Y025750D01*
X029089Y025733D01*
X029048Y025718D01*
X029044Y025714D01*
X029038Y025712D01*
X029007Y025681D01*
X027883Y024650D01*
X026265Y024650D01*
X026194Y024721D01*
X026055Y024778D01*
X025905Y024778D01*
X025766Y024721D01*
X025659Y024614D01*
X025602Y024475D01*
X025602Y024325D01*
X025659Y024186D01*
X025766Y024079D01*
X025905Y024022D01*
X026055Y024022D01*
X026194Y024079D01*
X026265Y024150D01*
X027975Y024150D01*
X028019Y024148D01*
X028024Y024150D01*
X028030Y024150D01*
X028071Y024167D01*
X028112Y024182D01*
X028116Y024186D01*
X028122Y024188D01*
X028153Y024219D01*
X029277Y025250D01*
X040649Y025250D01*
X042862Y022046D01*
X042870Y022025D01*
X042890Y022005D01*
X042905Y021983D01*
X042924Y021971D01*
X042941Y021954D01*
X042966Y021944D01*
X042988Y021929D01*
X043011Y021925D01*
X043014Y021924D01*
X043038Y021866D01*
X043138Y021766D01*
X043038Y021666D01*
X043017Y021616D01*
X042812Y021616D01*
X040700Y024621D01*
X040692Y024642D01*
X040672Y024661D01*
X040656Y024684D01*
X040637Y024696D01*
X040622Y024712D01*
X040596Y024723D01*
X040572Y024738D01*
X040550Y024742D01*
X040530Y024750D01*
X040502Y024750D01*
X040474Y024755D01*
X040452Y024750D01*
X029185Y024750D01*
X029141Y024752D01*
X029136Y024750D01*
X029130Y024750D01*
X029089Y024733D01*
X029048Y024718D01*
X029044Y024714D01*
X029038Y024712D01*
X029007Y024681D01*
X027883Y023650D01*
X026265Y023650D01*
X026194Y023721D01*
X026055Y023778D01*
X025905Y023778D01*
X025766Y023721D01*
X025659Y023614D01*
X025602Y023475D01*
X025602Y023325D01*
X025659Y023186D01*
X025766Y023079D01*
X025905Y023022D01*
X026055Y023022D01*
X026194Y023079D01*
X026265Y023150D01*
X027975Y023150D01*
X028019Y023148D01*
X028024Y023150D01*
X028030Y023150D01*
X028071Y023167D01*
X028112Y023182D01*
X028116Y023186D01*
X028122Y023188D01*
X028153Y023219D01*
X029277Y024250D01*
X040350Y024250D01*
X042462Y021245D01*
X042470Y021225D01*
X042490Y021205D01*
X042506Y021182D01*
X042525Y021170D01*
X042541Y021154D01*
X042567Y021143D01*
X042590Y021128D01*
X042612Y021125D01*
X042633Y021116D01*
X042661Y021116D01*
X042688Y021111D01*
X042710Y021116D01*
X043017Y021116D01*
X043038Y021066D01*
X043138Y020966D01*
X042957Y020786D01*
X043035Y020864D02*
X042471Y020864D01*
X042352Y021022D02*
X043082Y021022D01*
X042508Y021181D02*
X042233Y021181D01*
X042114Y021339D02*
X042396Y021339D01*
X042284Y021498D02*
X041995Y021498D01*
X041877Y021656D02*
X042173Y021656D01*
X042062Y021815D02*
X041758Y021815D01*
X041639Y021973D02*
X041950Y021973D01*
X041839Y022132D02*
X041520Y022132D01*
X041401Y022290D02*
X041728Y022290D01*
X041616Y022449D02*
X041282Y022449D01*
X041163Y022607D02*
X041505Y022607D01*
X041393Y022766D02*
X041044Y022766D01*
X040925Y022924D02*
X041282Y022924D01*
X041171Y023083D02*
X040806Y023083D01*
X040687Y023241D02*
X041059Y023241D01*
X040948Y023400D02*
X040568Y023400D01*
X040449Y023558D02*
X040836Y023558D01*
X040725Y023717D02*
X040311Y023717D01*
X040614Y023875D02*
X028868Y023875D01*
X028695Y023717D02*
X029046Y023717D01*
X028873Y023558D02*
X028522Y023558D01*
X028349Y023400D02*
X028700Y023400D01*
X028528Y023241D02*
X028177Y023241D01*
X028355Y023083D02*
X026197Y023083D01*
X026086Y022766D02*
X028009Y022766D01*
X028182Y022924D02*
X020730Y022924D01*
X020730Y022766D02*
X025874Y022766D01*
X025656Y022607D02*
X021108Y022607D01*
X021151Y022564D02*
X021044Y022671D01*
X020905Y022728D01*
X020755Y022728D01*
X020730Y022718D01*
X020730Y024890D01*
X020733Y024930D01*
X020730Y024940D01*
X020730Y024950D01*
X020715Y024987D01*
X020702Y025025D01*
X020696Y025032D01*
X020692Y025042D01*
X020664Y025070D01*
X018930Y027092D01*
X018930Y035315D01*
X019001Y035386D01*
X019058Y035525D01*
X019058Y035675D01*
X019001Y035814D01*
X018894Y035921D01*
X018755Y035978D01*
X018655Y035978D01*
X018522Y036112D01*
X018430Y036150D01*
X015130Y036150D01*
X015038Y036112D01*
X014968Y036042D01*
X014653Y035727D01*
X014615Y035635D01*
X014615Y035595D01*
X013995Y035595D01*
X013878Y035478D01*
X013878Y033956D01*
X013830Y034004D01*
X013830Y035596D01*
X014584Y036350D01*
X016395Y036350D01*
X016466Y036279D01*
X016605Y036222D01*
X016755Y036222D01*
X016894Y036279D01*
X017001Y036386D01*
X017058Y036525D01*
X017058Y036675D01*
X017001Y036814D01*
X016894Y036921D01*
X016755Y036978D01*
X016605Y036978D01*
X016466Y036921D01*
X016395Y036850D01*
X014430Y036850D01*
X014338Y036812D01*
X014268Y036742D01*
X013368Y035842D01*
X013330Y035750D01*
X013330Y033850D01*
X013368Y033758D01*
X013438Y033688D01*
X013774Y033353D01*
X013866Y033315D01*
X013878Y033315D01*
X013878Y032860D01*
X013849Y032860D01*
X013805Y032878D01*
X013655Y032878D01*
X013516Y032821D01*
X013409Y032714D01*
X013352Y032575D01*
X013352Y032425D01*
X013409Y032286D01*
X013516Y032179D01*
X013655Y032122D01*
X013805Y032122D01*
X013849Y032140D01*
X013878Y032140D01*
X013878Y031651D01*
X013977Y031552D01*
X013800Y031599D01*
X013489Y031599D01*
X013187Y031519D01*
X012917Y031363D01*
X012697Y031142D01*
X012541Y030872D01*
X012460Y030571D01*
X012460Y030259D01*
X012510Y030075D01*
X012403Y030181D01*
X012133Y030337D01*
X011832Y030418D01*
X011520Y030418D01*
X011219Y030337D01*
X010949Y030181D01*
X010843Y030075D01*
X010892Y030259D01*
X010892Y030571D01*
X010811Y030872D01*
X010655Y031142D01*
X010435Y031363D01*
X010165Y031519D01*
X009863Y031599D01*
X009552Y031599D01*
X009250Y031519D01*
X008980Y031363D01*
X008760Y031142D01*
X008604Y030872D01*
X008523Y030571D01*
X008523Y030259D01*
X008604Y029958D01*
X008760Y029688D01*
X008980Y029467D01*
X009250Y029311D01*
X009552Y029231D01*
X009863Y029231D01*
X010165Y029311D01*
X010435Y029467D01*
X010541Y029574D01*
X010492Y029390D01*
X010492Y029078D01*
X010573Y028777D01*
X010728Y028507D01*
X010949Y028286D01*
X011219Y028130D01*
X011520Y028050D01*
X011832Y028050D01*
X012133Y028130D01*
X012403Y028286D01*
X012624Y028507D01*
X012780Y028777D01*
X012860Y029078D01*
X012860Y029390D01*
X012811Y029574D01*
X012917Y029467D01*
X013187Y029311D01*
X013489Y029231D01*
X013800Y029231D01*
X014102Y029311D01*
X014372Y029467D01*
X014592Y029688D01*
X014748Y029958D01*
X014829Y030259D01*
X014829Y030571D01*
X014748Y030872D01*
X014592Y031142D01*
X014372Y031363D01*
X014102Y031519D01*
X014044Y031534D01*
X015735Y031534D01*
X015852Y031651D01*
X015852Y032040D01*
X016004Y032040D01*
X016004Y031651D01*
X016121Y031534D01*
X017830Y031534D01*
X017830Y027009D01*
X017827Y026968D01*
X017830Y026959D01*
X017830Y026950D01*
X017846Y026912D01*
X017859Y026873D01*
X017865Y026867D01*
X017868Y026858D01*
X017897Y026829D01*
X019830Y024607D01*
X019830Y021585D01*
X019759Y021514D01*
X019702Y021375D01*
X019702Y021225D01*
X019759Y021086D01*
X019866Y020979D01*
X019902Y020965D01*
X019902Y020825D01*
X019959Y020686D01*
X020066Y020579D01*
X020205Y020522D01*
X020355Y020522D01*
X020494Y020579D01*
X020601Y020686D01*
X020658Y020825D01*
X020658Y020975D01*
X020648Y021001D01*
X020674Y021041D01*
X020692Y021058D01*
X020702Y021082D01*
X020716Y021103D01*
X020720Y021127D01*
X020730Y021150D01*
X020730Y021176D01*
X020735Y021200D01*
X020730Y021225D01*
X020730Y021338D01*
X020774Y021320D01*
X021812Y021320D01*
X023218Y019878D01*
X023155Y019878D01*
X023016Y019821D01*
X022909Y019714D01*
X022852Y019575D01*
X022852Y019425D01*
X022870Y019381D01*
X022870Y016778D01*
X022925Y016646D01*
X025119Y014452D01*
X025055Y014478D01*
X024905Y014478D01*
X024766Y014421D01*
X024725Y014380D01*
X023635Y014380D01*
X023594Y014421D01*
X023455Y014478D01*
X023305Y014478D01*
X023260Y014460D01*
X023260Y015476D01*
X023265Y015507D01*
X023260Y015531D01*
X023260Y015556D01*
X023248Y015585D01*
X023241Y015616D01*
X023227Y015636D01*
X023217Y015659D01*
X023195Y015681D01*
X022027Y017336D01*
X022017Y017359D01*
X021995Y017381D01*
X021977Y017407D01*
X021956Y017420D01*
X021939Y017437D01*
X021909Y017450D01*
X021882Y017466D01*
X021858Y017471D01*
X021836Y017480D01*
X021804Y017480D01*
X021773Y017485D01*
X021749Y017480D01*
X020140Y017480D01*
X020158Y017525D01*
X020158Y017675D01*
X020101Y017814D01*
X019994Y017921D01*
X019855Y017978D01*
X019758Y017978D01*
X019758Y018075D01*
X019701Y018214D01*
X019594Y018321D01*
X019455Y018378D01*
X019358Y018378D01*
X019358Y018475D01*
X019301Y018614D01*
X019194Y018721D01*
X019055Y018778D01*
X018958Y018778D01*
X018958Y018875D01*
X018901Y019014D01*
X018794Y019121D01*
X018655Y019178D01*
X018505Y019178D01*
X018366Y019121D01*
X018295Y019050D01*
X017976Y019050D01*
X017978Y019053D01*
X017978Y020716D01*
X018110Y020716D01*
X018202Y020625D01*
X018202Y020525D01*
X018259Y020386D01*
X018366Y020279D01*
X018505Y020222D01*
X018655Y020222D01*
X018794Y020279D01*
X018901Y020386D01*
X018958Y020525D01*
X018958Y020675D01*
X018901Y020814D01*
X018794Y020921D01*
X018655Y020978D01*
X018555Y020978D01*
X018426Y021108D01*
X018355Y021178D01*
X018264Y021216D01*
X017978Y021216D01*
X017978Y022880D01*
X017861Y022997D01*
X017846Y022997D01*
X017842Y023186D01*
X017858Y023225D01*
X017858Y023375D01*
X017801Y023514D01*
X017694Y023621D01*
X017555Y023678D01*
X017405Y023678D01*
X017266Y023621D01*
X017159Y023514D01*
X017102Y023375D01*
X017102Y023225D01*
X017122Y023176D01*
X017125Y022997D01*
X016121Y022997D01*
X016004Y022880D01*
X016004Y020283D01*
X015852Y020283D01*
X015852Y022880D01*
X015735Y022997D01*
X013995Y022997D01*
X013878Y022880D01*
X013878Y022259D01*
X013840Y022259D01*
X013748Y022221D01*
X013305Y021778D01*
X013205Y021778D01*
X013066Y021721D01*
X012959Y021614D01*
X012902Y021475D01*
X012902Y021325D01*
X012959Y021186D01*
X013066Y021079D01*
X013205Y021022D01*
X013355Y021022D01*
X013494Y021079D01*
X013601Y021186D01*
X013658Y021325D01*
X013658Y021425D01*
X013878Y021644D01*
X013878Y021208D01*
X013805Y021178D01*
X013705Y021078D01*
X013605Y021078D01*
X013466Y021021D01*
X013359Y020914D01*
X013302Y020775D01*
X013302Y020625D01*
X013359Y020486D01*
X013466Y020379D01*
X013605Y020322D01*
X013755Y020322D01*
X013878Y020373D01*
X013878Y020207D01*
X013010Y019339D01*
X012966Y019321D01*
X012859Y019214D01*
X012802Y019075D01*
X012802Y018925D01*
X012859Y018786D01*
X012966Y018679D01*
X013105Y018622D01*
X013255Y018622D01*
X013394Y018679D01*
X013501Y018786D01*
X013519Y018830D01*
X013878Y019189D01*
X013878Y019053D01*
X013995Y018935D01*
X015735Y018935D01*
X015852Y019053D01*
X015852Y019563D01*
X016004Y019563D01*
X016004Y019053D01*
X016121Y018935D01*
X016162Y018935D01*
X011438Y014212D01*
X011368Y014142D01*
X011330Y014050D01*
X011330Y010085D01*
X011259Y010014D01*
X011202Y009875D01*
X011202Y009725D01*
X011259Y009586D01*
X011366Y009479D01*
X011505Y009422D01*
X011605Y009422D01*
X011827Y009199D01*
X011919Y009161D01*
X013878Y009161D01*
X013878Y008637D01*
X013794Y008721D01*
X013655Y008778D01*
X013505Y008778D01*
X013366Y008721D01*
X013259Y008614D01*
X013202Y008475D01*
X013202Y008325D01*
X013259Y008186D01*
X013366Y008079D01*
X013505Y008022D01*
X013655Y008022D01*
X013794Y008079D01*
X013832Y008118D01*
X013878Y008118D01*
X013878Y006454D01*
X013995Y006337D01*
X015735Y006337D01*
X015852Y006454D01*
X015852Y006964D01*
X016004Y006964D01*
X016004Y006454D01*
X016121Y006337D01*
X017861Y006337D01*
X017978Y006454D01*
X017978Y006922D01*
X018055Y006922D01*
X018194Y006979D01*
X018301Y007086D01*
X018358Y007225D01*
X018358Y007375D01*
X018301Y007514D01*
X018194Y007621D01*
X018055Y007678D01*
X017978Y007678D01*
X017978Y008118D01*
X017997Y008118D01*
X018089Y008156D01*
X018322Y008388D01*
X018392Y008458D01*
X018430Y008550D01*
X018430Y010750D01*
X018392Y010842D01*
X017592Y011642D01*
X017522Y011712D01*
X017430Y011750D01*
X012865Y011750D01*
X012830Y011785D01*
X012830Y014098D01*
X016554Y017913D01*
X013401Y014574D01*
X013368Y014542D01*
X013367Y014538D01*
X013364Y014536D01*
X013348Y014492D01*
X013330Y014450D01*
X013330Y014446D01*
X013329Y014443D01*
X013330Y014396D01*
X013330Y012485D01*
X013259Y012414D01*
X013202Y012275D01*
X013202Y012125D01*
X013259Y011986D01*
X013366Y011879D01*
X013505Y011822D01*
X013655Y011822D01*
X013794Y011879D01*
X013901Y011986D01*
X013958Y012125D01*
X013958Y012275D01*
X013901Y012414D01*
X013830Y012485D01*
X013830Y014301D01*
X016261Y016874D01*
X014331Y014806D01*
X014330Y014806D01*
X014297Y014770D01*
X014263Y014734D01*
X014263Y014733D01*
X014262Y014733D01*
X014246Y014687D01*
X014228Y014641D01*
X014228Y014640D01*
X014228Y014639D01*
X014230Y014591D01*
X014232Y014542D01*
X014232Y014541D01*
X014318Y012473D01*
X014259Y012414D01*
X014202Y012275D01*
X014202Y012125D01*
X014259Y011986D01*
X014366Y011879D01*
X014505Y011822D01*
X014655Y011822D01*
X014794Y011879D01*
X014901Y011986D01*
X014958Y012125D01*
X014958Y012275D01*
X014901Y012414D01*
X014818Y012497D01*
X014734Y014506D01*
X017389Y017350D01*
X017533Y017350D01*
X017502Y017275D01*
X017502Y017125D01*
X017530Y017058D01*
X016775Y015548D01*
X016768Y015542D01*
X016752Y015504D01*
X016734Y015467D01*
X016734Y015458D01*
X016730Y015450D01*
X016730Y015409D01*
X016727Y015368D01*
X016730Y015359D01*
X016730Y012485D01*
X016659Y012414D01*
X016602Y012275D01*
X016602Y012125D01*
X016659Y011986D01*
X016766Y011879D01*
X016905Y011822D01*
X017055Y011822D01*
X017194Y011879D01*
X017301Y011986D01*
X017358Y012125D01*
X017358Y012275D01*
X017301Y012414D01*
X017230Y012485D01*
X017230Y015341D01*
X017974Y016830D01*
X018094Y016879D01*
X018201Y016986D01*
X018258Y017125D01*
X018258Y017275D01*
X018227Y017350D01*
X018827Y017350D01*
X018029Y016641D01*
X018021Y016637D01*
X017988Y016604D01*
X017952Y016572D01*
X017949Y016565D01*
X017943Y016559D01*
X017924Y016515D01*
X017904Y016472D01*
X017903Y016464D01*
X017900Y016456D01*
X017900Y016408D01*
X017897Y016361D01*
X017900Y016353D01*
X017900Y014644D01*
X017943Y014541D01*
X018021Y014463D01*
X018721Y013763D01*
X018824Y013720D01*
X019153Y013720D01*
X019373Y013500D01*
X019153Y013280D01*
X018907Y013280D01*
X018880Y013285D01*
X018852Y013280D01*
X018824Y013280D01*
X018798Y013269D01*
X018770Y013264D01*
X018747Y013248D01*
X018721Y013237D01*
X018701Y013217D01*
X018678Y013202D01*
X018662Y013178D01*
X018643Y013159D01*
X018632Y013132D01*
X018462Y012878D01*
X018443Y012859D01*
X018432Y012832D01*
X018416Y012809D01*
X018411Y012782D01*
X018400Y012756D01*
X018400Y012727D01*
X018395Y012700D01*
X018400Y012672D01*
X018400Y011640D01*
X018396Y011624D01*
X018400Y011584D01*
X018400Y011544D01*
X018406Y011530D01*
X018408Y011514D01*
X018427Y011479D01*
X018443Y011441D01*
X018454Y011430D01*
X018462Y011416D01*
X018493Y011391D01*
X018521Y011363D01*
X018536Y011357D01*
X018993Y010991D01*
X019021Y010963D01*
X019036Y010957D01*
X019049Y010947D01*
X019087Y010935D01*
X019124Y010920D01*
X019140Y010920D01*
X019156Y010916D01*
X019196Y010920D01*
X021104Y010920D01*
X019043Y008859D01*
X019000Y008756D01*
X019000Y006116D01*
X018464Y005580D01*
X016735Y005580D01*
X016694Y005621D01*
X016555Y005678D01*
X016405Y005678D01*
X016266Y005621D01*
X016159Y005514D01*
X016102Y005375D01*
X016102Y005225D01*
X016159Y005086D01*
X016266Y004979D01*
X016405Y004922D01*
X016555Y004922D01*
X016694Y004979D01*
X016735Y005020D01*
X018636Y005020D01*
X018739Y005063D01*
X018938Y005262D01*
X018902Y005175D01*
X018902Y005025D01*
X018959Y004886D01*
X019066Y004779D01*
X019205Y004722D01*
X019355Y004722D01*
X019494Y004779D01*
X019601Y004886D01*
X019658Y005025D01*
X019658Y005082D01*
X020117Y005541D01*
X020160Y005644D01*
X020160Y008284D01*
X022496Y010620D01*
X026263Y010620D01*
X026301Y010615D01*
X026318Y010620D01*
X026336Y010620D01*
X026371Y010635D01*
X026408Y010645D01*
X026422Y010656D01*
X026439Y010663D01*
X026466Y010690D01*
X028050Y011922D01*
X028155Y011922D01*
X028294Y011979D01*
X028401Y012086D01*
X028458Y012225D01*
X028458Y012375D01*
X028401Y012514D01*
X028294Y012621D01*
X028155Y012678D01*
X028139Y012678D01*
X028158Y012725D01*
X028158Y012875D01*
X028101Y013014D01*
X027994Y013121D01*
X027863Y013175D01*
X028648Y013797D01*
X028666Y013779D01*
X028805Y013722D01*
X028955Y013722D01*
X029094Y013779D01*
X029201Y013886D01*
X029258Y014025D01*
X029258Y014175D01*
X029201Y014314D01*
X029094Y014421D01*
X028955Y014478D01*
X028805Y014478D01*
X028666Y014421D01*
X028625Y014380D01*
X028596Y014380D01*
X028557Y014385D01*
X028541Y014380D01*
X028524Y014380D01*
X028488Y014365D01*
X027658Y014365D01*
X027658Y014375D02*
X027601Y014514D01*
X027494Y014621D01*
X027355Y014678D01*
X027205Y014678D01*
X027161Y014660D01*
X025929Y014660D01*
X024769Y015820D01*
X027745Y015820D01*
X027764Y015815D01*
X027800Y015820D01*
X027836Y015820D01*
X027855Y015828D01*
X027875Y015831D01*
X027906Y015849D01*
X027939Y015863D01*
X027953Y015877D01*
X027971Y015887D01*
X027992Y015916D01*
X028017Y015941D01*
X028025Y015960D01*
X028146Y016122D01*
X028155Y016122D01*
X028294Y016179D01*
X028401Y016286D01*
X028458Y016425D01*
X028458Y016575D01*
X028401Y016714D01*
X028365Y016750D01*
X028401Y016786D01*
X028458Y016925D01*
X028458Y017075D01*
X028440Y017120D01*
X029236Y017120D01*
X029339Y017163D01*
X029639Y017463D01*
X029717Y017541D01*
X029760Y017644D01*
X029760Y018085D01*
X029800Y018045D01*
X029800Y017416D01*
X029362Y016978D01*
X029305Y016978D01*
X029166Y016921D01*
X029059Y016814D01*
X029002Y016675D01*
X029002Y016525D01*
X029059Y016386D01*
X029166Y016279D01*
X029305Y016222D01*
X029455Y016222D01*
X029594Y016279D01*
X029701Y016386D01*
X029758Y016525D01*
X029758Y016582D01*
X030239Y017063D01*
X030317Y017141D01*
X030360Y017244D01*
X030360Y018045D01*
X030401Y018086D01*
X030458Y018225D01*
X030458Y018375D01*
X030401Y018514D01*
X030294Y018621D01*
X030155Y018678D01*
X030005Y018678D01*
X029866Y018621D01*
X029760Y018515D01*
X029760Y019084D01*
X029796Y019120D01*
X030525Y019120D01*
X030566Y019079D01*
X030705Y019022D01*
X030855Y019022D01*
X030994Y019079D01*
X031101Y019186D01*
X031158Y019325D01*
X031158Y019475D01*
X031101Y019614D01*
X030994Y019721D01*
X030855Y019778D01*
X030705Y019778D01*
X030566Y019721D01*
X030525Y019680D01*
X029624Y019680D01*
X029521Y019637D01*
X029443Y019559D01*
X029243Y019359D01*
X029200Y019256D01*
X029200Y019115D01*
X029094Y019221D01*
X028968Y019273D01*
X028560Y019885D01*
X028560Y020045D01*
X028601Y020086D01*
X028658Y020225D01*
X028658Y020375D01*
X028601Y020514D01*
X028494Y020621D01*
X028355Y020678D01*
X028205Y020678D01*
X028066Y020621D01*
X028025Y020580D01*
X024493Y020580D01*
X023108Y021923D01*
X023108Y021975D01*
X023051Y022114D01*
X022944Y022221D01*
X022805Y022278D01*
X022655Y022278D01*
X022516Y022221D01*
X022409Y022114D01*
X022409Y022113D01*
X022218Y022307D01*
X022217Y022309D01*
X022179Y022347D01*
X022141Y022386D01*
X022140Y022386D01*
X022139Y022387D01*
X022088Y022408D01*
X022038Y022429D01*
X022037Y022429D01*
X022036Y022430D01*
X021981Y022430D01*
X021927Y022431D01*
X021926Y022430D01*
X021224Y022430D01*
X021220Y022428D01*
X021207Y022428D01*
X021151Y022564D01*
X021198Y022449D02*
X025602Y022449D01*
X025616Y022290D02*
X022235Y022290D01*
X022390Y022132D02*
X022427Y022132D01*
X022730Y021900D02*
X024380Y020300D01*
X028280Y020300D01*
X028280Y019800D01*
X028880Y018900D01*
X029195Y019120D02*
X029200Y019120D01*
X029209Y019279D02*
X028964Y019279D01*
X028858Y019437D02*
X029321Y019437D01*
X029480Y019596D02*
X028753Y019596D01*
X028647Y019754D02*
X030647Y019754D01*
X030913Y019754D02*
X033817Y019754D01*
X033876Y019695D02*
X034008Y019640D01*
X034066Y019640D01*
X034079Y019609D01*
X034256Y019432D01*
X034488Y019336D01*
X034738Y019336D01*
X034970Y019432D01*
X035147Y019609D01*
X035243Y019841D01*
X035243Y020091D01*
X035147Y020323D01*
X035004Y020466D01*
X035147Y020609D01*
X035243Y020841D01*
X035243Y021091D01*
X035147Y021323D01*
X035004Y021466D01*
X035147Y021609D01*
X035243Y021841D01*
X035243Y022091D01*
X035147Y022323D01*
X034970Y022500D01*
X034738Y022596D01*
X034488Y022596D01*
X034256Y022500D01*
X034079Y022323D01*
X033983Y022091D01*
X033983Y021841D01*
X034079Y021609D01*
X034222Y021466D01*
X034079Y021323D01*
X033983Y021091D01*
X033983Y020841D01*
X034079Y020609D01*
X034222Y020466D01*
X034173Y020417D01*
X033084Y021505D01*
X032952Y021560D01*
X026899Y021560D01*
X026855Y021578D01*
X026705Y021578D01*
X026661Y021560D01*
X024799Y021560D01*
X024755Y021578D01*
X024605Y021578D01*
X024466Y021521D01*
X024359Y021414D01*
X024302Y021275D01*
X024302Y021125D01*
X024359Y020986D01*
X024466Y020879D01*
X024605Y020822D01*
X024755Y020822D01*
X024799Y020840D01*
X026661Y020840D01*
X026705Y020822D01*
X026855Y020822D01*
X026899Y020840D01*
X032731Y020840D01*
X033876Y019695D01*
X034093Y019596D02*
X031108Y019596D01*
X031158Y019437D02*
X034251Y019437D01*
X033658Y019913D02*
X028560Y019913D01*
X028586Y020071D02*
X033500Y020071D01*
X033341Y020230D02*
X028658Y020230D01*
X028653Y020388D02*
X033183Y020388D01*
X033024Y020547D02*
X028568Y020547D01*
X029680Y019400D02*
X030780Y019400D01*
X031035Y019120D02*
X044668Y019120D01*
X044668Y018962D02*
X029760Y018962D01*
X029760Y018803D02*
X044668Y018803D01*
X044668Y018645D02*
X030236Y018645D01*
X030412Y018486D02*
X044668Y018486D01*
X044668Y018328D02*
X030458Y018328D01*
X030435Y018169D02*
X044668Y018169D01*
X044668Y018011D02*
X030360Y018011D01*
X030360Y017852D02*
X044668Y017852D01*
X044668Y017694D02*
X030360Y017694D01*
X030360Y017535D02*
X044668Y017535D01*
X044668Y017377D02*
X030360Y017377D01*
X030349Y017218D02*
X044668Y017218D01*
X044668Y017060D02*
X030236Y017060D01*
X030077Y016901D02*
X044668Y016901D01*
X044668Y016743D02*
X029919Y016743D01*
X029760Y016584D02*
X044668Y016584D01*
X044668Y016426D02*
X029717Y016426D01*
X029564Y016267D02*
X044668Y016267D01*
X044668Y016109D02*
X028136Y016109D01*
X028021Y015950D02*
X044668Y015950D01*
X044668Y015792D02*
X024798Y015792D01*
X024956Y015633D02*
X044668Y015633D01*
X044668Y015475D02*
X025115Y015475D01*
X025273Y015316D02*
X030426Y015316D01*
X030455Y015328D02*
X030316Y015271D01*
X030209Y015164D01*
X030152Y015025D01*
X030152Y014875D01*
X030209Y014736D01*
X030316Y014629D01*
X030455Y014572D01*
X030512Y014572D01*
X030593Y014491D01*
X030671Y014413D01*
X030774Y014370D01*
X031005Y014370D01*
X031006Y014367D01*
X031147Y014226D01*
X031331Y014150D01*
X031147Y014074D01*
X031006Y013933D01*
X030930Y013749D01*
X030930Y013551D01*
X031006Y013367D01*
X031147Y013226D01*
X031331Y013150D01*
X031147Y013074D01*
X031006Y012933D01*
X030930Y012749D01*
X030930Y012551D01*
X031006Y012367D01*
X031147Y012226D01*
X031331Y012150D01*
X031147Y012074D01*
X031006Y011933D01*
X030930Y011749D01*
X030930Y011551D01*
X031006Y011367D01*
X031147Y011226D01*
X031331Y011150D01*
X031147Y011074D01*
X031006Y010933D01*
X030930Y010749D01*
X030930Y010551D01*
X031006Y010367D01*
X031147Y010226D01*
X031331Y010150D01*
X031147Y010074D01*
X031006Y009933D01*
X030930Y009749D01*
X030930Y009551D01*
X031006Y009367D01*
X031147Y009226D01*
X031331Y009150D01*
X032129Y009150D01*
X032313Y009226D01*
X032454Y009367D01*
X032530Y009551D01*
X032530Y009749D01*
X032454Y009933D01*
X032313Y010074D01*
X032129Y010150D01*
X031331Y010150D01*
X032129Y010150D01*
X032313Y010226D01*
X032454Y010367D01*
X032530Y010551D01*
X032530Y010749D01*
X032454Y010933D01*
X032313Y011074D01*
X032129Y011150D01*
X031331Y011150D01*
X032129Y011150D01*
X032313Y011226D01*
X032454Y011367D01*
X032530Y011551D01*
X032530Y011749D01*
X032454Y011933D01*
X032313Y012074D01*
X032129Y012150D01*
X031331Y012150D01*
X032129Y012150D01*
X032313Y012226D01*
X032454Y012367D01*
X032530Y012551D01*
X032530Y012749D01*
X032454Y012933D01*
X032313Y013074D01*
X032129Y013150D01*
X031331Y013150D01*
X032129Y013150D01*
X032313Y013226D01*
X032454Y013367D01*
X032530Y013551D01*
X032530Y013749D01*
X032454Y013933D01*
X032313Y014074D01*
X032129Y014150D01*
X031331Y014150D01*
X032129Y014150D01*
X032313Y014226D01*
X032454Y014367D01*
X032530Y014551D01*
X032530Y014749D01*
X032454Y014933D01*
X032313Y015074D01*
X032129Y015150D01*
X031331Y015150D01*
X031147Y015074D01*
X031006Y014933D01*
X031005Y014930D01*
X030946Y014930D01*
X030908Y014968D01*
X030908Y015025D01*
X030851Y015164D01*
X030744Y015271D01*
X030605Y015328D01*
X030455Y015328D01*
X030634Y015316D02*
X044668Y015316D01*
X044668Y015158D02*
X030853Y015158D01*
X030908Y014999D02*
X031072Y014999D01*
X030830Y014650D02*
X031730Y014650D01*
X032266Y014207D02*
X044668Y014207D01*
X044668Y014365D02*
X032452Y014365D01*
X032519Y014524D02*
X044668Y014524D01*
X044668Y014682D02*
X032530Y014682D01*
X032492Y014841D02*
X044668Y014841D01*
X044668Y014999D02*
X032388Y014999D01*
X032339Y014048D02*
X044668Y014048D01*
X044668Y013890D02*
X032472Y013890D01*
X032530Y013731D02*
X044668Y013731D01*
X044668Y013573D02*
X032530Y013573D01*
X032473Y013414D02*
X044668Y013414D01*
X044668Y013256D02*
X032343Y013256D01*
X032257Y013097D02*
X044668Y013097D01*
X044668Y012939D02*
X032449Y012939D01*
X032517Y012780D02*
X044668Y012780D01*
X044668Y012622D02*
X032530Y012622D01*
X032494Y012463D02*
X044668Y012463D01*
X044668Y012305D02*
X032392Y012305D01*
X032139Y012146D02*
X044668Y012146D01*
X044668Y011988D02*
X032400Y011988D01*
X032497Y011829D02*
X044668Y011829D01*
X044668Y011671D02*
X032530Y011671D01*
X032514Y011512D02*
X044668Y011512D01*
X044668Y011354D02*
X032441Y011354D01*
X032238Y011195D02*
X044668Y011195D01*
X044668Y011037D02*
X032351Y011037D01*
X032477Y010878D02*
X044668Y010878D01*
X044668Y010720D02*
X032530Y010720D01*
X032530Y010561D02*
X044668Y010561D01*
X044668Y010403D02*
X032469Y010403D01*
X032331Y010244D02*
X044668Y010244D01*
X044668Y010086D02*
X032285Y010086D01*
X032456Y009927D02*
X044668Y009927D01*
X044668Y009769D02*
X032522Y009769D01*
X032530Y009610D02*
X044668Y009610D01*
X044668Y009452D02*
X032489Y009452D01*
X032380Y009293D02*
X044668Y009293D01*
X044668Y009135D02*
X030660Y009135D01*
X030660Y009293D02*
X031080Y009293D01*
X030971Y009452D02*
X030660Y009452D01*
X030660Y009610D02*
X030930Y009610D01*
X030938Y009769D02*
X030660Y009769D01*
X030660Y009927D02*
X031004Y009927D01*
X031175Y010086D02*
X030660Y010086D01*
X030660Y010244D02*
X031129Y010244D01*
X030991Y010403D02*
X030660Y010403D01*
X030660Y010561D02*
X030930Y010561D01*
X030930Y010720D02*
X030660Y010720D01*
X030660Y010878D02*
X030983Y010878D01*
X031109Y011037D02*
X030660Y011037D01*
X030660Y011195D02*
X031222Y011195D01*
X031019Y011354D02*
X030660Y011354D01*
X030660Y011512D02*
X030946Y011512D01*
X030930Y011671D02*
X030660Y011671D01*
X030660Y011829D02*
X030963Y011829D01*
X031060Y011988D02*
X030660Y011988D01*
X030660Y012145D02*
X030701Y012186D01*
X030758Y012325D01*
X030758Y012475D01*
X030701Y012614D01*
X030594Y012721D01*
X030455Y012778D01*
X030305Y012778D01*
X030166Y012721D01*
X030059Y012614D01*
X030002Y012475D01*
X030002Y012325D01*
X030059Y012186D01*
X030100Y012145D01*
X030100Y005400D01*
X029347Y004480D01*
X021435Y004480D01*
X021394Y004521D01*
X021255Y004578D01*
X021105Y004578D01*
X020966Y004521D01*
X020859Y004414D01*
X020802Y004275D01*
X020802Y004125D01*
X020859Y003986D01*
X020966Y003879D01*
X021105Y003822D01*
X021255Y003822D01*
X021394Y003879D01*
X021435Y003920D01*
X029439Y003920D01*
X029452Y003916D01*
X029494Y003920D01*
X029536Y003920D01*
X029549Y003926D01*
X029563Y003927D01*
X029600Y003947D01*
X029639Y003963D01*
X029649Y003973D01*
X029661Y003980D01*
X029688Y004012D01*
X029717Y004041D01*
X029723Y004055D01*
X030588Y005112D01*
X030617Y005141D01*
X030623Y005155D01*
X030632Y005166D01*
X030644Y005206D01*
X030660Y005244D01*
X030660Y005259D01*
X030664Y005272D01*
X030660Y005314D01*
X030660Y012145D01*
X030661Y012146D02*
X031321Y012146D01*
X031068Y012305D02*
X030750Y012305D01*
X030758Y012463D02*
X030966Y012463D01*
X030930Y012622D02*
X030693Y012622D01*
X030943Y012780D02*
X028158Y012780D01*
X028132Y012939D02*
X031011Y012939D01*
X031203Y013097D02*
X028018Y013097D01*
X027964Y013256D02*
X031117Y013256D01*
X030987Y013414D02*
X028165Y013414D01*
X028365Y013573D02*
X030930Y013573D01*
X030930Y013731D02*
X028977Y013731D01*
X028783Y013731D02*
X028565Y013731D01*
X028580Y014100D02*
X026180Y012200D01*
X022080Y012200D01*
X021080Y011200D01*
X019180Y011200D01*
X018680Y011600D01*
X018680Y012700D01*
X018880Y013000D01*
X019580Y013000D01*
X019909Y012622D02*
X020251Y012622D01*
X020373Y012500D02*
X020787Y012500D01*
X021080Y012793D01*
X021080Y013207D01*
X020787Y013500D01*
X021080Y013793D01*
X021080Y014207D01*
X020787Y014500D01*
X021080Y014793D01*
X021080Y015207D01*
X020787Y015500D01*
X021080Y015793D01*
X021080Y016207D01*
X020787Y016500D01*
X020373Y016500D01*
X020080Y016207D01*
X019787Y016500D01*
X019376Y016500D01*
X019396Y016520D01*
X021233Y016520D01*
X022200Y015113D01*
X022200Y012644D01*
X022243Y012541D01*
X022304Y012480D01*
X022024Y012480D01*
X021921Y012437D01*
X020964Y011480D01*
X019278Y011480D01*
X018960Y011735D01*
X018960Y012615D01*
X019030Y012720D01*
X019153Y012720D01*
X019373Y012500D01*
X019787Y012500D01*
X020080Y012793D01*
X020080Y013207D01*
X019787Y013500D01*
X019373Y013500D01*
X019787Y013500D01*
X020080Y013793D01*
X020080Y014207D01*
X019787Y014500D01*
X020080Y014793D01*
X020080Y015207D01*
X019787Y015500D01*
X020080Y015793D01*
X020080Y016207D01*
X020080Y015793D01*
X020373Y015500D01*
X020787Y015500D01*
X020373Y015500D01*
X020080Y015207D01*
X020080Y014793D01*
X020373Y014500D01*
X020787Y014500D01*
X020373Y014500D01*
X020080Y014207D01*
X020080Y013793D01*
X020373Y013500D01*
X020787Y013500D01*
X020373Y013500D01*
X020080Y013207D01*
X020080Y012793D01*
X020373Y012500D01*
X020080Y012207D01*
X020080Y011793D01*
X020373Y011500D01*
X020787Y011500D01*
X021080Y011793D01*
X021080Y012207D01*
X020787Y012500D01*
X020373Y012500D01*
X020336Y012463D02*
X019796Y012463D01*
X019779Y012480D02*
X019600Y012480D01*
X019600Y012020D01*
X019560Y012020D01*
X019560Y012480D01*
X019381Y012480D01*
X019100Y012199D01*
X019100Y012020D01*
X019560Y012020D01*
X019560Y011980D01*
X019100Y011980D01*
X019100Y011801D01*
X019381Y011520D01*
X019560Y011520D01*
X019560Y011980D01*
X019600Y011980D01*
X019600Y012020D01*
X020060Y012020D01*
X020060Y012199D01*
X019779Y012480D01*
X019600Y012463D02*
X019560Y012463D01*
X019560Y012305D02*
X019600Y012305D01*
X019600Y012146D02*
X019560Y012146D01*
X019560Y011988D02*
X018960Y011988D01*
X018960Y012146D02*
X019100Y012146D01*
X019206Y012305D02*
X018960Y012305D01*
X018960Y012463D02*
X019364Y012463D01*
X019251Y012622D02*
X018964Y012622D01*
X018502Y012939D02*
X017230Y012939D01*
X017230Y013097D02*
X018608Y013097D01*
X018758Y013256D02*
X017230Y013256D01*
X017230Y013414D02*
X019287Y013414D01*
X019300Y013573D02*
X017230Y013573D01*
X017230Y013731D02*
X018798Y013731D01*
X018594Y013890D02*
X017230Y013890D01*
X017230Y014048D02*
X018436Y014048D01*
X018277Y014207D02*
X017230Y014207D01*
X017230Y014365D02*
X018119Y014365D01*
X017960Y014524D02*
X017230Y014524D01*
X017230Y014682D02*
X017900Y014682D01*
X017900Y014841D02*
X017230Y014841D01*
X017230Y014999D02*
X017900Y014999D01*
X017900Y015158D02*
X017230Y015158D01*
X017230Y015316D02*
X017900Y015316D01*
X017900Y015475D02*
X017297Y015475D01*
X017376Y015633D02*
X017900Y015633D01*
X017900Y015792D02*
X017455Y015792D01*
X017535Y015950D02*
X017900Y015950D01*
X017900Y016109D02*
X017614Y016109D01*
X017693Y016267D02*
X017900Y016267D01*
X017900Y016426D02*
X017772Y016426D01*
X017852Y016584D02*
X017966Y016584D01*
X017931Y016743D02*
X018144Y016743D01*
X018116Y016901D02*
X018322Y016901D01*
X018231Y017060D02*
X018501Y017060D01*
X018679Y017218D02*
X018258Y017218D01*
X017529Y017060D02*
X017118Y017060D01*
X017265Y017218D02*
X017502Y017218D01*
X017451Y016901D02*
X016970Y016901D01*
X016822Y016743D02*
X017372Y016743D01*
X017293Y016584D02*
X016674Y016584D01*
X016526Y016426D02*
X017213Y016426D01*
X017134Y016267D02*
X016378Y016267D01*
X016230Y016109D02*
X017055Y016109D01*
X016976Y015950D02*
X016082Y015950D01*
X015934Y015792D02*
X016896Y015792D01*
X016817Y015633D02*
X015786Y015633D01*
X015638Y015475D02*
X016738Y015475D01*
X016730Y015316D02*
X015490Y015316D01*
X015342Y015158D02*
X016730Y015158D01*
X016730Y014999D02*
X015194Y014999D01*
X015046Y014841D02*
X016730Y014841D01*
X016730Y014682D02*
X014899Y014682D01*
X014751Y014524D02*
X016730Y014524D01*
X016730Y014365D02*
X014740Y014365D01*
X014747Y014207D02*
X016730Y014207D01*
X016730Y014048D02*
X014753Y014048D01*
X014760Y013890D02*
X016730Y013890D01*
X016730Y013731D02*
X014766Y013731D01*
X014773Y013573D02*
X016730Y013573D01*
X016730Y013414D02*
X014780Y013414D01*
X014786Y013256D02*
X016730Y013256D01*
X016730Y013097D02*
X014793Y013097D01*
X014799Y012939D02*
X016730Y012939D01*
X016730Y012780D02*
X014806Y012780D01*
X014813Y012622D02*
X016730Y012622D01*
X016708Y012463D02*
X014852Y012463D01*
X014946Y012305D02*
X016614Y012305D01*
X016602Y012146D02*
X014958Y012146D01*
X014901Y011988D02*
X016659Y011988D01*
X016888Y011829D02*
X014672Y011829D01*
X014488Y011829D02*
X013672Y011829D01*
X013488Y011829D02*
X012830Y011829D01*
X012830Y011988D02*
X013259Y011988D01*
X013202Y012146D02*
X012830Y012146D01*
X012830Y012305D02*
X013214Y012305D01*
X013308Y012463D02*
X012830Y012463D01*
X012830Y012622D02*
X013330Y012622D01*
X013330Y012780D02*
X012830Y012780D01*
X012830Y012939D02*
X013330Y012939D01*
X013330Y013097D02*
X012830Y013097D01*
X012830Y013256D02*
X013330Y013256D01*
X013330Y013414D02*
X012830Y013414D01*
X012830Y013573D02*
X013330Y013573D01*
X013330Y013731D02*
X012830Y013731D01*
X012830Y013890D02*
X013330Y013890D01*
X013330Y014048D02*
X012830Y014048D01*
X012936Y014207D02*
X013330Y014207D01*
X013330Y014365D02*
X013090Y014365D01*
X013245Y014524D02*
X013360Y014524D01*
X013400Y014682D02*
X013502Y014682D01*
X013555Y014841D02*
X013652Y014841D01*
X013709Y014999D02*
X013802Y014999D01*
X013864Y015158D02*
X013952Y015158D01*
X014019Y015316D02*
X014101Y015316D01*
X014174Y015475D02*
X014251Y015475D01*
X014328Y015633D02*
X014401Y015633D01*
X014483Y015792D02*
X014550Y015792D01*
X014638Y015950D02*
X014700Y015950D01*
X014792Y016109D02*
X014850Y016109D01*
X014947Y016267D02*
X014999Y016267D01*
X015102Y016426D02*
X015149Y016426D01*
X015257Y016584D02*
X015299Y016584D01*
X015411Y016743D02*
X015449Y016743D01*
X015566Y016901D02*
X015598Y016901D01*
X015721Y017060D02*
X015748Y017060D01*
X015876Y017218D02*
X015898Y017218D01*
X016030Y017377D02*
X016047Y017377D01*
X016185Y017535D02*
X016197Y017535D01*
X016340Y017694D02*
X016347Y017694D01*
X016494Y017852D02*
X016496Y017852D01*
X015712Y018486D02*
X000380Y018486D01*
X000380Y018328D02*
X015554Y018328D01*
X015395Y018169D02*
X000380Y018169D01*
X000380Y018011D02*
X015237Y018011D01*
X015078Y017852D02*
X000380Y017852D01*
X000380Y017694D02*
X014920Y017694D01*
X014761Y017535D02*
X000380Y017535D01*
X000380Y017377D02*
X014603Y017377D01*
X014444Y017218D02*
X000380Y017218D01*
X000380Y017060D02*
X014286Y017060D01*
X014127Y016901D02*
X000380Y016901D01*
X000380Y016743D02*
X013969Y016743D01*
X013810Y016584D02*
X000380Y016584D01*
X000380Y016426D02*
X013652Y016426D01*
X013493Y016267D02*
X000380Y016267D01*
X000380Y016109D02*
X013335Y016109D01*
X013176Y015950D02*
X000380Y015950D01*
X000380Y015792D02*
X013018Y015792D01*
X012859Y015633D02*
X000380Y015633D01*
X000380Y015475D02*
X012701Y015475D01*
X012542Y015316D02*
X000380Y015316D01*
X000380Y015158D02*
X012384Y015158D01*
X012225Y014999D02*
X000380Y014999D01*
X000380Y014841D02*
X012067Y014841D01*
X011908Y014682D02*
X000380Y014682D01*
X000380Y014524D02*
X011750Y014524D01*
X011591Y014365D02*
X000380Y014365D01*
X000380Y014207D02*
X011433Y014207D01*
X011330Y014048D02*
X000380Y014048D01*
X000380Y013890D02*
X011330Y013890D01*
X011330Y013731D02*
X000380Y013731D01*
X000380Y013573D02*
X011330Y013573D01*
X011330Y013414D02*
X000380Y013414D01*
X000380Y013256D02*
X011330Y013256D01*
X011330Y013097D02*
X000380Y013097D01*
X000380Y012939D02*
X011330Y012939D01*
X011330Y012780D02*
X000380Y012780D01*
X000380Y012622D02*
X011330Y012622D01*
X011330Y012463D02*
X000380Y012463D01*
X000380Y012305D02*
X011330Y012305D01*
X011330Y012146D02*
X000380Y012146D01*
X000380Y011988D02*
X011330Y011988D01*
X011330Y011829D02*
X000380Y011829D01*
X000380Y011671D02*
X011330Y011671D01*
X011330Y011512D02*
X000380Y011512D01*
X000380Y011354D02*
X011330Y011354D01*
X011330Y011195D02*
X000380Y011195D01*
X000380Y011037D02*
X011330Y011037D01*
X011330Y010878D02*
X000380Y010878D01*
X000380Y010720D02*
X011330Y010720D01*
X011330Y010561D02*
X000380Y010561D01*
X000380Y010403D02*
X011330Y010403D01*
X011330Y010244D02*
X000380Y010244D01*
X000380Y010086D02*
X011330Y010086D01*
X011223Y009927D02*
X000380Y009927D01*
X000380Y009769D02*
X011202Y009769D01*
X011249Y009610D02*
X000380Y009610D01*
X000380Y009452D02*
X007248Y009452D01*
X007282Y009471D02*
X007012Y009315D01*
X006791Y009095D01*
X006636Y008825D01*
X006555Y008524D01*
X006555Y008212D01*
X006604Y008028D01*
X006498Y008134D01*
X006228Y008290D01*
X005926Y008371D01*
X005615Y008371D01*
X005313Y008290D01*
X005043Y008134D01*
X004823Y007914D01*
X004667Y007644D01*
X004586Y007343D01*
X004586Y007031D01*
X004667Y006730D01*
X004823Y006459D01*
X005043Y006239D01*
X005313Y006083D01*
X005615Y006002D01*
X005926Y006002D01*
X006228Y006083D01*
X006498Y006239D01*
X006718Y006459D01*
X006874Y006730D01*
X006955Y007031D01*
X006955Y007343D01*
X006906Y007526D01*
X007012Y007420D01*
X007282Y007264D01*
X007583Y007183D01*
X007895Y007183D01*
X008196Y007264D01*
X008466Y007420D01*
X008573Y007526D01*
X008523Y007343D01*
X008523Y007031D01*
X008604Y006730D01*
X008760Y006459D01*
X008980Y006239D01*
X009250Y006083D01*
X009552Y006002D01*
X009863Y006002D01*
X010165Y006083D01*
X010435Y006239D01*
X010655Y006459D01*
X010811Y006730D01*
X010892Y007031D01*
X010892Y007343D01*
X010811Y007644D01*
X010655Y007914D01*
X010435Y008134D01*
X010165Y008290D01*
X009863Y008371D01*
X009552Y008371D01*
X009250Y008290D01*
X008980Y008134D01*
X008874Y008028D01*
X008923Y008212D01*
X008923Y008524D01*
X008843Y008825D01*
X008687Y009095D01*
X008466Y009315D01*
X008196Y009471D01*
X007895Y009552D01*
X007583Y009552D01*
X007282Y009471D01*
X006990Y009293D02*
X000380Y009293D01*
X000380Y009135D02*
X006831Y009135D01*
X006723Y008976D02*
X000380Y008976D01*
X000380Y008818D02*
X006634Y008818D01*
X006591Y008659D02*
X000380Y008659D01*
X000380Y008501D02*
X006555Y008501D01*
X006555Y008342D02*
X006034Y008342D01*
X006412Y008184D02*
X006562Y008184D01*
X006942Y007391D02*
X007062Y007391D01*
X006955Y007233D02*
X007400Y007233D01*
X006955Y007074D02*
X008523Y007074D01*
X008523Y007233D02*
X008078Y007233D01*
X008416Y007391D02*
X008536Y007391D01*
X008554Y006916D02*
X006924Y006916D01*
X006881Y006757D02*
X008597Y006757D01*
X008680Y006599D02*
X006798Y006599D01*
X006699Y006440D02*
X008779Y006440D01*
X008938Y006282D02*
X006540Y006282D01*
X006297Y006123D02*
X009181Y006123D01*
X010234Y006123D02*
X019000Y006123D01*
X019000Y006282D02*
X010477Y006282D01*
X010636Y006440D02*
X013892Y006440D01*
X013878Y006599D02*
X010735Y006599D01*
X010818Y006757D02*
X013878Y006757D01*
X013878Y006916D02*
X010861Y006916D01*
X010892Y007074D02*
X013878Y007074D01*
X013878Y007233D02*
X010892Y007233D01*
X010879Y007391D02*
X013878Y007391D01*
X013878Y007550D02*
X010836Y007550D01*
X010774Y007708D02*
X013878Y007708D01*
X013878Y007867D02*
X010682Y007867D01*
X010544Y008025D02*
X013497Y008025D01*
X013663Y008025D02*
X013878Y008025D01*
X013856Y008659D02*
X013878Y008659D01*
X013878Y008818D02*
X008845Y008818D01*
X008887Y008659D02*
X013304Y008659D01*
X013212Y008501D02*
X008923Y008501D01*
X008923Y008342D02*
X009444Y008342D01*
X009066Y008184D02*
X008916Y008184D01*
X008755Y008976D02*
X013878Y008976D01*
X013878Y009135D02*
X008647Y009135D01*
X008489Y009293D02*
X011733Y009293D01*
X011433Y009452D02*
X008230Y009452D01*
X009971Y008342D02*
X013202Y008342D01*
X013262Y008184D02*
X010349Y008184D01*
X013901Y011988D02*
X014259Y011988D01*
X014202Y012146D02*
X013958Y012146D01*
X013946Y012305D02*
X014214Y012305D01*
X014308Y012463D02*
X013852Y012463D01*
X013830Y012622D02*
X014312Y012622D01*
X014306Y012780D02*
X013830Y012780D01*
X013830Y012939D02*
X014299Y012939D01*
X014292Y013097D02*
X013830Y013097D01*
X013830Y013256D02*
X014286Y013256D01*
X014279Y013414D02*
X013830Y013414D01*
X013830Y013573D02*
X014273Y013573D01*
X014266Y013731D02*
X013830Y013731D01*
X013830Y013890D02*
X014259Y013890D01*
X014253Y014048D02*
X013830Y014048D01*
X013830Y014207D02*
X014246Y014207D01*
X014240Y014365D02*
X013891Y014365D01*
X014041Y014524D02*
X014233Y014524D01*
X014244Y014682D02*
X014190Y014682D01*
X014340Y014841D02*
X014363Y014841D01*
X014490Y014999D02*
X014510Y014999D01*
X014639Y015158D02*
X014658Y015158D01*
X014789Y015316D02*
X014806Y015316D01*
X014939Y015475D02*
X014954Y015475D01*
X015088Y015633D02*
X015102Y015633D01*
X015238Y015792D02*
X015250Y015792D01*
X015388Y015950D02*
X015398Y015950D01*
X015537Y016109D02*
X015546Y016109D01*
X015687Y016267D02*
X015694Y016267D01*
X015837Y016426D02*
X015842Y016426D01*
X015987Y016584D02*
X015990Y016584D01*
X016136Y016743D02*
X016138Y016743D01*
X018180Y016400D02*
X018180Y014700D01*
X018880Y014000D01*
X019580Y014000D01*
X019238Y014365D02*
X018911Y014365D01*
X018996Y014280D02*
X018460Y014816D01*
X018460Y014924D01*
X018621Y014763D01*
X018724Y014720D01*
X019153Y014720D01*
X019373Y014500D01*
X019787Y014500D01*
X019373Y014500D01*
X019153Y014280D01*
X018996Y014280D01*
X018752Y014524D02*
X019349Y014524D01*
X019191Y014682D02*
X018594Y014682D01*
X018543Y014841D02*
X018460Y014841D01*
X018780Y015000D02*
X018580Y015200D01*
X018580Y016100D01*
X019280Y016800D01*
X021380Y016800D01*
X022480Y015200D01*
X022480Y012700D01*
X026080Y012700D01*
X027580Y013900D01*
X027928Y014048D02*
X028063Y014048D01*
X027958Y013975D02*
X027901Y014114D01*
X027794Y014221D01*
X027658Y014277D01*
X027658Y014375D01*
X027591Y014524D02*
X030560Y014524D01*
X030830Y014650D02*
X030530Y014950D01*
X030263Y014682D02*
X025907Y014682D01*
X025749Y014841D02*
X030166Y014841D01*
X030152Y014999D02*
X025590Y014999D01*
X025432Y015158D02*
X030207Y015158D01*
X031008Y014365D02*
X029150Y014365D01*
X029245Y014207D02*
X031194Y014207D01*
X031121Y014048D02*
X029258Y014048D01*
X029202Y013890D02*
X030988Y013890D01*
X030067Y012622D02*
X028292Y012622D01*
X028422Y012463D02*
X030002Y012463D01*
X030010Y012305D02*
X028458Y012305D01*
X028425Y012146D02*
X030099Y012146D01*
X030100Y011988D02*
X028302Y011988D01*
X028080Y012300D02*
X026280Y010900D01*
X022380Y010900D01*
X019880Y008400D01*
X019880Y005700D01*
X019280Y005100D01*
X019570Y004855D02*
X020818Y004855D01*
X020680Y004993D02*
X020973Y004700D01*
X021387Y004700D01*
X021680Y004993D01*
X021680Y005407D01*
X021387Y005700D01*
X021680Y005993D01*
X021680Y006407D01*
X021387Y006700D01*
X020973Y006700D01*
X020680Y006407D01*
X020680Y005993D01*
X020973Y005700D01*
X021387Y005700D01*
X020973Y005700D01*
X020680Y005407D01*
X020680Y004993D01*
X020680Y005014D02*
X019653Y005014D01*
X019748Y005172D02*
X020680Y005172D01*
X020680Y005331D02*
X019906Y005331D01*
X020065Y005489D02*
X020762Y005489D01*
X020920Y005648D02*
X020160Y005648D01*
X020160Y005806D02*
X020867Y005806D01*
X020708Y005965D02*
X020160Y005965D01*
X020160Y006123D02*
X020680Y006123D01*
X020680Y006282D02*
X020160Y006282D01*
X020160Y006440D02*
X020713Y006440D01*
X020871Y006599D02*
X020160Y006599D01*
X020160Y006757D02*
X020943Y006757D01*
X020897Y006776D02*
X021081Y006700D01*
X021279Y006700D01*
X021463Y006776D01*
X021604Y006917D01*
X021680Y007101D01*
X021680Y007299D01*
X021604Y007483D01*
X021463Y007624D01*
X021279Y007700D01*
X021081Y007700D01*
X020897Y007624D01*
X020756Y007483D01*
X020680Y007299D01*
X020680Y007101D01*
X020756Y006917D01*
X020897Y006776D01*
X020757Y006916D02*
X020160Y006916D01*
X020160Y007074D02*
X020691Y007074D01*
X020680Y007233D02*
X020160Y007233D01*
X020160Y007391D02*
X020718Y007391D01*
X020822Y007550D02*
X020160Y007550D01*
X020160Y007708D02*
X030100Y007708D01*
X030100Y007550D02*
X022538Y007550D01*
X022680Y007407D02*
X022387Y007700D01*
X021973Y007700D01*
X021680Y007407D01*
X021680Y006993D01*
X021973Y006700D01*
X022387Y006700D01*
X022680Y006993D01*
X022680Y007407D01*
X022680Y007391D02*
X030100Y007391D01*
X030100Y007233D02*
X022680Y007233D01*
X022680Y007074D02*
X030100Y007074D01*
X030100Y006916D02*
X022603Y006916D01*
X022444Y006757D02*
X030100Y006757D01*
X030100Y006599D02*
X022489Y006599D01*
X022387Y006700D02*
X021973Y006700D01*
X021680Y006407D01*
X021680Y005993D01*
X021973Y005700D01*
X022387Y005700D01*
X022680Y005993D01*
X022680Y006407D01*
X022387Y006700D01*
X022647Y006440D02*
X030100Y006440D01*
X030100Y006282D02*
X022680Y006282D01*
X022680Y006123D02*
X030100Y006123D01*
X030100Y005965D02*
X022652Y005965D01*
X022493Y005806D02*
X030100Y005806D01*
X030100Y005648D02*
X022440Y005648D01*
X022387Y005700D02*
X021973Y005700D01*
X021680Y005407D01*
X021680Y004993D01*
X021973Y004700D01*
X022387Y004700D01*
X022680Y004993D01*
X022680Y005407D01*
X022387Y005700D01*
X022598Y005489D02*
X030100Y005489D01*
X030043Y005331D02*
X022680Y005331D01*
X022680Y005172D02*
X029914Y005172D01*
X029784Y005014D02*
X022680Y005014D01*
X022542Y004855D02*
X029654Y004855D01*
X029524Y004697D02*
X000380Y004697D01*
X000380Y004855D02*
X018990Y004855D01*
X018907Y005014D02*
X016728Y005014D01*
X016480Y005300D02*
X018580Y005300D01*
X019280Y006000D01*
X019280Y008700D01*
X022180Y011600D01*
X026180Y011600D01*
X027780Y012800D01*
X027931Y011829D02*
X030100Y011829D01*
X030100Y011671D02*
X027727Y011671D01*
X027523Y011512D02*
X030100Y011512D01*
X030100Y011354D02*
X027319Y011354D01*
X027115Y011195D02*
X030100Y011195D01*
X030100Y011037D02*
X026912Y011037D01*
X026708Y010878D02*
X030100Y010878D01*
X030100Y010720D02*
X026504Y010720D01*
X026405Y008578D02*
X026255Y008578D01*
X026116Y008521D01*
X026009Y008414D01*
X025952Y008275D01*
X025952Y008125D01*
X026009Y007986D01*
X026116Y007879D01*
X026255Y007822D01*
X026405Y007822D01*
X026544Y007879D01*
X026651Y007986D01*
X026708Y008125D01*
X026708Y008275D01*
X026651Y008414D01*
X026544Y008521D01*
X026405Y008578D01*
X026564Y008501D02*
X030100Y008501D01*
X030100Y008659D02*
X020535Y008659D01*
X020376Y008501D02*
X026096Y008501D01*
X025980Y008342D02*
X020218Y008342D01*
X020160Y008184D02*
X025952Y008184D01*
X025993Y008025D02*
X020160Y008025D01*
X020160Y007867D02*
X026147Y007867D01*
X026513Y007867D02*
X030100Y007867D01*
X030100Y008025D02*
X026667Y008025D01*
X026708Y008184D02*
X030100Y008184D01*
X030100Y008342D02*
X026680Y008342D01*
X030100Y008818D02*
X020693Y008818D01*
X020852Y008976D02*
X030100Y008976D01*
X030100Y009135D02*
X021010Y009135D01*
X021169Y009293D02*
X030100Y009293D01*
X030100Y009452D02*
X021327Y009452D01*
X021486Y009610D02*
X030100Y009610D01*
X030100Y009769D02*
X021644Y009769D01*
X021803Y009927D02*
X030100Y009927D01*
X030100Y010086D02*
X021961Y010086D01*
X022120Y010244D02*
X030100Y010244D01*
X030100Y010403D02*
X022278Y010403D01*
X022437Y010561D02*
X030100Y010561D01*
X030660Y008976D02*
X044668Y008976D01*
X044668Y008818D02*
X030660Y008818D01*
X030660Y008659D02*
X044668Y008659D01*
X044668Y008501D02*
X030660Y008501D01*
X030660Y008342D02*
X044668Y008342D01*
X044668Y008184D02*
X030660Y008184D01*
X030660Y008025D02*
X044668Y008025D01*
X044668Y007867D02*
X030660Y007867D01*
X030660Y007708D02*
X044668Y007708D01*
X044668Y007550D02*
X030660Y007550D01*
X030660Y007391D02*
X044668Y007391D01*
X044668Y007233D02*
X030660Y007233D01*
X030660Y007074D02*
X044668Y007074D01*
X044668Y006916D02*
X030660Y006916D01*
X030660Y006757D02*
X044668Y006757D01*
X044668Y006599D02*
X030660Y006599D01*
X030660Y006440D02*
X044668Y006440D01*
X044668Y006282D02*
X030660Y006282D01*
X030660Y006123D02*
X044668Y006123D01*
X044668Y005965D02*
X030660Y005965D01*
X030660Y005806D02*
X044668Y005806D01*
X044668Y005648D02*
X030660Y005648D01*
X030660Y005489D02*
X044668Y005489D01*
X044668Y005331D02*
X030660Y005331D01*
X030634Y005172D02*
X044668Y005172D01*
X044668Y005014D02*
X030507Y005014D01*
X030378Y004855D02*
X044668Y004855D01*
X044668Y004697D02*
X030248Y004697D01*
X030118Y004538D02*
X044668Y004538D01*
X044668Y004380D02*
X029989Y004380D01*
X029859Y004221D02*
X044668Y004221D01*
X044668Y004063D02*
X029729Y004063D01*
X029480Y004200D02*
X030380Y005300D01*
X030380Y012400D01*
X028880Y014100D02*
X028580Y014100D01*
X028488Y014365D02*
X028450Y014354D01*
X028437Y014344D01*
X028421Y014337D01*
X028393Y014309D01*
X027958Y013965D01*
X027958Y013975D01*
X027808Y014207D02*
X028263Y014207D01*
X027780Y016100D02*
X024780Y016100D01*
X023880Y017000D01*
X023880Y019600D01*
X021930Y021600D01*
X020830Y021600D01*
X020830Y022350D01*
X021180Y022050D02*
X021280Y022150D01*
X021980Y022150D01*
X024480Y019600D01*
X024480Y017100D01*
X024980Y016600D01*
X027380Y016600D01*
X027380Y016700D01*
X027680Y017000D01*
X028080Y017000D01*
X028448Y016901D02*
X029146Y016901D01*
X029030Y016743D02*
X028372Y016743D01*
X028454Y016584D02*
X029002Y016584D01*
X029043Y016426D02*
X028458Y016426D01*
X028382Y016267D02*
X029196Y016267D01*
X029380Y016600D02*
X030080Y017300D01*
X030080Y018300D01*
X029924Y018645D02*
X029760Y018645D01*
X029480Y019200D02*
X029680Y019400D01*
X029480Y019200D02*
X029480Y017700D01*
X029180Y017400D01*
X026880Y017400D01*
X026480Y017000D01*
X027780Y016100D02*
X028080Y016500D01*
X028458Y017060D02*
X029444Y017060D01*
X029394Y017218D02*
X029602Y017218D01*
X029553Y017377D02*
X029761Y017377D01*
X029800Y017535D02*
X029711Y017535D01*
X029760Y017694D02*
X029800Y017694D01*
X029800Y017852D02*
X029760Y017852D01*
X029760Y018011D02*
X029800Y018011D01*
X031139Y019279D02*
X043279Y019279D01*
X043067Y019437D02*
X036975Y019437D01*
X036970Y019432D02*
X037147Y019609D01*
X037243Y019841D01*
X037243Y020091D01*
X037147Y020323D01*
X036970Y020500D01*
X036738Y020596D01*
X036488Y020596D01*
X036256Y020500D01*
X036079Y020323D01*
X035983Y020091D01*
X035983Y019841D01*
X036079Y019609D01*
X036256Y019432D01*
X036488Y019336D01*
X036738Y019336D01*
X036970Y019432D01*
X037133Y019596D02*
X042798Y019596D01*
X042679Y019754D02*
X037207Y019754D01*
X037243Y019913D02*
X042560Y019913D01*
X042441Y020071D02*
X037243Y020071D01*
X037186Y020230D02*
X042322Y020230D01*
X042203Y020388D02*
X037082Y020388D01*
X036858Y020547D02*
X042084Y020547D01*
X041965Y020705D02*
X035187Y020705D01*
X035243Y020864D02*
X041846Y020864D01*
X041727Y021022D02*
X035243Y021022D01*
X035206Y021181D02*
X041608Y021181D01*
X041489Y021339D02*
X036745Y021339D01*
X036738Y021336D02*
X036970Y021432D01*
X037147Y021609D01*
X037243Y021841D01*
X037243Y022091D01*
X037147Y022323D01*
X036970Y022500D01*
X036738Y022596D01*
X036488Y022596D01*
X036256Y022500D01*
X036079Y022323D01*
X035983Y022091D01*
X035983Y021841D01*
X036079Y021609D01*
X036256Y021432D01*
X036488Y021336D01*
X036738Y021336D01*
X036481Y021339D02*
X035131Y021339D01*
X035035Y021498D02*
X036191Y021498D01*
X036060Y021656D02*
X035167Y021656D01*
X035232Y021815D02*
X035994Y021815D01*
X035983Y021973D02*
X035243Y021973D01*
X035226Y022132D02*
X036000Y022132D01*
X036065Y022290D02*
X035161Y022290D01*
X035022Y022449D02*
X036205Y022449D01*
X037022Y022449D02*
X040657Y022449D01*
X040538Y022607D02*
X028576Y022607D01*
X028749Y022766D02*
X040419Y022766D01*
X040300Y022924D02*
X028922Y022924D01*
X029095Y023083D02*
X040181Y023083D01*
X040062Y023241D02*
X029267Y023241D01*
X029041Y024034D02*
X040502Y024034D01*
X040391Y024192D02*
X029214Y024192D01*
X028820Y024509D02*
X028469Y024509D01*
X028642Y024668D02*
X028993Y024668D01*
X028815Y024826D02*
X040942Y024826D01*
X041051Y024668D02*
X040668Y024668D01*
X040779Y024509D02*
X041161Y024509D01*
X041270Y024351D02*
X040891Y024351D01*
X041002Y024192D02*
X041379Y024192D01*
X041489Y024034D02*
X041113Y024034D01*
X041225Y023875D02*
X041598Y023875D01*
X041708Y023717D02*
X041336Y023717D01*
X041448Y023558D02*
X041817Y023558D01*
X041927Y023400D02*
X041559Y023400D01*
X041670Y023241D02*
X042036Y023241D01*
X042146Y023083D02*
X041782Y023083D01*
X041893Y022924D02*
X042255Y022924D01*
X042365Y022766D02*
X042004Y022766D01*
X042116Y022607D02*
X042474Y022607D01*
X042584Y022449D02*
X042227Y022449D01*
X042339Y022290D02*
X042693Y022290D01*
X042802Y022132D02*
X042450Y022132D01*
X042561Y021973D02*
X042921Y021973D01*
X043089Y021815D02*
X042673Y021815D01*
X042784Y021656D02*
X043033Y021656D01*
X043885Y021815D02*
X044668Y021815D01*
X044668Y021973D02*
X043981Y021973D01*
X044017Y022132D02*
X044668Y022132D01*
X044668Y022290D02*
X044009Y022290D01*
X043944Y022449D02*
X044668Y022449D01*
X044668Y022607D02*
X043796Y022607D01*
X043178Y022607D02*
X043082Y022607D01*
X042972Y022766D02*
X044668Y022766D01*
X044668Y022924D02*
X042863Y022924D01*
X042753Y023083D02*
X044668Y023083D01*
X044668Y023241D02*
X042644Y023241D01*
X042534Y023400D02*
X044668Y023400D01*
X044668Y023558D02*
X042425Y023558D01*
X042315Y023717D02*
X044668Y023717D01*
X044668Y023875D02*
X042206Y023875D01*
X042097Y024034D02*
X044668Y024034D01*
X044668Y024192D02*
X041987Y024192D01*
X041878Y024351D02*
X044668Y024351D01*
X044668Y024509D02*
X041768Y024509D01*
X041659Y024668D02*
X044668Y024668D01*
X044668Y024826D02*
X041549Y024826D01*
X041440Y024985D02*
X044668Y024985D01*
X044668Y025143D02*
X041330Y025143D01*
X041221Y025302D02*
X044668Y025302D01*
X044668Y025460D02*
X041111Y025460D01*
X041002Y025619D02*
X044668Y025619D01*
X044668Y025777D02*
X020058Y025777D01*
X020193Y025619D02*
X028939Y025619D01*
X028766Y025460D02*
X020329Y025460D01*
X020465Y025302D02*
X028594Y025302D01*
X028421Y025143D02*
X020601Y025143D01*
X020716Y024985D02*
X028248Y024985D01*
X028075Y024826D02*
X020730Y024826D01*
X020730Y024668D02*
X025713Y024668D01*
X025616Y024509D02*
X020730Y024509D01*
X020730Y024351D02*
X025602Y024351D01*
X025657Y024192D02*
X020730Y024192D01*
X020730Y024034D02*
X025877Y024034D01*
X026083Y024034D02*
X028301Y024034D01*
X028474Y024192D02*
X028126Y024192D01*
X028296Y024351D02*
X028647Y024351D01*
X028988Y024985D02*
X040832Y024985D01*
X040723Y025143D02*
X029161Y025143D01*
X027902Y024668D02*
X026247Y024668D01*
X026198Y023717D02*
X027955Y023717D01*
X028128Y023875D02*
X020730Y023875D01*
X020730Y023717D02*
X025762Y023717D01*
X025636Y023558D02*
X020730Y023558D01*
X020730Y023400D02*
X025602Y023400D01*
X025637Y023241D02*
X020730Y023241D01*
X020730Y023083D02*
X025763Y023083D01*
X025714Y022132D02*
X023033Y022132D01*
X023108Y021973D02*
X033983Y021973D01*
X033994Y021815D02*
X023220Y021815D01*
X023384Y021656D02*
X034060Y021656D01*
X034191Y021498D02*
X033092Y021498D01*
X033250Y021339D02*
X034095Y021339D01*
X034020Y021181D02*
X033409Y021181D01*
X033567Y021022D02*
X033983Y021022D01*
X033983Y020864D02*
X033726Y020864D01*
X033884Y020705D02*
X034039Y020705D01*
X034043Y020547D02*
X034142Y020547D01*
X035084Y020547D02*
X036368Y020547D01*
X036144Y020388D02*
X035082Y020388D01*
X035186Y020230D02*
X036040Y020230D01*
X035983Y020071D02*
X035243Y020071D01*
X035243Y019913D02*
X035983Y019913D01*
X036019Y019754D02*
X035207Y019754D01*
X035133Y019596D02*
X036093Y019596D01*
X036251Y019437D02*
X034975Y019437D01*
X032866Y020705D02*
X024365Y020705D01*
X024504Y020864D02*
X024201Y020864D01*
X024344Y021022D02*
X024038Y021022D01*
X023874Y021181D02*
X024302Y021181D01*
X024328Y021339D02*
X023711Y021339D01*
X023547Y021498D02*
X024443Y021498D01*
X026246Y022132D02*
X034000Y022132D01*
X034065Y022290D02*
X028230Y022290D01*
X028403Y022449D02*
X034205Y022449D01*
X037161Y022290D02*
X040776Y022290D01*
X040894Y022132D02*
X037226Y022132D01*
X037243Y021973D02*
X041013Y021973D01*
X041132Y021815D02*
X037232Y021815D01*
X037167Y021656D02*
X041251Y021656D01*
X041370Y021498D02*
X037035Y021498D01*
X042828Y020388D02*
X042957Y020388D01*
X042947Y020230D02*
X043074Y020230D01*
X043900Y020230D02*
X044668Y020230D01*
X044668Y020388D02*
X044017Y020388D01*
X044017Y020547D02*
X044668Y020547D01*
X044668Y020705D02*
X044017Y020705D01*
X043939Y020864D02*
X044668Y020864D01*
X044668Y021022D02*
X043893Y021022D01*
X043984Y021181D02*
X044668Y021181D01*
X044668Y021339D02*
X044017Y021339D01*
X044006Y021498D02*
X044668Y021498D01*
X044668Y021656D02*
X043941Y021656D01*
X043932Y020071D02*
X044668Y020071D01*
X044668Y019913D02*
X044000Y019913D01*
X044017Y019754D02*
X044668Y019754D01*
X044668Y019596D02*
X043990Y019596D01*
X043908Y019437D02*
X044668Y019437D01*
X044668Y019279D02*
X043695Y019279D01*
X044668Y025936D02*
X019922Y025936D01*
X019786Y026094D02*
X044668Y026094D01*
X044668Y026253D02*
X019650Y026253D01*
X019514Y026411D02*
X044668Y026411D01*
X044668Y026570D02*
X019378Y026570D01*
X019242Y026728D02*
X044668Y026728D01*
X044668Y026887D02*
X019107Y026887D01*
X018971Y027045D02*
X044668Y027045D01*
X044668Y027204D02*
X018930Y027204D01*
X018930Y027362D02*
X044668Y027362D01*
X044668Y027521D02*
X018930Y027521D01*
X018930Y027679D02*
X044668Y027679D01*
X044668Y027838D02*
X018930Y027838D01*
X018930Y027996D02*
X044668Y027996D01*
X044668Y028155D02*
X027569Y028155D01*
X027601Y028186D02*
X027494Y028079D01*
X027355Y028022D01*
X027205Y028022D01*
X027066Y028079D01*
X027025Y028120D01*
X024224Y028120D01*
X024121Y028163D01*
X022421Y029863D01*
X022343Y029941D01*
X022300Y030044D01*
X022300Y037524D01*
X022166Y037579D01*
X022059Y037686D01*
X022045Y037720D01*
X015035Y037720D01*
X014994Y037679D01*
X014855Y037622D01*
X014705Y037622D01*
X014566Y037679D01*
X014459Y037786D01*
X014402Y037925D01*
X014402Y038075D01*
X014459Y038214D01*
X014566Y038321D01*
X014705Y038378D01*
X014855Y038378D01*
X014994Y038321D01*
X015035Y038280D01*
X022236Y038280D01*
X022273Y038265D01*
X022305Y038278D01*
X022455Y038278D01*
X022594Y038221D01*
X022701Y038114D01*
X022758Y037975D01*
X022758Y037918D01*
X022817Y037859D01*
X022860Y037756D01*
X022860Y030216D01*
X024396Y028680D01*
X027025Y028680D01*
X027066Y028721D01*
X027205Y028778D01*
X027355Y028778D01*
X027494Y028721D01*
X027601Y028614D01*
X027658Y028475D01*
X027658Y028325D01*
X027601Y028186D01*
X027653Y028313D02*
X044668Y028313D01*
X044668Y028472D02*
X027658Y028472D01*
X027585Y028630D02*
X044668Y028630D01*
X044668Y028789D02*
X024287Y028789D01*
X024129Y028947D02*
X026133Y028947D01*
X026184Y028895D02*
X026044Y029036D01*
X025967Y029220D01*
X025967Y029268D01*
X025855Y029222D01*
X025705Y029222D01*
X025566Y029279D01*
X025459Y029386D01*
X025431Y029453D01*
X025355Y029422D01*
X025205Y029422D01*
X025066Y029479D01*
X024959Y029586D01*
X024931Y029653D01*
X024855Y029622D01*
X024705Y029622D01*
X024566Y029679D01*
X024459Y029786D01*
X024431Y029853D01*
X024355Y029822D01*
X024205Y029822D01*
X024066Y029879D01*
X023959Y029986D01*
X023902Y030125D01*
X023902Y030275D01*
X023959Y030414D01*
X024066Y030521D01*
X024205Y030578D01*
X024262Y030578D01*
X026500Y032816D01*
X026500Y037045D01*
X026459Y037086D01*
X026402Y037225D01*
X026402Y037375D01*
X026454Y037501D01*
X026430Y037501D01*
X026355Y037513D01*
X026283Y037536D01*
X026216Y037570D01*
X026155Y037615D01*
X026101Y037668D01*
X026057Y037729D01*
X026023Y037796D01*
X025999Y037868D01*
X025987Y037943D01*
X025987Y037981D01*
X026467Y037981D01*
X026467Y037981D01*
X026467Y038461D01*
X026430Y038461D01*
X026355Y038449D01*
X026283Y038426D01*
X026216Y038391D01*
X026155Y038347D01*
X026101Y038293D01*
X026057Y038232D01*
X026023Y038165D01*
X025999Y038093D01*
X025987Y038018D01*
X025987Y037981D01*
X026467Y037981D01*
X026467Y037981D01*
X026467Y038461D01*
X026505Y038461D01*
X026580Y038449D01*
X026652Y038426D01*
X026719Y038391D01*
X026780Y038347D01*
X026834Y038293D01*
X026845Y038278D01*
X026972Y038405D01*
X027155Y038481D01*
X027354Y038481D01*
X027538Y038405D01*
X027649Y038294D01*
X027759Y038405D01*
X027943Y038481D01*
X028142Y038481D01*
X028325Y038405D01*
X028436Y038294D01*
X028546Y038405D01*
X028730Y038481D01*
X028929Y038481D01*
X029113Y038405D01*
X029223Y038294D01*
X029334Y038405D01*
X029518Y038481D01*
X029716Y038481D01*
X029900Y038405D01*
X030011Y038294D01*
X030121Y038405D01*
X030305Y038481D01*
X030504Y038481D01*
X030688Y038405D01*
X030798Y038294D01*
X030909Y038405D01*
X031092Y038481D01*
X031291Y038481D01*
X031475Y038405D01*
X031586Y038294D01*
X031696Y038405D01*
X031880Y038481D01*
X032079Y038481D01*
X032262Y038405D01*
X032373Y038294D01*
X032483Y038405D01*
X032667Y038481D01*
X032866Y038481D01*
X033050Y038405D01*
X033160Y038294D01*
X033271Y038405D01*
X033455Y038481D01*
X033653Y038481D01*
X033837Y038405D01*
X033978Y038264D01*
X034054Y038080D01*
X034054Y037881D01*
X033978Y037697D01*
X033837Y037557D01*
X033653Y037481D01*
X033455Y037481D01*
X033271Y037557D01*
X033160Y037667D01*
X033050Y037557D01*
X032866Y037481D01*
X032667Y037481D01*
X032483Y037557D01*
X032373Y037667D01*
X032341Y037635D01*
X033096Y036880D01*
X034464Y036880D01*
X035202Y037618D01*
X035202Y037675D01*
X035259Y037814D01*
X035366Y037921D01*
X035505Y037978D01*
X035655Y037978D01*
X035794Y037921D01*
X035901Y037814D01*
X035958Y037675D01*
X035958Y037525D01*
X035901Y037386D01*
X035794Y037279D01*
X035655Y037222D01*
X035598Y037222D01*
X034739Y036363D01*
X034636Y036320D01*
X032924Y036320D01*
X032821Y036363D01*
X032743Y036441D01*
X031742Y037442D01*
X031699Y037545D01*
X031699Y037555D01*
X031696Y037557D01*
X031586Y037667D01*
X031475Y037557D01*
X031291Y037481D01*
X031092Y037481D01*
X030909Y037557D01*
X030798Y037667D01*
X030688Y037557D01*
X030504Y037481D01*
X030305Y037481D01*
X030121Y037557D01*
X030011Y037667D01*
X029900Y037557D01*
X029716Y037481D01*
X029518Y037481D01*
X029334Y037557D01*
X029223Y037667D01*
X029113Y037557D01*
X028929Y037481D01*
X028730Y037481D01*
X028546Y037557D01*
X028436Y037667D01*
X028325Y037557D01*
X028142Y037481D01*
X027943Y037481D01*
X027759Y037557D01*
X027649Y037667D01*
X027538Y037557D01*
X027354Y037481D01*
X027155Y037481D01*
X027106Y037501D01*
X027158Y037375D01*
X027158Y037225D01*
X027101Y037086D01*
X027060Y037045D01*
X027060Y036615D01*
X027066Y036621D01*
X027205Y036678D01*
X027355Y036678D01*
X027494Y036621D01*
X027601Y036514D01*
X027629Y036447D01*
X027705Y036478D01*
X027855Y036478D01*
X027994Y036421D01*
X028101Y036314D01*
X028129Y036247D01*
X028205Y036278D01*
X028355Y036278D01*
X028494Y036221D01*
X028601Y036114D01*
X028658Y035975D01*
X028658Y035825D01*
X028601Y035686D01*
X028560Y035645D01*
X028560Y032044D01*
X028517Y031941D01*
X026395Y029819D01*
X026567Y029819D01*
X026751Y029743D01*
X026861Y029633D01*
X026972Y029743D01*
X027155Y029819D01*
X027354Y029819D01*
X027538Y029743D01*
X027649Y029633D01*
X027759Y029743D01*
X027943Y029819D01*
X028142Y029819D01*
X028325Y029743D01*
X028436Y029633D01*
X028546Y029743D01*
X028730Y029819D01*
X028929Y029819D01*
X029113Y029743D01*
X029223Y029633D01*
X029334Y029743D01*
X029518Y029819D01*
X029716Y029819D01*
X029900Y029743D01*
X030011Y029633D01*
X030121Y029743D01*
X030305Y029819D01*
X030504Y029819D01*
X030688Y029743D01*
X030798Y029633D01*
X030909Y029743D01*
X031092Y029819D01*
X031291Y029819D01*
X031475Y029743D01*
X031586Y029633D01*
X031696Y029743D01*
X031880Y029819D01*
X032079Y029819D01*
X032262Y029743D01*
X032373Y029633D01*
X032483Y029743D01*
X032667Y029819D01*
X032866Y029819D01*
X033050Y029743D01*
X033160Y029633D01*
X033271Y029743D01*
X033455Y029819D01*
X033653Y029819D01*
X033837Y029743D01*
X033978Y029603D01*
X034054Y029419D01*
X034054Y029220D01*
X033978Y029036D01*
X033837Y028895D01*
X033653Y028819D01*
X033455Y028819D01*
X033271Y028895D01*
X033160Y029006D01*
X033050Y028895D01*
X032866Y028819D01*
X032667Y028819D01*
X032483Y028895D01*
X032373Y029006D01*
X032262Y028895D01*
X032079Y028819D01*
X031880Y028819D01*
X031696Y028895D01*
X031586Y029006D01*
X031475Y028895D01*
X031291Y028819D01*
X031092Y028819D01*
X030909Y028895D01*
X030798Y029006D01*
X030688Y028895D01*
X030504Y028819D01*
X030305Y028819D01*
X030121Y028895D01*
X030011Y029006D01*
X029900Y028895D01*
X029716Y028819D01*
X029518Y028819D01*
X029334Y028895D01*
X029223Y029006D01*
X029113Y028895D01*
X028929Y028819D01*
X028730Y028819D01*
X028546Y028895D01*
X028436Y029006D01*
X028325Y028895D01*
X028142Y028819D01*
X027943Y028819D01*
X027759Y028895D01*
X027649Y029006D01*
X027538Y028895D01*
X027354Y028819D01*
X027155Y028819D01*
X026972Y028895D01*
X026861Y029006D01*
X026751Y028895D01*
X026567Y028819D01*
X026368Y028819D01*
X026184Y028895D01*
X026015Y029106D02*
X023970Y029106D01*
X023812Y029264D02*
X025603Y029264D01*
X025444Y029423D02*
X025357Y029423D01*
X025203Y029423D02*
X023653Y029423D01*
X023495Y029581D02*
X024964Y029581D01*
X025280Y029800D02*
X027780Y032300D01*
X027780Y036100D01*
X028018Y036397D02*
X032787Y036397D01*
X032629Y036555D02*
X027560Y036555D01*
X027280Y036300D02*
X027280Y032500D01*
X024780Y030000D01*
X024506Y029740D02*
X023336Y029740D01*
X023178Y029898D02*
X024047Y029898D01*
X023930Y030057D02*
X023019Y030057D01*
X022861Y030215D02*
X023902Y030215D01*
X023943Y030374D02*
X022860Y030374D01*
X022860Y030532D02*
X024094Y030532D01*
X024375Y030691D02*
X022860Y030691D01*
X022860Y030849D02*
X024533Y030849D01*
X024692Y031008D02*
X022860Y031008D01*
X022860Y031166D02*
X024850Y031166D01*
X025009Y031325D02*
X022860Y031325D01*
X022860Y031483D02*
X025167Y031483D01*
X025326Y031642D02*
X022860Y031642D01*
X022860Y031800D02*
X025484Y031800D01*
X025643Y031959D02*
X022860Y031959D01*
X022860Y032117D02*
X025801Y032117D01*
X025960Y032276D02*
X022860Y032276D01*
X022860Y032434D02*
X026118Y032434D01*
X026277Y032593D02*
X022860Y032593D01*
X022860Y032751D02*
X026435Y032751D01*
X026500Y032910D02*
X022860Y032910D01*
X022860Y033068D02*
X026500Y033068D01*
X026500Y033227D02*
X022860Y033227D01*
X022860Y033385D02*
X026500Y033385D01*
X026500Y033544D02*
X022860Y033544D01*
X022860Y033702D02*
X026500Y033702D01*
X026500Y033861D02*
X022860Y033861D01*
X022860Y034019D02*
X026500Y034019D01*
X026500Y034178D02*
X022860Y034178D01*
X022860Y034336D02*
X026500Y034336D01*
X026500Y034495D02*
X022860Y034495D01*
X022860Y034653D02*
X026500Y034653D01*
X026500Y034812D02*
X022860Y034812D01*
X022860Y034970D02*
X026500Y034970D01*
X026500Y035129D02*
X022860Y035129D01*
X022860Y035287D02*
X026500Y035287D01*
X026500Y035446D02*
X022860Y035446D01*
X022860Y035604D02*
X026500Y035604D01*
X026500Y035763D02*
X022860Y035763D01*
X022860Y035921D02*
X026500Y035921D01*
X026500Y036080D02*
X022860Y036080D01*
X022860Y036238D02*
X026500Y036238D01*
X026500Y036397D02*
X022860Y036397D01*
X022860Y036555D02*
X026500Y036555D01*
X026500Y036714D02*
X022860Y036714D01*
X022860Y036872D02*
X026500Y036872D01*
X026500Y037031D02*
X022860Y037031D01*
X022860Y037189D02*
X026417Y037189D01*
X026402Y037348D02*
X022860Y037348D01*
X022860Y037506D02*
X026396Y037506D01*
X026105Y037665D02*
X022860Y037665D01*
X022832Y037823D02*
X026014Y037823D01*
X025987Y037982D02*
X022755Y037982D01*
X022675Y038140D02*
X026014Y038140D01*
X026106Y038299D02*
X015016Y038299D01*
X014780Y038000D02*
X022180Y038000D01*
X022380Y037800D01*
X022380Y037900D01*
X022580Y037700D01*
X022580Y030100D01*
X024280Y028400D01*
X027280Y028400D01*
X027590Y028947D02*
X027707Y028947D01*
X028377Y028947D02*
X028495Y028947D01*
X029164Y028947D02*
X029282Y028947D01*
X029330Y029740D02*
X029116Y029740D01*
X028543Y029740D02*
X028329Y029740D01*
X027755Y029740D02*
X027542Y029740D01*
X026968Y029740D02*
X026754Y029740D01*
X026474Y029898D02*
X044668Y029898D01*
X044668Y029740D02*
X033841Y029740D01*
X033987Y029581D02*
X044668Y029581D01*
X044668Y029423D02*
X034052Y029423D01*
X034054Y029264D02*
X044668Y029264D01*
X044668Y029106D02*
X034007Y029106D01*
X033889Y028947D02*
X044668Y028947D01*
X044668Y030057D02*
X026633Y030057D01*
X026791Y030215D02*
X044668Y030215D01*
X044668Y030374D02*
X026950Y030374D01*
X027108Y030532D02*
X044668Y030532D01*
X044668Y030691D02*
X027267Y030691D01*
X027425Y030849D02*
X044668Y030849D01*
X044668Y031008D02*
X027584Y031008D01*
X027742Y031166D02*
X044668Y031166D01*
X044668Y031325D02*
X027901Y031325D01*
X028059Y031483D02*
X044668Y031483D01*
X044668Y031642D02*
X028218Y031642D01*
X028376Y031800D02*
X044668Y031800D01*
X044668Y031959D02*
X028524Y031959D01*
X028560Y032117D02*
X044668Y032117D01*
X044668Y032276D02*
X028560Y032276D01*
X028560Y032434D02*
X044668Y032434D01*
X044668Y032593D02*
X028560Y032593D01*
X028560Y032751D02*
X044668Y032751D01*
X044668Y032910D02*
X028560Y032910D01*
X028560Y033068D02*
X044668Y033068D01*
X044668Y033227D02*
X028560Y033227D01*
X028560Y033385D02*
X044668Y033385D01*
X044668Y033544D02*
X028560Y033544D01*
X028560Y033702D02*
X044668Y033702D01*
X044668Y033861D02*
X028560Y033861D01*
X028560Y034019D02*
X044668Y034019D01*
X044668Y034178D02*
X028560Y034178D01*
X028560Y034336D02*
X044668Y034336D01*
X044668Y034495D02*
X028560Y034495D01*
X028560Y034653D02*
X044668Y034653D01*
X044668Y034812D02*
X028560Y034812D01*
X028560Y034970D02*
X044668Y034970D01*
X044668Y035129D02*
X028560Y035129D01*
X028560Y035287D02*
X044668Y035287D01*
X044668Y035446D02*
X028560Y035446D01*
X028560Y035604D02*
X044668Y035604D01*
X044668Y035763D02*
X028632Y035763D01*
X028658Y035921D02*
X044668Y035921D01*
X044668Y036080D02*
X028615Y036080D01*
X028452Y036238D02*
X044668Y036238D01*
X044668Y036397D02*
X034773Y036397D01*
X034931Y036555D02*
X044668Y036555D01*
X044668Y036714D02*
X035090Y036714D01*
X035248Y036872D02*
X044668Y036872D01*
X044668Y037031D02*
X035407Y037031D01*
X035565Y037189D02*
X044668Y037189D01*
X044668Y037348D02*
X035862Y037348D01*
X035950Y037506D02*
X044668Y037506D01*
X044668Y037665D02*
X035958Y037665D01*
X035892Y037823D02*
X044668Y037823D01*
X044668Y037982D02*
X034054Y037982D01*
X034029Y038140D02*
X044668Y038140D01*
X044668Y038299D02*
X033943Y038299D01*
X033711Y038457D02*
X044668Y038457D01*
X044668Y038616D02*
X000380Y038616D01*
X000380Y038683D02*
X044668Y038683D01*
X044668Y003250D01*
X000380Y003250D01*
X000380Y038683D01*
X000380Y038457D02*
X026407Y038457D01*
X026467Y038457D02*
X026467Y038457D01*
X026528Y038457D02*
X027098Y038457D01*
X026866Y038299D02*
X026828Y038299D01*
X026467Y038299D02*
X026467Y038299D01*
X026467Y038140D02*
X026467Y038140D01*
X026467Y037982D02*
X026467Y037982D01*
X026780Y037300D02*
X026780Y032700D01*
X024280Y030200D01*
X023178Y029106D02*
X018930Y029106D01*
X018930Y029264D02*
X023020Y029264D01*
X022861Y029423D02*
X018930Y029423D01*
X018930Y029581D02*
X022703Y029581D01*
X022544Y029740D02*
X018930Y029740D01*
X018930Y029898D02*
X022386Y029898D01*
X022300Y030057D02*
X018930Y030057D01*
X018930Y030215D02*
X022300Y030215D01*
X022300Y030374D02*
X018930Y030374D01*
X018930Y030532D02*
X022300Y030532D01*
X022300Y030691D02*
X018930Y030691D01*
X018930Y030849D02*
X022300Y030849D01*
X022300Y031008D02*
X018930Y031008D01*
X018930Y031166D02*
X022300Y031166D01*
X022300Y031325D02*
X018930Y031325D01*
X018930Y031483D02*
X022300Y031483D01*
X022300Y031642D02*
X018930Y031642D01*
X018930Y031800D02*
X022300Y031800D01*
X022300Y031959D02*
X018930Y031959D01*
X018930Y032117D02*
X022300Y032117D01*
X022300Y032276D02*
X018930Y032276D01*
X018930Y032434D02*
X022300Y032434D01*
X022300Y032593D02*
X018930Y032593D01*
X018930Y032751D02*
X022300Y032751D01*
X022300Y032910D02*
X018930Y032910D01*
X018930Y033068D02*
X022300Y033068D01*
X022300Y033227D02*
X018930Y033227D01*
X018930Y033385D02*
X022300Y033385D01*
X022300Y033544D02*
X018930Y033544D01*
X018930Y033702D02*
X022300Y033702D01*
X022300Y033861D02*
X018930Y033861D01*
X018930Y034019D02*
X022300Y034019D01*
X022300Y034178D02*
X018930Y034178D01*
X018930Y034336D02*
X022300Y034336D01*
X022300Y034495D02*
X018930Y034495D01*
X018930Y034653D02*
X022300Y034653D01*
X022300Y034812D02*
X018930Y034812D01*
X018930Y034970D02*
X022300Y034970D01*
X022300Y035129D02*
X018930Y035129D01*
X018930Y035287D02*
X022300Y035287D01*
X022300Y035446D02*
X019025Y035446D01*
X019058Y035604D02*
X022300Y035604D01*
X022300Y035763D02*
X019022Y035763D01*
X018893Y035921D02*
X022300Y035921D01*
X022300Y036080D02*
X018554Y036080D01*
X017058Y036555D02*
X022300Y036555D01*
X022300Y036397D02*
X017005Y036397D01*
X016794Y036238D02*
X022300Y036238D01*
X022300Y036714D02*
X017042Y036714D01*
X016943Y036872D02*
X022300Y036872D01*
X022300Y037031D02*
X000380Y037031D01*
X000380Y037189D02*
X022300Y037189D01*
X022300Y037348D02*
X000380Y037348D01*
X000380Y037506D02*
X022300Y037506D01*
X022081Y037665D02*
X014958Y037665D01*
X014602Y037665D02*
X000380Y037665D01*
X000380Y037823D02*
X014444Y037823D01*
X014402Y037982D02*
X000380Y037982D01*
X000380Y038140D02*
X014429Y038140D01*
X014544Y038299D02*
X000380Y038299D01*
X000380Y036872D02*
X016417Y036872D01*
X016566Y036238D02*
X014472Y036238D01*
X014313Y036080D02*
X015006Y036080D01*
X014848Y035921D02*
X014155Y035921D01*
X013996Y035763D02*
X014689Y035763D01*
X014615Y035604D02*
X013838Y035604D01*
X013830Y035446D02*
X013878Y035446D01*
X013878Y035287D02*
X013830Y035287D01*
X013830Y035129D02*
X013878Y035129D01*
X013878Y034970D02*
X013830Y034970D01*
X013830Y034812D02*
X013878Y034812D01*
X013878Y034653D02*
X013830Y034653D01*
X013830Y034495D02*
X013878Y034495D01*
X013878Y034336D02*
X013830Y034336D01*
X013830Y034178D02*
X013878Y034178D01*
X013878Y034019D02*
X013830Y034019D01*
X013330Y034019D02*
X000380Y034019D01*
X000380Y033861D02*
X013330Y033861D01*
X013424Y033702D02*
X000380Y033702D01*
X000380Y033544D02*
X013583Y033544D01*
X013741Y033385D02*
X000380Y033385D01*
X000380Y033227D02*
X013878Y033227D01*
X013878Y033068D02*
X000380Y033068D01*
X000380Y032910D02*
X013878Y032910D01*
X013446Y032751D02*
X000380Y032751D01*
X000380Y032593D02*
X013359Y032593D01*
X013352Y032434D02*
X000380Y032434D01*
X000380Y032276D02*
X013420Y032276D01*
X013878Y032117D02*
X000380Y032117D01*
X000380Y031959D02*
X013878Y031959D01*
X013878Y031800D02*
X000380Y031800D01*
X000380Y031642D02*
X013887Y031642D01*
X014163Y031483D02*
X017830Y031483D01*
X017830Y031325D02*
X014410Y031325D01*
X014568Y031166D02*
X017830Y031166D01*
X017830Y031008D02*
X014670Y031008D01*
X014754Y030849D02*
X017830Y030849D01*
X017830Y030691D02*
X014797Y030691D01*
X014829Y030532D02*
X015494Y030532D01*
X015466Y030521D02*
X015359Y030414D01*
X015302Y030275D01*
X015302Y030125D01*
X015359Y029986D01*
X015430Y029915D01*
X015430Y024885D01*
X015359Y024814D01*
X015302Y024675D01*
X015302Y024525D01*
X015359Y024386D01*
X015466Y024279D01*
X015605Y024222D01*
X015755Y024222D01*
X015894Y024279D01*
X016001Y024386D01*
X016058Y024525D01*
X016058Y024675D01*
X016001Y024814D01*
X015930Y024885D01*
X015930Y029915D01*
X016001Y029986D01*
X016058Y030125D01*
X016058Y030275D01*
X016001Y030414D01*
X015894Y030521D01*
X015755Y030578D01*
X015605Y030578D01*
X015466Y030521D01*
X015343Y030374D02*
X014829Y030374D01*
X014817Y030215D02*
X015302Y030215D01*
X015330Y030057D02*
X014775Y030057D01*
X014714Y029898D02*
X015430Y029898D01*
X015430Y029740D02*
X014622Y029740D01*
X014485Y029581D02*
X015430Y029581D01*
X015430Y029423D02*
X014294Y029423D01*
X013925Y029264D02*
X015430Y029264D01*
X015430Y029106D02*
X012860Y029106D01*
X012860Y029264D02*
X013364Y029264D01*
X012995Y029423D02*
X012852Y029423D01*
X012825Y028947D02*
X015430Y028947D01*
X015430Y028789D02*
X012783Y028789D01*
X012695Y028630D02*
X015430Y028630D01*
X015430Y028472D02*
X012589Y028472D01*
X012430Y028313D02*
X015430Y028313D01*
X015430Y028155D02*
X012175Y028155D01*
X011177Y028155D02*
X004301Y028155D01*
X004259Y028130D02*
X004529Y028286D01*
X004750Y028507D01*
X004906Y028777D01*
X004986Y029078D01*
X004986Y029390D01*
X004937Y029574D01*
X005043Y029467D01*
X005313Y029311D01*
X005615Y029231D01*
X005926Y029231D01*
X006228Y029311D01*
X006498Y029467D01*
X006718Y029688D01*
X006874Y029958D01*
X006955Y030259D01*
X006955Y030571D01*
X006874Y030872D01*
X006718Y031142D01*
X006498Y031363D01*
X006228Y031519D01*
X005926Y031599D01*
X005615Y031599D01*
X005313Y031519D01*
X005043Y031363D01*
X004823Y031142D01*
X004667Y030872D01*
X004586Y030571D01*
X004586Y030259D01*
X004636Y030075D01*
X004529Y030181D01*
X004259Y030337D01*
X003958Y030418D01*
X003646Y030418D01*
X003345Y030337D01*
X003075Y030181D01*
X002969Y030075D01*
X003018Y030259D01*
X003018Y030571D01*
X002937Y030872D01*
X002781Y031142D01*
X002561Y031363D01*
X002291Y031519D01*
X001989Y031599D01*
X001678Y031599D01*
X001376Y031519D01*
X001106Y031363D01*
X000886Y031142D01*
X000730Y030872D01*
X000649Y030571D01*
X000649Y030259D01*
X000730Y029958D01*
X000886Y029688D01*
X001106Y029467D01*
X001376Y029311D01*
X001678Y029231D01*
X001989Y029231D01*
X002291Y029311D01*
X002561Y029467D01*
X002667Y029574D01*
X002618Y029390D01*
X002618Y029078D01*
X002699Y028777D01*
X002854Y028507D01*
X003075Y028286D01*
X003345Y028130D01*
X003646Y028050D01*
X003958Y028050D01*
X004259Y028130D01*
X004556Y028313D02*
X010922Y028313D01*
X010764Y028472D02*
X004715Y028472D01*
X004821Y028630D02*
X010657Y028630D01*
X010569Y028789D02*
X004909Y028789D01*
X004951Y028947D02*
X010527Y028947D01*
X010492Y029106D02*
X004986Y029106D01*
X004986Y029264D02*
X005490Y029264D01*
X005121Y029423D02*
X004978Y029423D01*
X004598Y030215D02*
X004471Y030215D01*
X004586Y030374D02*
X004124Y030374D01*
X004586Y030532D02*
X003018Y030532D01*
X003018Y030374D02*
X003480Y030374D01*
X003133Y030215D02*
X003006Y030215D01*
X002986Y030691D02*
X004618Y030691D01*
X004661Y030849D02*
X002943Y030849D01*
X002859Y031008D02*
X004745Y031008D01*
X004847Y031166D02*
X002757Y031166D01*
X002599Y031325D02*
X005005Y031325D01*
X005252Y031483D02*
X002352Y031483D01*
X001315Y031483D02*
X000380Y031483D01*
X000380Y031325D02*
X001068Y031325D01*
X000910Y031166D02*
X000380Y031166D01*
X000380Y031008D02*
X000808Y031008D01*
X000724Y030849D02*
X000380Y030849D01*
X000380Y030691D02*
X000681Y030691D01*
X000649Y030532D02*
X000380Y030532D01*
X000380Y030374D02*
X000649Y030374D01*
X000661Y030215D02*
X000380Y030215D01*
X000380Y030057D02*
X000704Y030057D01*
X000765Y029898D02*
X000380Y029898D01*
X000380Y029740D02*
X000856Y029740D01*
X000993Y029581D02*
X000380Y029581D01*
X000380Y029423D02*
X001184Y029423D01*
X001553Y029264D02*
X000380Y029264D01*
X000380Y029106D02*
X002618Y029106D01*
X002618Y029264D02*
X002114Y029264D01*
X002483Y029423D02*
X002627Y029423D01*
X002653Y028947D02*
X000380Y028947D01*
X000380Y028789D02*
X002695Y028789D01*
X002783Y028630D02*
X000380Y028630D01*
X000380Y028472D02*
X002890Y028472D01*
X003048Y028313D02*
X000380Y028313D01*
X000380Y028155D02*
X003303Y028155D01*
X006051Y029264D02*
X009427Y029264D01*
X009058Y029423D02*
X006420Y029423D01*
X006611Y029581D02*
X008867Y029581D01*
X008730Y029740D02*
X006748Y029740D01*
X006840Y029898D02*
X008639Y029898D01*
X008578Y030057D02*
X006901Y030057D01*
X006943Y030215D02*
X008535Y030215D01*
X008523Y030374D02*
X006955Y030374D01*
X006955Y030532D02*
X008523Y030532D01*
X008555Y030691D02*
X006923Y030691D01*
X006880Y030849D02*
X008598Y030849D01*
X008682Y031008D02*
X006796Y031008D01*
X006694Y031166D02*
X008784Y031166D01*
X008942Y031325D02*
X006536Y031325D01*
X006289Y031483D02*
X009189Y031483D01*
X010226Y031483D02*
X013126Y031483D01*
X012879Y031325D02*
X010473Y031325D01*
X010631Y031166D02*
X012721Y031166D01*
X012619Y031008D02*
X010733Y031008D01*
X010817Y030849D02*
X012535Y030849D01*
X012492Y030691D02*
X010860Y030691D01*
X010892Y030532D02*
X012460Y030532D01*
X012460Y030374D02*
X011998Y030374D01*
X012345Y030215D02*
X012472Y030215D01*
X011354Y030374D02*
X010892Y030374D01*
X010880Y030215D02*
X011007Y030215D01*
X010501Y029423D02*
X010357Y029423D01*
X010492Y029264D02*
X009988Y029264D01*
X015430Y027996D02*
X000380Y027996D01*
X000380Y027838D02*
X015430Y027838D01*
X015430Y027679D02*
X000380Y027679D01*
X000380Y027521D02*
X015430Y027521D01*
X015430Y027362D02*
X000380Y027362D01*
X000380Y027204D02*
X015430Y027204D01*
X015430Y027045D02*
X000380Y027045D01*
X000380Y026887D02*
X015430Y026887D01*
X015430Y026728D02*
X000380Y026728D01*
X000380Y026570D02*
X015430Y026570D01*
X015430Y026411D02*
X000380Y026411D01*
X000380Y026253D02*
X015430Y026253D01*
X015430Y026094D02*
X000380Y026094D01*
X000380Y025936D02*
X015430Y025936D01*
X015430Y025777D02*
X000380Y025777D01*
X000380Y025619D02*
X015430Y025619D01*
X015430Y025460D02*
X000380Y025460D01*
X000380Y025302D02*
X015430Y025302D01*
X015430Y025143D02*
X000380Y025143D01*
X000380Y024985D02*
X015430Y024985D01*
X015371Y024826D02*
X000380Y024826D01*
X000380Y024668D02*
X015302Y024668D01*
X015308Y024509D02*
X000380Y024509D01*
X000380Y024351D02*
X015395Y024351D01*
X015965Y024351D02*
X016395Y024351D01*
X016359Y024386D02*
X016466Y024279D01*
X016605Y024222D01*
X016755Y024222D01*
X016894Y024279D01*
X017001Y024386D01*
X017058Y024525D01*
X017058Y024675D01*
X017001Y024814D01*
X016930Y024885D01*
X016930Y029915D01*
X017001Y029986D01*
X017058Y030125D01*
X017058Y030275D01*
X017001Y030414D01*
X016894Y030521D01*
X016755Y030578D01*
X016605Y030578D01*
X016466Y030521D01*
X016359Y030414D01*
X016302Y030275D01*
X016302Y030125D01*
X016359Y029986D01*
X016430Y029915D01*
X016430Y024885D01*
X016359Y024814D01*
X016302Y024675D01*
X016302Y024525D01*
X016359Y024386D01*
X016308Y024509D02*
X016052Y024509D01*
X016058Y024668D02*
X016302Y024668D01*
X016371Y024826D02*
X015989Y024826D01*
X015930Y024985D02*
X016430Y024985D01*
X016430Y025143D02*
X015930Y025143D01*
X015930Y025302D02*
X016430Y025302D01*
X016430Y025460D02*
X015930Y025460D01*
X015930Y025619D02*
X016430Y025619D01*
X016430Y025777D02*
X015930Y025777D01*
X015930Y025936D02*
X016430Y025936D01*
X016430Y026094D02*
X015930Y026094D01*
X015930Y026253D02*
X016430Y026253D01*
X016430Y026411D02*
X015930Y026411D01*
X015930Y026570D02*
X016430Y026570D01*
X016430Y026728D02*
X015930Y026728D01*
X015930Y026887D02*
X016430Y026887D01*
X016430Y027045D02*
X015930Y027045D01*
X015930Y027204D02*
X016430Y027204D01*
X016430Y027362D02*
X015930Y027362D01*
X015930Y027521D02*
X016430Y027521D01*
X016430Y027679D02*
X015930Y027679D01*
X015930Y027838D02*
X016430Y027838D01*
X016430Y027996D02*
X015930Y027996D01*
X015930Y028155D02*
X016430Y028155D01*
X016430Y028313D02*
X015930Y028313D01*
X015930Y028472D02*
X016430Y028472D01*
X016430Y028630D02*
X015930Y028630D01*
X015930Y028789D02*
X016430Y028789D01*
X016430Y028947D02*
X015930Y028947D01*
X015930Y029106D02*
X016430Y029106D01*
X016430Y029264D02*
X015930Y029264D01*
X015930Y029423D02*
X016430Y029423D01*
X016430Y029581D02*
X015930Y029581D01*
X015930Y029740D02*
X016430Y029740D01*
X016430Y029898D02*
X015930Y029898D01*
X016030Y030057D02*
X016330Y030057D01*
X016302Y030215D02*
X016058Y030215D01*
X016017Y030374D02*
X016343Y030374D01*
X016494Y030532D02*
X015866Y030532D01*
X016866Y030532D02*
X017830Y030532D01*
X017830Y030374D02*
X017017Y030374D01*
X017058Y030215D02*
X017830Y030215D01*
X017830Y030057D02*
X017030Y030057D01*
X016930Y029898D02*
X017830Y029898D01*
X017830Y029740D02*
X016930Y029740D01*
X016930Y029581D02*
X017830Y029581D01*
X017830Y029423D02*
X016930Y029423D01*
X016930Y029264D02*
X017830Y029264D01*
X017830Y029106D02*
X016930Y029106D01*
X016930Y028947D02*
X017830Y028947D01*
X017830Y028789D02*
X016930Y028789D01*
X016930Y028630D02*
X017830Y028630D01*
X017830Y028472D02*
X016930Y028472D01*
X016930Y028313D02*
X017830Y028313D01*
X017830Y028155D02*
X016930Y028155D01*
X016930Y027996D02*
X017830Y027996D01*
X017830Y027838D02*
X016930Y027838D01*
X016930Y027679D02*
X017830Y027679D01*
X017830Y027521D02*
X016930Y027521D01*
X016930Y027362D02*
X017830Y027362D01*
X017830Y027204D02*
X016930Y027204D01*
X016930Y027045D02*
X017830Y027045D01*
X017854Y026887D02*
X016930Y026887D01*
X016930Y026728D02*
X017985Y026728D01*
X018123Y026570D02*
X016930Y026570D01*
X016930Y026411D02*
X018261Y026411D01*
X018399Y026253D02*
X016930Y026253D01*
X016930Y026094D02*
X018536Y026094D01*
X018674Y025936D02*
X016930Y025936D01*
X016930Y025777D02*
X018812Y025777D01*
X018950Y025619D02*
X016930Y025619D01*
X016930Y025460D02*
X019088Y025460D01*
X019226Y025302D02*
X016930Y025302D01*
X016930Y025143D02*
X019363Y025143D01*
X019501Y024985D02*
X016930Y024985D01*
X016989Y024826D02*
X019639Y024826D01*
X019777Y024668D02*
X017058Y024668D01*
X017052Y024509D02*
X019830Y024509D01*
X019830Y024351D02*
X016965Y024351D01*
X017203Y023558D02*
X000380Y023558D01*
X000380Y023400D02*
X017112Y023400D01*
X017102Y023241D02*
X000380Y023241D01*
X000380Y023083D02*
X017124Y023083D01*
X017844Y023083D02*
X019830Y023083D01*
X019830Y023241D02*
X017858Y023241D01*
X017848Y023400D02*
X019830Y023400D01*
X019830Y023558D02*
X017757Y023558D01*
X017934Y022924D02*
X019830Y022924D01*
X019830Y022766D02*
X017978Y022766D01*
X017978Y022607D02*
X019830Y022607D01*
X019830Y022449D02*
X017978Y022449D01*
X017978Y022290D02*
X019830Y022290D01*
X019830Y022132D02*
X017978Y022132D01*
X017978Y021973D02*
X019830Y021973D01*
X019830Y021815D02*
X017978Y021815D01*
X017978Y021656D02*
X019830Y021656D01*
X019753Y021498D02*
X017978Y021498D01*
X017978Y021339D02*
X019702Y021339D01*
X019720Y021181D02*
X018350Y021181D01*
X018512Y021022D02*
X019823Y021022D01*
X019902Y020864D02*
X018851Y020864D01*
X018946Y020705D02*
X019951Y020705D01*
X020145Y020547D02*
X018958Y020547D01*
X018901Y020388D02*
X022721Y020388D01*
X022875Y020230D02*
X018674Y020230D01*
X018486Y020230D02*
X017978Y020230D01*
X017978Y020388D02*
X018259Y020388D01*
X018202Y020547D02*
X017978Y020547D01*
X017978Y020705D02*
X018121Y020705D01*
X017978Y020071D02*
X023030Y020071D01*
X023184Y019913D02*
X017978Y019913D01*
X017978Y019754D02*
X022949Y019754D01*
X022860Y019596D02*
X017978Y019596D01*
X017978Y019437D02*
X022852Y019437D01*
X022870Y019279D02*
X017978Y019279D01*
X017978Y019120D02*
X018365Y019120D01*
X018795Y019120D02*
X022870Y019120D01*
X022870Y018962D02*
X018922Y018962D01*
X018958Y018803D02*
X022870Y018803D01*
X022870Y018645D02*
X019270Y018645D01*
X019354Y018486D02*
X022870Y018486D01*
X022870Y018328D02*
X019577Y018328D01*
X019719Y018169D02*
X022870Y018169D01*
X022870Y018011D02*
X019758Y018011D01*
X020063Y017852D02*
X022870Y017852D01*
X022870Y017694D02*
X020151Y017694D01*
X020158Y017535D02*
X022870Y017535D01*
X022870Y017377D02*
X021999Y017377D01*
X022110Y017218D02*
X022870Y017218D01*
X022870Y017060D02*
X022222Y017060D01*
X022334Y016901D02*
X022870Y016901D01*
X022885Y016743D02*
X022446Y016743D01*
X022558Y016584D02*
X022987Y016584D01*
X023145Y016426D02*
X022669Y016426D01*
X022781Y016267D02*
X023304Y016267D01*
X023462Y016109D02*
X022893Y016109D01*
X023005Y015950D02*
X023621Y015950D01*
X023779Y015792D02*
X023117Y015792D01*
X023229Y015633D02*
X023938Y015633D01*
X024096Y015475D02*
X023260Y015475D01*
X023260Y015316D02*
X024255Y015316D01*
X024413Y015158D02*
X023260Y015158D01*
X023260Y014999D02*
X024572Y014999D01*
X024730Y014841D02*
X023260Y014841D01*
X023260Y014682D02*
X024889Y014682D01*
X025047Y014524D02*
X023260Y014524D01*
X023380Y014100D02*
X024980Y014100D01*
X025780Y013200D02*
X022980Y013200D01*
X022980Y015500D01*
X021780Y017200D01*
X019080Y017200D01*
X018180Y016400D01*
X018860Y015984D02*
X019080Y016204D01*
X019080Y015793D01*
X019373Y015500D01*
X019787Y015500D01*
X019373Y015500D01*
X019153Y015280D01*
X018896Y015280D01*
X018860Y015316D01*
X018860Y015984D01*
X018860Y015950D02*
X019080Y015950D01*
X019081Y015792D02*
X018860Y015792D01*
X018860Y015633D02*
X019240Y015633D01*
X019347Y015475D02*
X018860Y015475D01*
X018860Y015316D02*
X019189Y015316D01*
X019580Y015000D02*
X018780Y015000D01*
X018985Y016109D02*
X019080Y016109D01*
X019862Y016426D02*
X020298Y016426D01*
X020140Y016267D02*
X020020Y016267D01*
X020080Y016109D02*
X020080Y016109D01*
X020080Y015950D02*
X020080Y015950D01*
X020079Y015792D02*
X020081Y015792D01*
X020240Y015633D02*
X019920Y015633D01*
X019813Y015475D02*
X020347Y015475D01*
X020189Y015316D02*
X019971Y015316D01*
X020080Y015158D02*
X020080Y015158D01*
X020080Y014999D02*
X020080Y014999D01*
X020080Y014841D02*
X020080Y014841D01*
X019969Y014682D02*
X020191Y014682D01*
X020349Y014524D02*
X019811Y014524D01*
X019922Y014365D02*
X020238Y014365D01*
X020080Y014207D02*
X020080Y014207D01*
X020080Y014048D02*
X020080Y014048D01*
X020080Y013890D02*
X020080Y013890D01*
X020018Y013731D02*
X020142Y013731D01*
X020300Y013573D02*
X019860Y013573D01*
X019873Y013414D02*
X020287Y013414D01*
X020128Y013256D02*
X020032Y013256D01*
X020080Y013097D02*
X020080Y013097D01*
X020080Y012939D02*
X020080Y012939D01*
X020067Y012780D02*
X020093Y012780D01*
X020177Y012305D02*
X019954Y012305D01*
X020060Y012146D02*
X020080Y012146D01*
X020080Y011988D02*
X019600Y011988D01*
X019600Y011980D02*
X020060Y011980D01*
X020060Y011801D01*
X019779Y011520D01*
X019600Y011520D01*
X019600Y011980D01*
X019600Y011829D02*
X019560Y011829D01*
X019560Y011671D02*
X019600Y011671D01*
X019929Y011671D02*
X020202Y011671D01*
X020080Y011829D02*
X020060Y011829D01*
X020361Y011512D02*
X019238Y011512D01*
X019231Y011671D02*
X019040Y011671D01*
X019100Y011829D02*
X018960Y011829D01*
X018400Y011829D02*
X017072Y011829D01*
X017301Y011988D02*
X018400Y011988D01*
X018400Y012146D02*
X017358Y012146D01*
X017346Y012305D02*
X018400Y012305D01*
X018400Y012463D02*
X017252Y012463D01*
X017230Y012622D02*
X018400Y012622D01*
X018410Y012780D02*
X017230Y012780D01*
X017563Y011671D02*
X018400Y011671D01*
X018409Y011512D02*
X017722Y011512D01*
X017880Y011354D02*
X018540Y011354D01*
X018738Y011195D02*
X018039Y011195D01*
X018197Y011037D02*
X018936Y011037D01*
X018430Y010720D02*
X020904Y010720D01*
X021062Y010878D02*
X018356Y010878D01*
X018430Y010561D02*
X020745Y010561D01*
X020587Y010403D02*
X018430Y010403D01*
X018430Y010244D02*
X020428Y010244D01*
X020270Y010086D02*
X018430Y010086D01*
X018430Y009927D02*
X020111Y009927D01*
X019953Y009769D02*
X018430Y009769D01*
X018430Y009610D02*
X019794Y009610D01*
X019636Y009452D02*
X018430Y009452D01*
X018430Y009293D02*
X019477Y009293D01*
X019319Y009135D02*
X018430Y009135D01*
X018430Y008976D02*
X019160Y008976D01*
X019026Y008818D02*
X018430Y008818D01*
X018430Y008659D02*
X019000Y008659D01*
X019000Y008501D02*
X018409Y008501D01*
X018276Y008342D02*
X019000Y008342D01*
X019000Y008184D02*
X018117Y008184D01*
X017978Y008025D02*
X019000Y008025D01*
X019000Y007867D02*
X017978Y007867D01*
X017978Y007708D02*
X019000Y007708D01*
X019000Y007550D02*
X018265Y007550D01*
X018352Y007391D02*
X019000Y007391D01*
X019000Y007233D02*
X018358Y007233D01*
X018289Y007074D02*
X019000Y007074D01*
X019000Y006916D02*
X017978Y006916D01*
X017978Y006757D02*
X019000Y006757D01*
X019000Y006599D02*
X017978Y006599D01*
X017964Y006440D02*
X019000Y006440D01*
X018849Y005965D02*
X000380Y005965D01*
X000380Y006123D02*
X005244Y006123D01*
X005001Y006282D02*
X000380Y006282D01*
X000380Y006440D02*
X004842Y006440D01*
X004743Y006599D02*
X000380Y006599D01*
X000380Y006757D02*
X004660Y006757D01*
X004617Y006916D02*
X000380Y006916D01*
X000380Y007074D02*
X004586Y007074D01*
X004586Y007233D02*
X000380Y007233D01*
X000380Y007391D02*
X004599Y007391D01*
X004642Y007550D02*
X000380Y007550D01*
X000380Y007708D02*
X004704Y007708D01*
X004796Y007867D02*
X000380Y007867D01*
X000380Y008025D02*
X004934Y008025D01*
X005129Y008184D02*
X000380Y008184D01*
X000380Y008342D02*
X005507Y008342D01*
X000380Y005806D02*
X018690Y005806D01*
X018532Y005648D02*
X016629Y005648D01*
X016331Y005648D02*
X000380Y005648D01*
X000380Y005489D02*
X016149Y005489D01*
X016102Y005331D02*
X000380Y005331D01*
X000380Y005172D02*
X016124Y005172D01*
X016232Y005014D02*
X000380Y005014D01*
X000380Y004538D02*
X021008Y004538D01*
X020845Y004380D02*
X000380Y004380D01*
X000380Y004221D02*
X020802Y004221D01*
X020828Y004063D02*
X000380Y004063D01*
X000380Y003904D02*
X020941Y003904D01*
X021180Y004200D02*
X029480Y004200D01*
X029395Y004538D02*
X021352Y004538D01*
X021542Y004855D02*
X021818Y004855D01*
X021680Y005014D02*
X021680Y005014D01*
X021680Y005172D02*
X021680Y005172D01*
X021680Y005331D02*
X021680Y005331D01*
X021598Y005489D02*
X021762Y005489D01*
X021920Y005648D02*
X021440Y005648D01*
X021493Y005806D02*
X021867Y005806D01*
X021708Y005965D02*
X021652Y005965D01*
X021680Y006123D02*
X021680Y006123D01*
X021680Y006282D02*
X021680Y006282D01*
X021647Y006440D02*
X021713Y006440D01*
X021871Y006599D02*
X021489Y006599D01*
X021417Y006757D02*
X021916Y006757D01*
X021757Y006916D02*
X021603Y006916D01*
X021669Y007074D02*
X021680Y007074D01*
X021680Y007233D02*
X021680Y007233D01*
X021680Y007391D02*
X021642Y007391D01*
X021538Y007550D02*
X021822Y007550D01*
X018902Y005172D02*
X018848Y005172D01*
X021419Y003904D02*
X044668Y003904D01*
X044668Y003746D02*
X000380Y003746D01*
X000380Y003587D02*
X044668Y003587D01*
X044668Y003429D02*
X000380Y003429D01*
X000380Y003270D02*
X044668Y003270D01*
X022566Y020547D02*
X020415Y020547D01*
X020609Y020705D02*
X022412Y020705D01*
X022257Y020864D02*
X020658Y020864D01*
X020662Y021022D02*
X022102Y021022D01*
X021948Y021181D02*
X020731Y021181D01*
X019830Y023717D02*
X000380Y023717D01*
X000380Y023875D02*
X019830Y023875D01*
X019830Y024034D02*
X000380Y024034D01*
X000380Y024192D02*
X019830Y024192D01*
X016048Y022924D02*
X015808Y022924D01*
X015852Y022766D02*
X016004Y022766D01*
X016004Y022607D02*
X015852Y022607D01*
X015852Y022449D02*
X016004Y022449D01*
X016004Y022290D02*
X015852Y022290D01*
X015852Y022132D02*
X016004Y022132D01*
X016004Y021973D02*
X015852Y021973D01*
X015852Y021815D02*
X016004Y021815D01*
X016004Y021656D02*
X015852Y021656D01*
X015852Y021498D02*
X016004Y021498D01*
X016004Y021339D02*
X015852Y021339D01*
X015852Y021181D02*
X016004Y021181D01*
X016004Y021022D02*
X015852Y021022D01*
X015852Y020864D02*
X016004Y020864D01*
X016004Y020705D02*
X015852Y020705D01*
X015852Y020547D02*
X016004Y020547D01*
X016004Y020388D02*
X015852Y020388D01*
X015852Y019437D02*
X016004Y019437D01*
X016004Y019279D02*
X015852Y019279D01*
X015852Y019120D02*
X016004Y019120D01*
X016095Y018962D02*
X015761Y018962D01*
X016029Y018803D02*
X013508Y018803D01*
X013651Y018962D02*
X013969Y018962D01*
X013878Y019120D02*
X013809Y019120D01*
X013310Y018645D02*
X015871Y018645D01*
X013878Y020230D02*
X000380Y020230D01*
X000380Y020388D02*
X013457Y020388D01*
X013334Y020547D02*
X000380Y020547D01*
X000380Y020705D02*
X013302Y020705D01*
X013338Y020864D02*
X000380Y020864D01*
X000380Y021022D02*
X013204Y021022D01*
X013356Y021022D02*
X013469Y021022D01*
X013595Y021181D02*
X013810Y021181D01*
X013878Y021339D02*
X013658Y021339D01*
X013731Y021498D02*
X013878Y021498D01*
X013499Y021973D02*
X000380Y021973D01*
X000380Y021815D02*
X013341Y021815D01*
X013001Y021656D02*
X000380Y021656D01*
X000380Y021498D02*
X012911Y021498D01*
X012902Y021339D02*
X000380Y021339D01*
X000380Y021181D02*
X012965Y021181D01*
X013658Y022132D02*
X000380Y022132D01*
X000380Y022290D02*
X013878Y022290D01*
X013878Y022449D02*
X000380Y022449D01*
X000380Y022607D02*
X013878Y022607D01*
X013878Y022766D02*
X000380Y022766D01*
X000380Y022924D02*
X013922Y022924D01*
X013742Y020071D02*
X000380Y020071D01*
X000380Y019913D02*
X013583Y019913D01*
X013425Y019754D02*
X000380Y019754D01*
X000380Y019596D02*
X013266Y019596D01*
X013108Y019437D02*
X000380Y019437D01*
X000380Y019279D02*
X012924Y019279D01*
X012820Y019120D02*
X000380Y019120D01*
X000380Y018962D02*
X012802Y018962D01*
X012852Y018803D02*
X000380Y018803D01*
X000380Y018645D02*
X013050Y018645D01*
X020862Y016426D02*
X021298Y016426D01*
X021407Y016267D02*
X021020Y016267D01*
X021080Y016109D02*
X021516Y016109D01*
X021625Y015950D02*
X021080Y015950D01*
X021079Y015792D02*
X021734Y015792D01*
X021843Y015633D02*
X020920Y015633D01*
X020813Y015475D02*
X021951Y015475D01*
X022060Y015316D02*
X020971Y015316D01*
X021080Y015158D02*
X022169Y015158D01*
X022200Y014999D02*
X021080Y014999D01*
X021080Y014841D02*
X022200Y014841D01*
X022200Y014682D02*
X020969Y014682D01*
X020811Y014524D02*
X022200Y014524D01*
X022200Y014365D02*
X020922Y014365D01*
X021080Y014207D02*
X022200Y014207D01*
X022200Y014048D02*
X021080Y014048D01*
X021080Y013890D02*
X022200Y013890D01*
X022200Y013731D02*
X021018Y013731D01*
X020860Y013573D02*
X022200Y013573D01*
X022200Y013414D02*
X020873Y013414D01*
X021032Y013256D02*
X022200Y013256D01*
X022200Y013097D02*
X021080Y013097D01*
X021080Y012939D02*
X022200Y012939D01*
X022200Y012780D02*
X021067Y012780D01*
X020909Y012622D02*
X022209Y012622D01*
X021983Y012463D02*
X020824Y012463D01*
X020983Y012305D02*
X021789Y012305D01*
X021630Y012146D02*
X021080Y012146D01*
X021080Y011988D02*
X021472Y011988D01*
X021313Y011829D02*
X021080Y011829D01*
X021155Y011671D02*
X020958Y011671D01*
X020996Y011512D02*
X020799Y011512D01*
X016004Y006916D02*
X015852Y006916D01*
X015852Y006757D02*
X016004Y006757D01*
X016004Y006599D02*
X015852Y006599D01*
X015838Y006440D02*
X016018Y006440D01*
X018930Y028155D02*
X024141Y028155D01*
X023971Y028313D02*
X018930Y028313D01*
X018930Y028472D02*
X023812Y028472D01*
X023654Y028630D02*
X018930Y028630D01*
X018930Y028789D02*
X023495Y028789D01*
X023337Y028947D02*
X018930Y028947D01*
X016013Y031642D02*
X015843Y031642D01*
X015852Y031800D02*
X016004Y031800D01*
X016004Y031959D02*
X015852Y031959D01*
X016980Y032532D02*
X016991Y032521D01*
X016980Y032532D02*
X016980Y032600D01*
X016980Y034600D02*
X016988Y034608D01*
X016991Y034608D01*
X014240Y036714D02*
X000380Y036714D01*
X000380Y036555D02*
X014082Y036555D01*
X013923Y036397D02*
X000380Y036397D01*
X000380Y036238D02*
X013765Y036238D01*
X013606Y036080D02*
X000380Y036080D01*
X000380Y035921D02*
X013448Y035921D01*
X013335Y035763D02*
X000380Y035763D01*
X000380Y035604D02*
X013330Y035604D01*
X013330Y035446D02*
X000380Y035446D01*
X000380Y035287D02*
X013330Y035287D01*
X013330Y035129D02*
X000380Y035129D01*
X000380Y034970D02*
X013330Y034970D01*
X013330Y034812D02*
X000380Y034812D01*
X000380Y034653D02*
X013330Y034653D01*
X013330Y034495D02*
X000380Y034495D01*
X000380Y034336D02*
X013330Y034336D01*
X013330Y034178D02*
X000380Y034178D01*
X025780Y029600D02*
X028280Y032100D01*
X028280Y035900D01*
X027060Y036714D02*
X032470Y036714D01*
X032312Y036872D02*
X027060Y036872D01*
X027060Y037031D02*
X032153Y037031D01*
X031995Y037189D02*
X027143Y037189D01*
X027158Y037348D02*
X031836Y037348D01*
X031715Y037506D02*
X031352Y037506D01*
X031583Y037665D02*
X031588Y037665D01*
X031979Y037601D02*
X031979Y037981D01*
X031979Y037601D02*
X032980Y036600D01*
X034580Y036600D01*
X035580Y037600D01*
X035268Y037823D02*
X034030Y037823D01*
X033945Y037665D02*
X035202Y037665D01*
X035090Y037506D02*
X033715Y037506D01*
X033393Y037506D02*
X032927Y037506D01*
X033158Y037665D02*
X033163Y037665D01*
X032787Y037189D02*
X034773Y037189D01*
X034615Y037031D02*
X032945Y037031D01*
X032628Y037348D02*
X034932Y037348D01*
X033397Y038457D02*
X032923Y038457D01*
X033156Y038299D02*
X033165Y038299D01*
X032610Y038457D02*
X032136Y038457D01*
X032368Y038299D02*
X032377Y038299D01*
X031823Y038457D02*
X031348Y038457D01*
X031581Y038299D02*
X031590Y038299D01*
X031035Y038457D02*
X030561Y038457D01*
X030794Y038299D02*
X030803Y038299D01*
X030248Y038457D02*
X029774Y038457D01*
X030006Y038299D02*
X030015Y038299D01*
X029460Y038457D02*
X028986Y038457D01*
X029219Y038299D02*
X029228Y038299D01*
X028673Y038457D02*
X028199Y038457D01*
X028431Y038299D02*
X028440Y038299D01*
X027886Y038457D02*
X027411Y038457D01*
X027644Y038299D02*
X027653Y038299D01*
X027646Y037665D02*
X027651Y037665D01*
X027882Y037506D02*
X027415Y037506D01*
X028203Y037506D02*
X028669Y037506D01*
X028439Y037665D02*
X028433Y037665D01*
X028990Y037506D02*
X029456Y037506D01*
X029226Y037665D02*
X029221Y037665D01*
X029778Y037506D02*
X030244Y037506D01*
X030013Y037665D02*
X030008Y037665D01*
X030565Y037506D02*
X031031Y037506D01*
X030801Y037665D02*
X030795Y037665D01*
X032370Y037665D02*
X032376Y037665D01*
X032470Y037506D02*
X032606Y037506D01*
X032480Y029740D02*
X032266Y029740D01*
X033053Y029740D02*
X033267Y029740D01*
X033219Y028947D02*
X033101Y028947D01*
X032432Y028947D02*
X032314Y028947D01*
X031644Y028947D02*
X031527Y028947D01*
X030857Y028947D02*
X030739Y028947D01*
X030070Y028947D02*
X029952Y028947D01*
X029904Y029740D02*
X030118Y029740D01*
X030691Y029740D02*
X030905Y029740D01*
X031479Y029740D02*
X031692Y029740D01*
X026920Y028947D02*
X026802Y028947D01*
X025967Y029264D02*
X025957Y029264D01*
D23*
X025780Y029600D03*
X025280Y029800D03*
X024780Y030000D03*
X024280Y030200D03*
X027280Y028400D03*
X025980Y024400D03*
X025980Y023400D03*
X025980Y022400D03*
X026780Y021200D03*
X028280Y020300D03*
X028880Y018900D03*
X030080Y018300D03*
X030780Y019400D03*
X028080Y017000D03*
X028080Y016500D03*
X029380Y016600D03*
X030530Y014950D03*
X028880Y014100D03*
X027580Y013900D03*
X027280Y014300D03*
X025780Y013200D03*
X024980Y014100D03*
X023380Y014100D03*
X026480Y017000D03*
X023230Y019500D03*
X022780Y018100D03*
X020280Y020300D03*
X020280Y020900D03*
X020080Y021300D03*
X020830Y022350D03*
X021180Y022050D03*
X022730Y021900D03*
X024680Y021200D03*
X019780Y017600D03*
X019380Y018000D03*
X018980Y018400D03*
X018580Y018800D03*
X017880Y017200D03*
X018580Y020600D03*
X017480Y023300D03*
X016680Y024600D03*
X015680Y024600D03*
X018280Y024600D03*
X013680Y020700D03*
X013280Y021400D03*
X013180Y019000D03*
X013580Y012200D03*
X014580Y012200D03*
X012580Y011500D03*
X011580Y009800D03*
X013580Y008400D03*
X016180Y006100D03*
X016480Y005300D03*
X018180Y006100D03*
X019280Y005100D03*
X021180Y004200D03*
X017980Y007300D03*
X017530Y010400D03*
X016980Y012200D03*
X026330Y008200D03*
X028080Y012300D03*
X027780Y012800D03*
X030380Y012400D03*
X016680Y030200D03*
X015680Y030200D03*
X013730Y032500D03*
X017980Y033600D03*
X018180Y034500D03*
X018680Y035600D03*
X016680Y036600D03*
X014780Y038000D03*
X021780Y036100D03*
X022380Y037900D03*
X026780Y037300D03*
X027280Y036300D03*
X027780Y036100D03*
X028280Y035900D03*
X035580Y037600D03*
D24*
X018180Y034500D02*
X017080Y034500D01*
X016980Y034600D01*
X016980Y032600D02*
X017080Y032500D01*
X016980Y032600D02*
X016780Y032400D01*
X014880Y032400D01*
X014980Y032500D01*
X014886Y032500D01*
X014865Y032521D01*
X014886Y032500D02*
X013730Y032500D01*
X017480Y023300D02*
X017491Y022689D01*
X016991Y022009D01*
X016991Y022239D01*
X016991Y019923D02*
X014103Y019923D01*
X013180Y019000D01*
X014865Y019923D02*
X016991Y019923D01*
X023230Y019500D02*
X023230Y016850D01*
X025780Y014300D01*
X027280Y014300D01*
X034080Y020000D02*
X034579Y020000D01*
X034613Y019966D01*
X034080Y020000D02*
X032880Y021200D01*
X026780Y021200D01*
X024680Y021200D01*
X017530Y010400D02*
X016991Y010389D01*
X016991Y009411D01*
X016991Y007324D02*
X014865Y007324D01*
X016991Y007324D02*
X017556Y007324D01*
X017980Y007300D01*
D25*
X017948Y008368D02*
X018180Y008600D01*
X018180Y010700D01*
X017380Y011500D01*
X012580Y011500D01*
X012580Y014200D01*
X016680Y018400D01*
X018980Y018400D01*
X018580Y018800D02*
X016380Y018800D01*
X011580Y014000D01*
X011580Y009800D01*
X011969Y009411D01*
X014865Y009411D01*
X014865Y008368D02*
X013612Y008368D01*
X013580Y008400D01*
X016991Y008368D02*
X017948Y008368D01*
X016980Y012200D02*
X016980Y015400D01*
X017880Y017200D01*
X017280Y017600D02*
X019780Y017600D01*
X019380Y018000D02*
X016980Y018000D01*
X013580Y014400D01*
X013580Y012200D01*
X014580Y012200D02*
X014480Y014600D01*
X017280Y017600D01*
X018580Y020600D02*
X018214Y020966D01*
X016991Y020966D01*
X014865Y020966D02*
X013946Y020966D01*
X013680Y020700D01*
X013280Y021400D02*
X013889Y022009D01*
X014865Y022009D01*
X015680Y024600D02*
X015680Y030200D01*
X016680Y030200D02*
X016680Y024600D01*
X018080Y027000D02*
X018080Y033300D01*
X017980Y033600D01*
X017945Y033565D01*
X016991Y033565D01*
X014865Y033565D02*
X013915Y033565D01*
X013580Y033900D01*
X013580Y035700D01*
X014480Y036600D01*
X016680Y036600D01*
X015180Y035900D02*
X018380Y035900D01*
X018680Y035600D01*
X018680Y027000D01*
X020480Y024900D01*
X020480Y021200D01*
X020280Y020900D01*
X020080Y021300D02*
X020080Y024700D01*
X018080Y027000D01*
X025980Y024400D02*
X027980Y024400D01*
X029180Y025500D01*
X040780Y025500D01*
X043082Y022166D01*
X043487Y022166D01*
X043487Y021366D02*
X042682Y021366D01*
X040480Y024500D01*
X029180Y024500D01*
X027980Y023400D01*
X025980Y023400D01*
X025980Y022400D02*
X027980Y022400D01*
X029180Y023500D01*
X040180Y023500D01*
X042982Y019766D01*
X043487Y019766D01*
X015180Y035900D02*
X014865Y035585D01*
X014865Y034608D01*
M02*
