%
M48
M72
T01C0.0236
T02C0.0315
T03C0.0350
T04C0.0400
T05C0.1102
%
T01
X11580Y9800
X12580Y11500
X13580Y12200
X14580Y12200
X16980Y12200
X17530Y10400
X17980Y7300
X18180Y6100
X19280Y5100
X21180Y4200
X16480Y5300
X16180Y6100
X13580Y8400
X17880Y17200
X18980Y18400
X18580Y18800
X19380Y18000
X19780Y17600
X22780Y18100
X23230Y19500
X24680Y21200
X25980Y22400
X25980Y23400
X25980Y24400
X22730Y21900
X21180Y22050
X20830Y22350
X20080Y21300
X20280Y20900
X20280Y20300
X18580Y20600
X17480Y23300
X16680Y24600
X15680Y24600
X18280Y24600
X13680Y20700
X13280Y21400
X13180Y19000
X23380Y14100
X24980Y14100
X25780Y13200
X27280Y14300
X27580Y13900
X28880Y14100
X27780Y12800
X28080Y12300
X30380Y12400
X30530Y14950
X29380Y16600
X28080Y16500
X28080Y17000
X26480Y17000
X28880Y18900
X30080Y18300
X30780Y19400
X28280Y20300
X26780Y21200
X27280Y28400
X25780Y29600
X25280Y29800
X24780Y30000
X24280Y30200
X18680Y35600
X18180Y34500
X17980Y33600
X16680Y36600
X14780Y38000
X13730Y32500
X15680Y30200
X16680Y30200
X21780Y36100
X22380Y37900
X26780Y37300
X27280Y36300
X27780Y36100
X28280Y35900
X35580Y37600
X26330Y8200
T02
X43487Y19766
X43487Y20566
X43487Y21366
X43487Y22166
X33554Y29319
X32767Y29319
X31979Y29319
X31192Y29319
X30404Y29319
X29617Y29319
X28830Y29319
X28042Y29319
X27255Y29319
X26467Y29319
X26467Y37981
X27255Y37981
X28042Y37981
X28830Y37981
X29617Y37981
X30404Y37981
X31192Y37981
X31979Y37981
X32767Y37981
X33554Y37981
T03
X34613Y21966
X34613Y20966
X34613Y19966
X36613Y19966
X36613Y21966
T04
X31730Y14650
X31730Y13650
X31730Y12650
X31730Y11650
X31730Y10650
X31730Y9650
X22180Y7200
X21180Y7200
X21180Y6200
X21180Y5200
X22180Y5200
X22180Y6200
X20580Y12000
X19580Y12000
X19580Y13000
X19580Y14000
X19580Y15000
X20580Y15000
X20580Y14000
X20580Y13000
X20580Y16000
X19580Y16000
T05
X5771Y7187
X7739Y8368
X9708Y7187
X11676Y29234
X9708Y30415
X13645Y30415
X5771Y30415
X3802Y29234
X1834Y30415
M30
